<?xml version="1.0" encoding="UTF-8"?>
<svg version="1.1" xmlns="http://www.w3.org/2000/svg" width="512" height="512">
<path d="M0 0 C1.80143109 1.55123233 3.59294918 3.11404184 5.375 4.6875 C6.32890625 5.48542969 7.2828125 6.28335938 8.265625 7.10546875 C32.14230123 27.763169 47.94961525 59.15141956 50.375 90.6875 C52.33148769 126.514559 43.28820128 159.54009805 20.1328125 187.3828125 C9.4774733 201.35314612 10.82672448 220.95353595 13.05859375 237.5859375 C16.58020169 259.57612112 24.17385614 280.56513293 33.59350586 300.67382812 C34.81092561 303.81074725 34.82826158 306.38516563 34.375 309.6875 C32.61484869 312.8725357 31.87609084 313.52046972 28.375 314.6875 C26.45595273 314.78276491 24.53372786 314.81813607 22.61231995 314.82121277 C20.80996887 314.82761024 20.80996887 314.82761024 18.97120667 314.83413696 C17.63778683 314.83378744 16.30436703 314.83332591 14.97094727 314.83276367 C13.56814484 314.83575548 12.16534324 314.83915806 10.76254272 314.84294128 C6.9505855 314.85178276 3.13865072 314.85411945 -0.67331576 314.85475707 C-3.85431184 314.85570616 -7.03530267 314.85938442 -10.21629673 314.86292917 C-17.72012825 314.87107411 -25.22394777 314.87351335 -32.7277832 314.87280273 C-40.47184687 314.87220176 -48.21584092 314.88275745 -55.95988697 314.8985464 C-62.6062428 314.9116151 -69.25257585 314.91698692 -75.89894444 314.91634732 C-79.86957404 314.91609216 -83.84014177 314.91895349 -87.81075859 314.92952538 C-91.54455904 314.93919523 -95.27823832 314.93929324 -99.012043 314.93200874 C-101.03659398 314.93046191 -103.06114493 314.93881721 -105.0856781 314.94744873 C-106.29006531 314.94325424 -107.49445251 314.93905975 -108.7353363 314.93473816 C-109.78228385 314.93528293 -110.8292314 314.93582769 -111.90790462 314.93638897 C-114.70830559 314.67986911 -116.29779503 314.24000795 -118.625 312.6875 C-120.90193392 309.27209912 -121.45583999 306.55358952 -122.375 302.5625 C-124.67307839 293.36356372 -128.51025339 285.99329586 -136.625 280.6875 C-146.7057842 276.36466372 -156.50106098 277.46520895 -167.0625 279.1875 C-179.36133222 281.04039493 -191.43972738 282.63276887 -202.625 275.875 C-207.51616705 270.52528604 -208.20656427 264.98864168 -208.75 258.0625 C-208.89596727 256.38259603 -209.04432006 254.70289726 -209.1953125 253.0234375 C-209.25477051 252.28657715 -209.31422852 251.5497168 -209.37548828 250.79052734 C-209.62777839 248.66408218 -209.95165581 246.72201309 -210.625 244.6875 C-211.553125 244.254375 -211.553125 244.254375 -212.5 243.8125 C-215.76211422 242.08549836 -216.37812734 240.1163998 -217.625 236.6875 C-218.66157694 229.93101657 -217.00995159 225.50538554 -213.625 219.6875 C-214.04652344 219.28660156 -214.46804687 218.88570312 -214.90234375 218.47265625 C-218.66712178 214.5661454 -220.45407786 211.62988452 -220.74609375 206.17578125 C-220.52305707 201.59273725 -219.63536681 197.15482431 -218.625 192.6875 C-219.37523437 192.41550781 -220.12546875 192.14351562 -220.8984375 191.86328125 C-223.45946785 190.75888278 -225.15822243 189.68500844 -227.25 187.875 C-227.81976563 187.39417969 -228.38953125 186.91335938 -228.9765625 186.41796875 C-232.85423326 182.34733333 -234.07134279 178.97547106 -234.125 173.375 C-233.92993928 166.9163227 -232.66426065 163.60222272 -228.625 158.6875 C-227.76626156 157.60702965 -226.90968668 156.52483797 -226.0546875 155.44140625 C-224.61268798 153.61616926 -223.17052586 151.79113869 -221.72338867 149.9699707 C-211.85391945 137.47020669 -208.12914179 127.39401091 -208.57144165 111.34255981 C-208.89905 98.54268708 -208.59579136 86.19904533 -205.625 73.6875 C-205.46402832 72.98737793 -205.30305664 72.28725586 -205.13720703 71.56591797 C-196.93346326 37.15117346 -174.45803736 9.28028018 -144.65039062 -9.11914062 C-100.68387696 -35.02419352 -40.17096766 -32.24021868 0 0 Z " fill="#F4DACB" transform="translate(337.625,102.3125)"/>
<path d="M0 0 C0.87188965 0.16097168 1.7437793 0.32194336 2.64208984 0.48779297 C46.55553155 8.81000175 85.86066916 28.90567804 118.75390625 58.9765625 C120.52725596 60.57411928 122.31683982 62.08383492 124.1875 63.5625 C127.11578078 66.10034334 129.53780834 68.78529804 132.0390625 71.734375 C133.39273918 73.29838392 134.78654509 74.82823476 136.2109375 76.328125 C148.01571604 88.78235738 157.60748126 103.07352675 166 118 C166.36544922 118.63663574 166.73089844 119.27327148 167.10742188 119.92919922 C186.73892308 154.30133803 196.24669255 193.96269896 196.13037109 233.40014648 C196.12499861 235.56305925 196.13035798 237.72576525 196.13671875 239.88867188 C196.14801929 260.70396143 196.14801929 260.70396143 194 265 C195.25296875 264.95359375 196.5059375 264.9071875 197.796875 264.859375 C199.44789281 264.82185187 201.09893642 264.78545229 202.75 264.75 C203.575 264.71648437 204.4 264.68296875 205.25 264.6484375 C206.04921875 264.63554687 206.8484375 264.62265625 207.671875 264.609375 C208.4050293 264.58842773 209.13818359 264.56748047 209.89355469 264.54589844 C213.13596358 265.24488784 214.04270438 266.29013757 216 269 C216.61983672 272.51906102 216.55632036 276.01457515 216.53344727 279.58007812 C216.54206284 280.65688339 216.55067841 281.73368866 216.55955505 282.84312439 C216.58227657 286.40607672 216.57546474 289.96824654 216.56640625 293.53125 C216.57163885 296.00460037 216.57791398 298.47794874 216.58518982 300.95129395 C216.59560535 306.13640733 216.5910154 311.32124647 216.57641602 316.50634766 C216.55922176 323.1582862 216.58272554 329.80902281 216.61790562 336.46091461 C216.63984176 341.56868233 216.63844729 346.67624228 216.6301403 351.78404236 C216.62931881 354.23690233 216.63621979 356.68977727 216.65091133 359.14259338 C216.66828748 362.56891317 216.65387077 365.99366582 216.63110352 369.41992188 C216.64279572 370.43718857 216.65448792 371.45445526 216.66653442 372.50254822 C216.57456719 379.28847083 216.57456719 379.28847083 213.86654663 382.64201355 C210.45833798 384.25660482 208.26883902 384.42826267 204.50415039 384.30786133 C203.20832535 384.27916458 201.91250031 384.25046783 200.57740784 384.22090149 C199.88893831 384.19738428 199.20046879 384.17386707 198.49113655 384.14963722 C196.31479185 384.0809947 194.14052343 384.0472549 191.96324158 384.02433777 C185.7759657 383.95801971 179.59125922 383.87062989 173.40698242 383.66088867 C155.30600458 382.26719016 155.30600458 382.26719016 139.02416992 388.13378906 C135.904672 391.16636561 133.45367307 394.51093147 131.15921021 398.19674683 C129.61906489 400.59257798 127.75813767 402.51737098 125.73046875 404.5078125 C124.84669556 405.41829346 124.84669556 405.41829346 123.94506836 406.34716797 C115.58178784 414.80687192 106.69899697 422.12349928 97 429 C96.36739258 429.45068848 95.73478516 429.90137695 95.08300781 430.36572266 C68.39416249 449.19953959 38.50315617 462.08593138 6.5625 468.875 C5.21720215 469.16165527 5.21720215 469.16165527 3.84472656 469.45410156 C-11.21299001 472.43748949 -26.30492133 473.38537945 -41.625 473.3125 C-42.44938568 473.31034485 -43.27377136 473.3081897 -44.12313843 473.30596924 C-76.43730113 473.17120518 -105.73491824 466.11687582 -136 455 C-136 455.66 -136 456.32 -136 457 C-139.17206928 458.8597862 -141.49639238 459.2523906 -145.15489197 459.26069641 C-146.19651993 459.26778122 -147.23814789 459.27486603 -148.31134033 459.28216553 C-149.44859558 459.27968811 -150.58585083 459.27721069 -151.75756836 459.2746582 C-152.95956375 459.27976913 -154.16155914 459.28488007 -155.39997864 459.29014587 C-158.69344392 459.30166415 -161.98665752 459.3041155 -165.28012538 459.30158257 C-168.03112255 459.30051231 -170.78209654 459.30539764 -173.53308874 459.310188 C-180.02394857 459.32128036 -186.51475052 459.32172212 -193.00561523 459.31567383 C-199.69829589 459.30963331 -206.39076636 459.3219475 -213.08341116 459.3432439 C-218.8330052 459.36086567 -224.58253237 459.36686036 -230.33215243 459.36360615 C-233.76459854 459.36179406 -237.1968947 459.36442192 -240.62931633 459.37832069 C-244.45730703 459.39324146 -248.28503048 459.38392384 -252.11303711 459.37231445 C-253.24826813 459.37995819 -254.38349915 459.38760193 -255.5531311 459.39547729 C-256.59757889 459.38846298 -257.64202667 459.38144867 -258.71812439 459.3742218 C-259.62273879 459.37438954 -260.52735319 459.37455729 -261.45938015 459.37473011 C-264.56720956 458.91633912 -266.46158803 457.82117015 -269 456 C-270.67248377 452.65503246 -270.64433862 449.59594103 -270 446 C-268.17301912 441.82382556 -265.81709127 438.00672285 -263.4375 434.125 C-262.4124732 432.40357531 -261.38747431 430.68213324 -260.36416626 428.95968628 C-259.29849268 427.17054145 -258.22557605 425.38588736 -257.15185547 423.6015625 C-253.68597083 417.82358831 -250.35223866 411.96938306 -247 406.125 C-245.81333826 404.06462115 -244.62586757 402.00470795 -243.4375 399.9453125 C-242.87933594 398.96981445 -242.32117188 397.99431641 -241.74609375 396.98925781 C-240.52060683 394.89126259 -239.25944301 392.81389595 -237.97265625 390.75292969 C-237.32167969 389.69750977 -236.67070312 388.64208984 -236 387.5546875 C-235.401875 386.60835449 -234.80375 385.66202148 -234.1875 384.68701172 C-232.79870169 381.5445129 -232.90903876 380.21064078 -234 377 C-235.4646497 374.69275169 -235.4646497 374.69275169 -237.375 372.375 C-256.67329018 346.59799812 -269.14487236 315.27809155 -276 284 C-276.21317871 283.02756348 -276.42635742 282.05512695 -276.64599609 281.05322266 C-282.95099584 250.6282239 -282.63275805 216.32694853 -276 186 C-275.78569336 185.01386719 -275.57138672 184.02773437 -275.35058594 183.01171875 C-271.27962735 164.9264704 -265.51258251 146.88930596 -256.8359375 130.4609375 C-255.76037955 128.07629707 -255.76037955 128.07629707 -256.6171875 125.9453125 C-258.22127177 123.68871937 -259.94445789 121.59946757 -261.75 119.5 C-272.44519219 106.28144123 -277.27819877 89.84169385 -275.8203125 72.91357422 C-273.54830056 54.63850849 -265.59050949 39.96294637 -251.53125 27.96484375 C-237.37828101 16.97881998 -220.92901766 12.64666425 -203.11328125 14.41015625 C-189.9784189 16.08515532 -179.66407836 21.40836939 -169 29 C-167.515 29.99 -167.515 29.99 -166 31 C-165.23300781 30.53851563 -164.46601563 30.07703125 -163.67578125 29.6015625 C-139.04193848 15.12453063 -113.10827917 5.26456336 -85 0 C-84.1534082 -0.16371094 -83.30681641 -0.32742187 -82.43457031 -0.49609375 C-56.00632348 -5.39133733 -26.36315788 -5.07895542 0 0 Z M-156 45 C-155.67386719 45.66644531 -155.34773438 46.33289063 -155.01171875 47.01953125 C-147.00972456 63.89689363 -144.46492843 81.19015691 -150 99.265625 C-156.26350744 116.65509962 -166.68752836 128.37434053 -183 137 C-198.99171282 144.46427593 -216.71772725 144.70318124 -233.23046875 138.9375 C-235.82007514 138.06090545 -238.31908794 137.50856038 -241 137 C-255.02140673 168.49899188 -263.45718108 199.438008 -263.3125 234.125 C-263.31067719 235.03141235 -263.30885437 235.93782471 -263.30697632 236.8717041 C-263.26205122 250.13499682 -262.81239905 262.99542251 -260 276 C-259.75056641 277.23991699 -259.75056641 277.23991699 -259.49609375 278.50488281 C-253.66741136 307.20574665 -242.58238766 340.49486791 -223 363 C-222.34 363 -221.68 363 -221 363 C-219.52584971 360.92833382 -219.52584971 360.92833382 -218.06640625 358.2578125 C-217.49986328 357.27425781 -216.93332031 356.29070312 -216.34960938 355.27734375 C-215.46499023 353.71693359 -215.46499023 353.71693359 -214.5625 352.125 C-213.40346018 350.08233576 -212.23835738 348.04309652 -211.06640625 346.0078125 C-210.55021729 345.09660645 -210.03402832 344.18540039 -209.50219727 343.24658203 C-208 341 -208 341 -205 339 C-200.09394958 338.41792622 -200.09394958 338.41792622 -197 340 C-195.09692383 342.51611328 -195.09692383 342.51611328 -193.20703125 345.7578125 C-192.69295212 346.62849617 -192.69295212 346.62849617 -192.16848755 347.51676941 C-191.09877006 349.33700535 -190.04806015 351.16722485 -189 353 C-188.36715088 354.09078857 -187.73430176 355.18157715 -187.08227539 356.30541992 C-185.16393813 359.63228975 -183.26724574 362.97072799 -181.375 366.3125 C-179.9690968 368.78609637 -178.56102435 371.25845319 -177.15234375 373.73046875 C-176.80166336 374.34607666 -176.45098297 374.96168457 -176.0896759 375.59594727 C-172.18993846 382.43380583 -168.2285235 389.23551168 -164.23339844 396.01806641 C-161.45561284 400.74346749 -158.71649545 405.4829454 -156.07295227 410.28509521 C-154.75425367 412.67834791 -153.4215282 415.06367069 -152.08840942 417.44891357 C-151.15277599 419.13737494 -150.23802994 420.83735809 -149.32397461 422.53759766 C-145.73682174 428.94083781 -142.75748964 432.99524988 -136 436 C-135.19143555 436.36746338 -134.38287109 436.73492676 -133.54980469 437.11352539 C-130.82633066 438.28901814 -128.08214556 439.37550852 -125.3125 440.4375 C-124.30646729 440.82510498 -123.30043457 441.21270996 -122.26391602 441.61206055 C-105.24675107 448.04100438 -87.98232711 452.30136936 -70 455 C-69.33371582 455.1045752 -68.66743164 455.20915039 -67.98095703 455.31689453 C-24.30494766 461.21848729 22.47432121 451.92546445 61 431 C61.66193359 430.64824707 62.32386719 430.29649414 63.00585938 429.93408203 C84.76201089 418.35335545 103.97982608 402.79381819 121 385 C121 384.67 121 384.34 121 384 C120.16807129 383.98598145 120.16807129 383.98598145 119.31933594 383.97167969 C116.79533519 383.91784278 114.27316186 383.83422746 111.75 383.75 C110.87730469 383.73582031 110.00460937 383.72164063 109.10546875 383.70703125 C107.83896484 383.65869141 107.83896484 383.65869141 106.546875 383.609375 C105.38430176 383.5779541 105.38430176 383.5779541 104.19824219 383.54589844 C100.93781313 382.73622281 99.98689706 381.75106237 98 379 C97.39047054 375.50479998 97.46438741 372.03591529 97.49829102 368.49584961 C97.49018654 366.89286263 97.49018654 366.89286263 97.48191833 365.25749207 C97.46940238 361.72216165 97.48594086 358.18764094 97.50390625 354.65234375 C97.50375134 352.19901995 97.50226371 349.7456959 97.49949646 347.29237366 C97.49811121 342.15012803 97.51069292 337.0081609 97.53344727 331.8659668 C97.56184681 325.26576936 97.55909201 318.6660343 97.54635715 312.06580257 C97.53941175 307.00012748 97.54717603 301.93455978 97.55961418 296.86889839 C97.56413869 294.43476333 97.5644568 292.00061677 97.56054878 289.56648064 C97.55764741 286.16899738 97.57409227 282.7721579 97.59594727 279.37475586 C97.58919479 277.85748901 97.58919479 277.85748901 97.58230591 276.30957031 C97.59221054 275.38567001 97.60211517 274.46176971 97.61231995 273.50987244 C97.61596479 272.30504668 97.61596479 272.30504668 97.61968327 271.075881 C98.09949054 268.45695126 98.87714469 267.5719946 101 266 C103.51872503 265.69061019 105.79616781 265.56245768 108.31713867 265.56762695 C109.05884811 265.5574353 109.80055756 265.54724365 110.56474304 265.53674316 C113.01589451 265.50655337 115.46665559 265.49733837 117.91796875 265.48828125 C119.61763311 265.47143895 121.31728497 265.45328932 123.016922 265.43388367 C127.49014381 265.38632858 131.963315 265.35655498 136.43670654 265.33044434 C141.00152589 265.30066651 145.56617068 265.25412669 150.13085938 265.20898438 C159.08714838 265.12288867 168.04347324 265.05557135 177 265 C178.48588436 255.23497975 179.35578807 245.99656246 179.3125 236.125 C179.31067719 235.45735626 179.30885437 234.78971252 179.30697632 234.10183716 C179.03292391 173.88440071 154.25587989 118.95629761 112.4375 76.1875 C107.231736 71.09360772 101.74595321 66.4699664 96 62 C95.07703125 61.27167969 94.1540625 60.54335937 93.203125 59.79296875 C65.04382054 38.06464058 32.81621272 23.92400651 -2 17 C-2.87172852 16.82210937 -3.74345703 16.64421875 -4.64160156 16.4609375 C-54.72687862 6.68820051 -113.15961409 17.04009396 -156 45 Z " fill="#000000" transform="translate(288,21)"/>
<path d="M0 0 C21.59926035 17.40254542 35.28794589 40.03627701 39.734375 67.50390625 C40.14241452 72.47157318 40.21264012 77.39625287 40.171875 82.37890625 C40.16357666 83.69592529 40.15527832 85.01294434 40.14672852 86.36987305 C39.97843872 96.06061027 39.10015421 104.3965037 35.734375 113.50390625 C35.48236328 114.20257813 35.23035156 114.90125 34.97070312 115.62109375 C24.79192659 143.44796486 5.3128626 164.14433436 -21.41015625 176.78125 C-43.66243933 186.92187839 -73.08945839 188.88060221 -96.17480469 180.34277344 C-102.44877631 177.82556577 -108.39670146 174.85025132 -114.265625 171.50390625 C-115.26078125 170.94832031 -116.2559375 170.39273438 -117.28125 169.8203125 C-132.73909535 160.6118532 -144.42519767 146.96988064 -153.265625 131.50390625 C-153.72839844 130.72789062 -154.19117188 129.951875 -154.66796875 129.15234375 C-157.787628 123.51104299 -159.64472556 117.51985198 -161.515625 111.37890625 C-161.77424316 110.53126709 -162.03286133 109.68362793 -162.29931641 108.81030273 C-166.87664212 93.16525384 -167.17475384 74.32224154 -163.265625 58.50390625 C-163.04390625 57.46234375 -162.8221875 56.42078125 -162.59375 55.34765625 C-156.50243265 30.29280377 -139.36769418 8.24975433 -117.68823242 -5.35351562 C-81.31168753 -27.27392709 -34.06311012 -26.52569859 0 0 Z " fill="#E8EBED" transform="translate(321.265625,123.49609375)"/>
<path d="M0 0 C1.80143109 1.55123233 3.59294918 3.11404184 5.375 4.6875 C6.32890625 5.48542969 7.2828125 6.28335938 8.265625 7.10546875 C32.14230123 27.763169 47.94961525 59.15141956 50.375 90.6875 C52.33148769 126.514559 43.28820128 159.54009805 20.1328125 187.3828125 C9.4774733 201.35314612 10.82672448 220.95353595 13.05859375 237.5859375 C16.58020169 259.57612112 24.17385614 280.56513293 33.59350586 300.67382812 C34.81092561 303.81074725 34.82826158 306.38516563 34.375 309.6875 C32.61484869 312.8725357 31.87609084 313.52046972 28.375 314.6875 C26.45595273 314.78276491 24.53372786 314.81813607 22.61231995 314.82121277 C20.80996887 314.82761024 20.80996887 314.82761024 18.97120667 314.83413696 C17.63778683 314.83378744 16.30436703 314.83332591 14.97094727 314.83276367 C13.56814484 314.83575548 12.16534324 314.83915806 10.76254272 314.84294128 C6.9505855 314.85178276 3.13865072 314.85411945 -0.67331576 314.85475707 C-3.85431184 314.85570616 -7.03530267 314.85938442 -10.21629673 314.86292917 C-17.72012825 314.87107411 -25.22394777 314.87351335 -32.7277832 314.87280273 C-40.47184687 314.87220176 -48.21584092 314.88275745 -55.95988697 314.8985464 C-62.6062428 314.9116151 -69.25257585 314.91698692 -75.89894444 314.91634732 C-79.86957404 314.91609216 -83.84014177 314.91895349 -87.81075859 314.92952538 C-91.54455904 314.93919523 -95.27823832 314.93929324 -99.012043 314.93200874 C-101.03659398 314.93046191 -103.06114493 314.93881721 -105.0856781 314.94744873 C-106.29006531 314.94325424 -107.49445251 314.93905975 -108.7353363 314.93473816 C-109.78228385 314.93528293 -110.8292314 314.93582769 -111.90790462 314.93638897 C-114.70830559 314.67986911 -116.29779503 314.24000795 -118.625 312.6875 C-120.90193392 309.27209912 -121.45583999 306.55358952 -122.375 302.5625 C-124.67307839 293.36356372 -128.51025339 285.99329586 -136.625 280.6875 C-146.7057842 276.36466372 -156.50106098 277.46520895 -167.0625 279.1875 C-179.36133222 281.04039493 -191.43972738 282.63276887 -202.625 275.875 C-207.51616705 270.52528604 -208.20656427 264.98864168 -208.75 258.0625 C-208.89596727 256.38259603 -209.04432006 254.70289726 -209.1953125 253.0234375 C-209.25477051 252.28657715 -209.31422852 251.5497168 -209.37548828 250.79052734 C-209.62777839 248.66408218 -209.95165581 246.72201309 -210.625 244.6875 C-211.553125 244.254375 -211.553125 244.254375 -212.5 243.8125 C-215.76211422 242.08549836 -216.37812734 240.1163998 -217.625 236.6875 C-218.66157694 229.93101657 -217.00995159 225.50538554 -213.625 219.6875 C-214.04652344 219.28660156 -214.46804687 218.88570312 -214.90234375 218.47265625 C-218.66712178 214.5661454 -220.45407786 211.62988452 -220.74609375 206.17578125 C-220.52305707 201.59273725 -219.63536681 197.15482431 -218.625 192.6875 C-219.37523437 192.41550781 -220.12546875 192.14351562 -220.8984375 191.86328125 C-223.45946785 190.75888278 -225.15822243 189.68500844 -227.25 187.875 C-227.81976563 187.39417969 -228.38953125 186.91335938 -228.9765625 186.41796875 C-232.85423326 182.34733333 -234.07134279 178.97547106 -234.125 173.375 C-233.92993928 166.9163227 -232.66426065 163.60222272 -228.625 158.6875 C-227.76626156 157.60702965 -226.90968668 156.52483797 -226.0546875 155.44140625 C-224.61268798 153.61616926 -223.17052586 151.79113869 -221.72338867 149.9699707 C-211.85391945 137.47020669 -208.12914179 127.39401091 -208.57144165 111.34255981 C-208.89905 98.54268708 -208.59579136 86.19904533 -205.625 73.6875 C-205.46402832 72.98737793 -205.30305664 72.28725586 -205.13720703 71.56591797 C-196.93346326 37.15117346 -174.45803736 9.28028018 -144.65039062 -9.11914062 C-100.68387696 -35.02419352 -40.17096766 -32.24021868 0 0 Z M-107.625 -6.3125 C-108.70910156 -6.04566406 -109.79320312 -5.77882813 -110.91015625 -5.50390625 C-130.06200505 -0.26798161 -146.62160811 10.87887017 -160.625 24.6875 C-161.41777344 25.46738281 -162.21054688 26.24726563 -163.02734375 27.05078125 C-180.56745856 45.39237758 -191.67219814 71.56577676 -191.80078125 96.8828125 C-191.82399197 98.66928245 -191.8481098 100.45574081 -191.87304688 102.2421875 C-191.90797224 105.01960918 -191.93742272 107.79660531 -191.95092773 110.57421875 C-192.03294938 124.72736945 -192.96469689 137.05315804 -200.8125 149.3125 C-201.19615723 149.93294189 -201.57981445 150.55338379 -201.97509766 151.19262695 C-205.71554069 157.10295287 -210.07611286 162.380465 -214.625 167.6875 C-217.26184281 170.73853356 -217.26184281 170.73853356 -217.625 174.6875 C-215.29302444 176.36657938 -215.29302444 176.36657938 -212.375 177.9375 C-203.97632297 183.13668102 -203.97632297 183.13668102 -202.625 188.6875 C-202.08690989 194.73693728 -202.30450204 200.7452592 -203.625 206.6875 C-200.62359198 208.75096801 -197.95693679 209.94867104 -194.4375 210.75 C-190.625 211.6875 -190.625 211.6875 -188.625 213.6875 C-187.52199415 218.5237564 -187.52199415 218.5237564 -188.625 221.6875 C-191.31876963 224.34272602 -194.140945 226.51137491 -197.21875 228.70703125 C-198.0128125 229.36058594 -198.806875 230.01414062 -199.625 230.6875 C-199.96075971 233.766857 -199.96075971 233.766857 -197.8125 235.6875 C-192.65131617 242.76569497 -192.25632424 251.62498554 -191.8359375 260.1328125 C-191.90770171 262.62030552 -191.90770171 262.62030552 -190.625 263.6875 C-183.47387949 264.09859383 -176.48646341 263.97996273 -169.4375 262.6875 C-163.7006417 261.69102337 -158.11992977 261.46300148 -152.3125 261.4375 C-151.0582019 261.42396484 -151.0582019 261.42396484 -149.77856445 261.41015625 C-138.07771807 261.46602421 -127.24377251 265.3873524 -118.57421875 273.40625 C-112.50989397 280.50357599 -108.87206854 289.02865056 -105.625 297.6875 C-66.685 297.6875 -27.745 297.6875 12.375 297.6875 C11.65627817 293.37516901 11.0199739 290.36882779 9.484375 286.44140625 C4.11504141 272.35420866 -0.02851019 258.54391233 -2.625 243.6875 C-2.75487305 242.95772949 -2.88474609 242.22795898 -3.01855469 241.47607422 C-4.42119444 233.25864833 -4.80700588 225.13117856 -4.875 216.8125 C-4.8891394 215.52835205 -4.8891394 215.52835205 -4.90356445 214.21826172 C-4.8157292 197.09204536 1.33853883 184.36805615 11.75 171.0625 C17.28728155 163.7930432 21.36924664 155.87737449 25.375 147.6875 C25.808125 146.82769531 26.24125 145.96789062 26.6875 145.08203125 C32.61031293 132.01019803 33.73127345 117.32791637 33.75 103.1875 C33.75161133 102.03137207 33.75322266 100.87524414 33.75488281 99.68408203 C33.36244771 69.29652393 20.7356487 43.64127488 0.0625 21.9375 C-14.17018569 8.2088046 -31.57078168 -1.16097088 -50.625 -6.3125 C-51.57028564 -6.57289062 -52.51557129 -6.83328125 -53.48950195 -7.1015625 C-61.56345972 -9.16232317 -69.12231055 -9.78653833 -77.4375 -9.6875 C-78.66218994 -9.67879883 -79.88687988 -9.67009766 -81.14868164 -9.66113281 C-90.32063918 -9.51295314 -98.75763096 -8.68054884 -107.625 -6.3125 Z " fill="#020201" transform="translate(337.625,102.3125)"/>
<path d="M0 0 C21.59926035 17.40254542 35.28794589 40.03627701 39.734375 67.50390625 C40.14241452 72.47157318 40.21264012 77.39625287 40.171875 82.37890625 C40.16357666 83.69592529 40.15527832 85.01294434 40.14672852 86.36987305 C39.97843872 96.06061027 39.10015421 104.3965037 35.734375 113.50390625 C35.48236328 114.20257813 35.23035156 114.90125 34.97070312 115.62109375 C24.79192659 143.44796486 5.3128626 164.14433436 -21.41015625 176.78125 C-43.66243933 186.92187839 -73.08945839 188.88060221 -96.17480469 180.34277344 C-102.44877631 177.82556577 -108.39670146 174.85025132 -114.265625 171.50390625 C-115.26078125 170.94832031 -116.2559375 170.39273438 -117.28125 169.8203125 C-132.73909535 160.6118532 -144.42519767 146.96988064 -153.265625 131.50390625 C-153.72839844 130.72789062 -154.19117188 129.951875 -154.66796875 129.15234375 C-157.787628 123.51104299 -159.64472556 117.51985198 -161.515625 111.37890625 C-161.77424316 110.53126709 -162.03286133 109.68362793 -162.29931641 108.81030273 C-166.87664212 93.16525384 -167.17475384 74.32224154 -163.265625 58.50390625 C-163.04390625 57.46234375 -162.8221875 56.42078125 -162.59375 55.34765625 C-156.50243265 30.29280377 -139.36769418 8.24975433 -117.68823242 -5.35351562 C-81.31168753 -27.27392709 -34.06311012 -26.52569859 0 0 Z M-125.265625 21.50390625 C-125.95011719 22.17679688 -126.63460937 22.8496875 -127.33984375 23.54296875 C-144.86153862 41.92525767 -149.95939452 64.66291314 -149.6015625 89.30859375 C-148.92029121 107.68039731 -140.67254395 126.05008391 -128.265625 139.50390625 C-127.45480469 140.40625 -126.64398438 141.30859375 -125.80859375 142.23828125 C-111.73294714 157.15887882 -92.28773263 167.77870296 -71.53540039 168.61376953 C-68.48644566 168.67383502 -65.44014946 168.68950268 -62.390625 168.69140625 C-60.85341797 168.70977539 -60.85341797 168.70977539 -59.28515625 168.72851562 C-49.78735456 168.74661817 -41.24886357 167.21439588 -32.390625 163.81640625 C-31.70645508 163.5544043 -31.02228516 163.29240234 -30.31738281 163.02246094 C-7.64421524 154.05273981 8.23066967 137.40565522 17.94140625 115.38623047 C25.85160603 96.60924761 27.517026 71.62072786 19.734375 52.50390625 C10.00115039 29.40540029 -6.26560623 11.4562557 -29.4765625 1.5625 C-63.55355601 -11.37148493 -99.44354417 -4.27295202 -125.265625 21.50390625 Z " fill="#040303" transform="translate(321.265625,123.49609375)"/>
<path d="M0 0 C28.71 0 57.42 0 87 0 C87 28.71 87 57.42 87 87 C58.29 87 29.58 87 0 87 C0 58.29 0 29.58 0 0 Z " fill="#6CF5C2" transform="translate(401,302)"/>
<path d="M0 0 C10.11548303 7.59606011 16.82620629 18.55539576 19 31 C20.23967327 45.89217885 16.98366635 58.41984232 8.171875 70.5078125 C0.22440405 79.62739247 -10.12852724 85.09491968 -22 87 C-37.81738063 87.94977343 -48.86436474 84.96723355 -61.41015625 75.10546875 C-71.14067136 66.37637887 -76.47849438 54.27678259 -77.203125 41.38671875 C-77.39756092 26.04248406 -73.35302978 15.43821814 -62.6875 4.1875 C-44.25750298 -13.27414125 -20.93428449 -12.24643372 0 0 Z " fill="#89C8FD" transform="translate(106,61)"/>
<path d="M0 0 C3.77016416 1.25672139 4.00711403 2.29562331 5.86328125 5.72265625 C6.68783813 7.22397095 6.68783813 7.22397095 7.52905273 8.75561523 C8.41185913 10.39252319 8.41185913 10.39252319 9.3125 12.0625 C10.5788684 14.36821047 11.84714539 16.67287356 13.1171875 18.9765625 C13.44071701 19.5653569 13.76424652 20.15415131 14.09757996 20.76078796 C17.28124447 26.54347565 20.59477478 32.24575538 23.9375 37.9375 C25.08472789 39.89708128 26.23186202 41.85671746 27.37890625 43.81640625 C27.96043457 44.80914551 28.54196289 45.80188477 29.14111328 46.82470703 C32.21999218 52.08395302 35.29415454 57.34583603 38.35305786 62.61672974 C39.35843719 64.34650338 40.36851164 66.07354537 41.37866211 67.80053711 C41.98331299 68.84346924 42.58796387 69.88640137 43.2109375 70.9609375 C43.75024902 71.88696777 44.28956055 72.81299805 44.84521484 73.76708984 C46 76 46 76 46 78 C15.97 78 -14.06 78 -45 78 C-38.24499855 65.61583068 -38.24499855 65.61583068 -35.44140625 60.71484375 C-34.81556641 59.61986572 -34.18972656 58.5248877 -33.54492188 57.39672852 C-32.89072266 56.25518311 -32.23652344 55.1136377 -31.5625 53.9375 C-30.86391313 52.71737751 -30.1653458 51.49724382 -29.46679688 50.27709961 C-27.66896002 47.13807184 -25.86915495 44.00017725 -24.06866455 40.8626709 C-23.02030891 39.03539821 -21.97271032 37.20769347 -20.92529297 35.37988281 C-6.7716958 10.68759657 -6.7716958 10.68759657 0 0 Z " fill="#FEE076" transform="translate(85,385)"/>
<path d="M0 0 C2.19921875 1.36328125 2.19921875 1.36328125 4 4 C4.49559717 7.59451243 4.37531276 11.13038904 4.25 14.75 C4.23195313 15.73355469 4.21390625 16.71710938 4.1953125 17.73046875 C4.14824126 20.15463783 4.08250742 22.57682059 4 25 C5.39025391 25.43119141 5.39025391 25.43119141 6.80859375 25.87109375 C13.74005882 28.32298286 16.71715774 32.65130885 20.01953125 38.9140625 C22.86512884 44.96804304 23.09327259 50.7847297 20.94140625 57.11328125 C17.90890967 63.71245403 14.5710659 68.63465653 8 72 C6.67145754 72.35194292 5.33846288 72.68790064 4 73 C4.00888245 73.84302673 4.01776489 74.68605347 4.0269165 75.55462646 C4.1070705 83.50004193 4.16796841 91.44532158 4.20724869 99.39104843 C4.22812211 103.4760437 4.25643463 107.56070485 4.30175781 111.64550781 C4.3452253 115.58774345 4.36913895 119.52965777 4.37950897 123.47211456 C4.38689882 124.97604684 4.40132967 126.47996157 4.42292023 127.98375702 C4.45196812 130.09079459 4.45595571 132.19650529 4.45410156 134.30371094 C4.46298401 135.50284119 4.47186646 136.70197144 4.48101807 137.93743896 C3.90156442 141.62672276 2.93311781 142.76263691 0 145 C-2.9375 146 -2.9375 146 -6 146 C-8.74716387 144.22960551 -10.53145922 142.93708156 -12 140 C-12.09175034 137.87583 -12.11750694 135.74870545 -12.11352539 133.62255859 C-12.11367142 132.96877731 -12.11381744 132.31499603 -12.1139679 131.6414032 C-12.11327036 129.47704773 -12.1054854 127.31277796 -12.09765625 125.1484375 C-12.09579151 123.64913988 -12.09436787 122.14984166 -12.09336853 120.65054321 C-12.08954779 116.70168378 -12.07972128 112.75286104 -12.06866455 108.80401611 C-12.05844091 104.77559913 -12.05386887 100.74717622 -12.04882812 96.71875 C-12.03809862 88.81248315 -12.0210275 80.90624614 -12 73 C-12.9492334 72.69980957 -13.8984668 72.39961914 -14.87646484 72.09033203 C-20.55695904 70.10744262 -24.3519242 65.50743903 -27.4375 60.4375 C-30.32805903 53.97772894 -30.28266245 46.01940307 -28.15234375 39.34375 C-25.3689086 33.83349194 -21.12486988 29.42337233 -16 26 C-14.67454914 25.63658714 -13.34151752 25.29869658 -12 25 C-12.02618408 24.42032471 -12.05236816 23.84064941 -12.0793457 23.2434082 C-12.18370612 20.60005125 -12.24844327 17.95712801 -12.3125 15.3125 C-12.35439453 14.40048828 -12.39628906 13.48847656 -12.43945312 12.54882812 C-12.52380105 7.90969225 -12.53243336 5.72077713 -9.703125 1.890625 C-6.17072249 -0.5800149 -4.22506577 -0.6913744 0 0 Z " fill="#030404" transform="translate(301,133)"/>
<path d="M0 0 C2.36497439 1.86708505 3.66030715 3.32061431 5 6 C5.07531652 8.37957848 5.09123604 10.72957171 5.0625 13.10839844 C5.05305358 14.62562916 5.04387004 16.14286153 5.03491211 17.66009521 C5.02861786 18.46624016 5.02232361 19.2723851 5.01583862 20.10295868 C4.98888614 24.36811147 4.99874476 28.63322339 5.00390625 32.8984375 C5.01011445 38.3282281 5.00480466 43.75697831 4.94873047 49.18652344 C4.90440809 53.57254619 4.90394396 57.95665298 4.93286133 62.34278107 C4.93593905 64.01252199 4.92307024 65.68237287 4.89379883 67.35186005 C4.39526519 76.43157755 4.39526519 76.43157755 7.99890137 84.30561829 C10.27873795 85.816858 12.50679432 86.89528908 15 88 C17.15625 90.44921875 17.15625 90.44921875 18.5 92.6875 C18.9640625 93.43386719 19.428125 94.18023437 19.90625 94.94921875 C23.00445966 100.75836186 22.86515679 107.39865456 21.3515625 113.69921875 C19.2075008 119.68243366 16.14380603 124.20575168 11 128 C7.5625 129.4375 7.5625 129.4375 5 130 C5.04640625 130.66386719 5.0928125 131.32773437 5.140625 132.01171875 C5.31298869 136.22847321 5.34684946 139.24597943 3.5625 143.125 C0.29620659 145.51497079 -1.9180116 145.55972683 -5.87890625 145.56640625 C-8 145 -8 145 -9.765625 143.32421875 C-11.29947935 140.43610691 -11.30360352 138.50089846 -11.1875 135.25 C-11.16042969 134.26515625 -11.13335937 133.2803125 -11.10546875 132.265625 C-11.07066406 131.51796875 -11.03585938 130.7703125 -11 130 C-11.73089844 129.90589844 -12.46179688 129.81179688 -13.21484375 129.71484375 C-18.96487848 128.23902839 -23.39533299 123.58624523 -26.46875 118.6328125 C-29.56960524 111.70018613 -30.4127869 104.64589539 -28.1875 97.328125 C-25.35315101 90.83274189 -21.10018774 86.56844614 -15 83 C-13.67361226 82.64002161 -12.34071275 82.30228831 -11 82 C-11.00888245 81.0316925 -11.01776489 80.06338501 -11.0269165 79.06573486 C-11.10798204 69.94303746 -11.16795556 60.82041307 -11.20724869 51.69743729 C-11.22812886 47.00712327 -11.25645422 42.31709987 -11.30175781 37.62695312 C-11.34520044 33.10117484 -11.36913387 28.57567619 -11.37950897 24.04970551 C-11.38690321 22.32249295 -11.40134245 20.5952958 -11.42292023 18.86820221 C-11.45193394 16.44988361 -11.45595697 14.03272229 -11.45410156 11.61425781 C-11.47567322 10.54179306 -11.47567322 10.54179306 -11.49768066 9.44766235 C-11.46976913 6.08830938 -11.21243174 4.28697523 -9.19036865 1.55535889 C-5.98634494 -0.71978632 -3.8310598 -0.54729426 0 0 Z " fill="#040505" transform="translate(262,133)"/>
<path d="M0 0 C2.69921875 1.90625 2.69921875 1.90625 5 5 C5.72375974 9.23411085 5.43309103 13.50633074 5.2734375 17.78320312 C5.2734375 20.34465744 5.32463052 22.52669905 6 25 C7.64512064 26.54200923 9.16177395 27.31437855 11.22265625 28.21313477 C13.68081388 29.30140977 15.09256989 30.90339063 16.8125 32.9375 C17.37582031 33.58589844 17.93914062 34.23429687 18.51953125 34.90234375 C23.07030837 41.35027861 22.68156579 48.3906199 22 56 C20.37065696 62.10759726 16.0620138 67.29852746 11 71 C9.0095953 71.69479032 7.0100656 72.36432656 5 73 C5.01332367 74.24241707 5.01332367 74.24241707 5.0269165 75.50993347 C5.10712495 83.32259102 5.16799606 91.13510992 5.20724869 98.94808483 C5.22810753 102.96467365 5.25639332 106.98092173 5.30175781 110.99731445 C5.34527746 114.87471672 5.36914992 118.75179164 5.37950897 122.62941933 C5.38688947 124.10740626 5.40130214 125.58537563 5.42292023 127.06322289 C5.45203761 129.13653391 5.45595283 131.20849923 5.45410156 133.28198242 C5.46298401 134.46112717 5.47186646 135.64027191 5.48101807 136.85514832 C4.89806883 140.66641661 3.71687652 142.3087946 1 145 C-2.18934044 145.99666889 -4.06951017 146.31016328 -7.25 145.25 C-9 144 -9 144 -11 141 C-11.24050903 138.05769348 -11.24050903 138.05769348 -11.22705078 134.41723633 C-11.22734283 133.75355545 -11.22763489 133.08987457 -11.22793579 132.40608215 C-11.22654357 130.21459839 -11.21098779 128.02345555 -11.1953125 125.83203125 C-11.19158198 124.31174404 -11.18873519 122.79145442 -11.18673706 121.27116394 C-11.17910366 117.27130486 -11.15945774 113.27159121 -11.1373291 109.27178955 C-11.11686434 105.18967659 -11.107734 101.10754011 -11.09765625 97.02539062 C-11.07621152 89.01686037 -11.04207917 81.00844828 -11 73 C-11.928125 72.70867187 -12.85625 72.41734375 -13.8125 72.1171875 C-20.34906009 69.82618727 -23.13406367 66.23900095 -26.375 60.3125 C-29.61187812 53.29926407 -30.49485987 48.26793325 -27.921875 40.921875 C-24.94803519 34.28792465 -21.57098356 29.3653013 -15 26 C-13.67145754 25.64805708 -12.33846288 25.31209936 -11 25 C-11.02094727 24.38479492 -11.04189453 23.76958984 -11.06347656 23.13574219 C-11.14677017 20.34066191 -11.19870013 17.54584285 -11.25 14.75 C-11.30027344 13.29787109 -11.30027344 13.29787109 -11.3515625 11.81640625 C-11.45028113 4.65930535 -11.45028113 4.65930535 -9.19921875 1.36328125 C-5.91004014 -0.67565895 -3.7892085 -0.59829608 0 0 Z " fill="#030303" transform="translate(223,133)"/>
<path d="M0 0 C0.99 0.495 0.99 0.495 2 1 C1.26064209 1.69222656 1.26064209 1.69222656 0.50634766 2.3984375 C-10.08779365 12.40662513 -19.24019017 22.03220155 -26 35 C-26.36802734 35.69480469 -26.73605469 36.38960937 -27.11523438 37.10546875 C-32.15354042 46.76002378 -35.80896035 56.29427657 -38 67 C-38.17515137 67.79639893 -38.35030273 68.59279785 -38.53076172 69.41333008 C-40.63018436 80.08367841 -40.35714997 90.90726881 -40.38085938 101.73950195 C-40.43083888 115.35766796 -41.60958718 126.00654637 -49.625 137.4375 C-50.26489868 138.38109375 -50.26489868 138.38109375 -50.91772461 139.34375 C-54.58564916 144.65161816 -58.69911312 149.47672813 -63.06640625 154.21875 C-65.76761068 158.1041188 -66.39757956 161.78491389 -65.5625 166.4375 C-65.376875 166.953125 -65.19125 167.46875 -65 168 C-67.9719385 166.87548273 -70.33440687 165.77706209 -73 164 C-72.48237023 159.90150678 -71.46057383 158.02890496 -68.5625 155.125 C-56.60408159 142.17721604 -47.94689321 127.09089712 -47.7890625 109.16796875 C-47.76095153 107.38085088 -47.7322869 105.59374165 -47.703125 103.80664062 C-47.66224053 101.01408533 -47.62532674 98.22168386 -47.59863281 95.42895508 C-47.26186215 62.94510236 -37.05949733 35.57603007 -14 12 C-5.10194731 3.40129821 -5.10194731 3.40129821 0 0 Z " fill="#E9C4B6" transform="translate(193,113)"/>
<path d="M0 0 C0.33 0 0.66 0 1 0 C1 28.38 1 56.76 1 86 C28.06 86 55.12 86 83 86 C83 57.62 83 29.24 83 0 C84.32 0 85.64 0 87 0 C87 28.71 87 57.42 87 87 C58.29 87 29.58 87 0 87 C0 58.29 0 29.58 0 0 Z " fill="#1CCB90" transform="translate(401,302)"/>
<path d="M0 0 C3.77016416 1.25672139 4.00711403 2.29562331 5.86328125 5.72265625 C6.41298584 6.72353271 6.96269043 7.72440918 7.52905273 8.75561523 C8.11759033 9.84688721 8.70612793 10.93815918 9.3125 12.0625 C10.5788684 14.36821047 11.84714539 16.67287356 13.1171875 18.9765625 C13.44071701 19.5653569 13.76424652 20.15415131 14.09757996 20.76078796 C17.28124447 26.54347565 20.59477478 32.24575538 23.9375 37.9375 C25.08472789 39.89708128 26.23186202 41.85671746 27.37890625 43.81640625 C27.96043457 44.80914551 28.54196289 45.80188477 29.14111328 46.82470703 C32.21999218 52.08395302 35.29415454 57.34583603 38.35305786 62.61672974 C39.35843719 64.34650338 40.36851164 66.07354537 41.37866211 67.80053711 C41.98331299 68.84346924 42.58796387 69.88640137 43.2109375 70.9609375 C43.75024902 71.88696777 44.28956055 72.81299805 44.84521484 73.76708984 C46 76 46 76 46 78 C44.26953125 77.93359375 44.26953125 77.93359375 42 77 C40.38018384 74.70757446 39.03221077 72.51128318 37.6875 70.0625 C36.79948703 68.49999553 35.91146566 66.93749584 35.0234375 65.375 C34.54100586 64.51519531 34.05857422 63.65539062 33.56152344 62.76953125 C31.30579303 58.76874862 29.00050901 54.79710521 26.69946289 50.82226562 C22.3980291 43.39145388 18.11047297 35.95277294 13.85722351 28.49427795 C12.48738348 26.09323579 11.11402796 23.69421384 9.74032593 21.29537964 C8.7684704 19.59481963 7.80178605 17.89130768 6.83520508 16.18774414 C5.94998169 14.64268188 5.94998169 14.64268188 5.046875 13.06640625 C4.52963867 12.15834229 4.01240234 11.25027832 3.47949219 10.31469727 C1.64963711 7.45184974 0.04675557 5.52337778 -3 4 C-2.01 2.68 -1.02 1.36 0 0 Z " fill="#F4C760" transform="translate(85,385)"/>
<path d="M0 0 C2.75329021 1.79562405 4.52627461 3.05254922 6 6 C6.41204834 10.63554388 5.87454146 13.30416098 3 17 C0.3259797 19.10101595 -1.04284685 18.99846976 -4.5 18.875 C-8.29736911 17.92565772 -9.61471502 17.02747709 -12 14 C-13.42662219 11.14675563 -13.31033868 9.16545451 -13 6 C-9.24647283 0.36970925 -6.73139654 -0.57045733 0 0 Z " fill="#68EDBC" transform="translate(262,230)"/>
<path d="M0 0 C3.03978021 0.68164768 4.80055419 2.23591662 6.93359375 4.43359375 C8.38507278 7.3365518 8.305984 9.20621154 7.93359375 12.43359375 C5.47726813 16.7123545 5.47726813 16.7123545 2.93359375 18.43359375 C-0.24015081 19.24281253 -2.88519136 19.18719077 -6.06640625 18.43359375 C-9.11708047 16.44131671 -10.66067294 15.09676501 -11.5390625 11.49609375 C-11.8288256 7.5731471 -11.28527557 5.76189773 -9.06640625 2.43359375 C-5.71397384 0.19863881 -3.9372435 -0.24561254 0 0 Z " fill="#86C3F6" transform="translate(299.06640625,172.56640625)"/>
<path d="M0 0 C3.55247432 0.87379409 4.94828114 2.4927342 6.9375 5.4765625 C7.63619998 8.31717881 7.630647 10.63523266 6.9375 13.4765625 C5 16.4765625 5 16.4765625 1.9375 18.4765625 C-2.36563323 19.34178324 -5.77557798 19.19849437 -9.625 17.0390625 C-11.78443187 13.18964048 -11.92772074 9.77969573 -11.0625 5.4765625 C-8.0958762 0.93391981 -5.25883 -0.3784764 0 0 Z " fill="#FADC74" transform="translate(222.0625,172.5234375)"/>
<path d="M0 0 C9.06379198 7.96515052 14.40904634 18.48836098 15.2421875 30.48828125 C15.54164021 45.97664103 11.1688079 56.66331746 2 69 C1 66 1 66 2.109375 63.43359375 C2.65078125 62.44488281 3.1921875 61.45617187 3.75 60.4375 C10.55070094 47.16822537 12.51325299 33.48644938 8.3125 18.9375 C6.67568923 14.30766384 4.6374554 10.07465717 2.05078125 5.90234375 C0.96725984 3.94072692 0.44341377 2.1878328 0 0 Z " fill="#5DB0F5" transform="translate(110,65)"/>
<path d="M0 0 C1.98 0.66 3.96 1.32 6 2 C4.33333333 3.66666667 2.66666667 5.33333333 1 7 C0.113125 7.928125 -0.77375 8.85625 -1.6875 9.8125 C-4 12 -4 12 -6 12 C-6.66590221 17.21516411 -6.66590221 17.21516411 -4.734375 21.87890625 C-3.69412958 23.00752204 -2.61966695 24.10592082 -1.5078125 25.1640625 C2.28719058 29.78492117 2.26909398 35.15557724 2.125 40.875 C2.11597656 41.56335938 2.10695312 42.25171875 2.09765625 42.9609375 C2.07432513 44.64077838 2.03846326 46.32043746 2 48 C0.33388095 48.042721 -1.33382885 48.04063832 -3 48 C-4.77423014 46.22576986 -4.25604746 43.53237288 -4.375 41.125 C-5.08030124 31.37901923 -6.72612102 23.63039335 -13 16 C-11.93844996 15.0822334 -10.87570321 14.16585095 -9.8125 13.25 C-9.17699219 12.69828125 -8.54148438 12.1465625 -7.88671875 11.578125 C-6 10 -6 10 -3.125 8 C-0.42202324 5.45602187 -0.24764392 3.63211087 0 0 Z " fill="#E9C5B6" transform="translate(150,318)"/>
<path d="M0 0 C4.58151466 1.52717155 7.79607006 3.59214011 10 8 C10.46513064 14.3476652 9.73648052 20.70046123 9 27 C6.0625 26.25 6.0625 26.25 3 25 C1.593383 22.09299153 1.95907335 21.12277995 3 18 C3.49890335 11.3511534 3.77650061 5.66475091 0 0 Z " fill="#E9C5B6" transform="translate(132,285)"/>
<path d="M0 0 C7.77334162 2.59111387 12.31572903 9.22642636 15.9375 16.3125 C17.3009331 19.18264221 18.3247988 21.8940745 19 25 C17.02 25 15.04 25 13 25 C12.56429687 23.94941406 12.12859375 22.89882813 11.6796875 21.81640625 C8.40459483 14.05158027 5.12746309 6.76148979 0 0 Z " fill="#ECC7B9" transform="translate(219,375)"/>
<path d="M0 0 C5.55868029 8.33802043 5.44967793 18.87773846 5.3125 28.5625 C5.31572266 29.70396484 5.31894531 30.84542969 5.32226562 32.02148438 C5.26551174 41.05567019 4.56213188 49.62296446 1 58 C-0.16217994 54.5394108 0.19390417 52.11150387 0.921875 48.56640625 C2.10931791 41.97849697 2.29740891 35.61820584 2.25 28.9375 C2.25773437 27.84373047 2.26546875 26.74996094 2.2734375 25.62304688 C2.25856963 19.37482294 1.75284061 13.55012521 0.42871094 7.43969727 C-0.0155794 4.91134114 -0.07205501 2.56166995 0 0 Z " fill="#CACACF" transform="translate(340,176)"/>
<path d="M0 0 C2.05449993 3.0817499 2.74475809 5.3095757 3.625 8.875 C3.88539063 9.90367187 4.14578125 10.93234375 4.4140625 11.9921875 C4.95301116 14.75879061 5.11394368 17.19284196 5 20 C4.34 20 3.68 20 3 20 C2.49395076 17.60530271 1.99500483 15.20948283 1.5 12.8125 C1.28537109 11.80219727 1.28537109 11.80219727 1.06640625 10.77148438 C0.31930158 7.12490207 -0.17352282 3.72351043 0 0 Z " fill="#B3B3B8" transform="translate(340,176)"/>
<path d="M0 0 C1.98 0.66 3.96 1.32 6 2 C4.33333333 3.66666667 2.66666667 5.33333333 1 7 C0.113125 7.928125 -0.77375 8.85625 -1.6875 9.8125 C-4 12 -4 12 -6 12 C-6 11.34 -6 10.68 -6 10 C-5.195625 9.4225 -4.39125 8.845 -3.5625 8.25 C-0.47676483 5.540574 -0.27313136 4.00592666 0 0 Z " fill="#DABAAD" transform="translate(150,318)"/>
</svg>
