<?xml version="1.0" encoding="UTF-8"?>
<svg version="1.1" xmlns="http://www.w3.org/2000/svg" width="374" height="374">
<path d="M0 0 C1.0929095 -0.00453111 2.185819 -0.00906223 3.31184697 -0.01373065 C6.95722945 -0.02634443 10.60246195 -0.02475621 14.24786377 -0.02310181 C16.86846101 -0.02908892 19.48905649 -0.03589489 22.10964966 -0.04345703 C28.47957677 -0.06002351 34.84946686 -0.0655646 41.21941373 -0.06668179 C46.40072909 -0.06763432 51.5820323 -0.07175482 56.76334381 -0.07808304 C71.47478064 -0.09568346 86.18618836 -0.10492377 100.89763579 -0.10342209 C102.08565196 -0.10330222 102.08565196 -0.10330222 103.29766846 -0.10317993 C104.09065367 -0.10309817 104.88363888 -0.10301641 105.70065394 -0.10293217 C118.54680443 -0.10211958 131.39283759 -0.1212536 144.23895416 -0.14945666 C157.45028518 -0.17823115 170.66155905 -0.19199446 183.87292218 -0.19026911 C191.2816522 -0.18960679 198.6902592 -0.19502953 206.09896088 -0.21662521 C213.06923241 -0.2368138 220.03924076 -0.2361168 227.0095253 -0.22159195 C229.56159215 -0.2195055 232.11367533 -0.22419485 234.66571426 -0.23631287 C251.7020915 -0.31194162 265.43622398 0.15295634 279.83087158 10.26742554 C280.7841333 10.92678101 280.7841333 10.92678101 281.75665283 11.59945679 C291.27608431 18.92372003 297.28607838 31.52554609 298.83087158 43.26742554 C298.97849638 46.84719919 298.9743889 50.42415633 298.97131348 54.0065918 C298.97577016 55.63091883 298.97577016 55.63091883 298.98031688 57.28806055 C298.9889899 60.91742051 298.99051096 64.54674744 298.99200439 68.17611694 C298.99663357 70.77818878 299.00165837 73.38025995 299.00704956 75.98233032 C299.0206102 83.05280148 299.02665416 90.12326695 299.03106022 97.19374895 C299.03382669 101.61244736 299.03806479 106.0311436 299.04256439 110.44984055 C299.05475448 122.6948082 299.06505406 134.93977411 299.06843948 147.1847477 C299.06865905 147.96790282 299.06887862 148.75105794 299.06910484 149.55794504 C299.06932311 150.34292709 299.06954139 151.12790914 299.06976628 151.93667853 C299.07020974 153.52723352 299.07065631 155.11778851 299.07110596 156.70834351 C299.07132739 157.4973063 299.07154882 158.2862691 299.07177696 159.09913985 C299.07572258 171.87500081 299.09317057 184.65080466 299.11646548 197.42664357 C299.14021379 210.55763782 299.15264293 223.68860346 299.1538074 236.81961954 C299.15472225 244.18642501 299.16042639 251.55315605 299.17862701 258.91994095 C299.19569469 265.85237326 299.19725466 272.78466247 299.18848801 279.71710968 C299.18771855 282.25669355 299.19204819 284.79628506 299.20194626 287.33584976 C299.21469956 290.81285223 299.20877013 294.28935781 299.19836426 297.76635742 C299.21044886 299.26027557 299.21044886 299.26027557 299.22277761 300.78437388 C299.12407532 314.96512116 294.60878408 327.95548435 284.86993408 338.42367554 C275.99945815 346.44448903 264.16667373 352.38013746 252.06090355 352.3988533 C251.12418198 352.40269445 250.18746041 352.40653559 249.22235334 352.41049314 C248.20164672 352.40962665 247.1809401 352.40876017 246.12930298 352.40786743 C245.03840005 352.41083855 243.94749711 352.41380968 242.82353652 352.41687083 C239.1610975 352.42555561 235.49869118 352.42706591 231.83624268 352.42855835 C229.21299164 352.43318671 226.58974128 352.43821139 223.9664917 352.44360352 C216.83404696 352.45717332 209.70160785 352.46320962 202.56915236 352.46761417 C198.11277746 352.47037924 193.65640472 352.47461711 189.20003128 352.47911835 C176.8538775 352.49130992 164.50772545 352.50160902 152.16156578 352.50499344 C151.37168875 352.505213 150.58181173 352.50543257 149.76799903 352.50565879 C148.97626352 352.50587707 148.18452801 352.50609535 147.36880052 352.50632024 C145.76452343 352.5067637 144.16024633 352.50721026 142.55596924 352.50765991 C141.7601974 352.50788134 140.96442557 352.50810277 140.14453943 352.50833091 C127.25800861 352.51227664 114.37153441 352.52972428 101.48502545 352.55301943 C88.24445649 352.57676074 75.00391591 352.58919658 61.76332533 352.59036136 C54.33337992 352.59127663 46.90350826 352.59699146 39.47358322 352.61518097 C33.14513395 352.63061961 26.81678123 352.63568036 20.4883167 352.62744287 C17.26261149 352.62354942 14.03714012 352.62605045 10.81145096 352.63850021 C7.30558228 352.65123503 3.8002077 352.64533401 0.29434204 352.63491821 C-0.71298025 352.64297462 -1.72030254 352.65103102 -2.75814974 352.65933156 C-17.05984323 352.56037199 -29.47814993 347.63749298 -39.84490967 337.77523804 C-54.16839552 322.32031716 -53.75517722 305.0500985 -53.68670654 285.21273804 C-53.69213273 282.57182912 -53.69911477 279.93096511 -53.70794678 277.29006958 C-53.72565169 270.88587773 -53.72192812 264.48187432 -53.71029621 258.07767534 C-53.70123033 252.86879472 -53.70005146 247.65996659 -53.70439148 242.45108032 C-53.70500441 241.70724755 -53.70561734 240.96341479 -53.70624885 240.19704163 C-53.70752786 238.68554607 -53.70882472 237.17405051 -53.71013921 235.66255498 C-53.72152149 221.51837056 -53.70846837 207.37429016 -53.68693775 193.2301228 C-53.66906889 181.11685396 -53.67217366 169.00373849 -53.69061279 156.89047241 C-53.71206122 142.7938758 -53.72042307 128.69737016 -53.70816374 114.60075951 C-53.70688966 113.0950966 -53.70563217 111.58943368 -53.70439148 110.08377075 C-53.70346583 108.97280224 -53.70346583 108.97280224 -53.70252147 107.83938992 C-53.69908046 102.64205992 -53.70486983 97.44478804 -53.71430969 92.24746704 C-53.72557536 85.90604737 -53.72239441 79.56482552 -53.70118672 73.22342825 C-53.6907371 69.99332372 -53.68863426 66.7636127 -53.69978333 63.53350067 C-53.75823754 44.87162381 -53.14885551 29.31277605 -39.91522217 14.79476929 C-28.32362253 3.64971602 -15.67398932 -0.04817503 0 0 Z " fill="#673AB7" transform="translate(65.16912841796875,10.732574462890625)"/>
<path d="M0 0 C134.25 0 134.25 0 160.93359375 24.796875 C173.95826739 38.37270409 175.58640769 54.8162232 175.3125 72.66796875 C174.79240837 87.47974507 168.73710424 98.7858388 158.24609375 109.08984375 C155.9541976 111.03895195 153.6204375 112.53089708 151 114 C151.99 114.49628906 152.98 114.99257812 154 115.50390625 C167.98110536 122.63788212 177.1296615 130.22964802 183.4375 145.125 C188.50957166 161.82785668 186.17709071 183.80678071 178.5 199.34375 C169.09073214 216.00599517 155.10351847 224.95423968 137.1015625 230.44921875 C94.12537604 241.71249438 34.56183641 234 0 234 C0 156.78 0 79.56 0 0 Z " fill="#FEFDFE" transform="translate(100,70)"/>
<path d="M0 0 C13.303125 -0.12375 13.303125 -0.12375 26.875 -0.25 C29.65534668 -0.28641602 32.43569336 -0.32283203 35.30029297 -0.36035156 C37.53091665 -0.37204594 39.76154894 -0.38223599 41.9921875 -0.390625 C43.12857666 -0.41108887 44.26496582 -0.43155273 45.43579102 -0.45263672 C53.7926709 -0.45625834 60.70949293 0.91498283 67.5859375 5.859375 C74.44366639 13.10640727 78.45249747 20.31173105 78.26953125 30.44140625 C77.29836589 39.66043976 73.02826958 47.07563417 66 53 C57.80251708 57.65016123 50.30197399 58.70333711 41.015625 58.48828125 C39.96616699 58.48324585 38.91670898 58.47821045 37.83544922 58.47302246 C33.97334868 58.44716891 30.11164232 58.37736586 26.25 58.3125 C13.25625 58.1578125 13.25625 58.1578125 0 58 C0 38.86 0 19.72 0 0 Z " fill="#673AB7" transform="translate(159,207)"/>
<path d="M0 0 C7.610625 -0.061875 15.22125 -0.12375 23.0625 -0.1875 C25.45250244 -0.21481201 27.84250488 -0.24212402 30.30493164 -0.27026367 C32.21500138 -0.27903162 34.12507676 -0.28667483 36.03515625 -0.29296875 C37.01415894 -0.30831665 37.99316162 -0.32366455 39.00183105 -0.33947754 C48.24353417 -0.34299194 55.29968415 2.46824555 62 9 C67.13494512 16.41714295 68.84337544 23.02407563 68 32 C66.12072142 39.07559708 61.63158146 46.31106009 55.20965576 50.03941345 C48.90768526 53.13158786 43.57071992 53.53422517 36.62109375 53.390625 C35.68656372 53.38659668 34.75203369 53.38256836 33.78918457 53.37841797 C30.33841986 53.35768003 26.88793768 53.30183627 23.4375 53.25 C11.8359375 53.12625 11.8359375 53.12625 0 53 C0 35.51 0 18.02 0 0 Z " fill="#673AB7" transform="translate(159,109)"/>
</svg>
