<?xml version="1.0" encoding="UTF-8"?>
<svg version="1.1" xmlns="http://www.w3.org/2000/svg" width="374" height="374">
<path d="M0 0 C3.63279343 1.84704355 7.19735283 3.80471197 10.75146484 5.79833984 C11.58838867 6.2646582 12.4253125 6.73097656 13.28759766 7.21142578 C18.0405566 9.8663103 22.77684257 12.54943237 27.50537109 15.24755859 C33.97790568 18.93693403 40.48591771 22.56059622 47.00146484 26.17333984 C48.12689697 26.79781006 49.2523291 27.42228027 50.41186523 28.06567383 C53.85798947 29.97730116 57.30463792 31.88797984 60.75146484 33.79833984 C74.53603876 41.43826471 88.31319433 49.0880195 102.01855469 56.86938477 C107.28491579 59.854818 112.56714677 62.80938571 117.86865234 65.73193359 C118.77535675 66.23250778 118.77535675 66.23250778 119.70037842 66.74319458 C122.6412578 68.36664845 125.58403415 69.98628225 128.53076172 71.59912109 C148.73185868 82.73952134 148.73185868 82.73952134 151.75146484 91.79833984 C151.85215602 94.05021967 151.8908704 96.30501131 151.89863586 98.55912781 C151.90231255 99.25025046 151.90598924 99.94137311 151.90977734 100.65343887 C151.92081114 102.97477728 151.92465751 105.29607093 151.9284668 107.61743164 C151.93473173 109.279751 151.94137856 110.94206895 151.94837952 112.60438538 C151.96942051 118.06876653 151.97978261 123.53314796 151.98974609 128.99755859 C151.99379377 130.87917406 151.9979107 132.76078939 152.00209618 134.64240456 C152.0211487 143.48331994 152.03537905 152.32422696 152.04370815 161.16515893 C152.05347825 171.36704824 152.07979158 181.56872044 152.12020904 191.77053326 C152.15038281 199.65770421 152.16517826 207.54481297 152.16848916 215.43204051 C152.17083841 220.1417544 152.1797824 224.85123637 152.20495033 229.56088829 C152.22825783 233.99407616 152.23245357 238.42687985 152.22218895 242.86011314 C152.22169411 244.48383869 152.22799921 246.10758332 152.241745 247.73125076 C152.36365158 262.98944732 152.36365158 262.98944732 147.75146484 269.79833984 C145.83154297 271.64599609 145.83154297 271.64599609 143.78271484 272.86083984 C142.99251953 273.33908203 142.20232422 273.81732422 141.38818359 274.31005859 C140.51806641 274.80119141 139.64794922 275.29232422 138.75146484 275.79833984 C137.80916016 276.34103516 136.86685547 276.88373047 135.89599609 277.44287109 C132.69672427 279.25756689 129.47743107 281.03156175 126.25146484 282.79833984 C125.05946834 283.45524903 123.86774162 284.11264795 122.67626953 284.77050781 C120.8424459 285.7830061 119.00849493 286.79526279 117.17376709 287.80612183 C111.10146799 291.15199803 105.0492535 294.53337508 99.00146484 297.92333984 C97.97408203 298.49890625 96.94669922 299.07447266 95.88818359 299.66748047 C88.0513748 304.06144343 80.22918696 308.48099532 72.41015625 312.90649414 C62.27438464 318.64027153 52.11181321 324.32594413 41.94824219 330.01025391 C37.60143027 332.44160036 33.25540161 334.87434403 28.90966797 337.30761719 C26.78747313 338.49580177 24.66508202 339.68363587 22.54248047 340.87109375 C17.93292027 343.4508844 13.32627056 346.03526879 8.73193359 348.64208984 C7.61347046 349.27570435 7.61347046 349.27570435 6.47241211 349.92211914 C5.1239373 350.68690934 3.77666677 351.4538289 2.4309082 352.22338867 C-3.59335066 355.63832949 -8.37551135 356.84108092 -15.24853516 355.79833984 C-20.18059746 353.95694983 -24.67949895 351.38508596 -29.24853516 348.79833984 C-30.9594534 347.8425762 -32.67039224 346.88684944 -34.38134766 345.93115234 C-38.27900736 343.74377739 -42.16669215 341.53962817 -46.04931641 339.32568359 C-52.26381621 335.78311373 -58.50371406 332.2871074 -64.74853516 328.79833984 C-72.75997813 324.31839092 -80.76071798 319.82027766 -88.74853516 315.29833984 C-96.69613742 310.79989039 -104.65461791 306.32142484 -112.62353516 301.86083984 C-113.65526855 301.28309814 -114.68700195 300.70535645 -115.75 300.11010742 C-121.11583402 297.10669262 -126.48485741 294.10913456 -131.85791016 291.11865234 C-137.99923516 287.69812706 -144.12885478 284.25743191 -150.24853516 280.79833984 C-151.06225586 280.34023926 -151.87597656 279.88213867 -152.71435547 279.41015625 C-154.81724874 278.2197279 -156.90971349 277.01324512 -158.99853516 275.79833984 C-160.10712891 275.15896484 -161.21572266 274.51958984 -162.35791016 273.86083984 C-167.17512742 270.42369023 -170.42283863 266.50982775 -172.24853516 260.79833984 C-172.50580406 257.56611156 -172.50580406 257.56611156 -172.51596069 253.83500671 C-172.52049181 253.14625877 -172.52502292 252.45751082 -172.52969134 251.74789172 C-172.54232295 249.44652378 -172.54071579 247.14539286 -172.5390625 244.84399414 C-172.54504856 243.19123023 -172.55185429 241.53846911 -172.55941772 239.88571167 C-172.57707779 235.4000615 -172.58177313 230.91448764 -172.5830493 226.42880607 C-172.58447154 223.62476354 -172.58874254 220.82074037 -172.59404373 218.01670265 C-172.61254457 208.2297912 -172.62071434 198.44293422 -172.61914062 188.65600586 C-172.61793945 179.54066832 -172.63903683 170.42556765 -172.67062795 161.31029004 C-172.69680199 153.47827057 -172.70750744 145.64632841 -172.70622981 137.81426555 C-172.70572047 133.1392473 -172.71138778 128.46443954 -172.73258591 123.78946495 C-172.75198712 119.39070403 -172.75207998 114.99235397 -172.73755264 110.59357834 C-172.73546572 108.98275844 -172.74015851 107.3719127 -172.75227356 105.76113701 C-172.8589569 90.58944899 -172.8589569 90.58944899 -168.24853516 83.79833984 C-165.05964134 80.74466758 -161.52393891 78.69720559 -157.66259766 76.58349609 C-156.57914063 75.98666016 -155.49568359 75.38982422 -154.37939453 74.77490234 C-153.22246094 74.14326172 -152.06552734 73.51162109 -150.87353516 72.86083984 C-149.03723094 71.85113199 -147.20194665 70.83958822 -145.36676025 69.82785034 C-144.12366613 69.14256009 -142.88029718 68.45776812 -141.63665771 67.77346802 C-135.98184023 64.65976068 -130.36163942 61.48658704 -124.74853516 58.29833984 C-115.29529823 52.93698751 -105.80054841 47.65296258 -96.29541016 42.38427734 C-89.09395043 38.38894695 -81.91249851 34.36048411 -74.74853516 30.29833984 C-62.99539542 23.63537771 -51.18428037 17.07884619 -39.3671875 10.53027344 C-36.45573249 8.91340622 -33.54841347 7.28943223 -30.64306641 5.66162109 C-29.80686768 5.19393311 -28.97066895 4.72624512 -28.10913086 4.24438477 C-26.58439421 3.39110624 -25.06071552 2.5359332 -23.53833008 1.6784668 C-15.31632514 -2.91574211 -8.77456154 -4.16053289 0 0 Z " fill="#3949AB" transform="translate(198.24853515625,10.20166015625)"/>
<path d="M0 0 C8.07491598 7.23333503 19.65137103 17.86280743 22 29 C9.45704323 36.381002 -3.12250641 43.68734633 -15.8125 50.8125 C-16.88491943 51.41658691 -17.95733887 52.02067383 -19.06225586 52.64306641 C-20.55704468 53.479104 -20.55704468 53.479104 -22.08203125 54.33203125 C-22.96093018 54.82421143 -23.8398291 55.3163916 -24.74536133 55.82348633 C-27 57 -27 57 -30 58 C-30.804375 56.7315625 -30.804375 56.7315625 -31.625 55.4375 C-39.39914908 43.93823782 -50.52633553 35.72675826 -64 32 C-77.03607672 29.72704303 -91.91187752 29.09649833 -104 35 C-104.99 35.474375 -105.98 35.94875 -107 36.4375 C-121.27237748 44.01059826 -130.85070612 55.90359286 -136.4375 70.9375 C-140.82074489 86.83152712 -138.76717752 103.46564496 -131.4609375 118.078125 C-123.60903466 131.40031087 -111.54305995 141.01556287 -96.9375 146 C-78.57462698 150.20190557 -60.93751153 146.41161924 -45 137 C-38.5184526 132.29920269 -33.65490495 126.46597729 -29 120 C-24.70651775 120.60385622 -21.57025696 122.13560577 -17.80078125 124.24609375 C-17.21207245 124.57319839 -16.62336365 124.90030304 -16.01681519 125.23731995 C-14.11177527 126.29773553 -12.2121669 127.36749403 -10.3125 128.4375 C-9.00662085 129.16665102 -7.70038542 129.8951643 -6.39379883 130.62304688 C-3.79995298 132.06926917 -1.20813191 133.51901246 1.38183594 134.97216797 C5.40272619 137.22758608 9.4336522 139.46472031 13.46606445 141.69946289 C16.6463517 143.46217126 19.8232671 145.23089574 23 147 C21.40551249 160.67771317 2.91022687 175.92452178 -7 184 C-27.55216512 199.00832471 -51.91762734 208.44308109 -77.5 208.3125 C-78.63131348 208.30831055 -79.76262695 208.30412109 -80.92822266 208.29980469 C-114.24800873 207.85711071 -143.65687785 194.60249017 -167 171 C-190.47931685 145.60957597 -200.29012053 113.85247862 -199.14794922 79.7578125 C-197.83510066 55.28596882 -187.53002397 31.73377017 -172 13 C-171.30390625 12.15179688 -170.6078125 11.30359375 -169.890625 10.4296875 C-150.20589681 -12.487934 -121.35929671 -27.51354413 -91.14941406 -29.87109375 C-57.19423096 -31.90747911 -25.78255714 -22.7892262 0 0 Z " fill="#FDFEFE" transform="translate(268,98)"/>
<path d="M0 0 C3.63279343 1.84704355 7.19735283 3.80471197 10.75146484 5.79833984 C11.58838867 6.2646582 12.4253125 6.73097656 13.28759766 7.21142578 C18.0405566 9.8663103 22.77684257 12.54943237 27.50537109 15.24755859 C33.97790568 18.93693403 40.48591771 22.56059622 47.00146484 26.17333984 C48.12689697 26.79781006 49.2523291 27.42228027 50.41186523 28.06567383 C53.85798947 29.97730116 57.30463792 31.88797984 60.75146484 33.79833984 C74.53603876 41.43826471 88.31319433 49.0880195 102.01855469 56.86938477 C107.28491579 59.854818 112.56714677 62.80938571 117.86865234 65.73193359 C118.77535675 66.23250778 118.77535675 66.23250778 119.70037842 66.74319458 C122.6412578 68.36664845 125.58403415 69.98628225 128.53076172 71.59912109 C145.95689365 81.20919747 145.95689365 81.20919747 147.75146484 84.79833984 C140.72040924 89.20253047 133.68072149 93.45127044 126.36474609 97.36865234 C123.78284464 98.78117242 121.26611766 100.26974774 118.75146484 101.79833984 C113.51162768 104.97700884 108.14599717 107.89244536 102.75146484 110.79833984 C100.68837674 111.92226098 98.6258584 113.04722875 96.56396484 114.17333984 C94.95979818 115.04833984 93.35563151 115.92333984 91.75146484 116.79833984 C91.42275391 116.20408203 91.09404297 115.60982422 90.75537109 114.99755859 C75.40433379 88.24764806 49.21079371 70.00618629 19.75146484 61.79833984 C-10.04843087 53.94090376 -43.41508262 59.08535033 -70.01025391 74.23193359 C-75.79161168 77.66842294 -81.10663505 81.44586009 -86.24853516 85.79833984 C-87.03236572 86.45092773 -87.03236572 86.45092773 -87.83203125 87.11669922 C-107.84628553 103.94457504 -120.17155462 126.54195437 -126.24853516 151.79833984 C-126.51408203 152.90048828 -126.77962891 154.00263672 -127.05322266 155.13818359 C-132.31324763 182.55516309 -125.77936055 209.92690142 -114.24853516 234.79833984 C-115.37775391 235.41539795 -115.37775391 235.41539795 -116.52978516 236.04492188 C-119.44599209 237.64060732 -122.36082069 239.23874727 -125.27444458 240.83914185 C-126.58802722 241.5605797 -127.90188948 242.28150866 -129.21603394 243.00192261 C-136.33077056 246.9056096 -143.41182449 250.84806528 -150.37744141 255.01318359 C-151.46605469 255.66206543 -152.55466797 256.31094727 -153.67626953 256.97949219 C-155.73493392 258.21501149 -157.78727986 259.46113253 -159.83251953 260.71875 C-160.75484375 261.27224121 -161.67716797 261.82573242 -162.62744141 262.39599609 C-163.82735718 263.13088257 -163.82735718 263.13088257 -165.05151367 263.88061523 C-167.24853516 264.79833984 -167.24853516 264.79833984 -169.47485352 264.63598633 C-170.06016846 264.35956299 -170.6454834 264.08313965 -171.24853516 263.79833984 C-172.39450343 260.36043503 -172.38313433 257.70310795 -172.39570618 254.07551575 C-172.39938286 253.38847665 -172.40305955 252.70143755 -172.40684766 251.99357909 C-172.41788106 249.68606016 -172.42172776 247.37858628 -172.42553711 245.07104492 C-172.43180207 243.41857765 -172.4384489 241.76611178 -172.44544983 240.11364746 C-172.46649049 234.68173198 -172.47685291 229.24981623 -172.48681641 223.81787109 C-172.4908641 221.94739962 -172.49498103 220.0769283 -172.49916649 218.20645714 C-172.51821896 209.4178675 -172.53244931 200.62928626 -172.54077846 191.84067994 C-172.55054847 181.69935059 -172.57686157 171.55823964 -172.61727935 161.41698724 C-172.64745373 153.57652503 -172.66224863 145.73612537 -172.66555947 137.89560622 C-172.66790865 133.21383742 -172.67685179 128.53230193 -172.70202065 123.85059547 C-172.72532922 119.44367177 -172.72952346 115.03713451 -172.71925926 110.6301651 C-172.71876445 109.01611482 -172.7250688 107.40204533 -172.73881531 105.78805351 C-172.86101536 90.58498911 -172.86101536 90.58498911 -168.24853516 83.79833984 C-165.05964134 80.74466758 -161.52393891 78.69720559 -157.66259766 76.58349609 C-156.57914063 75.98666016 -155.49568359 75.38982422 -154.37939453 74.77490234 C-153.22246094 74.14326172 -152.06552734 73.51162109 -150.87353516 72.86083984 C-149.03723094 71.85113199 -147.20194665 70.83958822 -145.36676025 69.82785034 C-144.12366613 69.14256009 -142.88029718 68.45776812 -141.63665771 67.77346802 C-135.98184023 64.65976068 -130.36163942 61.48658704 -124.74853516 58.29833984 C-115.29529823 52.93698751 -105.80054841 47.65296258 -96.29541016 42.38427734 C-89.09395043 38.38894695 -81.91249851 34.36048411 -74.74853516 30.29833984 C-62.99539542 23.63537771 -51.18428037 17.07884619 -39.3671875 10.53027344 C-36.45573249 8.91340622 -33.54841347 7.28943223 -30.64306641 5.66162109 C-29.80686768 5.19393311 -28.97066895 4.72624512 -28.10913086 4.24438477 C-26.58439421 3.39110624 -25.06071552 2.5359332 -23.53833008 1.6784668 C-15.31632514 -2.91574211 -8.77456154 -4.16053289 0 0 Z " fill="#5C6BC0" transform="translate(198.24853515625,10.20166015625)"/>
<path d="M0 0 C1.65625 2.265625 1.65625 2.265625 3.5 5.25 C19.69031233 30.1878254 44.59480555 48.99428029 73.65625 56.29296875 C102.51058447 62.39417732 129.49893231 59.59214125 156 47 C157.18464844 46.443125 158.36929688 45.88625 159.58984375 45.3125 C176.11549336 36.97956638 189.65438106 24.21995269 200.24682617 9.17675781 C200.89421753 8.25781738 200.89421753 8.25781738 201.5546875 7.3203125 C201.93093262 6.77648926 202.30717773 6.23266602 202.69482422 5.67236328 C204.30604807 3.60785086 206.12240629 1.82200542 208 0 C208.59723877 0.34144043 209.19447754 0.68288086 209.80981445 1.03466797 C222.39112454 8.21608313 235.0368982 15.21453142 247.89013672 21.89648438 C252.95457294 24.54532165 257.97576648 27.27590929 263 30 C260.98974114 33.81712021 259.29693147 35.80736918 255.53515625 37.90625 C254.6445752 38.4115625 253.75399414 38.916875 252.83642578 39.4375 C251.90040527 39.953125 250.96438477 40.46875 250 41 C248.63657471 41.7734375 248.63657471 41.7734375 247.24560547 42.5625 C244.31716151 44.22223973 241.37855681 45.86272271 238.4375 47.5 C236.22003817 48.73825633 234.00259066 49.97653831 231.78515625 51.21484375 C230.09737061 52.15626221 230.09737061 52.15626221 228.37548828 53.11669922 C223.03935027 56.09391379 217.70682956 59.07757794 212.375 62.0625 C211.33980225 62.64193359 210.30460449 63.22136719 209.23803711 63.81835938 C202.31588623 67.69558696 195.40475728 71.59189314 188.5 75.5 C177.41839912 81.77220895 166.31022856 87.99635269 155.19677734 94.21191406 C150.84996543 96.64326052 146.50393676 99.07600419 142.15820312 101.50927734 C140.03600829 102.69746193 137.91361717 103.88529603 135.79101562 105.07275391 C131.18145542 107.65254456 126.57480571 110.23692895 121.98046875 112.84375 C120.86200562 113.4773645 120.86200562 113.4773645 119.72094727 114.1237793 C118.37247245 114.8885695 117.02520193 115.65548906 115.67944336 116.42504883 C109.65518449 119.83998965 104.8730238 121.04274108 98 120 C93.06793769 118.15860998 88.56903621 115.58674611 84 113 C82.28908176 112.04423636 80.57814292 111.08850959 78.8671875 110.1328125 C74.9695278 107.94543754 71.08184301 105.74128832 67.19921875 103.52734375 C60.98471894 99.98477389 54.7448211 96.48876756 48.5 93 C40.48855703 88.52005108 32.48781718 84.02193782 24.5 79.5 C16.55239773 75.00155055 8.59391724 70.523085 0.625 66.0625 C-0.4067334 65.4847583 -1.4384668 64.9070166 -2.50146484 64.31176758 C-7.86729887 61.30835278 -13.23632225 58.31079472 -18.609375 55.3203125 C-24.7507 51.89978722 -30.88031962 48.45909207 -37 45 C-38.22058105 44.31284912 -38.22058105 44.31284912 -39.46582031 43.61181641 C-41.56871358 42.42138806 -43.66117833 41.21490528 -45.75 40 C-47.41289063 39.0409375 -47.41289063 39.0409375 -49.109375 38.0625 C-52.45025133 35.67873959 -54.51144028 33.24434453 -57 30 C-54.18289535 28.12193023 -51.33031219 26.43983314 -48.390625 24.76171875 C-46.68507446 23.78706665 -46.68507446 23.78706665 -44.94506836 22.79272461 C-42.45694374 21.37443581 -39.96795416 19.95767004 -37.47875977 18.54125977 C-36.84812119 18.18238174 -36.2174826 17.82350372 -35.56773376 17.45375061 C-34.28077762 16.72142346 -32.99371832 15.98927757 -31.70655823 15.25730896 C-27.50391311 12.86480818 -23.31702051 10.44695643 -19.13671875 8.015625 C-18.08774414 7.41016846 -17.03876953 6.80471191 -15.95800781 6.1809082 C-13.97491911 5.03628838 -11.99622745 3.88400967 -10.02246094 2.72338867 C-9.13719727 2.21525635 -8.25193359 1.70712402 -7.33984375 1.18359375 C-6.57019287 0.73556396 -5.80054199 0.28753418 -5.00756836 -0.17407227 C-3 -1 -3 -1 0 0 Z " fill="#283593" transform="translate(85,246)"/>
<path d="M0 0 C0.88107422 -0.00322266 1.76214844 -0.00644531 2.66992188 -0.00976562 C19.78742267 0.12919564 34.41416432 7.26302663 46.4375 19.3125 C51.4375 25.19842233 51.4375 25.19842233 51.4375 29.3125 C50.89673828 29.6027002 50.35597656 29.89290039 49.79882812 30.19189453 C38.01830476 36.52898662 26.36367524 43.04149168 14.82836914 49.81469727 C2.42865054 57.09259884 -10.06441202 64.20535971 -22.5625 71.3125 C-23.67834473 71.94736328 -24.79418945 72.58222656 -25.94384766 73.23632812 C-29.10712558 75.03480658 -32.27191714 76.83058222 -35.4375 78.625 C-36.8452771 79.42466187 -36.8452771 79.42466187 -38.28149414 80.24047852 C-42.65795961 82.71578188 -47.03543318 85.12367066 -51.5625 87.3125 C-52.37737171 85.06333381 -53.18946918 82.81323022 -54 80.5625 C-54.34514648 79.61117187 -54.34514648 79.61117187 -54.69726562 78.640625 C-60.16589102 63.42358043 -58.90493344 46.86048984 -52.16015625 32.28125 C-44.4304739 17.61564241 -31.50539465 6.85054731 -15.79296875 1.6171875 C-10.48177308 0.10579417 -5.49386781 -0.10091601 0 0 Z " fill="#5C6BC0" transform="translate(186.5625,127.6875)"/>
<path d="M0 0 C1.9245436 0.92932152 3.82445611 1.91023405 5.70703125 2.921875 C6.84108398 3.5295874 7.97513672 4.1372998 9.14355469 4.76342773 C10.36667682 5.42535919 11.58965564 6.08755553 12.8125 6.75 C14.0627697 7.42336211 15.31309577 8.09661958 16.56347656 8.76977539 C28.13512129 15.01521005 39.59126999 21.4618687 51 28 C51 34.25519447 47.11628281 37.5412532 43 42 C30.16720023 54.37526361 15.27051607 58.43470294 -2.04077148 58.36352539 C-18.61607373 58.03640996 -31.48237125 50.99281982 -42.99243164 39.43945312 C-51 31.0875773 -51 31.0875773 -51 26 C-50.35788574 25.64397705 -49.71577148 25.2879541 -49.05419922 24.92114258 C-45.99274814 23.22133317 -42.93364902 21.51734634 -39.875 19.8125 C-38.75456299 19.18915771 -37.63412598 18.56581543 -36.47973633 17.92358398 C-30.79367463 14.74411281 -25.15279894 11.51999878 -19.58203125 8.140625 C-18.58768066 7.53887451 -17.59333008 6.93712402 -16.56884766 6.31713867 C-14.67521749 5.16398497 -12.78791732 4.00035959 -10.90771484 2.82543945 C-10.05516113 2.3068335 -9.20260742 1.78822754 -8.32421875 1.25390625 C-7.58260498 0.79314697 -6.84099121 0.3323877 -6.0769043 -0.14233398 C-3.46895563 -1.21929692 -2.60540931 -1.02832268 0 0 Z " fill="#283593" transform="translate(187,188)"/>
</svg>
