<?xml version="1.0" encoding="UTF-8"?>
<svg version="1.1" xmlns="http://www.w3.org/2000/svg" width="512" height="512">
<path d="M0 0 C1.25306946 -0.00686325 2.50613892 -0.0137265 3.79718018 -0.02079773 C7.21480946 -0.03590599 10.63189064 -0.03757539 14.04951239 -0.03185534 C16.91208791 -0.0287517 19.77461474 -0.03486907 22.63718331 -0.04089409 C29.3958592 -0.05491286 36.15440863 -0.05340068 42.91308594 -0.04199219 C49.86370315 -0.03051827 56.81393417 -0.04458017 63.7645005 -0.07138866 C69.75205716 -0.09361007 75.73949317 -0.10016847 81.72708809 -0.09431225 C85.29436823 -0.09095622 88.861401 -0.09326651 92.42864609 -0.11056328 C96.41091557 -0.12903173 100.39271736 -0.11477917 104.375 -0.09765625 C105.54207489 -0.10732422 106.70914978 -0.11699219 107.91159058 -0.12695312 C116.19630371 -0.05261816 123.43300484 1.21126694 129.97314453 6.58764648 C130.58158203 7.33143555 131.19001953 8.07522461 131.81689453 8.84155273 C132.44595703 9.58276367 133.07501953 10.32397461 133.72314453 11.08764648 C137.13612866 16.04818469 137.59719992 20.41884834 137.51220703 26.32983398 C137.50937714 27.07742477 137.50654724 27.82501556 137.50363159 28.59526062 C137.49248922 30.96919153 137.46739615 33.34273698 137.44189453 35.71655273 C137.43185703 37.33178164 137.42273252 38.94701649 137.41455078 40.56225586 C137.39256942 44.50966867 137.3580811 48.45679548 137.31689453 52.40405273 C138.16356689 52.39517029 139.01023926 52.38628784 139.88256836 52.37713623 C147.8856025 52.29678394 155.88849995 52.23598384 163.8918457 52.19680405 C168.00587255 52.17598363 172.11956437 52.14776863 176.23339844 52.10229492 C180.20807154 52.0586375 184.18242363 52.03487396 188.15731812 52.02454376 C189.66910857 52.01718787 191.18088267 52.00282374 192.6925354 51.98113251 C202.04002007 51.85241137 209.20902154 51.92798981 216.55908203 58.36889648 C223.46380287 66.71072429 224.46870292 73.99118244 224.4621582 84.7668457 C224.46719612 85.97564392 224.46719612 85.97564392 224.47233582 87.2088623 C224.4817812 89.85467092 224.48378561 92.50041584 224.48486328 95.14624023 C224.48808005 96.99797593 224.49144444 98.84971137 224.49494934 100.70144653 C224.50092438 104.57644235 224.50279089 108.45141592 224.50219727 112.32641602 C224.50209568 117.27461504 224.5157519 122.22267048 224.53296947 127.17083549 C224.54412512 130.99370979 224.54611539 134.81654973 224.54558754 138.63943863 C224.54676213 140.46295797 224.55115441 142.28647835 224.55891991 144.10998154 C224.56879313 146.66757838 224.56581321 149.22486819 224.55981445 151.7824707 C224.56543396 152.52457794 224.57105347 153.26668518 224.57684326 154.03128052 C224.52159088 163.3712553 222.61404391 171.29392346 216.31689453 178.40405273 C210.82604401 182.76351817 206.16598964 184.54221505 199.12939453 184.46655273 C198.04271484 184.4575293 196.95603516 184.44850586 195.83642578 184.43920898 C195.00498047 184.42760742 194.17353516 184.41600586 193.31689453 184.40405273 C193.3378418 185.26160156 193.35878906 186.11915039 193.38037109 187.00268555 C193.4486598 190.19323746 193.49874966 193.38341619 193.53662109 196.57446289 C193.55670095 197.95381954 193.58397119 199.33309143 193.61865234 200.7121582 C193.6673227 202.69762252 193.68775871 204.68371528 193.70751953 206.66967773 C193.7284668 207.86367188 193.74941406 209.05766602 193.77099609 210.2878418 C193.22462145 214.03726438 192.31112643 215.15603852 189.31689453 217.40405273 C185.21395826 218.61973756 183.20425627 218.8292469 179.31689453 216.96655273 C176.97147517 214.9631737 175.17687689 213.15380457 173.21142578 210.82592773 C169.04212405 206.0070569 164.54487019 201.55801901 160.00439453 197.09155273 C158.40181856 195.51447519 156.80145367 193.93514677 155.20361328 192.35327148 C154.50453857 191.66579834 153.80546387 190.9783252 153.08520508 190.27001953 C151.31689453 188.40405273 151.31689453 188.40405273 149.31689453 185.40405273 C146.82577184 185.11389714 144.58091403 185.01824711 142.08837891 185.05102539 C140.97086746 185.04778511 140.97086746 185.04778511 139.83078003 185.04447937 C138.20912122 185.04138671 136.58743912 185.04501502 134.96580505 185.05449295 C132.39186276 185.06821537 129.81869316 185.06180117 127.24475098 185.0496521 C119.92532399 185.01868259 112.60607275 185.02345485 105.28662109 185.04370117 C100.81019117 185.05467651 96.33433672 185.04129789 91.85798645 185.01380539 C90.15811008 185.0083931 88.45817515 185.01235598 86.75834656 185.02620316 C68.79535663 185.1706951 68.79535663 185.1706951 61.31689453 179.40405273 C55.39630515 173.09399047 52.99275252 167.38371282 53.12158203 158.69702148 C53.12441193 157.97162674 53.12724182 157.24623199 53.13015747 156.49885559 C53.14129654 154.19624905 53.16638887 151.89404047 53.19189453 149.59155273 C53.20193247 148.02450109 53.2110569 146.4574433 53.21923828 144.89038086 C53.24121523 141.06145295 53.27570114 137.23282017 53.31689453 133.40405273 C44.95830504 133.24498056 44.95830504 133.24498056 37.76611328 136.84545898 C36.81516813 137.85813676 35.8943582 138.89988614 35.00439453 139.96655273 C34.25416016 140.78736328 34.25416016 140.78736328 33.48876953 141.62475586 C32.06632428 143.1931403 30.68718329 144.79011001 29.31689453 146.40405273 C28.69427734 147.11432617 28.07166016 147.82459961 27.43017578 148.55639648 C26.35698897 149.78549421 25.28536577 151.01595901 24.21533203 152.24780273 C23.58884766 152.95936523 22.96236328 153.67092773 22.31689453 154.40405273 C21.8840918 154.9003418 21.45128906 155.39663086 21.00537109 155.90795898 C12.36773204 165.6707414 12.36773204 165.6707414 7.68408203 167.34545898 C5.11196355 167.477036 3.65451283 167.50216778 1.31689453 166.40405273 C-1.34024956 163.68750347 -2.58719295 162.06682889 -3.13720703 158.26611328 C-3.11625977 157.11925049 -3.0953125 155.9723877 -3.07373047 154.79077148 C-3.05439453 152.92001953 -3.05439453 152.92001953 -3.03466797 151.01147461 C-3.00115234 149.71790039 -2.96763672 148.42432617 -2.93310547 147.09155273 C-2.91505859 145.77864258 -2.89701172 144.46573242 -2.87841797 143.11303711 C-2.83133332 139.87596785 -2.76557589 136.64038221 -2.68310547 133.40405273 C-3.34479736 133.42218018 -4.00648926 133.44030762 -4.68823242 133.45898438 C-13.38577398 133.59812596 -20.08016791 132.19229701 -26.62060547 126.09155273 C-33.41769787 118.59076135 -33.834256 109.73377273 -33.82836914 100.04125977 C-33.83172775 99.23539429 -33.83508636 98.42952881 -33.83854675 97.59924316 C-33.84799213 94.95343454 -33.84999655 92.30768963 -33.85107422 89.66186523 C-33.85429099 87.81012954 -33.85765538 85.9583941 -33.86116028 84.10665894 C-33.86713532 80.23166312 -33.86900182 76.35668955 -33.8684082 72.48168945 C-33.86830661 67.53349043 -33.88196284 62.58543499 -33.89918041 57.63726997 C-33.91033606 53.81439568 -33.91232632 49.99155574 -33.91179848 46.16866684 C-33.91297306 44.3451475 -33.91736535 42.52162712 -33.92513084 40.69812393 C-33.93500406 38.14052709 -33.93202415 35.58323728 -33.92602539 33.02563477 C-33.93445465 31.91247391 -33.93445465 31.91247391 -33.9430542 30.77682495 C-33.89073291 21.93232814 -32.46663112 14.3701557 -26.14794922 7.81030273 C-18.29766785 0.51436926 -10.31150549 -0.0396361 0 0 Z " fill="#000101" transform="translate(160.68310546875,176.595947265625)"/>
<path d="M0 0 C0.87180908 0.00572021 1.74361816 0.01144043 2.6418457 0.01733398 C15.42729283 0.36805697 24.77564903 5.42730808 33.921875 14.08203125 C42.44257931 23.10782886 45.8415132 34.29645691 46.25 46.5 C45.75856581 59.95301089 39.83564397 70.44107984 31.25 80.5 C32.12398438 80.76941406 32.99796875 81.03882812 33.8984375 81.31640625 C52.07855005 87.73665579 66.18997394 103.3194417 74.51464844 120.2512207 C78.60362689 129.02522961 84.07704639 141.84238812 81.25 151.5 C78.72689288 154.55455525 77.20882409 156.29721859 73.27488708 157.1292057 C72.16508987 157.13109083 71.05529266 157.13297596 69.91186523 157.13491821 C67.99396683 157.15606689 67.99396683 157.15606689 66.037323 157.17764282 C64.62774303 157.16792212 63.21816656 157.15768132 61.80859375 157.14697266 C60.31844006 157.15375069 58.82829475 157.16265487 57.33816528 157.17352295 C53.29672298 157.19630141 49.25591945 157.18748636 45.21446609 157.17162752 C40.98337341 157.15896083 36.75233509 157.17071076 32.52124023 157.17855835 C25.41607858 157.1876527 18.31117687 157.17567275 11.20605469 157.15185547 C2.99372368 157.12464444 -5.21798666 157.13345876 -13.43030262 157.1609875 C-20.48355576 157.18368379 -27.53662215 157.18687616 -34.58990002 157.17379415 C-38.80150208 157.16600244 -43.01281248 157.16495016 -47.22439575 157.18147659 C-51.18419546 157.19592988 -55.14319568 157.18588501 -59.10290909 157.15700531 C-60.55532631 157.15039893 -62.00781093 157.15228468 -63.46020126 157.16331863 C-65.44406467 157.1769997 -67.42807526 157.15679348 -69.41186523 157.13491821 C-70.52166245 157.13303308 -71.63145966 157.13114796 -72.77488708 157.1292057 C-76.70882409 156.29721859 -78.22689288 154.55455525 -80.75 151.5 C-84.13478923 139.93705541 -76.36838002 124.28703974 -70.9609375 114.23828125 C-67.85322029 108.78938012 -63.98939426 104.1043238 -59.75 99.5 C-59.21117187 98.86964844 -58.67234375 98.23929687 -58.1171875 97.58984375 C-51.43685362 90.22133477 -41.70053295 84.60503398 -32.75 80.5 C-32.09 80.5 -31.43 80.5 -30.75 80.5 C-31.35328125 79.73816406 -31.9565625 78.97632812 -32.578125 78.19140625 C-42.23898324 65.71020068 -47.16493119 54.08941512 -45.25 37.8125 C-42.87221503 25.60952806 -36.25751724 15.08342084 -26.265625 7.65234375 C-17.93101115 2.38497134 -9.84649382 -0.07574964 0 0 Z " fill="#000001" transform="translate(255.75,7.5)"/>
<path d="M0 0 C9.8659669 8.80143097 14.42912987 21.00879551 15.25 33.9375 C14.76024335 47.51464269 9.6215933 58.60517119 1 69 C1.76183594 69.35191406 2.52367187 69.70382812 3.30859375 70.06640625 C10.25758511 73.38908252 16.14794438 77.01136242 22 82 C22.73863281 82.58265625 23.47726562 83.1653125 24.23828125 83.765625 C38.36860906 95.38226755 48.35295561 114.31105306 50.3828125 132.4140625 C50.66470869 140.13801808 50.66470869 140.13801808 48.36058044 143.12596893 C45.29911587 145.55642189 43.58260131 145.50273725 39.69946289 145.50793457 C38.40396515 145.51921387 37.10846741 145.53049316 35.77371216 145.54211426 C34.34002462 145.53433721 32.90633929 145.52614454 31.47265625 145.51757812 C29.96132737 145.52299883 28.45000377 145.53012121 26.93869019 145.53881836 C22.83535189 145.55706102 18.73241565 145.54998047 14.62907028 145.53730202 C10.33611716 145.52717916 6.0431986 145.5365657 1.75024414 145.54284668 C-5.45921005 145.55012518 -12.66850037 145.54053012 -19.87792969 145.52148438 C-28.21458156 145.49971517 -36.55084216 145.5067664 -44.88748455 145.52879 C-52.04344121 145.54693827 -59.19928003 145.54950515 -66.35525227 145.53903532 C-70.62995633 145.53279721 -74.90447644 145.53197339 -79.1791687 145.54518127 C-83.19793908 145.55673092 -87.21620469 145.54873074 -91.2349205 145.52560425 C-92.71033769 145.52031235 -94.18579732 145.52183922 -95.66119766 145.53065491 C-97.67393737 145.54157303 -99.68676985 145.52545815 -101.69946289 145.50793457 C-103.38961266 145.50567242 -103.38961266 145.50567242 -105.11390686 145.50336456 C-108.64442407 144.88760576 -109.82011191 143.78755871 -112 141 C-115.41243917 127.82698113 -106.4974376 111.04501188 -100 100 C-97.89866963 96.73612806 -95.61739515 93.86293921 -93 91 C-91.79923828 89.66195312 -91.79923828 89.66195312 -90.57421875 88.296875 C-83.99783118 81.33028209 -77.37077303 76.67487324 -69 72 C-67.56245547 71.16674348 -66.12494521 70.33342783 -64.6875 69.5 C-63.800625 69.005 -62.91375 68.51 -62 68 C-62.51949219 67.47792969 -63.03898437 66.95585937 -63.57421875 66.41796875 C-74.09293077 55.31596401 -76.50445325 44.53605874 -76.27734375 29.78515625 C-75.79621382 17.51275262 -69.02615169 7.18387093 -60.33203125 -1.14453125 C-42.2147537 -15.55945058 -17.82235578 -13.93176126 0 0 Z " fill="#010100" transform="translate(454,359)"/>
<path d="M0 0 C10.57652706 7.32454891 18.54657657 16.87009019 21.25 29.8125 C22.55026784 44.67859676 20.71678273 56.86068681 11.25 68.8125 C9.93674895 70.1656176 8.607978 71.50427551 7.25 72.8125 C8.15621094 73.30878906 9.06242187 73.80507813 9.99609375 74.31640625 C31.96670833 86.49744466 47.51020637 102.47887904 55.21875 126.87890625 C56.87090351 132.86796271 58.67411005 139.62266736 57.25 145.8125 C55.07457952 148.60683782 53.89593184 149.69984279 50.36390686 150.31586456 C49.23714035 150.31737267 48.11037384 150.31888077 46.94946289 150.32043457 C45.65396515 150.33171387 44.35846741 150.34299316 43.02371216 150.35461426 C41.59002462 150.34683721 40.15633929 150.33864454 38.72265625 150.33007812 C37.21132737 150.33549883 35.70000377 150.34262121 34.18869019 150.35131836 C30.08535189 150.36956102 25.98241565 150.36248047 21.87907028 150.34980202 C17.58611716 150.33967916 13.2931986 150.3490657 9.00024414 150.35534668 C1.79078995 150.36262518 -5.41850037 150.35303012 -12.62792969 150.33398438 C-20.96458156 150.31221517 -29.30084216 150.3192664 -37.63748455 150.34129 C-44.79344121 150.35943827 -51.94928003 150.36200515 -59.10525227 150.35153532 C-63.37995633 150.34529721 -67.65447644 150.34447339 -71.9291687 150.35768127 C-75.94793908 150.36923092 -79.96620469 150.36123074 -83.9849205 150.33810425 C-85.46033769 150.33281235 -86.93579732 150.33433922 -88.41119766 150.34315491 C-90.42393737 150.35407303 -92.43676985 150.33795815 -94.44946289 150.32043457 C-96.13961266 150.31817242 -96.13961266 150.31817242 -97.86390686 150.31586456 C-101.40183217 149.69881371 -102.5781615 148.61931637 -104.75 145.8125 C-107.71647896 132.96457733 -100.26178126 116.52772868 -93.75 105.8125 C-85.32367518 93.1331046 -75.14329236 84.20592291 -61.97265625 76.66015625 C-59.85699813 75.44717893 -57.77913224 74.16525483 -55.75 72.8125 C-56.26949219 72.24144531 -56.78898437 71.67039062 -57.32421875 71.08203125 C-64.29409748 62.97841994 -69.11172431 53.66318668 -69.75 42.8125 C-69.8325 41.595625 -69.915 40.37875 -70 39.125 C-69.7932504 27.24838412 -64.91039045 15.33031955 -56.8125 6.69140625 C-41.21318989 -7.51932891 -18.34125099 -11.06538283 0 0 Z " fill="#000100" transform="translate(112.75,354.1875)"/>
<path d="M0 0 C1.05426178 -0.00860046 2.10852356 -0.01720093 3.19473267 -0.02606201 C4.3563089 -0.03032196 5.51788513 -0.03458191 6.71466064 -0.03897095 C8.54406693 -0.05123718 8.54406693 -0.05123718 10.41043091 -0.06375122 C14.46138173 -0.08863917 18.51229517 -0.1052805 22.56329346 -0.11953735 C23.9580206 -0.1248972 25.35274767 -0.13027471 26.74747467 -0.13566971 C32.54993672 -0.15730011 38.35239598 -0.17603608 44.15488815 -0.1872921 C52.46879518 -0.2035261 60.78223446 -0.2366879 69.09596515 -0.29369295 C74.94233542 -0.3324118 80.7885807 -0.35192713 86.63507581 -0.35721266 C90.12642391 -0.36086398 93.61727316 -0.37286004 97.10848236 -0.4053154 C101.00599335 -0.44102786 104.90291902 -0.43702016 108.80059814 -0.42959595 C109.95407745 -0.44600128 111.10755676 -0.46240662 112.29598999 -0.47930908 C121.03398946 -0.41109314 121.03398946 -0.41109314 124.73336792 2.14923096 C127.78729858 6.16843737 127.8544172 8.88702872 127.76104736 13.81210327 C127.76834869 14.67286972 127.77565002 15.53363617 127.78317261 16.42048645 C127.79935581 19.2595162 127.77219451 22.09625223 127.74298096 24.93515015 C127.74194337 26.9114278 127.74298027 28.88770754 127.7460022 30.86398315 C127.74582288 35.00341661 127.72499284 39.14206998 127.68878174 43.28134155 C127.64340601 48.58450295 127.64231988 53.88652486 127.65581703 59.18982697 C127.66250345 63.26999013 127.64922391 67.34989398 127.62955856 71.43000793 C127.62186599 73.38520449 127.61955341 75.34042993 127.62273026 77.29563904 C127.62347295 80.0295496 127.59819828 82.76200531 127.56573486 85.49569702 C127.5706897 86.30208115 127.57564453 87.10846527 127.58074951 87.93928528 C127.4856461 92.96310455 126.64780563 95.64289308 123.01641846 99.15390015 C120.66883564 100.32769155 119.16811426 100.3079847 116.55157471 100.36483765 C115.66921143 100.39319702 114.78684814 100.4215564 113.87774658 100.45077515 C112.01596637 100.50274389 110.15395604 100.54704937 108.29180908 100.58358765 C107.40815674 100.61452515 106.52450439 100.64546265 105.61407471 100.67733765 C104.80462402 100.69715698 103.99517334 100.71697632 103.16119385 100.73739624 C100.49194283 101.25575051 99.60117012 101.96266546 98.01641846 104.15390015 C97.5181875 106.07355663 97.5181875 106.07355663 97.50469971 108.1656189 C97.45152588 109.30160522 97.45152588 109.30160522 97.39727783 110.46054077 C97.37471924 111.24622437 97.35216064 112.03190796 97.32891846 112.84140015 C97.2947583 113.6386853 97.26059814 114.43597046 97.22540283 115.25741577 C97.14303742 117.22241919 97.07804778 119.18813711 97.01641846 121.15390015 C96.35641846 121.15390015 95.69641846 121.15390015 95.01641846 121.15390015 C93.67657471 119.7906189 93.67657471 119.7906189 92.07891846 117.84140015 C88.93314933 114.13815295 85.63565929 110.65151923 82.20391846 107.21640015 C81.48377563 106.48973145 81.48377563 106.48973145 80.74908447 105.74838257 C76.2796771 101.29640596 73.65468091 101.00763312 67.52496338 101.01205444 C66.75241714 101.00858002 65.97987091 101.00510559 65.18391418 101.00152588 C63.50332041 100.99416517 61.82271689 100.98882147 60.14211082 100.98523521 C57.48150597 100.97807752 54.82108638 100.962416 52.16053772 100.94389343 C44.5948644 100.89139279 37.02929148 100.84344747 29.46343994 100.82797241 C24.8379068 100.81789021 20.2128379 100.78855868 15.58748817 100.7466526 C13.82489852 100.73433972 12.0622433 100.72922188 10.29961205 100.73145103 C7.83125677 100.73380436 5.3642325 100.71163644 2.89605713 100.68392944 C2.16911652 100.69053085 1.4421759 100.69713226 0.69320679 100.70393372 C-4.12883424 100.615146 -6.59655946 99.5766747 -9.98358154 96.15390015 C-11.5875293 92.94600463 -11.148851 89.45282916 -11.1605835 85.92807007 C-11.16715469 85.07749527 -11.17372589 84.22692047 -11.18049622 83.35057068 C-11.2002485 80.52850258 -11.21189593 77.70648773 -11.22186279 74.8843689 C-11.22593832 73.92157831 -11.23001385 72.95878773 -11.23421288 71.96682167 C-11.25508159 66.87122435 -11.26937999 61.77565403 -11.27874756 56.68002319 C-11.2898153 51.41391111 -11.32421716 46.14822119 -11.36391926 40.88225842 C-11.39005077 36.83563953 -11.3984363 32.78912176 -11.40202904 28.74242592 C-11.40690376 26.80114197 -11.41854286 24.8598628 -11.43706703 22.91866112 C-11.46138545 20.20140402 -11.46050693 17.48524617 -11.45355225 14.76791382 C-11.4663623 13.9661673 -11.47917236 13.16442078 -11.49237061 12.33837891 C-11.45716205 8.5637612 -11.13427718 6.38938525 -9.07920837 3.17802429 C-5.95448953 0.1599207 -4.23697025 0.02567578 0 0 Z " fill="#FCDE75" transform="translate(240.98358154296875,244.84609985351563)"/>
<path d="M0 0 C1.2411557 -0.0087616 2.4823114 -0.01752319 3.76107788 -0.02655029 C7.15824043 -0.04477077 10.55387779 -0.04052429 13.95095444 -0.02465487 C17.50939705 -0.01197642 21.06777547 -0.02374135 24.6262207 -0.03158569 C30.60151847 -0.04067668 36.57650702 -0.02870914 42.55175781 -0.00488281 C49.45537121 0.02232785 56.35824626 0.01351327 63.26184177 -0.01401484 C69.19409527 -0.03672094 75.12612677 -0.0398988 81.05840969 -0.02682149 C84.59933509 -0.01903505 88.13991368 -0.01796262 91.68081665 -0.03450394 C95.62864781 -0.05165872 99.57565512 -0.02786828 103.5234375 0 C104.69450043 -0.01012115 105.86556335 -0.02024231 107.07211304 -0.03067017 C114.96675376 0.07271212 114.96675376 0.07271212 118.99113464 2.97981262 C121.28225528 6.43109481 121.33772859 8.57451026 121.25 12.69775391 C121.23938789 13.68596382 121.23938789 13.68596382 121.2285614 14.69413757 C121.20072854 16.783773 121.13802694 18.87065742 121.07421875 20.95947266 C121.0491208 22.38195979 121.02631023 23.80448925 121.00585938 25.22705078 C120.95094321 28.70124127 120.8647556 32.17383816 120.76171875 35.64697266 C120.17004913 35.64839767 119.57837952 35.64982269 118.96878052 35.65129089 C112.77071687 35.67108672 106.57362501 35.72557054 100.37597656 35.79956055 C98.06777943 35.82265544 95.75947819 35.83711613 93.45117188 35.8425293 C90.11913812 35.85188086 86.78872282 35.89300935 83.45703125 35.93994141 C82.43682892 35.93600876 81.41662659 35.93207611 80.36550903 35.92802429 C75.11070822 36.03332329 71.43124457 36.5636682 66.8190918 39.15795898 C60.97706781 42.39765777 55.71199974 42.29382106 49.1484375 42.17822266 C47.97585892 42.1814856 46.80328033 42.18474854 45.59516907 42.18811035 C41.8793793 42.19789147 38.16489201 42.17639514 34.44921875 42.14697266 C29.53598085 42.10834309 24.62427695 42.10199428 19.7109375 42.11572266 C18.58693039 42.09610474 17.46292328 42.07648682 16.30485535 42.05627441 C9.99082262 42.04604205 9.99082262 42.04604205 4.51098633 44.94970703 C2.41818151 47.62695613 2.41818151 47.62695613 2.82421875 51.33447266 C3.48437733 54.69484548 3.48437733 54.69484548 5.76171875 56.64697266 C7.86151919 56.97713772 7.86151919 56.97713772 10.30322266 56.96582031 C11.24404694 56.98569 12.18487122 57.00555969 13.15420532 57.02603149 C14.17195038 57.0375827 15.18969543 57.04913391 16.23828125 57.06103516 C17.27866547 57.08040131 18.31904968 57.09976746 19.39096069 57.11972046 C22.72279595 57.17962993 26.05466554 57.22594717 29.38671875 57.27197266 C31.64194238 57.31014196 33.89715127 57.34919306 36.15234375 57.38916016 C41.68868275 57.48534084 47.22508999 57.56932982 52.76171875 57.64697266 C52.76171875 62.26697266 52.76171875 66.88697266 52.76171875 71.64697266 C51.42471924 71.65108154 50.08771973 71.65519043 48.71020508 71.65942383 C43.74318039 71.68121807 38.77694752 71.73551148 33.81030273 71.79956055 C31.66194251 71.82273788 29.51346871 71.83713563 27.36499023 71.8425293 C24.27385702 71.85182056 21.18450963 71.89281617 18.09375 71.93994141 C16.65597954 71.93404243 16.65597954 71.93404243 15.18916321 71.92802429 C10.55267194 72.02915629 8.4280436 72.13628573 4.65112305 75.03100586 C2.62101662 77.47612197 2.62101662 77.47612197 2.19921875 80.20947266 C2.98955255 83.63425247 3.88380231 84.57414287 6.76171875 86.64697266 C10.23781669 87.27504463 13.68962979 87.25195294 17.21484375 87.25634766 C18.23020203 87.27288391 19.2455603 87.28942017 20.29168701 87.30645752 C23.5317587 87.35500656 26.7713608 87.37632426 30.01171875 87.39697266 C32.20965913 87.42512649 34.40757757 87.45505308 36.60546875 87.48681641 C41.99084677 87.56076773 47.37596305 87.61030045 52.76171875 87.64697266 C52.76171875 91.60697266 52.76171875 95.56697266 52.76171875 99.64697266 C51.57835937 99.61474609 50.395 99.58251953 49.17578125 99.54931641 C38.27352531 99.41371413 38.27352531 99.41371413 29.07421875 104.70947266 C27.58885238 106.31223912 26.14808241 107.95783992 24.76171875 109.64697266 C24.10945313 110.38431641 23.4571875 111.12166016 22.78515625 111.88134766 C21.6427734 113.17442781 20.52015391 114.48560101 19.4296875 115.82275391 C17.40032285 118.04222297 15.14202724 119.81627699 12.76171875 121.64697266 C12.7359375 120.46619141 12.71015625 119.28541016 12.68359375 118.06884766 C12.62730478 116.51151942 12.56995761 114.95422919 12.51171875 113.39697266 C12.49044922 112.23101562 12.49044922 112.23101562 12.46875 111.04150391 C12.31990902 107.55862508 12.07465533 105.19976996 10.33984375 102.13525391 C6.3106142 99.80928958 2.3348556 100.08773918 -2.23828125 100.08447266 C-4.03006225 100.07551375 -5.82183505 100.05384233 -7.61328125 100.01806641 C-8.40476563 100.01734131 -9.19625 100.01661621 -10.01171875 100.01586914 C-12.81938719 99.55069513 -14.17588313 98.58245834 -16.23828125 96.64697266 C-17.50476981 92.84750698 -17.41017532 89.26781206 -17.43115234 85.30761719 C-17.43932983 84.45689636 -17.44750732 83.60617554 -17.45593262 82.72967529 C-17.4807558 79.91305239 -17.49729286 77.09647971 -17.51171875 74.27978516 C-17.51704243 73.31791164 -17.5223661 72.35603813 -17.5278511 71.36501694 C-17.55456659 66.27590482 -17.57394847 61.18681712 -17.58837891 56.09765625 C-17.60504235 50.83932329 -17.6498389 45.58161516 -17.70075035 40.32351875 C-17.73438354 36.28119171 -17.74595187 32.23901391 -17.75160599 28.19655991 C-17.75832701 26.25804736 -17.77357113 24.31954491 -17.7974968 22.38116837 C-17.82907355 19.66863019 -17.82919688 16.95779046 -17.82177734 14.24511719 C-17.83818268 13.44494171 -17.85458801 12.64476624 -17.87149048 11.82034302 C-17.83044764 8.15451239 -17.33911121 5.81754517 -15.46670532 2.65002441 C-10.47342332 -0.44802035 -5.76689629 -0.0498416 0 0 Z " fill="#69F2BF" transform="translate(161.23828125,193.35302734375)"/>
<path d="M0 0 C2.4921875 1.8203125 2.4921875 1.8203125 4.875 4.125 C5.73480469 4.9396875 6.59460938 5.754375 7.48046875 6.59375 C8.31191406 7.3878125 9.14335937 8.181875 10 9 C11.38862764 10.21660734 12.7838454 11.42576112 14.1875 12.625 C20.65789689 18.27685271 26.48150558 24.42187072 32 31 C32.6202002 31.73355713 32.6202002 31.73355713 33.25292969 32.48193359 C46.81445318 48.62082609 58.34129652 66.27253615 68 85 C68.34724121 85.66854004 68.69448242 86.33708008 69.05224609 87.02587891 C86.20185897 120.48114378 93.43355993 156.90902328 97 194 C97.69867188 192.92878906 98.39734375 191.85757813 99.1171875 190.75390625 C100.03621435 189.35661033 100.95549853 187.95948364 101.875 186.5625 C102.33519531 185.85544922 102.79539062 185.14839844 103.26953125 184.41992188 C103.71425781 183.74638672 104.15898437 183.07285156 104.6171875 182.37890625 C105.02565918 181.7557251 105.43413086 181.13254395 105.85498047 180.49047852 C107 179 107 179 109 178 C113.33327174 177.50944093 115.32000344 177.52255561 118.9375 180.0625 C121.6130685 183.87315817 121.57422367 185.38324173 121 190 C119.39705654 193.45695036 117.34596275 196.57378082 115.25 199.75 C114.66742432 200.65943359 114.08484863 201.56886719 113.48461914 202.50585938 C112.27126221 204.39901718 111.05185767 206.2883116 109.82666016 208.17382812 C108.05979039 210.90749351 106.3263978 213.65910529 104.60546875 216.421875 C103.54950849 218.11460163 102.49352013 219.80731072 101.4375 221.5 C100.94991211 222.28213867 100.46232422 223.06427734 99.95996094 223.87011719 C93.38085875 234.30957063 93.38085875 234.30957063 90 236 C86.02588929 236.54192419 84.44906416 236.32128667 81.14453125 233.95703125 C77.59466453 230.84746659 75.06209411 227.20672579 72.4375 223.3125 C71.40155523 221.79823544 70.36372574 220.2852589 69.32421875 218.7734375 C68.78716309 217.99194336 68.25010742 217.21044922 67.69677734 216.40527344 C65.96226236 213.94650486 64.16183351 211.55260881 62.33203125 209.1640625 C61.73398682 208.37346436 61.13594238 207.58286621 60.51977539 206.76831055 C59.36555468 205.24819121 58.19731651 203.73858421 57.01342773 202.24145508 C53.268624 197.25240454 52.26690872 194.24136433 53 188 C54.0625 185.5625 54.0625 185.5625 56 184 C59.62146954 182.99403624 61.90199393 182.51995819 65.39453125 184.046875 C68.8323038 186.6239159 70.92122618 189.6555 73.3125 193.1875 C73.76689453 193.84169922 74.22128906 194.49589844 74.68945312 195.16992188 C75.80171387 196.77391895 76.90207478 198.38615652 78 200 C79.04802163 180.12640458 74.93595397 160.14471916 70 141 C69.81211914 140.25733887 69.62423828 139.51467773 69.43066406 138.74951172 C61.16043966 106.61946878 45.00932762 75.60612966 24 50 C23.56284668 49.46133301 23.12569336 48.92266602 22.67529297 48.36767578 C12.66432873 36.08913337 1.6167279 24.26725937 -10.65893555 14.2265625 C-12.75966059 12.30520029 -12.99676546 11.02911084 -13.3125 8.1875 C-12.92653707 4.25067812 -11.76603321 2.76603321 -9 0 C-5.3988443 -1.20038523 -3.65306276 -0.96133231 0 0 Z " fill="#000000" transform="translate(361,73)"/>
<path d="M0 0 C5.18364203 7.77546305 1.04774334 20.44890227 -0.39868164 29.17797852 C-0.81297053 31.69035343 -1.20895477 34.20516338 -1.60351562 36.72070312 C-1.86609386 38.33871953 -2.12972947 39.95656476 -2.39453125 41.57421875 C-2.51029007 42.31604904 -2.62604889 43.05787933 -2.74531555 43.82218933 C-3.61475954 48.95600214 -4.63618604 54.97387375 -8.75 58.5 C-12.17545197 59.26121155 -14.61829657 58.90581342 -18 58 C-20.5 56.125 -20.5 56.125 -22 53 C-22.07806716 49.27079159 -21.53881922 45.6835641 -21 42 C-20.80345278 40.10508326 -20.61532177 38.20926559 -20.4375 36.3125 C-20.29217982 34.87494803 -20.14654898 33.43742722 -20 32 C-55.31612375 68.91053114 -78.18892977 116.63428793 -86 167 C-86.18312744 168.11665039 -86.36625488 169.23330078 -86.55493164 170.38378906 C-88.45127022 183.31570709 -88.11232126 196.1609792 -87.88354492 209.20019531 C-87.83528246 212.17772784 -87.80544672 215.15503171 -87.77734375 218.1328125 C-87.75558578 219.03597198 -87.73382782 219.93913147 -87.71141052 220.86965942 C-87.67097283 226.00661758 -88.08109999 229.56879219 -91 234 C-94.20010301 235.6000515 -97.52710317 235.49514569 -101 235 C-103.62056299 233.18576409 -104.71559089 232.00302879 -105.58496094 228.93701172 C-106.16237605 224.85095066 -106.18214325 220.81761352 -106.203125 216.6953125 C-106.21013931 215.78769669 -106.21715363 214.88008087 -106.22438049 213.94496155 C-106.24191943 211.00492421 -106.24823963 208.06508785 -106.25 205.125 C-106.25067474 204.12514069 -106.25134949 203.12528137 -106.25204468 202.09512329 C-106.23636282 187.51817803 -105.82957086 173.34109329 -103 159 C-102.82839355 158.0817041 -102.65678711 157.1634082 -102.47998047 156.21728516 C-94.2579886 112.80017169 -76.4586164 71.04764377 -48 37 C-47.48920898 36.38769531 -46.97841797 35.77539062 -46.45214844 35.14453125 C-43.32628829 31.40813649 -40.17386334 27.69567839 -37 24 C-38.27875 24.15339844 -39.5575 24.30679688 -40.875 24.46484375 C-41.59429687 24.55113037 -42.31359375 24.63741699 -43.0546875 24.72631836 C-45.02770611 24.95959506 -45.02770611 24.95959506 -47 25.5625 C-50.3788462 26.30162261 -53.5983769 26.5860222 -57 26 C-60 23.9375 -60 23.9375 -62 21 C-62.5625 17.4375 -62.5625 17.4375 -62 14 C-58.9848998 10.11501981 -56.10768577 9.16152426 -51.40625 8.0234375 C-50.75474976 7.86225433 -50.10324951 7.70107117 -49.43200684 7.53500366 C-47.29108587 7.00960862 -45.14581364 6.50500205 -43 6 C-41.50494965 5.63549951 -40.01016091 5.26992441 -38.515625 4.90332031 C-34.64152538 3.96027205 -30.7595808 3.05642717 -26.87207031 2.17041016 C-25.27472479 1.80313248 -23.67902382 1.42863631 -22.08496094 1.04736328 C-19.73721763 0.48640228 -17.38527675 -0.05204393 -15.03125 -0.5859375 C-13.97484314 -0.84508438 -13.97484314 -0.84508438 -12.89709473 -1.10946655 C-8.02988976 -2.1774236 -4.61025068 -1.88345607 0 0 Z " fill="#000000" transform="translate(158,82)"/>
<path d="M0 0 C2.375 1.625 2.375 1.625 4 4 C4.57066406 7.92331544 4.54517447 10.09512279 2.484375 13.515625 C-0.76281209 16.76281209 -3.95688949 17.87514233 -8.25 19.3125 C-8.99507812 19.57611328 -9.74015625 19.83972656 -10.5078125 20.11132812 C-12.33361286 20.75503979 -14.16618517 21.37948824 -16 22 C-12.6050664 23.46003487 -9.43654217 24.41177495 -5.796875 25.03515625 C-4.81589844 25.20466797 -3.83492187 25.37417969 -2.82421875 25.54882812 C-1.80972656 25.71833984 -0.79523438 25.88785156 0.25 26.0625 C1.74853516 26.32256836 1.74853516 26.32256836 3.27734375 26.58789062 C12.30657029 28.12817045 21.12914971 29.15292411 30.29296875 29.203125 C31.58328003 29.21364647 31.58328003 29.21364647 32.8996582 29.22438049 C35.66232596 29.24179658 38.42477934 29.24823342 41.1875 29.25 C42.60369125 29.25101212 42.60369125 29.25101212 44.04849243 29.25204468 C57.93360967 29.23626127 71.35251473 28.74516829 85 26 C85.90024902 25.83371094 86.80049805 25.66742188 87.72802734 25.49609375 C104.11913952 22.45914039 120.64919081 18.14834156 135.89453125 11.2890625 C140.06506809 9.55789626 143.56510228 9.10103425 148 10 C151.30504612 12.66015907 151.88272732 14.34327302 152.625 18.5 C151.9394697 22.33896967 151.02652323 23.38750875 148.02050781 25.73291016 C143.84561514 28.35104609 139.19907362 29.83592936 134.5625 31.4375 C132.90456421 32.01890747 132.90456421 32.01890747 131.21313477 32.61206055 C106.62981742 41.06241156 80.56222124 47.06245475 54.4609375 47.203125 C53.58491882 47.21000336 52.70890015 47.21688171 51.80633545 47.22396851 C48.99584736 47.24103549 46.18553716 47.24742257 43.375 47.25 C41.93685944 47.25250763 41.93685944 47.25250763 40.46966553 47.25506592 C25.73842523 47.25660584 11.54280631 46.48405843 -3 44 C-4.43947039 43.78095016 -5.87954903 43.56584572 -7.3203125 43.35546875 C-10.21842156 42.92782845 -13.11018715 42.47975409 -16 42 C-15.21753906 42.84304688 -14.43507812 43.68609375 -13.62890625 44.5546875 C-12.60665175 45.66134834 -11.58452284 46.76812521 -10.5625 47.875 C-10.04623047 48.43058594 -9.52996094 48.98617187 -8.99804688 49.55859375 C-4.12870303 54.84167269 -4.12870303 54.84167269 -3.6875 58.8125 C-4.08062048 62.82232894 -5.05170642 64.28446644 -8 67 C-10.9375 68 -10.9375 68 -14 68 C-18.33962955 65.86300595 -21.53261544 62.73693276 -24.875 59.3125 C-25.36613281 58.82072266 -25.85726562 58.32894531 -26.36328125 57.82226562 C-29.77893326 54.36669041 -32.97999577 50.7563609 -36.16162109 47.08569336 C-39.96320809 42.77268436 -43.96039741 38.63825578 -47.921875 34.47265625 C-48.56382812 33.79332031 -49.20578125 33.11398437 -49.8671875 32.4140625 C-50.44581543 31.8051416 -51.02444336 31.1962207 -51.62060547 30.56884766 C-53.73129491 28.16826529 -54.00569862 26.94966215 -54.375 23.6875 C-53.88693171 18.88816184 -52.70666625 18.03216634 -49 15 C-45.86500325 13.39658041 -42.62114072 12.18386626 -39.31640625 10.9765625 C-38.3832811 10.62612885 -37.45015594 10.27569519 -36.48875427 9.91464233 C-34.52196353 9.1802776 -32.55257569 8.45283555 -30.58081055 7.73193359 C-27.56847915 6.62719279 -24.56843967 5.49299817 -21.56835938 4.35546875 C-19.65170781 3.6440361 -17.7344102 2.93434104 -15.81640625 2.2265625 C-14.92248672 1.88710602 -14.0285672 1.54764954 -13.1075592 1.19790649 C-8.37636187 -0.50712252 -4.98497836 -1.57956071 0 0 Z " fill="#000000" transform="translate(207,404)"/>
<path d="M0 0 C2.51011725 2.19587356 4.85852769 4.47329188 7.18359375 6.86328125 C7.89128906 7.55035156 8.59898437 8.23742187 9.328125 8.9453125 C16.95156874 16.80197823 21.64049014 26.06155596 23.18359375 36.86328125 C-18.39640625 36.86328125 -59.97640625 36.86328125 -102.81640625 36.86328125 C-100.81125897 22.82725031 -93.66317705 13.48861043 -83.81640625 3.86328125 C-82.97529297 2.97382812 -82.97529297 2.97382812 -82.1171875 2.06640625 C-60.39567767 -19.14199705 -23.08285022 -17.51223172 0 0 Z " fill="#89C8FD" transform="translate(295.81640625,111.13671875)"/>
<path d="M0 0 C11.14098144 8.45805122 20.16863046 20.36246786 24 34 C24 34.99 24 35.98 24 37 C-17.58 37 -59.16 37 -102 37 C-100.41657256 25.91600795 -95.32048293 17.35472335 -88 9 C-87.46761719 8.38511719 -86.93523437 7.77023437 -86.38671875 7.13671875 C-63.84382462 -17.1278284 -26.24578936 -18.4117642 0 0 Z " fill="#6BF4C1" transform="translate(128,451)"/>
<path d="M0 0 C10.87919804 8.67666101 18.40210631 19.664644 23.22998047 32.71582031 C23.22998047 34.03582031 23.22998047 35.35582031 23.22998047 36.71582031 C-18.35001953 36.71582031 -59.93001953 36.71582031 -102.77001953 36.71582031 C-99.08812419 20.14729127 -89.84721964 7.28969145 -75.77001953 -2.28417969 C-51.87587747 -16.35914303 -23.03258551 -16.7105379 0 0 Z " fill="#FEE076" transform="translate(462.77001953125,451.2841796875)"/>
<path d="M0 0 C6.96022965 4.95367696 12.56716567 10.66234666 15 19 C16.32450219 27.90160932 14.49791471 36.12449914 9.90234375 43.84375 C5.49403636 49.70156863 -1.09420404 53.04780114 -8 55 C-16.89410187 56.07225847 -23.49258781 54.85939438 -31 50 C-31.928125 49.401875 -32.85625 48.80375 -33.8125 48.1875 C-40.29700492 41.70299508 -42.99620057 34.28059087 -43.4375 25.1875 C-43.30212345 17.47103664 -40.50856056 11.88484464 -35.5 6.125 C-34.675 5.42375 -33.85 4.7225 -33 4 C-32.21625 3.29875 -31.4325 2.5975 -30.625 1.875 C-21.68700901 -4.50927928 -9.78558413 -5.39065512 0 0 Z " fill="#F3D9CB" transform="translate(270,27)"/>
<path d="M0 0 C6.31771573 4.73254342 11.10134565 10.91763934 13.1484375 18.609375 C14.33770696 27.66989182 12.76622521 35.3154983 7.60546875 42.8671875 C3.01396199 48.56191671 -2.00673932 51.32776727 -8.8515625 53.609375 C-25.10906037 54.88805461 -25.10906037 54.88805461 -31.890625 50.2890625 C-39.22208309 44.00912828 -44.17152207 38.06203134 -45.1953125 28.34765625 C-45.60017053 18.98531437 -44.11761804 12.35394248 -37.796875 5.32421875 C-27.55293151 -4.44120143 -12.76040372 -7.54601947 0 0 Z " fill="#F3D9CA" transform="translate(104.8515625,368.390625)"/>
<path d="M0 0 C6.36733148 4.37246625 10.79159018 9.50972521 13 17 C14.24187631 26.67124911 13.12794781 34.28830984 7.421875 42.18359375 C2.97444928 47.64270865 -1.91774755 51.65276524 -9 53 C-18.26460405 53.76296739 -26.28350057 53.76632957 -34 48 C-40.46622945 42.37013613 -44.13159271 35.57290937 -45.44921875 27.1171875 C-45.97876944 18.10305798 -43.01664131 10.57653677 -37.06640625 3.796875 C-26.97079931 -5.57058875 -11.8966372 -7.87655548 0 0 Z " fill="#F3D9CA" transform="translate(439,369)"/>
<path d="M0 0 C0.87037399 -0.00861557 1.74074799 -0.01723114 2.63749695 -0.02610779 C5.51392375 -0.04880592 8.38937927 -0.04202162 11.26586914 -0.03295898 C13.26599925 -0.03819311 15.26612688 -0.04446881 17.26625061 -0.05174255 C21.45854302 -0.06215405 25.65049616 -0.05757483 29.84277344 -0.04296875 C35.21440834 -0.02578554 40.58497315 -0.04926675 45.95648861 -0.08445835 C50.08723536 -0.10642329 54.21772575 -0.10499295 58.34851265 -0.09669304 C60.32885473 -0.09587292 62.30921552 -0.10274795 64.2895031 -0.11746407 C67.05955549 -0.13489195 69.82768125 -0.12038233 72.59765625 -0.09765625 C73.41496216 -0.10934845 74.23226807 -0.12104065 75.07434082 -0.13308716 C79.3002017 -0.06257524 80.92697478 0.20075746 84.40357971 2.85023499 C86.36352539 5.53344727 86.36352539 5.53344727 86.48852539 9.09594727 C85.12370617 13.26622821 84.07749189 14.25690353 80.36352539 16.53344727 C77.38234369 16.92087612 74.77421073 17.08126915 71.79711914 17.05102539 C70.94610626 17.05803467 70.09509338 17.06504395 69.21829224 17.07226562 C66.41220226 17.08983509 63.60712518 17.07822674 60.80102539 17.06469727 C58.847166 17.06739248 56.89330792 17.07127515 54.93945312 17.07629395 C50.84728203 17.08218757 46.7554605 17.07363034 42.66333008 17.05493164 C37.42075271 17.03214225 32.17899446 17.04526605 26.93644714 17.0692215 C22.9026473 17.08368309 18.86904131 17.07907181 14.8352356 17.06871033 C12.90235293 17.06604404 10.96945261 17.06930934 9.03659058 17.07862854 C6.33389744 17.08880004 3.63252643 17.07328503 0.92993164 17.05102539 C-0.26561844 17.06317078 -0.26561844 17.06317078 -1.48532104 17.07556152 C-5.24987539 17.0181883 -7.42572834 16.66761083 -10.63256836 14.62609863 C-12.63647461 12.53344727 -12.63647461 12.53344727 -13.26538086 10.53344727 C-13.2434668 9.87344727 -13.22155273 9.21344727 -13.19897461 8.53344727 C-13.20026367 7.87344727 -13.20155273 7.21344727 -13.20288086 6.53344727 C-11.32451463 -0.09912868 -5.91386851 -0.04710334 0 0 Z " fill="#050502" transform="translate(262.636474609375,316.466552734375)"/>
<path d="M0 0 C0.86222672 -0.00379669 1.72445343 -0.00759338 2.61280823 -0.01150513 C5.46164378 -0.01891181 8.30945828 0.00247335 11.15820312 0.02490234 C13.13830444 0.02728682 15.11840805 0.02819208 17.09851074 0.02767944 C21.24794686 0.03080766 25.39703751 0.04737466 29.54638672 0.07421875 C34.86625215 0.1081985 40.18573792 0.11584731 45.50569916 0.11432838 C49.59433621 0.11487215 53.6828902 0.12584046 57.77149963 0.14033127 C59.7331123 0.14669731 61.69473438 0.15063771 63.65635681 0.15211868 C66.39736978 0.15645372 69.13797983 0.17395916 71.87890625 0.1953125 C73.09623192 0.19395294 73.09623192 0.19395294 74.33815002 0.19256592 C81.43116355 0.2733901 81.43116355 0.2733901 84.43945312 2.48583984 C86.43945312 5.48583984 86.43945312 5.48583984 86.37695312 8.92333984 C85.22579718 13.29773244 84.26863335 14.16321366 80.43945312 16.48583984 C77.42384463 16.87331201 74.77709698 17.03359989 71.76538086 17.00341797 C70.90300812 17.01042725 70.04063538 17.01743652 69.15213013 17.0246582 C66.30877242 17.04222745 63.46641425 17.03062038 60.62304688 17.01708984 C58.64437164 17.01978482 56.66569769 17.02366729 54.68702698 17.02868652 C50.54358286 17.03457991 46.40048402 17.02602274 42.25708008 17.00732422 C36.94490594 16.98451994 31.63353952 16.99766823 26.32139492 17.02161407 C22.23702398 17.03606357 18.15284478 17.0314702 14.06846809 17.02110291 C12.10963915 17.01843405 10.15079281 17.02171095 8.19198418 17.03102112 C5.45556337 17.04117436 2.72045392 17.02570381 -0.01586914 17.00341797 C-0.82584854 17.01151489 -1.63582794 17.01961182 -2.47035217 17.0279541 C-6.08684948 16.97335663 -8.14317956 16.80415898 -11.06138611 14.57849121 C-12.68551229 12.31140288 -13.10363007 11.24316432 -13.06054688 8.48583984 C-13.07601562 7.49583984 -13.07601562 7.49583984 -13.09179688 6.48583984 C-11.32808442 -0.15401882 -5.84876563 -0.08099849 0 0 Z " fill="#010100" transform="translate(262.560546875,286.51416015625)"/>
<path d="M0 0 C1.64198364 -0.00574036 1.64198364 -0.00574036 3.31713867 -0.01159668 C5.63038045 -0.01431736 7.94365292 -0.00694534 10.25683594 0.00976562 C13.79952522 0.0311716 17.34018636 0.00996774 20.8828125 -0.015625 C23.13021281 -0.01298175 25.37761187 -0.00785684 27.625 0 C28.68549561 -0.00809692 29.74599121 -0.01619385 30.83862305 -0.02453613 C38.16721595 0.06900638 38.16721595 0.06900638 41.47631836 2.43945312 C42.90663397 4.67861705 43.38015647 5.89113857 43.375 8.53125 C43.39691406 9.19125 43.41882813 9.85125 43.44140625 10.53125 C42.40206224 13.83649306 40.76220096 14.73667829 37.8125 16.53125 C34.20947532 17.12904967 30.64559706 17.09177079 27 17.0625 C25.43028442 17.06824036 25.43028442 17.06824036 23.82885742 17.07409668 C21.61994462 17.07681438 19.41099956 17.06946322 17.20214844 17.05273438 C13.82413881 17.03132377 10.4482561 17.05254197 7.0703125 17.078125 C4.92187031 17.0754817 2.77342945 17.07035668 0.625 17.0625 C-0.88767456 17.07464539 -0.88767456 17.07464539 -2.4309082 17.08703613 C-6.87021755 17.02777213 -9.46839192 16.96874893 -13.32397461 14.62304688 C-15.33676008 12.36370639 -15.84893218 11.51085442 -15.75 8.53125 C-15.75128906 7.87125 -15.75257813 7.21125 -15.75390625 6.53125 C-13.5844541 -1.12916036 -6.54055203 -0.04993736 0 0 Z " fill="#020403" transform="translate(219.1875,205.46875)"/>
<path d="M0 0 C1.00208496 -0.0038269 2.00416992 -0.00765381 3.03662109 -0.01159668 C5.15137743 -0.01431382 7.26616749 -0.00696657 9.38085938 0.00976562 C12.61404494 0.03117745 15.84500838 0.00995657 19.078125 -0.015625 C21.13542156 -0.01298169 23.19271674 -0.00785665 25.25 0 C26.21470215 -0.00809692 27.1794043 -0.01619385 28.17333984 -0.02453613 C32.44441888 0.03500635 34.96724285 0.14268915 38.703125 2.34960938 C41.41722144 5.43055015 41.76806122 7.45400531 41.625 11.53125 C39.59193929 14.51262029 37.96476022 16.2609332 34.34274292 16.99172974 C31.475776 17.17785837 28.65016101 17.1978084 25.77734375 17.16015625 C24.20407066 17.16377419 24.20407066 17.16377419 22.59901428 17.16746521 C20.38587658 17.16648732 18.17271425 17.15310765 15.9597168 17.12817383 C12.57060828 17.09383216 9.18410244 17.10752736 5.79492188 17.12695312 C3.64321806 17.12005558 1.49152098 17.11038403 -0.66015625 17.09765625 C-2.18057274 17.10509605 -2.18057274 17.10509605 -3.73170471 17.11268616 C-10.73516082 16.99526683 -10.73516082 16.99526683 -14.00927734 14.62084961 C-15.47383099 12.38003541 -15.94269189 11.18949928 -15.9375 8.53125 C-15.95941406 7.87125 -15.98132813 7.21125 -16.00390625 6.53125 C-13.71798269 -0.7382709 -6.20942048 -0.05211682 0 0 Z " fill="#040402" transform="translate(307.375,256.46875)"/>
<path d="M0 0 C11.14116368 1.43336609 19.26322631 8.28901556 27 16 C27.7115625 16.68835938 28.423125 17.37671875 29.15625 18.0859375 C36.7651819 25.95825551 41.45616465 35.19315252 43 46 C1.42 46 -40.16 46 -83 46 C-83 45.67 -83 45.34 -83 45 C-45.71 45 -8.42 45 30 45 C24.19965191 26.14886871 16.68368822 14.66399876 2 2 C1.01 1.01 1.01 1.01 0 0 Z " fill="#58A1DE" transform="translate(276,102)"/>
<path d="M0 0 C0.33 0 0.66 0 1 0 C1.00586624 0.98670181 1.01173248 1.97340363 1.01777649 2.99000549 C1.07506907 12.30330291 1.14786481 21.6163683 1.23571491 30.92942905 C1.2803813 35.71701425 1.31964566 40.50451508 1.34643555 45.29223633 C1.37250574 49.91543284 1.41293444 54.53830407 1.46318626 59.16129875 C1.47982986 60.92222983 1.49135973 62.68321715 1.49761391 64.44421577 C1.50728241 66.91701221 1.53537362 69.38898112 1.56762695 71.86157227 C1.56619186 72.58446442 1.56475677 73.30735657 1.5632782 74.05215454 C1.66548283 79.61762766 2.79729108 84.44164537 6.5 88.7421875 C11.62552616 92.61302757 15.22287511 93.13782344 21.46557617 93.07836914 C23.0368798 93.07225333 24.60818418 93.06632655 26.17948914 93.06056213 C27.01229589 93.05588991 27.84510265 93.05121769 28.70314598 93.04640388 C33.12047667 93.02721936 37.53773492 93.04243998 41.95507812 93.05273438 C47.57329106 93.06497298 53.19074344 93.06671642 58.80883789 93.02416992 C63.35153365 92.99067658 67.89272675 92.99627721 72.43541908 93.02773857 C74.16209048 93.03265042 75.88886462 93.02344075 77.61537743 92.99952888 C91.10676269 92.82370266 91.10676269 92.82370266 95.80044556 95.73995972 C97.81654667 97.72554785 99.4150622 99.66354099 101 102 C101.825 102.99 102.65 103.98 103.5 105 C103.995 105.66 104.49 106.32 105 107 C105.33 105.35 105.66 103.7 106 102 C106.33 102 106.66 102 107 102 C107 106.95 107 111.9 107 117 C106.34 117 105.68 117 105 117 C103.66015625 115.63671875 103.66015625 115.63671875 102.0625 113.6875 C98.91673088 109.9842528 95.61924083 106.49761908 92.1875 103.0625 C91.46735718 102.3358313 91.46735718 102.3358313 90.73266602 101.59448242 C86.26325864 97.14250581 83.63826246 96.85373298 77.50854492 96.8581543 C76.73599869 96.85467987 75.96345245 96.85120544 75.16749573 96.84762573 C73.48690195 96.84026503 71.80629843 96.83492132 70.12569237 96.83133507 C67.46508751 96.82417737 64.80466792 96.80851585 62.14411926 96.78999329 C54.57844594 96.73749264 47.01287303 96.68954732 39.44702148 96.67407227 C34.82148834 96.66399007 30.19641945 96.63465853 25.57106972 96.59275246 C23.80848006 96.58043957 22.04582484 96.57532173 20.28319359 96.57755089 C17.81483831 96.57990421 15.34781404 96.55773629 12.87963867 96.5300293 C12.15269806 96.53663071 11.42575745 96.54323212 10.67678833 96.55003357 C5.8547473 96.46124585 3.38702208 95.42277455 0 92 C-1.61046376 88.77907248 -1.13820841 85.26448038 -1.12939453 81.7265625 C-1.13202301 80.44347198 -1.13202301 80.44347198 -1.13470459 79.13446045 C-1.13911729 76.29795319 -1.13618715 73.46150793 -1.1328125 70.625 C-1.13348571 68.65966785 -1.13445587 66.69433577 -1.13571167 64.72900391 C-1.13718785 60.60643726 -1.13503662 56.48389226 -1.13037109 52.36132812 C-1.12467386 47.06818927 -1.12795328 41.77510111 -1.13394356 36.48196411 C-1.1375513 32.42260351 -1.1364096 28.363255 -1.13381577 24.30389404 C-1.13314709 22.35178624 -1.13397286 20.39967734 -1.13629532 18.4475708 C-1.13882532 15.72282999 -1.13497629 12.99817211 -1.12939453 10.2734375 C-1.13141876 9.46090515 -1.13344299 8.6483728 -1.13552856 7.81121826 C-1.11426407 2.22852813 -1.11426407 2.22852813 0 0 Z " fill="#F4C760" transform="translate(231,249)"/>
<path d="M0 0 C12.64195425 2.0033698 24.24645668 10.94347633 32.26953125 20.60546875 C37.90094056 28.39791549 42.67047435 36.36093907 44 46 C39.71 46 35.42 46 31 46 C30.74734375 44.845 30.4946875 43.69 30.234375 42.5 C29.11049311 38.02024622 27.35578956 34.09588731 25.25 30 C24.89220459 29.29866943 24.53440918 28.59733887 24.16577148 27.87475586 C18.47140389 16.93306229 10.5895404 7.51664025 0 1 C0 0.67 0 0.34 0 0 Z " fill="#01DF96" transform="translate(108,442)"/>
<path d="M0 0 C17.86087284 6.23774518 29.93695087 17.24940563 38.54296875 34.00390625 C42 41.2762605 42 41.2762605 42 46 C37.71 46 33.42 46 29 46 C28.649375 44.288125 28.29875 42.57625 27.9375 40.8125 C24.05029689 25.44448772 14.54320061 12.83604184 1.87109375 3.55859375 C1.25363281 3.04425781 0.63617188 2.52992188 0 2 C0 1.34 0 0.68 0 0 Z " fill="#FBCD62" transform="translate(444,442)"/>
<path d="M0 0 C1.28293945 -0.0309375 1.28293945 -0.0309375 2.59179688 -0.0625 C7.43613848 -0.09251916 10.78198241 0.03827695 14.6875 3.25 C16.13180855 6.13861709 16.06438506 8.04647701 15.6875 11.25 C13.61900094 14.20747664 11.99540853 15.98756327 8.37207031 16.71459961 C5.60648293 16.88764166 2.89488485 16.88264767 0.125 16.8125 C-1.29329102 16.82893555 -1.29329102 16.82893555 -2.74023438 16.84570312 C-9.58069713 16.77318939 -9.58069713 16.77318939 -12.90234375 14.3984375 C-14.77337124 11.5478416 -15.3125 9.66939762 -15.3125 6.25 C-11.03179651 -0.39247093 -7.28188677 0.04331234 0 0 Z " fill="#050502" transform="translate(264.3125,256.75)"/>
<path d="M0 0 C0.84175781 -0.01933594 1.68351562 -0.03867188 2.55078125 -0.05859375 C6.97719139 -0.02374013 8.95486453 0.21752501 12.59375 2.9375 C14.5 5.625 14.5 5.625 14.5 9.25 C13.55456241 12.44085187 13.13628553 13.72687442 10.5 15.625 C7.25874994 17.24562503 3.74550138 16.89291352 0.1875 16.9375 C-0.57240234 16.96650391 -1.33230469 16.99550781 -2.11523438 17.02539062 C-6.03971618 17.06971579 -8.04001427 16.90425546 -11.47265625 14.8203125 C-14.30498786 11.75331758 -14.64535468 9.76760841 -14.5 5.625 C-10.41617906 -0.10068365 -6.51338967 -0.14961845 0 0 Z " fill="#020605" transform="translate(177.5,205.375)"/>
<path d="M0 0 C0.80333708 -0.01425018 1.60667416 -0.02850037 2.43435478 -0.04318237 C3.16614228 -0.06061745 3.89792978 -0.07805252 4.65189266 -0.09601593 C7.66941979 0.15055386 8.9555185 1.51291024 10.88526726 3.7484436 C11.53108757 4.47418579 12.17690788 5.19992798 12.84229851 5.94766235 C13.4133532 6.64504517 13.98440788 7.34242798 14.57276726 8.0609436 C15.39776726 9.0509436 16.22276726 10.0409436 17.07276726 11.0609436 C17.56776726 11.7209436 18.06276726 12.3809436 18.57276726 13.0609436 C18.90276726 11.4109436 19.23276726 9.7609436 19.57276726 8.0609436 C19.90276726 8.0609436 20.23276726 8.0609436 20.57276726 8.0609436 C20.57276726 13.0109436 20.57276726 17.9609436 20.57276726 23.0609436 C19.91276726 23.0609436 19.25276726 23.0609436 18.57276726 23.0609436 C17.23292351 21.69766235 17.23292351 21.69766235 15.63526726 19.7484436 C12.48949813 16.04519641 9.19200809 12.55856268 5.76026726 9.1234436 C5.28017204 8.6389978 4.80007683 8.154552 4.30543327 7.65542603 C-0.17231802 3.19513804 -2.85468992 2.90334611 -8.99803352 2.85562134 C-9.77861122 2.84572174 -10.55918892 2.83582214 -11.36342049 2.82562256 C-13.9497643 2.79397383 -16.53612649 2.76923684 -19.12254524 2.74453735 C-20.91331148 2.72397073 -22.70407283 2.70297434 -24.49482918 2.68156433 C-29.21302017 2.62631347 -33.93125519 2.5769175 -38.64952278 2.52871704 C-43.46218481 2.47852401 -48.27478274 2.42282648 -53.08738899 2.36758423 C-62.53394884 2.2599658 -71.9805643 2.15852902 -81.42723274 2.0609436 C-81.42723274 1.7309436 -81.42723274 1.4009436 -81.42723274 1.0609436 C-71.28235697 0.92988089 -61.13747337 0.79944377 -50.99257946 0.66979218 C-46.28125874 0.60956219 -41.56994093 0.54912154 -36.85862923 0.4881897 C-32.30692801 0.42933002 -27.75521985 0.37103647 -23.20350647 0.31312561 C-21.47209543 0.29099948 -19.74068693 0.26867377 -18.00928116 0.24613953 C-15.57316544 0.21446851 -13.13704144 0.18352502 -10.70091438 0.15274048 C-9.99456352 0.14338974 -9.28821266 0.134039 -8.56045723 0.12440491 C-7.210267 0.10762618 -5.86003679 0.09376788 -4.5097847 0.08306885 C-3.00635298 0.06709624 -1.50304286 0.0377388 0 0 Z " fill="#E4BA5A" transform="translate(317.42723274230957,342.9390563964844)"/>
<path d="M0 0 C8.58 0 17.16 0 26 0 C26 0.66 26 1.32 26 2 C24.81664062 1.96777344 23.63328125 1.93554688 22.4140625 1.90234375 C11.51180656 1.76674147 11.51180656 1.76674147 2.3125 7.0625 C0.82713363 8.66526647 -0.61363634 10.31086726 -2 12 C-2.65226563 12.73734375 -3.30453125 13.4746875 -3.9765625 14.234375 C-5.11894535 15.52745516 -6.24156484 16.83862835 -7.33203125 18.17578125 C-9 20 -9 20 -14 24 C-14 18.72 -14 13.44 -14 8 C-13.67 8 -13.34 8 -13 8 C-12.67 9.65 -12.34 11.3 -12 13 C-10.18443212 11.21135158 -8.37248378 9.41928379 -6.5625 7.625 C-6.04623047 7.11710937 -5.52996094 6.60921875 -4.99804688 6.0859375 C-2.142867 3.31431064 -2.142867 3.31431064 0 0 Z " fill="#07DA94" transform="translate(188,291)"/>
<path d="M0 0 C3.17687435 3.17687435 3.20474745 6.18989809 3.3125 10.5 C3.28890851 16.94834054 1.58125887 22.14607363 -1 28 C-2.125 24.25 -2.125 24.25 -1 22 C-0.84777027 20.33434251 -0.75082785 18.66343504 -0.68359375 16.9921875 C-0.64169922 16.00605469 -0.59980469 15.01992188 -0.55664062 14.00390625 C-0.51732422 12.97136719 -0.47800781 11.93882813 -0.4375 10.875 C-0.39431641 9.83472656 -0.35113281 8.79445313 -0.30664062 7.72265625 C-0.2003712 5.14857472 -0.09833417 2.57439492 0 0 Z " fill="#DEBCAF" transform="translate(282,41)"/>
</svg>
