<?xml version="1.0" encoding="UTF-8"?>
<svg version="1.1" xmlns="http://www.w3.org/2000/svg" width="512" height="512">
<path d="M0 0 C23.21439675 23.04038765 37.31220282 55.80441194 37.7644043 88.49829102 C37.87205655 124.99240454 25.66463144 157.88758155 0.52294922 184.58251953 C-1.0070958 186.11504437 -2.54764021 187.63721387 -4.10205078 189.14501953 C-22.84067559 207.54661872 -36.15157723 233.21980347 -42.47705078 258.58251953 C-42.47705078 259.90251953 -42.47705078 261.22251953 -42.47705078 262.58251953 C-40.51206756 263.96693953 -38.50656613 265.29455787 -36.47705078 266.58251953 C-32.85107465 270.60049308 -31.36908759 273.53650503 -31.30004883 278.92700195 C-31.28721359 279.80188766 -31.27437836 280.67677338 -31.26115417 281.57817078 C-31.25376724 282.52191055 -31.24638031 283.46565033 -31.23876953 284.43798828 C-31.23069778 285.41359207 -31.22262604 286.38919586 -31.21430969 287.3943634 C-31.20047547 289.46137723 -31.18975036 291.52841383 -31.18188477 293.59545898 C-31.16471097 296.74068161 -31.12082308 299.88484226 -31.07666016 303.02978516 C-31.06652935 305.04084516 -31.05801446 307.05191407 -31.05126953 309.06298828 C-31.03376144 309.9966069 -31.01625336 310.93022552 -30.99821472 311.89213562 C-31.01807196 317.93738273 -31.99035996 322.55598379 -35.47705078 327.58251953 C-40.09922076 331.77472021 -44.47416941 332.3157248 -50.47705078 332.58251953 C-50.53892578 333.40751953 -50.60080078 334.23251953 -50.66455078 335.08251953 C-52.53634319 343.14562529 -57.80308358 348.92276143 -64.47705078 353.58251953 C-73.03338089 358.16331547 -81.69908635 358.17366809 -91.13842773 358.04907227 C-93.53911284 358.02002483 -95.93759162 358.02851873 -98.33837891 358.04150391 C-109.73270566 358.02697879 -119.35808587 357.25633597 -128.43017578 349.68017578 C-133.16742987 344.8253944 -136.42453773 339.30425061 -137.47705078 332.58251953 C-138.67330078 332.50001953 -139.86955078 332.41751953 -141.10205078 332.33251953 C-146.82018346 331.59502185 -150.18182483 329.19280045 -153.78955078 324.70751953 C-156.79170675 319.14797144 -156.63586044 313.38383323 -156.64501953 307.18408203 C-156.65001213 305.99339615 -156.65001213 305.99339615 -156.65510559 304.77865601 C-156.66014754 303.10618668 -156.66251476 301.43370739 -156.66235352 299.76123047 C-156.66453804 297.22232243 -156.68271733 294.68385077 -156.70166016 292.14501953 C-156.70459517 290.5122085 -156.70657924 288.87939543 -156.70751953 287.24658203 C-156.71470505 286.49736481 -156.72189056 285.74814758 -156.72929382 284.97622681 C-156.69814525 277.67869238 -155.85959479 270.96506354 -150.47705078 265.58251953 C-146.1322232 262.58251953 -146.1322232 262.58251953 -143.47705078 262.58251953 C-149.56491583 238.99554928 -158.31730865 217.14903177 -174.47705078 198.58251953 C-175.523125 197.37208984 -175.523125 197.37208984 -176.59033203 196.13720703 C-180.51138267 191.69381395 -184.58089645 187.50213237 -188.85205078 183.39501953 C-205.33130776 166.98480972 -215.28592822 146.81046136 -221.47705078 124.58251953 C-221.67057129 123.89319336 -221.8640918 123.20386719 -222.06347656 122.49365234 C-227.4897018 101.96002827 -226.34891112 76.85765457 -220.47705078 56.58251953 C-220.27337891 55.86531738 -220.06970703 55.14811523 -219.85986328 54.40917969 C-214.78048278 37.14477296 -206.16235153 21.23624767 -194.47705078 7.58251953 C-194.05343262 7.07672363 -193.62981445 6.57092773 -193.19335938 6.04980469 C-171.56824117 -19.62544849 -139.8298015 -34.95694565 -106.76611328 -38.85498047 C-66.46874489 -42.29185624 -29.07479354 -27.90219029 0 0 Z " fill="#F9C942" transform="translate(314.47705078125,85.41748046875)"/>
<path d="M0 0 C23.21439675 23.04038765 37.31220282 55.80441194 37.7644043 88.49829102 C37.87205655 124.99240454 25.66463144 157.88758155 0.52294922 184.58251953 C-1.0070958 186.11504437 -2.54764021 187.63721387 -4.10205078 189.14501953 C-22.84067559 207.54661872 -36.15157723 233.21980347 -42.47705078 258.58251953 C-42.47705078 259.90251953 -42.47705078 261.22251953 -42.47705078 262.58251953 C-40.51206756 263.96693953 -38.50656613 265.29455787 -36.47705078 266.58251953 C-32.85107465 270.60049308 -31.36908759 273.53650503 -31.30004883 278.92700195 C-31.28721359 279.80188766 -31.27437836 280.67677338 -31.26115417 281.57817078 C-31.25376724 282.52191055 -31.24638031 283.46565033 -31.23876953 284.43798828 C-31.23069778 285.41359207 -31.22262604 286.38919586 -31.21430969 287.3943634 C-31.20047547 289.46137723 -31.18975036 291.52841383 -31.18188477 293.59545898 C-31.16471097 296.74068161 -31.12082308 299.88484226 -31.07666016 303.02978516 C-31.06652935 305.04084516 -31.05801446 307.05191407 -31.05126953 309.06298828 C-31.03376144 309.9966069 -31.01625336 310.93022552 -30.99821472 311.89213562 C-31.01807196 317.93738273 -31.99035996 322.55598379 -35.47705078 327.58251953 C-40.09922076 331.77472021 -44.47416941 332.3157248 -50.47705078 332.58251953 C-50.53892578 333.40751953 -50.60080078 334.23251953 -50.66455078 335.08251953 C-52.53634319 343.14562529 -57.80308358 348.92276143 -64.47705078 353.58251953 C-73.03338089 358.16331547 -81.69908635 358.17366809 -91.13842773 358.04907227 C-93.53911284 358.02002483 -95.93759162 358.02851873 -98.33837891 358.04150391 C-109.73270566 358.02697879 -119.35808587 357.25633597 -128.43017578 349.68017578 C-133.16742987 344.8253944 -136.42453773 339.30425061 -137.47705078 332.58251953 C-138.67330078 332.50001953 -139.86955078 332.41751953 -141.10205078 332.33251953 C-146.82018346 331.59502185 -150.18182483 329.19280045 -153.78955078 324.70751953 C-156.79170675 319.14797144 -156.63586044 313.38383323 -156.64501953 307.18408203 C-156.65001213 305.99339615 -156.65001213 305.99339615 -156.65510559 304.77865601 C-156.66014754 303.10618668 -156.66251476 301.43370739 -156.66235352 299.76123047 C-156.66453804 297.22232243 -156.68271733 294.68385077 -156.70166016 292.14501953 C-156.70459517 290.5122085 -156.70657924 288.87939543 -156.70751953 287.24658203 C-156.71470505 286.49736481 -156.72189056 285.74814758 -156.72929382 284.97622681 C-156.69814525 277.67869238 -155.85959479 270.96506354 -150.47705078 265.58251953 C-146.1322232 262.58251953 -146.1322232 262.58251953 -143.47705078 262.58251953 C-149.56491583 238.99554928 -158.31730865 217.14903177 -174.47705078 198.58251953 C-175.523125 197.37208984 -175.523125 197.37208984 -176.59033203 196.13720703 C-180.51138267 191.69381395 -184.58089645 187.50213237 -188.85205078 183.39501953 C-205.33130776 166.98480972 -215.28592822 146.81046136 -221.47705078 124.58251953 C-221.67057129 123.89319336 -221.8640918 123.20386719 -222.06347656 122.49365234 C-227.4897018 101.96002827 -226.34891112 76.85765457 -220.47705078 56.58251953 C-220.27337891 55.86531738 -220.06970703 55.14811523 -219.85986328 54.40917969 C-214.78048278 37.14477296 -206.16235153 21.23624767 -194.47705078 7.58251953 C-194.05343262 7.07672363 -193.62981445 6.57092773 -193.19335938 6.04980469 C-171.56824117 -19.62544849 -139.8298015 -34.95694565 -106.76611328 -38.85498047 C-66.46874489 -42.29185624 -29.07479354 -27.90219029 0 0 Z M-128.47705078 -22.41748047 C-129.64365234 -22.03205078 -130.81025391 -21.64662109 -132.01220703 -21.24951172 C-164.91557675 -9.35811845 -188.89516366 13.54506187 -203.67333984 44.91113281 C-216.04741199 72.50196935 -216.03356972 105.53125877 -205.98095703 133.82861328 C-198.39874267 153.30449723 -186.52676961 168.94575018 -171.53955078 183.33251953 C-150.05648542 204.67918448 -137.34358097 233.2498686 -131.47705078 262.58251953 C-125.20705078 262.58251953 -118.93705078 262.58251953 -112.47705078 262.58251953 C-113.69819217 255.69972261 -115.41188165 249.01802953 -117.31005859 242.296875 C-119.23221307 235.48958831 -121.08255874 228.66459507 -122.91455078 221.83251953 C-125.10849635 213.66188179 -127.311132 205.49382751 -129.53955078 197.33251953 C-129.9037915 195.99821899 -129.9037915 195.99821899 -130.27539062 194.63696289 C-131.51776801 190.08833868 -132.76248968 185.5403606 -134.00830078 180.99267578 C-135.26121993 176.41707393 -136.50657201 171.83946137 -137.74804688 167.26074219 C-138.48097681 164.56809606 -139.22311738 161.87808773 -139.96533203 159.18798828 C-140.42801291 157.48628529 -140.89027165 155.78446745 -141.35205078 154.08251953 C-141.56740479 153.31141846 -141.78275879 152.54031738 -142.00463867 151.74584961 C-143.11428561 147.61557371 -143.90613035 143.89932008 -143.47705078 139.58251953 C-142.81705078 138.92251953 -142.15705078 138.26251953 -141.47705078 137.58251953 C-136.87160033 137.86553604 -133.98502983 139.24468965 -130.22705078 141.83251953 C-115.0304951 151.86759283 -100.66435225 155.61282161 -82.47705078 153.58251953 C-71.74953234 151.37261545 -60.80721481 145.70472565 -52.34814453 138.85986328 C-50.47705078 137.58251953 -50.47705078 137.58251953 -47.28955078 137.83251953 C-44.47705078 138.58251953 -44.47705078 138.58251953 -43.47705078 139.58251953 C-43.25765504 146.35244511 -45.28742948 152.75362735 -47.25683594 159.14501953 C-49.37617085 166.07184367 -51.18749885 173.0640599 -52.97705078 180.08251953 C-55.07213887 188.27363811 -57.25088395 196.4135731 -59.70361328 204.50439453 C-61.54890197 210.65940352 -63.07247575 216.88243784 -64.59814453 223.12304688 C-66.31274002 230.07443754 -68.28677888 236.92811145 -70.34033203 243.78564453 C-71.34737135 247.14936348 -72.33735588 250.51539821 -73.28955078 253.89501953 C-73.52287109 254.71615234 -73.75619141 255.53728516 -73.99658203 256.38330078 C-74.61934286 258.85864199 -74.61934286 258.85864199 -74.47705078 262.58251953 C-68.53705078 262.58251953 -62.59705078 262.58251953 -56.47705078 262.58251953 C-55.03618052 258.41157931 -53.65834904 254.28246851 -52.55126953 250.00830078 C-45.34888598 222.35005149 -29.60544708 197.2209221 -9.20751953 177.35595703 C12.40279817 155.20904002 26.0632359 124.81574191 25.77294922 93.70751953 C25.76279785 92.1249939 25.76279785 92.1249939 25.75244141 90.51049805 C25.65340717 83.04320111 25.19474551 75.8811045 23.52294922 68.58251953 C23.13816406 66.82681641 23.13816406 66.82681641 22.74560547 65.03564453 C18.15755011 46.05330389 9.20650692 29.42446468 -3.47705078 14.58251953 C-4.14091797 13.77298828 -4.80478516 12.96345703 -5.48876953 12.12939453 C-18.3726444 -3.01689829 -36.71980828 -14.96128391 -55.47705078 -21.41748047 C-56.1734668 -21.66014648 -56.86988281 -21.9028125 -57.58740234 -22.15283203 C-79.13479004 -29.27896156 -106.87106717 -29.55745568 -128.47705078 -22.41748047 Z " fill="#4D5152" transform="translate(314.47705078125,85.41748046875)"/>
<path d="M0 0 C2.90657884 1.92947362 3.5595883 4.2714797 4.625 7.5 C5.79481123 10.24300564 6.5249105 11.67896865 9.01171875 13.359375 C12.87151625 14.85349016 15.92799923 15.44136758 19.875 14 C24.28432088 11.17803464 25.46445529 8.63813676 27.0625 3.75 C28 1 28 1 30 0 C39.37106672 -1.24947556 49.33108469 3.94548764 57 9 C58.41564834 11.83129669 58.24224495 13.85081562 58 17 C57.484375 17.969375 56.96875 18.93875 56.4375 19.9375 C54.58772896 23.87831657 54.79167612 25.84638665 56 30 C58.59463351 33.51038651 60.23728114 34.77811815 64.4375 36 C68.51988097 36 70.44318946 34.8919205 74 33 C77.125 32.5625 77.125 32.5625 80 33 C85.93516118 37.9804744 89.15219196 46.60876786 91 54 C91.53510088 60.31419033 91.53510088 60.31419033 89.765625 62.58203125 C87.12454079 64.70307897 84.18721482 65.70454588 81.05859375 66.9375 C78.68017676 67.95435311 78.68017676 67.95435311 77 71 C76.68399811 73.14790929 76.68399811 73.14790929 76.75 75.4375 C76.74484375 76.19933594 76.7396875 76.96117187 76.734375 77.74609375 C77.03875433 80.3288419 77.52920355 81.8507247 79 84 C81.05978226 85.22867562 81.05978226 85.22867562 83.4375 86.0625 C86.61595491 87.28256589 88.84723592 88.30735778 91 91 C92.24392913 98.15259249 88.80361516 104.55006454 86 111 C85.51660156 112.16789062 85.51660156 112.16789062 85.0234375 113.359375 C84.125 115.25 84.125 115.25 82 118 C76.31955412 119.92920804 73.29063887 118.26741666 68 116 C63.63536743 116 61.6416631 116.52572728 58.125 119.125 C55.54072242 122.62137555 55 124.66360584 55 129 C55.95012124 131.02417134 56.94991347 133.02583732 58 135 C58.4375 138.125 58.4375 138.125 58 141 C54.97472286 144.77787071 51.32994962 146.43143239 46.9375 148.1875 C46.31294922 148.44724609 45.68839844 148.70699219 45.04492188 148.97460938 C39.76370383 151.15585952 35.77220988 152.41230071 30 152 C27.41113491 149.9885077 26.50476916 148.09017465 25.5625 145 C24.6582065 142.47261561 24.07153639 141.07920101 22.25 139.0625 C17.92583689 137.02053409 14.4288965 136.6077539 9.8125 137.875 C6.35960509 140.48385393 5.41475654 142.84998208 3.95703125 146.84375 C2.90978261 149.2032653 2.08316743 150.47429991 0 152 C-8.77513127 153.06567059 -18.77080108 148.55909066 -25.8125 143.625 C-28 141 -28 141 -28 137.5 C-27 134 -27 134 -25.875 131.5 C-24.6251977 127.92913629 -25.02707293 125.63226104 -26 122 C-28.57069543 118.52200031 -30.2210902 117.23078809 -34.375 116 C-38.62032444 116 -41.17892971 117.23098598 -45 119 C-49.3478588 119.50478237 -49.3478588 119.50478237 -51.625 117.7421875 C-57.04203988 110.38609357 -62.08506456 100.3421412 -61 91 C-59.04328262 88.17153994 -56.66294343 87.34197435 -53.5 86.1875 C-50.20391921 84.77029262 -49.1058121 84.14004543 -46.875 81.1875 C-45.79362387 77.24820123 -45.85748253 74.9274038 -47 71 C-50.43278606 66.55757098 -53.94437732 65.00317125 -59 63 C-61 61 -61 61 -61.15234375 59.0390625 C-60.31895753 49.67483188 -57.25787718 39.37277021 -50 33 C-46.0656643 32.23023867 -44.24165485 32.88364766 -40.625 34.625 C-36.55611573 36.1683699 -34.75744847 36.0859408 -30.73046875 34.78515625 C-28.11357207 33.59780584 -27.18004995 32.63775872 -26 30 C-24.63632326 23.96086014 -24.95422855 21.48238861 -28 16 C-28.5625 13.4375 -28.5625 13.4375 -28 11 C-23.85409374 7.05571836 -19.87028519 4.73394007 -14.5625 2.6875 C-13.93279297 2.42388672 -13.30308594 2.16027344 -12.65429688 1.88867188 C-8.30679276 0.16843643 -4.65454596 -0.51465818 0 0 Z M2.6796875 66.54296875 C-0.13268931 70.84020185 -0.96415 74.9506371 0 80 C1.68547217 84.90681839 4.42778535 88.04448379 9.078125 90.33984375 C13.17927265 91.7485713 16.82072735 91.7485713 20.921875 90.33984375 C24.87233208 88.38993865 27.38159324 85.94259761 29.33984375 81.9921875 C31.04898483 76.83442449 30.75259619 72.53413839 28.375 67.6875 C25.27228094 64.17652843 22.62678201 61.46975299 17.859375 60.6171875 C11.66210184 60.30100009 6.78380573 61.74673591 2.6796875 66.54296875 Z " fill="#F4F4F4" transform="translate(371,347)"/>
<path d="M0 0 C2.90657884 1.92947362 3.5595883 4.2714797 4.625 7.5 C5.79481123 10.24300564 6.5249105 11.67896865 9.01171875 13.359375 C12.87151625 14.85349016 15.92799923 15.44136758 19.875 14 C24.28432088 11.17803464 25.46445529 8.63813676 27.0625 3.75 C28 1 28 1 30 0 C39.37106672 -1.24947556 49.33108469 3.94548764 57 9 C58.41564834 11.83129669 58.24224495 13.85081562 58 17 C57.484375 17.969375 56.96875 18.93875 56.4375 19.9375 C54.58772896 23.87831657 54.79167612 25.84638665 56 30 C58.59463351 33.51038651 60.23728114 34.77811815 64.4375 36 C68.51988097 36 70.44318946 34.8919205 74 33 C77.125 32.5625 77.125 32.5625 80 33 C85.93516118 37.9804744 89.15219196 46.60876786 91 54 C91.53510088 60.31419033 91.53510088 60.31419033 89.765625 62.58203125 C87.12454079 64.70307897 84.18721482 65.70454588 81.05859375 66.9375 C78.68017676 67.95435311 78.68017676 67.95435311 77 71 C76.68399811 73.14790929 76.68399811 73.14790929 76.75 75.4375 C76.74484375 76.19933594 76.7396875 76.96117187 76.734375 77.74609375 C77.03875433 80.3288419 77.52920355 81.8507247 79 84 C81.05978226 85.22867562 81.05978226 85.22867562 83.4375 86.0625 C86.61595491 87.28256589 88.84723592 88.30735778 91 91 C92.24392913 98.15259249 88.80361516 104.55006454 86 111 C85.51660156 112.16789062 85.51660156 112.16789062 85.0234375 113.359375 C84.125 115.25 84.125 115.25 82 118 C76.31955412 119.92920804 73.29063887 118.26741666 68 116 C63.63536743 116 61.6416631 116.52572728 58.125 119.125 C55.54072242 122.62137555 55 124.66360584 55 129 C55.95012124 131.02417134 56.94991347 133.02583732 58 135 C58.4375 138.125 58.4375 138.125 58 141 C54.97472286 144.77787071 51.32994962 146.43143239 46.9375 148.1875 C46.31294922 148.44724609 45.68839844 148.70699219 45.04492188 148.97460938 C39.76370383 151.15585952 35.77220988 152.41230071 30 152 C27.41113491 149.9885077 26.50476916 148.09017465 25.5625 145 C24.6582065 142.47261561 24.07153639 141.07920101 22.25 139.0625 C17.92583689 137.02053409 14.4288965 136.6077539 9.8125 137.875 C6.35960509 140.48385393 5.41475654 142.84998208 3.95703125 146.84375 C2.90978261 149.2032653 2.08316743 150.47429991 0 152 C-8.77513127 153.06567059 -18.77080108 148.55909066 -25.8125 143.625 C-28 141 -28 141 -28 137.5 C-27 134 -27 134 -25.875 131.5 C-24.6251977 127.92913629 -25.02707293 125.63226104 -26 122 C-28.57069543 118.52200031 -30.2210902 117.23078809 -34.375 116 C-38.62032444 116 -41.17892971 117.23098598 -45 119 C-49.3478588 119.50478237 -49.3478588 119.50478237 -51.625 117.7421875 C-57.04203988 110.38609357 -62.08506456 100.3421412 -61 91 C-59.04328262 88.17153994 -56.66294343 87.34197435 -53.5 86.1875 C-50.20391921 84.77029262 -49.1058121 84.14004543 -46.875 81.1875 C-45.79362387 77.24820123 -45.85748253 74.9274038 -47 71 C-50.43278606 66.55757098 -53.94437732 65.00317125 -59 63 C-61 61 -61 61 -61.15234375 59.0390625 C-60.31895753 49.67483188 -57.25787718 39.37277021 -50 33 C-46.0656643 32.23023867 -44.24165485 32.88364766 -40.625 34.625 C-36.55611573 36.1683699 -34.75744847 36.0859408 -30.73046875 34.78515625 C-28.11357207 33.59780584 -27.18004995 32.63775872 -26 30 C-24.63632326 23.96086014 -24.95422855 21.48238861 -28 16 C-28.5625 13.4375 -28.5625 13.4375 -28 11 C-23.85409374 7.05571836 -19.87028519 4.73394007 -14.5625 2.6875 C-13.93279297 2.42388672 -13.30308594 2.16027344 -12.65429688 1.88867188 C-8.30679276 0.16843643 -4.65454596 -0.51465818 0 0 Z M-14 16 C-13.7525 16.9590625 -13.7525 16.9590625 -13.5 17.9375 C-12.10688876 26.47030633 -12.91082362 32.75960172 -18 40 C-22.28486554 44.34761462 -26.91768099 47.08765215 -33 48 C-37.02623525 47.85313104 -41.00144355 47.48586729 -45 47 C-47.15827162 50.23740742 -47.73320331 51.24233303 -47 55 C-44.21829104 57.07706482 -44.21829104 57.07706482 -41 59 C-36.56661822 63.68671788 -33.89058299 68.8812194 -33.5625 75.375 C-33.81599135 82.44861582 -37.10617966 88.95788207 -42 94 C-44.75 95.8125 -44.75 95.8125 -47 97 C-46.55296014 101.47883696 -46.55296014 101.47883696 -44 105 C-42.515 104.505 -42.515 104.505 -41 104 C-33.265597 103.00659044 -27.43968171 104.64576681 -21 109 C-16.40980997 112.99719898 -13.30407506 118.42297159 -12.78515625 124.52734375 C-12.73218123 128.53578655 -12.89705835 132.13080953 -14 136 C-10.91190305 137.76462683 -9.76687864 138 -6 138 C-4.45312396 136.383272 -4.45312396 136.383272 -3.1875 134.25 C-0.34636089 130.30319592 2.18013897 127.30266514 7 126 C14.35075189 125.21241944 21.91174554 124.7498121 28.41796875 128.71875 C31.63209579 131.3217961 34.13897718 134.27795435 36 138 C39.465 137.505 39.465 137.505 43 137 C44.06186494 133.81440519 43.89718662 132.60027032 43.375 129.375 C42.60754313 122.44769193 44.37141242 117.56625922 48.0625 111.75 C52.1734745 107.34362614 57.76213006 104.40762883 63.73046875 103.65625 C67.67268668 103.60966545 71.19778729 103.94093619 75 105 C76.76462683 101.91190305 77 100.76687864 77 97 C75.948125 96.29875 74.89625 95.5975 73.8125 94.875 C68.95325741 91.61575192 66.69780885 87.54417225 65 82 C64.09110789 75.35073666 64.04619933 68.71195024 67.51171875 62.7890625 C70.47391735 59.22820434 74.19712089 56.60025922 78 54 C77.01 51.69 76.02 49.38 75 47 C73.99839844 47.03480469 72.99679687 47.06960938 71.96484375 47.10546875 C58.64069795 47.43346832 58.64069795 47.43346832 53 44 C52.113125 43.46375 51.22625 42.9275 50.3125 42.375 C44.74686046 36.65893777 43.67347206 30.76824403 43.75 22.9375 C43.81368484 20.6243755 43.89036826 18.31140251 44 16 C41.69 15.01 39.38 14.02 37 13 C36.59910156 13.60328125 36.19820313 14.2065625 35.78515625 14.828125 C31.65005282 20.6416491 28.07844885 24.37473682 21 26 C13.44346925 26.97503623 7.2921477 26.63303328 0.80859375 22.43359375 C-2.64424235 19.69668047 -4.61263456 17.16209631 -6 13 C-9.08009879 13 -11.31135136 14.5972268 -14 16 Z " fill="#4D5154" transform="translate(371,347)"/>
<path d="M0 0 C1.39412109 0.61488281 1.39412109 0.61488281 2.81640625 1.2421875 C4.06500375 1.78668866 5.31370739 2.33094648 6.5625 2.875 C7.47612305 3.27912109 7.47612305 3.27912109 8.40820312 3.69140625 C26.6080676 11.58764375 44.87176942 10.32579372 63.0625 3.3125 C64.14660156 2.87550781 65.23070312 2.43851563 66.34765625 1.98828125 C69 1 69 1 71 1 C69.6218618 8.24839089 67.98568353 15.40740903 66.1875 22.5625 C65.79002563 24.14937622 65.79002563 24.14937622 65.38452148 25.76831055 C63.72563787 32.32077649 61.93164131 38.80973303 59.96557617 45.27563477 C57.95451855 51.96830105 56.2321528 58.73062987 54.5 65.5 C52.18694864 74.53319247 49.75642701 83.50590963 47.06640625 92.43359375 C45.62134957 97.26632911 44.30390482 102.12751355 43 107 C38.38 107 33.76 107 29 107 C25.62873174 96.36753855 22.68237233 85.64492298 19.77783203 74.87744141 C18.79114218 71.22737028 17.79396053 67.580214 16.79638672 63.93310547 C14.94130722 57.15089532 13.09544044 50.36644931 11.27734375 43.57421875 C10.6849314 41.36196964 10.09248333 39.1497301 9.5 36.9375 C9.20996094 35.85364014 8.91992188 34.76978027 8.62109375 33.65307617 C6.44038581 25.54174317 4.15968649 17.46244051 1.77734375 9.40795898 C1.54273438 8.60430908 1.308125 7.80065918 1.06640625 6.97265625 C0.85959229 6.27406494 0.65277832 5.57547363 0.43969727 4.85571289 C0 3 0 3 0 0 Z " fill="#F8C842" transform="translate(185,241)"/>
<path d="M0 0 C0.91245483 -0.00511093 1.82490967 -0.01022186 2.76501465 -0.01548767 C5.78611784 -0.02940674 8.80699353 -0.02842533 11.828125 -0.02612305 C13.92415451 -0.03000835 16.02018324 -0.03434267 18.11621094 -0.03910828 C22.51109367 -0.04657521 26.90589607 -0.04627551 31.30078125 -0.04101562 C36.9402926 -0.03521659 42.579476 -0.0521603 48.21893311 -0.0753603 C52.54770845 -0.09007114 56.87640429 -0.09097302 61.2052002 -0.08785057 C63.28487803 -0.08836499 65.36456019 -0.09362528 67.44421387 -0.10366249 C70.34844471 -0.11595993 73.25202997 -0.10927582 76.15625 -0.09765625 C77.01972046 -0.10529999 77.88319092 -0.11294373 78.77282715 -0.12081909 C84.64447469 -0.06873286 84.64447469 -0.06873286 86.80116272 1.63906574 C88.66239309 4.02301584 88.41856001 5.82725252 88.37109375 8.81762695 C88.36142578 9.89077148 88.35175781 10.96391602 88.34179688 12.06958008 C88.31666016 13.18913086 88.29152344 14.30868164 88.265625 15.4621582 C88.24532227 17.15888672 88.24532227 17.15888672 88.22460938 18.88989258 C88.18922458 21.68529138 88.13985448 24.47973713 88.078125 27.2746582 C87.02834473 27.29971436 85.97856445 27.32477051 84.89697266 27.35058594 C81.00931176 27.44462087 77.12183119 27.544851 73.234375 27.64697266 C71.55049858 27.69033637 69.86657777 27.7320104 68.18261719 27.77197266 C65.76483776 27.82964054 63.34728205 27.8933447 60.9296875 27.95825195 C59.79679794 27.98332069 59.79679794 27.98332069 58.64102173 28.00889587 C54.73072701 28.05020928 54.73072701 28.05020928 51.078125 29.2746582 C51.03570777 31.60760596 51.03719563 33.94168387 51.078125 36.2746582 C53.10935575 38.30588895 57.25581366 37.53135438 60.05078125 37.59106445 C61.24724525 37.6222361 61.24724525 37.6222361 62.46788025 37.65403748 C65.02537111 37.71961978 67.5829678 37.77845787 70.140625 37.8371582 C71.87045382 37.8803352 73.60027179 37.92394921 75.33007812 37.96801758 C79.5793176 38.07530992 83.8286639 38.17655246 88.078125 38.2746582 C88.4456802 43.78798627 88.4456802 43.78798627 86.81310272 45.94964695 C83.72665845 48.30678004 79.80016147 47.69797816 76.06445312 47.67871094 C74.68114052 47.68900581 74.68114052 47.68900581 73.2698822 47.69950867 C70.21622397 47.71783629 67.16307652 47.713931 64.109375 47.70825195 C61.99092439 47.71281058 59.87247527 47.7181152 57.75402832 47.72413635 C53.31203202 47.73307896 48.8702154 47.73063086 44.42822266 47.72070312 C38.72807116 47.70920658 33.02853849 47.7294299 27.32846832 47.75862026 C22.95334923 47.7769406 18.57837962 47.77669822 14.20323181 47.77098274 C12.10122306 47.77082905 9.99920447 47.77691304 7.89723206 47.78927422 C4.96168853 47.80410533 2.02730344 47.79356557 -0.90820312 47.77636719 C-2.21743492 47.79086914 -2.21743492 47.79086914 -3.55311584 47.80566406 C-9.42113746 47.73345216 -9.42113746 47.73345216 -11.96394348 45.40364075 C-13.16407626 42.73637103 -13.26355626 40.77553396 -13.21484375 37.8527832 C-13.20517578 36.82797852 -13.19550781 35.80317383 -13.18554688 34.74731445 C-13.16041016 33.68383789 -13.13527344 32.62036133 -13.109375 31.5246582 C-13.09583984 30.44571289 -13.08230469 29.36676758 -13.06835938 28.25512695 C-13.03304084 25.594464 -12.98371699 22.93481525 -12.921875 20.2746582 C-11.84180176 20.25483887 -10.76172852 20.23501953 -9.64892578 20.21459961 C-5.64933587 20.13864197 -1.65011448 20.04991005 2.34912109 19.95727539 C4.08146907 19.9189448 5.81389774 19.88409914 7.54638672 19.8527832 C10.03382249 19.80722056 12.52070066 19.74921317 15.0078125 19.6887207 C15.78494598 19.67716949 16.56207947 19.66561829 17.36276245 19.65371704 C21.68463475 19.68672053 21.68463475 19.68672053 25.078125 17.2746582 C25.078125 14.9646582 25.078125 12.6546582 25.078125 10.2746582 C12.538125 9.9446582 -0.001875 9.6146582 -12.921875 9.2746582 C-12.591875 6.9646582 -12.261875 4.6546582 -11.921875 2.2746582 C-7.97359165 -0.3575307 -4.58252737 -0.01314791 0 0 Z " fill="#B3B7B7" transform="translate(182.921875,358.725341796875)"/>
<path d="M0 0 C5.51118969 4.07434381 10.78466964 9.72717999 12.1875 16.6171875 C13.16845614 25.64418836 12.6811541 33.16816499 7.1875 40.6171875 C1.78048233 46.70440569 -3.77543723 49.97610678 -11.8203125 51 C-20.15802478 51.45335079 -26.18276538 49.74461772 -32.8125 44.6171875 C-35.25088628 42.14888237 -37.07791405 39.61436323 -38.8125 36.6171875 C-39.43125 35.5653125 -40.05 34.5134375 -40.6875 33.4296875 C-42.88887917 25.96945809 -43.05404507 18.41520107 -39.8125 11.2421875 C-36.29225397 5.12650583 -30.73704376 -0.48306431 -23.98046875 -2.94140625 C-15.60335986 -4.64701581 -7.46117866 -4.3441731 0 0 Z M-27.1328125 14.16015625 C-29.94518931 18.45738935 -30.77665 22.5678246 -29.8125 27.6171875 C-28.12702783 32.52400589 -25.38471465 35.66167129 -20.734375 37.95703125 C-16.63322735 39.3657588 -12.99177265 39.3657588 -8.890625 37.95703125 C-4.94016792 36.00712615 -2.43090676 33.55978511 -0.47265625 29.609375 C1.23648483 24.45161199 0.94009619 20.15132589 -1.4375 15.3046875 C-4.54021906 11.79371593 -7.18571799 9.08694049 -11.953125 8.234375 C-18.15039816 7.91818759 -23.02869427 9.36392341 -27.1328125 14.16015625 Z " fill="#4E5255" transform="translate(400.8125,399.3828125)"/>
<path d="M0 0 C20.79 0 41.58 0 63 0 C60.73710819 6.78867543 60.73710819 6.78867543 57.6875 9.25 C56.82705078 9.96929687 56.82705078 9.96929687 55.94921875 10.703125 C51.18883065 13.87035716 46.74200254 14.31848159 41.13671875 14.3359375 C40.3859053 14.3425943 39.63509186 14.3492511 38.86152649 14.35610962 C37.27725664 14.36620372 35.69294455 14.37092765 34.10864258 14.37060547 C31.70516522 14.37496794 29.30354229 14.41128851 26.90039062 14.44921875 C12.35224466 14.558951 12.35224466 14.558951 6 10 C3.90625 7.9296875 3.90625 7.9296875 2.5 5.875 C2.0153125 5.19179688 1.530625 4.50859375 1.03125 3.8046875 C0 2 0 2 0 0 Z " fill="#EFF0F0" transform="translate(189,417)"/>
<path d="M0 0 C1.8253125 -0.01546875 1.8253125 -0.01546875 3.6875 -0.03125 C7 0.5 7 0.5 9.4375 2.3046875 C11 4.5 11 4.5 11 8.125 C10 11.5 10 11.5 8.3125 12.6953125 C5.44071286 13.69461681 3.0381099 13.76519055 0 13.75 C-1.546875 13.75773438 -1.546875 13.75773438 -3.125 13.765625 C-5.997254 13.50025371 -7.65518889 13.16090787 -10 11.5 C-11 8.125 -11 8.125 -11 4.5 C-7.90247788 0.14798142 -5.16524911 -0.0437733 0 0 Z " fill="#4B4F52" transform="translate(381,179.5)"/>
<path d="M0 0 C6.0143786 0.97006106 10.60359933 4.35359933 14.875 8.625 C14.6875 12.125 14.6875 12.125 13.875 15.625 C10.7188027 17.72913153 9.57042125 17.95563207 5.921875 17.29296875 C1.70702017 15.9175104 -1.86839692 13.61137431 -5.125 10.625 C-6.53693579 7.09516051 -6.58536654 5.71837053 -5.125 2.25 C-3.125 0.625 -3.125 0.625 0 0 Z " fill="#4B4F52" transform="translate(355.125,256.375)"/>
<path d="M0 0 C3.73702251 1.32352881 4.83736199 2.78125612 7 6.0625 C7.5775 6.84625 8.155 7.63 8.75 8.4375 C10.39488705 11.8917628 10.4898026 14.28402277 10 18.0625 C8.375 20.0625 8.375 20.0625 6 21.0625 C3.125 21.3125 3.125 21.3125 0 20.0625 C-4.18335174 15.50060831 -7.24831612 10.39456095 -7 4.0625 C-4.93030398 0.75098636 -3.91870733 0.08163974 0 0 Z " fill="#4C5053" transform="translate(139,34.9375)"/>
<path d="M0 0 C1.9375 1.625 1.9375 1.625 3 4 C3.25 6.875 3.25 6.875 2 10 C-2.56189169 14.18335174 -7.66793905 17.24831612 -14 17 C-16.5 15.4375 -16.5 15.4375 -18 13 C-18.3125 10.125 -18.3125 10.125 -17 7 C-11.84027745 2.69023174 -6.86299144 -0.70030525 0 0 Z " fill="#4C4F53" transform="translate(367,99)"/>
<path d="M0 0 C1.22847656 -0.00773438 2.45695312 -0.01546875 3.72265625 -0.0234375 C6.9375 0.375 6.9375 0.375 8.83984375 1.6796875 C10.74383114 4.62036553 10.41924091 7.00281363 9.9375 10.375 C6.92025854 13.60032707 3.64598107 13.60801346 -0.5625 13.75 C-8.14454284 13.49419559 -8.14454284 13.49419559 -11.0625 10.375 C-11.625 6.875 -11.625 6.875 -11.0625 3.375 C-7.76878974 -0.12860356 -4.64114469 -0.02928167 0 0 Z " fill="#4B4F52" transform="translate(61.0625,179.625)"/>
<path d="M0 0 C1 1 1 1 1.4375 3.9375 C1.3469378 9.38255226 -1.50086536 13.98134318 -5 18 C-8.6875 19.25 -8.6875 19.25 -12 19 C-15 17 -15 17 -15.890625 14.26953125 C-16.02919824 10.12718121 -14.90107343 8.19829668 -12.75 4.6875 C-12.12609375 3.63949219 -11.5021875 2.59148438 -10.859375 1.51171875 C-7.46085363 -3.07914101 -4.81306681 -1.88337397 0 0 Z " fill="#4B4F52" transform="translate(308,41)"/>
<path d="M0 0 C5.65807434 0.09326496 10.51604862 3.57854862 14.4375 7.5 C14.8125 10.875 14.8125 10.875 14.4375 14.5 C12.375 16.5625 12.375 16.5625 9.4375 17.5 C3.56818449 16.72480739 -1.58575675 13.93985765 -5.5625 9.5 C-6.1875 5.75 -6.1875 5.75 -5.5625 2.5 C-3.5625 0.5 -3.5625 0.5 0 0 Z " fill="#4B4F52" transform="translate(77.5625,96.5)"/>
<path d="M0 0 C2 2 2 2 2.6875 5.25 C2 9 2 9 0.05859375 10.7578125 C-5.06030502 14.1594563 -8.72462425 16.51227557 -15 16 C-16.875 14.875 -16.875 14.875 -18 13 C-18.375 10 -18.375 10 -18 7 C-13.6606337 1.75490927 -6.70652603 -2.45360708 0 0 Z " fill="#4B4F52" transform="translate(90,260)"/>
<path d="M0 0 C1.66796875 1.05078125 1.66796875 1.05078125 3 3 C3.2719239 5.59643464 3.37409761 7.91290049 3.3125 10.5 C3.31572266 11.17675781 3.31894531 11.85351562 3.32226562 12.55078125 C3.28230168 16.23473014 3.09194697 17.86207954 1 21 C-2.07152928 22.16220027 -3.53741593 22.16790088 -6.63671875 21.04296875 C-9 19 -9 19 -9.59375 15.05859375 C-9.58844191 13.51792135 -9.55621978 11.97715546 -9.5 10.4375 C-9.50257813 9.65697266 -9.50515625 8.87644531 -9.5078125 8.07226562 C-9.46875 5.80859375 -9.46875 5.80859375 -9 2 C-5.53076119 -0.31282587 -4.07794425 -0.42478586 0 0 Z " fill="#4B5053" transform="translate(224,13)"/>
</svg>
