<?xml version="1.0" encoding="UTF-8"?>
<svg version="1.1" xmlns="http://www.w3.org/2000/svg" width="374" height="374">
<path d="M0 0 C104.61 0 209.22 0 317 0 C317 11.25006053 317 11.25006053 316.58112431 16.00380707 C316.48768932 17.0884032 316.39425434 18.17299933 316.297988 19.29046202 C316.19361451 20.45059954 316.08924103 21.61073707 315.98170471 22.80603027 C315.87215436 24.06273041 315.76260402 25.31943055 315.64973396 26.61421251 C315.34774245 30.07699252 315.04034458 33.53927384 314.73199832 37.00149298 C314.39957985 40.74480822 314.07222256 44.48856661 313.74420166 48.23226929 C313.10186602 55.55387765 312.45482573 62.87506286 311.80608577 70.19610626 C311.27916313 76.14346288 310.75397708 82.0909705 310.23002434 88.03858948 C310.15537831 88.88591767 310.08073228 89.73324587 310.00382425 90.60625067 C309.85218668 92.32762549 309.70055343 94.04900069 309.54892444 95.77037627 C308.12857623 111.89269489 306.70291555 128.01454033 305.27539533 144.13622528 C304.04991762 157.97750655 302.82887546 171.81917325 301.61108398 185.66113281 C300.19656222 201.73918419 298.77941549 217.8170005 297.35797828 233.89444208 C297.20657965 235.60694 297.05518402 237.31943819 296.90379143 239.03193665 C296.82930116 239.87452309 296.7548109 240.71710953 296.67806335 241.58522889 C296.15255935 247.5314353 295.62893429 253.47780546 295.10601997 259.42424011 C294.46951115 266.66180633 293.83009812 273.89910889 293.18691701 281.13608533 C292.85866839 284.83031126 292.5317478 288.52464222 292.2083416 292.2192955 C291.85840324 296.21654379 291.50218293 300.21320652 291.14527893 304.20983887 C291.04313617 305.38782217 290.94099341 306.56580546 290.83575541 307.77948523 C290.73971268 308.84321938 290.64366995 309.90695354 290.54471684 311.00292206 C290.42225703 312.38798486 290.42225703 312.38798486 290.29732329 313.80102873 C290 316 290 316 289 318 C287.28968811 318.70661926 287.28968811 318.70661926 285.01196289 319.36254883 C284.14699188 319.61570358 283.28202087 319.86885834 282.39083862 320.12968445 C280.94633835 320.53922112 280.94633835 320.53922112 279.47265625 320.95703125 C278.45358185 321.25273514 277.43450745 321.54843903 276.384552 321.85310364 C272.94626886 322.84811801 269.50466042 323.83098806 266.0625 324.8125 C263.6429026 325.50606015 261.22338948 326.19991442 258.80395508 326.89404297 C254.88146287 328.01863227 250.95867968 329.14213144 247.03465271 330.26135254 C238.61271319 332.66536979 230.2023006 335.1060458 221.7997179 337.57687664 C215.08746793 339.55030887 208.37073305 341.5079244 201.65084362 343.45518208 C197.51338396 344.65486129 193.37849379 345.86217603 189.24856567 347.08755493 C185.31978237 348.25279596 181.38522891 349.39607467 177.44552231 350.52380943 C175.99036009 350.94441871 174.53740716 351.37276298 173.08700943 351.80951881 C171.08195042 352.41201326 169.07056983 352.98554571 167.05541992 353.55322266 C165.92891525 353.88246735 164.80241058 354.21171204 163.64176941 354.55093384 C155.02936447 355.61292849 146.19336966 352.03383295 137.98852539 349.66772461 C136.83120911 349.33741745 135.67389282 349.00711029 134.48150635 348.66679382 C131.33860015 347.76892857 128.19672158 346.86757425 125.05529332 345.96455455 C121.7570155 345.01732718 118.45746647 344.07454804 115.1580658 343.13124084 C109.62733295 341.54932931 104.09743072 339.96454383 98.56811523 338.37768555 C90.76928408 336.13950545 82.96893211 333.90666294 75.16828549 331.67481983 C69.10277699 329.9392046 63.0376885 328.20212235 56.97265625 326.46484375 C56.32314098 326.2788149 55.6736257 326.09278604 55.00442815 325.90111995 C50.70453838 324.66948075 46.40503328 323.436506 42.10571289 322.20288086 C41.01947128 321.89169312 39.93322968 321.58050537 38.81407166 321.2598877 C37.32763657 320.83303932 37.32763657 320.83303932 35.81117249 320.39756775 C34.94937913 320.15035949 34.08758577 319.90315123 33.19967747 319.64845181 C31.45563839 319.13431948 29.72493592 318.57497864 28 318 C27.0481458 315.14443739 26.71893755 312.85962761 26.45528316 309.87708092 C26.35924044 308.81073902 26.26319771 307.74439711 26.16424459 306.64574182 C26.06210183 305.46998924 25.95995907 304.29423667 25.85472107 303.08285522 C25.74361073 301.83707502 25.63250039 300.59129482 25.51802307 299.3077637 C25.20914422 295.84332172 24.90484033 292.37849064 24.60127366 288.9135797 C24.27329425 285.17904243 23.94112804 281.44487729 23.60949707 277.71066284 C22.96014443 270.39102782 22.31476029 263.07104804 21.67079382 255.75093739 C21.14719945 249.79988625 20.62220617 243.84896008 20.09620857 237.89812088 C20.02140931 237.05186532 19.94661005 236.20560975 19.86954414 235.33371008 C19.71758955 233.61460401 19.56563208 231.89549819 19.41367174 230.17639263 C17.98757673 214.04121811 16.56600673 197.90564734 15.14594299 181.76994105 C13.92782462 167.93012738 12.70571874 154.09067052 11.48071289 140.25146484 C10.05848723 124.18420243 8.63884105 108.11671544 7.22321945 92.04886973 C7.07214191 90.33417073 6.92106066 88.61947206 6.76997566 86.90477371 C6.65847168 85.63927416 6.65847168 85.63927416 6.54471509 84.34820896 C6.02119206 78.40861749 5.49582115 72.46919114 4.96972466 66.52982712 C4.32805321 59.28515825 3.68919105 52.04024817 3.05390244 44.79501669 C2.72980412 41.09961639 2.40445926 37.40433743 2.07567787 33.70935059 C1.71893286 29.69961765 1.36832194 25.68937162 1.01829529 21.67904663 C0.9139218 20.51667838 0.80954832 19.35431014 0.702012 18.15671861 C0.60857702 17.07473023 0.51514204 15.99274184 0.41887569 14.87796593 C0.33739818 13.95345426 0.25592066 13.02894259 0.17197412 12.07641542 C-0.05272503 8.056811 0 4.02587995 0 0 Z " fill="#0277BD" transform="translate(28,9)"/>
<path d="M0 0 C56.1 0 112.2 0 170 0 C169.41746582 15.14588856 168.81595956 30.22037996 167.81393433 45.33291626 C166.39873044 66.71504454 165.19953357 88.10658372 164.09033203 109.5065918 C163.43878407 121.91387612 162.65691561 134.30204008 161.68748474 146.68891907 C160.95773627 156.09585069 160.50451351 165.50439961 160.17358398 174.93310547 C159.9715501 177.33875793 159.48747564 179.63730104 159 182 C105.87011719 199.70996094 105.87011719 199.70996094 102.38537598 200.86462402 C100.11470428 201.62615424 97.84959848 202.40447118 95.59020996 203.19885254 C94.52693481 203.56925659 93.46365967 203.93966064 92.36816406 204.32128906 C90.96392181 204.82018646 90.96392181 204.82018646 89.53131104 205.3291626 C85.202283 206.4764234 82.11720602 205.50214163 78 204 C76.76636719 203.56816406 75.53273438 203.13632812 74.26171875 202.69140625 C72.08786327 201.92726775 69.91661702 201.15736887 67.74951172 200.37426758 C63.01941132 198.67161403 58.280112 197.17339814 53.4375 195.8125 C45.30563863 193.4783173 37.25061042 190.8996534 29.22244263 188.23300171 C27.74414462 187.74543233 26.26338456 187.26526377 24.78024292 186.79263306 C22.67961143 186.12132029 20.58960076 185.42353541 18.5 184.71875 C16.65921875 184.11450195 16.65921875 184.11450195 14.78125 183.49804688 C12 182 12 182 11.12719727 179.84448242 C11.08522217 178.90580322 11.04324707 177.96712402 11 177 C10.90195068 175.74421143 10.80390137 174.48842285 10.70288086 173.19458008 C10.61964292 171.71977833 10.5405236 170.24474016 10.46484375 168.76953125 C10.42186661 167.97906906 10.37888947 167.18860687 10.33460999 166.37419128 C10.24467318 164.70422574 10.15653033 163.03416273 10.07006836 161.36401367 C9.9388301 158.83810008 9.80092229 156.31261675 9.66210938 153.78710938 C9.23541669 145.84956534 8.87815887 137.95216465 9 130 C14.25105442 129.97535072 19.50207545 129.95716432 24.75317383 129.94506836 C26.54094021 129.94002782 28.32870245 129.93319546 30.11645508 129.92456055 C32.68051168 129.9124827 35.24451397 129.90676906 37.80859375 129.90234375 C38.6127623 129.89718246 39.41693085 129.89202118 40.24546814 129.88670349 C42.16401715 129.88650785 44.08245368 129.93798017 46 130 C47 131 47 131 47.11352539 133.22485352 C47.10828857 134.18319092 47.10305176 135.14152832 47.09765625 136.12890625 C47.09443359 137.16337891 47.09121094 138.19785156 47.08789062 139.26367188 C47.07532227 140.8965918 47.07532227 140.8965918 47.0625 142.5625 C47.05798828 143.65498047 47.05347656 144.74746094 47.04882812 145.87304688 C47.03699826 148.58208495 47.02051543 151.29101599 47 154 C47.6388916 154.16145508 48.2777832 154.32291016 48.93603516 154.48925781 C57.77568013 156.80240636 66.28926474 159.87210225 74.85546875 163.03515625 C75.96277344 163.43089844 77.07007813 163.82664063 78.2109375 164.234375 C79.70052979 164.77916504 79.70052979 164.77916504 81.22021484 165.33496094 C86.59522394 166.62088442 91.32547618 164.28738853 96.3828125 162.49609375 C97.81117729 161.99798772 99.23956334 161.49994265 100.66796875 161.00195312 C102.90465818 160.21770743 105.14079993 159.43193696 107.37646484 158.64477539 C109.54390076 157.88296796 111.71323436 157.12677447 113.8828125 156.37109375 C114.55160431 156.13361923 115.22039612 155.89614471 115.90945435 155.651474 C118.7503121 154.66401804 120.96698964 154 124 154 C124 149.71 124 145.42 124 141 C124.66 131.43 125.32 121.86 126 112 C98.94 112 71.88 112 44 112 C43.27549726 99.68345349 43 87.33783702 43 75 C71.05 74.67 99.1 74.34 128 74 C128.99 61.79 129.98 49.58 131 37 C88.43 37 45.86 37 2 37 C1.34 24.79 0.68 12.58 0 0 Z " fill="#FDFEFE" transform="translate(101,84)"/>
<path d="M0 0 C41.91 0 83.82 0 127 0 C126.36249715 12.11255412 125.63523827 24.1317212 124.51171875 36.1953125 C124.36670021 37.78372376 124.22206262 39.37216984 124.07777405 40.96064758 C123.77411405 44.29798288 123.46852944 47.63513303 123.16125488 50.97213745 C122.35761598 59.70326189 121.56718314 68.43558686 120.77734375 77.16796875 C120.66012152 78.46238608 120.66012152 78.46238608 120.54053116 79.78295326 C119.194371 94.66144415 117.93502373 109.54522564 116.75 124.4375 C115.69288089 137.70265722 114.55693201 150.94704524 113.21386719 164.18676758 C112.31485601 173.26018775 111.54716986 182.34181275 110.80859375 191.4296875 C110.7552997 192.08523117 110.70200565 192.74077484 110.64709663 193.41618347 C110.05356772 200.72316127 109.46753919 208.03069253 108.88891602 215.33886719 C107.51109048 232.59079635 105.86037544 249.79393579 104 267 C90.88439072 270.78579978 77.76756088 274.56733712 64.64914227 278.34339142 C58.55820923 280.09677424 52.46771139 281.85163948 46.37817383 283.60986328 C40.50478312 285.30562079 34.6302945 286.9975225 28.75501442 288.6867218 C26.51026429 289.33284933 24.26591778 289.98038075 22.02197838 290.62931824 C18.88638626 291.53586168 15.7494145 292.43746664 12.61206055 293.33789062 C11.67842178 293.60906204 10.74478302 293.88023346 9.78285217 294.15962219 C8.92889862 294.40363266 8.07494507 294.64764313 7.19511414 294.89904785 C6.45307078 295.11290382 5.71102743 295.3267598 4.94649792 295.54709625 C3 296 3 296 0 296 C0 281.48 0 266.96 0 252 C10.12450992 247.50021781 10.12450992 247.50021781 13.68334961 246.35595703 C14.48546371 246.09533478 15.28757782 245.83471252 16.11399841 245.56619263 C16.95165237 245.29942719 17.78930634 245.03266174 18.65234375 244.7578125 C19.55134903 244.4669577 20.45035431 244.17610291 21.37660217 243.87643433 C24.2287673 242.95466294 27.08302082 242.03957717 29.9375 241.125 C32.74918373 240.21941496 35.56040909 239.31242119 38.37149048 238.40496826 C40.21729684 237.80947629 42.06346539 237.21510574 43.91000366 236.62188721 C48.37898861 235.18349559 52.83928141 233.72477238 57.28564453 232.21777344 C58.11431534 231.93739227 58.94298615 231.65701111 59.79676819 231.36813354 C61.35222374 230.83975341 62.90637737 230.30751929 64.45896912 229.77078247 C67.432937 228.76039776 69.83518412 228 73 228 C73.04487549 226.95811523 73.08975098 225.91623047 73.13598633 224.84277344 C74.04745496 203.89254502 75.14051635 182.96960099 76.62954712 162.05218506 C77.74520405 146.33397462 78.65596895 130.60999165 79.5 114.875 C80.7344034 91.89211012 82.29071002 68.9533226 84 46 C56.28 46 28.56 46 0 46 C0 30.82 0 15.64 0 0 Z " fill="#039BE4" transform="translate(187,38)"/>
<path d="M0 0 C5.25105442 -0.02464928 10.50207545 -0.04283568 15.75317383 -0.05493164 C17.54094021 -0.05997218 19.32870245 -0.06680454 21.11645508 -0.07543945 C23.68051168 -0.0875173 26.24451397 -0.09323094 28.80859375 -0.09765625 C29.6127623 -0.10281754 30.41693085 -0.10797882 31.24546814 -0.11329651 C33.16401715 -0.11349215 35.08245368 -0.06201983 37 0 C38 1 38 1 38.11352539 3.22485352 C38.10828857 4.18319092 38.10305176 5.14152832 38.09765625 6.12890625 C38.09443359 7.16337891 38.09121094 8.19785156 38.08789062 9.26367188 C38.07532227 10.8965918 38.07532227 10.8965918 38.0625 12.5625 C38.05798828 13.65498047 38.05347656 14.74746094 38.04882812 15.87304688 C38.03699826 18.58208495 38.02051543 21.29101599 38 24 C38.63599121 24.16290527 39.27198242 24.32581055 39.92724609 24.49365234 C47.62280823 26.52214342 55.11445143 29.00011831 62.625 31.625 C63.80707031 32.03234375 64.98914063 32.4396875 66.20703125 32.859375 C74.86997079 35.86997079 74.86997079 35.86997079 76 37 C76.08861992 39.8116338 76.11522355 42.59858255 76.09765625 45.41015625 C76.0962413 46.25219101 76.09482635 47.09422577 76.09336853 47.96177673 C76.08775263 50.66205335 76.07519748 53.36224828 76.0625 56.0625 C76.05748705 57.88867068 76.05292379 59.71484266 76.04882812 61.54101562 C76.03777804 66.02737542 76.02050279 70.51367384 76 75 C76.66 75.33 77.32 75.66 78 76 C72.11385635 74.92979206 66.61778918 73.22460129 61 71.1875 C55.51959531 69.20214809 50.0531372 67.39063804 44.4375 65.8125 C36.30563863 63.4783173 28.25061042 60.8996534 20.22244263 58.23300171 C18.74414462 57.74543233 17.26338456 57.26526377 15.78024292 56.79263306 C13.67961143 56.12132029 11.58960076 55.42353541 9.5 54.71875 C8.2728125 54.31591797 7.045625 53.91308594 5.78125 53.49804688 C3 52 3 52 2.12719727 49.84448242 C2.08522217 48.90580322 2.04324707 47.96712402 2 47 C1.85292603 45.11631714 1.85292603 45.11631714 1.70288086 43.19458008 C1.61964292 41.71977833 1.5405236 40.24474016 1.46484375 38.76953125 C1.42186661 37.97906906 1.37888947 37.18860687 1.33460999 36.37419128 C1.24467318 34.70422574 1.15653033 33.03416273 1.07006836 31.36401367 C0.9388301 28.83810008 0.80092229 26.31261675 0.66210938 23.78710938 C0.23541669 15.84956534 -0.12184113 7.95216465 0 0 Z " fill="#EAECED" transform="translate(110,214)"/>
<path d="M0 0 C28.38 0 56.76 0 86 0 C85.67 12.21 85.34 24.42 85 37 C57.61 37 30.22 37 2 37 C1.34 24.79 0.68 12.58 0 0 Z " fill="#ECEDED" transform="translate(101,84)"/>
<path d="M0 0 C13.2 0 26.4 0 40 0 C40 15.75 40 15.75 39.5625 21.4921875 C39.42714844 23.31943359 39.42714844 23.31943359 39.2890625 25.18359375 C39.19367188 26.40175781 39.09828125 27.61992187 39 28.875 C38.90460938 30.14730469 38.80921875 31.41960937 38.7109375 32.73046875 C38.47858963 35.82069542 38.24155931 38.91048215 38 42 C32.78967297 43.88136982 27.57526753 45.75077023 22.35668945 47.60913086 C20.58142305 48.24321257 18.8073228 48.880569 17.03442383 49.52124023 C14.48817484 50.44073882 11.93798579 51.3484394 9.38671875 52.25390625 C8.59287277 52.54342667 7.79902679 52.83294708 6.98112488 53.13124084 C1.34161512 55.11387171 1.34161512 55.11387171 -2 54 C-1.34 54 -0.68 54 0 54 C0 36.18 0 18.36 0 0 Z " fill="#039BE5" transform="translate(187,196)"/>
<path d="M0 0 C42.24 0 84.48 0 128 0 C128 8.70745455 127.8234681 17.114901 127.0625 25.75 C126.97548828 26.82765625 126.88847656 27.9053125 126.79882812 29.015625 C126.12936724 36.87063276 126.12936724 36.87063276 125 38 C122.35261911 38.09511266 119.73140999 38.12555635 117.08374023 38.11352539 C116.25454071 38.11367142 115.42534119 38.11381744 114.5710144 38.1139679 C111.81684802 38.11326851 109.06274839 38.10547493 106.30859375 38.09765625 C104.40430234 38.09579216 102.50001045 38.09436822 100.59571838 38.09336853 C95.57332037 38.08954263 90.55095108 38.07971173 85.52856445 38.06866455 C80.4077188 38.05845198 75.28686852 38.05387124 70.16601562 38.04882812 C60.11066443 38.03808953 50.0553346 38.02101224 40 38 C40 37.67 40 37.34 40 37 C54.19 37 68.38 37 83 37 C83 25.12 83 13.24 83 1 C55.61 1 28.22 1 0 1 C0 0.67 0 0.34 0 0 Z " fill="#0E9DE4" transform="translate(104,121)"/>
<path d="M0 0 C13.86 0 27.72 0 42 0 C42.33 12.21 42.66 24.42 43 37 C29.14 37 15.28 37 1 37 C0.27549726 24.68345349 0 12.33783702 0 0 Z " fill="#EBECED" transform="translate(144,159)"/>
</svg>
