<?xml version="1.0" encoding="UTF-8"?>
<svg version="1.1" xmlns="http://www.w3.org/2000/svg" width="512" height="512">
<path d="M0 0 C1.67829991 1.46595403 3.34549948 2.94473751 5 4.4375 C6.2375 5.47970703 6.2375 5.47970703 7.5 6.54296875 C32.33223714 27.84437217 47.40522804 58.9256379 50 91.4375 C50.11004833 95.11163952 50.09021264 98.78159728 50.0703125 102.45703125 C50.07888586 104.55144065 50.08935767 106.64584299 50.1015625 108.74023438 C50.11833465 112.01055763 50.12477476 115.2792705 50.09960938 118.54956055 C50.07871859 121.72804617 50.10178702 124.90368357 50.1328125 128.08203125 C50.10672409 129.55081474 50.10672409 129.55081474 50.08010864 131.04927063 C50.12729532 133.69410587 50.22144544 135.90832169 51 138.4375 C53.2122793 140.51101821 55.13611498 141.24049168 58 142.4375 C59.9609375 144.65625 59.9609375 144.65625 61.375 146.9375 C62.09816406 148.06671875 62.09816406 148.06671875 62.8359375 149.21875 C65.89513181 155.04969753 65.25861241 161.51409986 65.3125 167.9375 C65.34150391 169.05898438 65.37050781 170.18046875 65.40039062 171.3359375 C65.49134229 183.45349799 62.56132309 193.63106746 54 202.4375 C44.71826876 211.06314213 35.41435594 212.96401244 23.1484375 212.578125 C22.10945313 212.53171875 21.07046875 212.4853125 20 212.4375 C19.88785156 213.74847656 19.88785156 213.74847656 19.7734375 215.0859375 C16.96630004 241.340929 4.81030444 264.37596099 -15.625 281.1875 C-17.41496438 282.60631691 -19.20621982 284.02351041 -21 285.4375 C-21.66 286.0975 -22.32 286.7575 -23 287.4375 C-22.48767979 290.38775776 -21.87974286 293.1747882 -21.125 296.0625 C-20.92519531 296.86429687 -20.72539062 297.66609375 -20.51953125 298.4921875 C-20.02343066 300.47658984 -19.51304255 302.45741016 -19 304.4375 C-18.14846848 304.55355087 -17.29693695 304.66960175 -16.41960144 304.78916931 C-12.83769586 305.46827164 -9.69655275 306.52501627 -6.28637695 307.81079102 C-5.64302399 308.05167953 -4.99967102 308.29256805 -4.33682251 308.54075623 C-2.21855634 309.33554961 -0.1033976 310.13827185 2.01171875 310.94140625 C3.50448149 311.50411504 4.99738887 312.06644027 6.49043274 312.62840271 C9.62458466 313.80942517 12.75727209 314.99422846 15.88891602 316.18188477 C19.84457405 317.68184568 23.803198 319.17377925 27.7628479 320.66316509 C86.26466399 342.67732605 86.26466399 342.67732605 101 355.4375 C101.58523438 355.86933594 102.17046875 356.30117188 102.7734375 356.74609375 C113.45522668 364.89035383 119.42630642 377.56903209 122 390.4375 C122 396.0475 122 401.6575 122 407.4375 C106.82 407.4375 91.64 407.4375 76 407.4375 C76 405.1275 76 402.8175 76 400.4375 C71.38 400.4375 66.76 400.4375 62 400.4375 C62 402.7475 62 405.0575 62 407.4375 C-50.2 407.4375 -162.4 407.4375 -278 407.4375 C-278 386.4138044 -275.25261829 373.62658841 -261 358.4375 C-245.2366033 343.49955144 -222.95516906 335.26946254 -202.87109375 327.85546875 C-201.30006134 327.26937701 -199.72927075 326.68263671 -198.15870667 326.09529114 C-194.0823416 324.57276542 -190.00284544 323.05882053 -185.92254639 321.546875 C-181.76866763 320.00591504 -177.61786589 318.45671242 -173.46679688 316.90820312 C-166.73465517 314.39787916 -160.00219577 311.88837781 -153.26352596 309.39561749 C-149.89449432 308.14823703 -146.53933942 306.8709707 -143.19165039 305.56762695 C-140 304.4375 -140 304.4375 -137 304.4375 C-135.68 298.4975 -134.36 292.5575 -133 286.4375 C-134.9490625 284.9525 -134.9490625 284.9525 -136.9375 283.4375 C-138.6297213 282.11016391 -140.31710109 280.77663602 -142 279.4375 C-142.7425 278.84710938 -143.485 278.25671875 -144.25 277.6484375 C-163.59360636 261.41362502 -173.65227658 237.14115684 -176 212.4375 C-177.52367187 212.52451172 -177.52367187 212.52451172 -179.078125 212.61328125 C-190.76460933 213.08079764 -199.67394248 211.34970997 -208.9375 203.625 C-217.1585316 195.67156075 -221.00999021 186.49762598 -221.3984375 175.0546875 C-221.4063047 172.80729186 -221.39827457 170.55978889 -221.375 168.3125 C-221.38660156 167.18457031 -221.39820313 166.05664062 -221.41015625 164.89453125 C-221.37977766 156.23663314 -220.40357601 148.84107601 -214 142.4375 C-212.22254395 141.6952417 -212.22254395 141.6952417 -210.40917969 140.93798828 C-208.03925533 139.6017937 -207.16595591 138.98319608 -206.36486816 136.34906006 C-206.1399539 133.60433792 -206.13614527 130.93295346 -206.203125 128.1796875 C-206.19536041 126.65409714 -206.19536041 126.65409714 -206.18743896 125.09768677 C-206.17553548 121.8349788 -206.20998472 118.57495057 -206.25 115.3125 C-206.27508049 111.05974879 -206.27963823 106.80748743 -206.265625 102.5546875 C-206.26090431 100.9998893 -206.26090431 100.9998893 -206.25608826 99.41368103 C-205.9516929 73.05043609 -197.11515374 44.80745862 -180 24.4375 C-179.39671875 23.70917969 -178.7934375 22.98085937 -178.171875 22.23046875 C-176.80556663 20.61196795 -175.40718838 19.02058693 -174 17.4375 C-173.4225 17.953125 -172.845 18.46875 -172.25 19 C-170.17383941 20.65293651 -170.17383941 20.65293651 -168.09375 20.25 C-165.49678752 19.24222351 -164.1571636 17.89219226 -162.25 15.875 C-161.63640625 15.23433594 -161.0228125 14.59367187 -160.390625 13.93359375 C-159.70226562 13.19302734 -159.70226562 13.19302734 -159 12.4375 C-160.32 10.4575 -161.64 8.4775 -163 6.4375 C-120.39089377 -34.96049469 -45.92429382 -36.95873646 0 0 Z " fill="#020201" transform="translate(334,104.5625)"/>
<path d="M0 0 C1.55194504 1.32135554 3.0938108 2.65464744 4.625 4 C5.43066406 4.66257812 6.23632812 5.32515625 7.06640625 6.0078125 C26.4841295 22.47793144 41.20093742 48.51034653 43.625 74 C43.7575198 77.94718697 43.74153842 81.89081711 43.72265625 85.83984375 C43.72053383 87.52298424 43.72053383 87.52298424 43.71836853 89.24012756 C43.712794 92.80594608 43.70024616 96.37170062 43.6875 99.9375 C43.68248171 102.3626293 43.67791938 104.78775959 43.67382812 107.21289062 C43.66283291 113.14194872 43.6461202 119.07096979 43.625 125 C41.03129326 125.11483387 38.44267092 125.19901799 35.84765625 125.265625 C34.74774353 125.31904053 34.74774353 125.31904053 33.62561035 125.37353516 C30.03655637 125.44273155 28.13616591 125.4575188 25.40576172 123.01367188 C24.0625 120.75 24.0625 120.75 22.84765625 118.265625 C20.87202369 114.60470843 18.36455795 113.66202576 14.625 112 C10.37800814 110.73380519 6.17268801 110.85539091 1.77661133 110.8581543 C0.88340179 110.85467987 -0.00980774 110.85120544 -0.93008423 110.84762573 C-2.8687344 110.84027862 -4.80739293 110.83492767 -6.7460537 110.83133507 C-9.81956635 110.82415663 -12.89292056 110.80847873 -15.96638489 110.78999329 C-24.70486249 110.73759517 -33.4432535 110.68957431 -42.18188477 110.67407227 C-47.52941951 110.66396458 -52.87655542 110.63456836 -58.22393227 110.59275246 C-60.25674733 110.58047642 -62.28961881 110.57531496 -64.32246971 110.57755089 C-67.17528884 110.57991617 -70.02697344 110.55764406 -72.87963867 110.5300293 C-73.71061569 110.53663071 -74.54159271 110.54323212 -75.39775085 110.55003357 C-84.37102192 110.40825873 -91.16262354 106.83502422 -97.65234375 100.796875 C-104.04510997 94.12868347 -105.375 89.1666157 -105.375 80 C-110.655 80 -115.935 80 -121.375 80 C-121.4575 81.36125 -121.54 82.7225 -121.625 84.125 C-122.31716644 90.17434501 -124.80106889 93.46184005 -129.125 97.6875 C-134.37161124 101.42066569 -138.95718872 103.00095578 -145.375 103.375 C-151.97728802 103.88286831 -156.31313871 106.77536018 -160.75 111.5625 C-164.05025331 116.51287997 -164.45978401 118.59348804 -165.375 125 C-170.325 125 -175.275 125 -180.375 125 C-180.50034411 117.96067503 -180.59014889 110.92202585 -180.6496582 103.88183594 C-180.67451418 101.4963039 -180.70841133 99.11084561 -180.75219727 96.72558594 C-181.30418817 65.84007127 -174.02339836 41.18723811 -154.375 17 C-154.66375 16.4225 -154.9525 15.845 -155.25 15.25 C-156.29166667 13.16666667 -157.33333333 11.08333333 -158.375 9 C-156.94689185 7.49105554 -155.50718981 5.99307655 -154.0625 4.5 C-153.26199219 3.6646875 -152.46148437 2.829375 -151.63671875 1.96875 C-149.375 0 -149.375 0 -146.375 0 C-144.6875 2 -144.6875 2 -143.375 4 C-139.78750744 2.3770867 -136.80172395 0.18900958 -133.625 -2.125 C-93.71333063 -30.28852249 -38.93217205 -30.3610582 0 0 Z " fill="#FCEE8E" transform="translate(324.375,117)"/>
<path d="M0 0 C3.37446174 1.12482058 4.01954686 1.98399549 6.1875 4.6875 C13.04033728 12.75476414 22.30027773 19.21663301 33.10855675 20.18986511 C35.49700582 20.27010428 37.87851085 20.289909 40.26831055 20.28710938 C41.16998962 20.29394241 42.0716687 20.30077545 43.00067139 20.30781555 C44.94744586 20.32134755 46.89425532 20.33043666 48.84107018 20.33552551 C51.92190693 20.34384502 55.00245162 20.36437573 58.08320618 20.38806152 C65.72943958 20.44434508 73.37574368 20.47971737 81.02209473 20.51568604 C87.49486098 20.54691815 93.96748362 20.58608599 100.44013405 20.63594055 C103.47578978 20.65601244 106.51133459 20.66432724 109.54704285 20.67224121 C111.40465705 20.68521098 113.26226753 20.6987309 115.11987305 20.71289062 C115.96411331 20.71190872 116.80835358 20.71092682 117.67817688 20.70991516 C124.98741548 20.78765087 124.98741548 20.78765087 128 23 C129.4835577 25.96711539 129.13553855 28.64211409 129.14526367 31.953125 C129.14862228 32.66887192 129.1519809 33.38461884 129.15544128 34.12205505 C129.16496961 36.49805421 129.16689601 38.8739829 129.16796875 41.25 C129.17118246 42.90470407 129.17454662 44.55940786 129.17805481 46.21411133 C129.18405248 49.69108741 129.1858943 53.16803863 129.18530273 56.64501953 C129.18520163 61.07873089 129.19879704 65.51228024 129.21607494 69.94595337 C129.22725706 73.36912756 129.22921996 76.79226353 129.22869301 80.2154541 C129.22986597 81.84835361 129.23424893 83.48125433 129.24202538 85.11413574 C129.34354249 108.65382542 122.68900882 129.42813265 106.26953125 146.8515625 C97.13103142 155.50246596 87.56719379 161.19599144 76 166 C74.85917969 166.50660156 74.85917969 166.50660156 73.6953125 167.0234375 C56.30037543 174.31343188 33.93855717 172.4940099 16.8125 165.6875 C14.86530715 164.81293518 12.92732374 163.91752211 11 163 C10.10925781 162.59265625 9.21851563 162.1853125 8.30078125 161.765625 C-12.16409607 151.60787568 -25.33593716 133.04286165 -32.66162109 111.81152344 C-35.73350488 102.19713499 -35.72771876 92.77462001 -35.6640625 82.765625 C-35.66743995 80.86993093 -35.67230025 78.97423899 -35.67855835 77.07855225 C-35.68586439 73.14199828 -35.67541473 69.20601778 -35.65185547 65.26953125 C-35.62313395 60.22541768 -35.6399573 55.18262091 -35.66971779 50.13855362 C-35.68776085 46.24031579 -35.68205061 42.34239234 -35.66907883 38.4441452 C-35.66574869 36.58300366 -35.66981808 34.72183341 -35.68147659 32.8607254 C-35.69416224 30.2712828 -35.67485332 27.68400728 -35.64697266 25.09472656 C-35.65709381 24.33008087 -35.66721497 23.56543518 -35.67764282 22.77761841 C-35.60106972 18.94332975 -35.31980671 17.33258061 -32.61849976 14.52337646 C-29.74154088 12.84963507 -28.10902464 12.5389545 -24.8125 12.5 C-15.93557127 11.9736053 -9.52795958 8.87516363 -3 3 C-2.34 3 -1.68 3 -1 3 C-0.67 2.01 -0.34 1.02 0 0 Z " fill="#F4D8AA" transform="translate(209,221)"/>
<path d="M0 0 C2.72453451 2.72453451 3.46424854 5.93347016 4.6875 9.5 C10.10453493 24.52163552 19.9112599 35.43737929 34 43 C48.31693787 49.43677043 65.08464513 50.26122678 79.89453125 44.96484375 C95.44699747 38.88079721 106.71968026 29.19292531 114 14 C115.88972386 9.40595515 117.45444098 4.71981032 119 0 C133.42341885 4.95667692 147.73065862 10.19319686 161.99926758 15.57861328 C165.42792764 16.87139074 168.85938614 18.1565352 172.29101562 19.44140625 C182.8249702 23.40152533 193.31225506 27.44492447 203.671875 31.84375 C204.50573227 32.19517059 205.33958954 32.54659119 206.19871521 32.90866089 C213.69631774 36.14574271 220.41888698 40.18455145 227 45 C227.78632813 45.57234375 228.57265625 46.1446875 229.3828125 46.734375 C237.93051069 53.55953325 241.6522839 61.43527753 244 72 C234.43 72 224.86 72 215 72 C215 74.64 215 77.28 215 80 C210.05 80 205.1 80 200 80 C200 77.36 200 74.72 200 72 C93.08 72 -13.84 72 -124 72 C-120.75289143 57.38801142 -113.6881589 48.91798769 -101.34155273 40.80175781 C-82.94209428 29.27779344 -61.46961194 22.54266068 -41.16139221 15.23152161 C-32.62653905 12.15348684 -24.12771997 8.97794338 -15.625 5.8125 C-14.05674829 5.22925875 -12.48847098 4.64608633 -10.92016602 4.06298828 C-7.27984254 2.70937853 -3.63982484 1.35494996 0 0 Z " fill="#FDFDFD" transform="translate(196,425)"/>
<path d="M0 0 C1.17175781 0.92232422 1.17175781 0.92232422 2.3671875 1.86328125 C3.12773437 2.44722656 3.88828125 3.03117187 4.671875 3.6328125 C14.23338464 11.4904545 21.10319232 22.3086904 25.3671875 33.86328125 C25.68558594 34.70246094 26.00398437 35.54164062 26.33203125 36.40625 C31.83656203 53.98523538 29.33437303 74.48585736 21.1171875 90.67578125 C11.46076278 107.44097822 -2.00749217 118.74356167 -20.2578125 125.234375 C-22.6328125 125.86328125 -22.6328125 125.86328125 -26.6328125 125.86328125 C-27.6228125 134.11328125 -28.6128125 142.36328125 -29.6328125 150.86328125 C-57.13675572 147.8378475 -57.13675572 147.8378475 -66.1328125 146.73828125 C-67.339375 146.59132812 -68.5459375 146.444375 -69.7890625 146.29296875 C-72.6328125 145.86328125 -72.6328125 145.86328125 -75.6328125 144.86328125 C-75.1041828 139.95556621 -74.57093699 135.04838092 -74.03369141 130.14160156 C-73.85213091 128.47767194 -73.6717601 126.81361201 -73.49267578 125.14941406 C-70.05215747 93.20448987 -70.05215747 93.20448987 -60.51171875 85.125 C-55.64510566 81.85698331 -51.16468179 81.64554601 -45.4453125 81.55078125 C-37.29105431 81.22513335 -30.95910784 79.83585433 -24.76953125 74.15234375 C-19.11862502 67.97545818 -18.16584125 62.34410656 -18.32421875 54.08984375 C-18.92343664 47.82460356 -21.34154282 43.81146905 -25.8828125 39.55078125 C-31.09171398 35.47473254 -36.77849447 33.19349647 -43.49609375 33.5234375 C-50.8188119 34.68811114 -56.47048149 37.59091041 -61.12109375 43.390625 C-62.89122879 46.28596216 -63.98934955 49.16972615 -65.1328125 52.36328125 C-67.62302259 59.31813985 -70.48055449 64.48183916 -77.0234375 68.234375 C-83.81702299 71.24564219 -89.6558195 72.00591542 -96.8203125 69.67578125 C-102.90731788 67.1266244 -106.27390543 62.38148572 -109.6328125 56.86328125 C-113.15532277 46.29575044 -109.80509217 35.69588361 -105.3125 26.01953125 C-96.36201758 8.60766382 -82.01657385 -3.85950441 -63.546875 -10.1953125 C-41.84896763 -16.4074531 -18.30199029 -13.6534017 0 0 Z " fill="#010000" transform="translate(483.6328125,13.13671875)"/>
<path d="M0 0 C13.21009101 11.3630874 22.96042637 26.32340636 25.2578125 43.8359375 C26.57516774 65.12150584 23.43276794 83.84615961 9.24609375 100.59765625 C8.58996094 101.33628906 7.93382813 102.07492188 7.2578125 102.8359375 C6.44376953 103.77373047 6.44376953 103.77373047 5.61328125 104.73046875 C0.63473783 110.09663599 -5.44317803 114.15593956 -11.7421875 117.8359375 C-12.4021875 117.8359375 -13.0621875 117.8359375 -13.7421875 117.8359375 C-13.60586914 118.75874512 -13.60586914 118.75874512 -13.46679688 119.70019531 C-13.05563862 122.49501721 -12.64886891 125.29046081 -12.2421875 128.0859375 C-12.09910156 129.05402344 -11.95601563 130.02210938 -11.80859375 131.01953125 C-11.67324219 131.95410156 -11.53789063 132.88867188 -11.3984375 133.8515625 C-11.27275391 134.71040039 -11.14707031 135.56923828 -11.01757812 136.45410156 C-10.7421875 138.8359375 -10.7421875 138.8359375 -10.7421875 142.8359375 C-16.32833939 143.55279522 -21.91508934 144.26472546 -27.50244141 144.97216797 C-29.40170088 145.21333864 -31.3007923 145.45583676 -33.19970703 145.69970703 C-35.93478608 146.05072556 -38.67044104 146.39690978 -41.40625 146.7421875 C-42.67222519 146.90624084 -42.67222519 146.90624084 -43.96377563 147.0736084 C-48.25575094 147.61040908 -52.40562998 147.95861239 -56.7421875 147.8359375 C-57.29397162 143.71001872 -57.84530485 139.58403999 -58.39624023 135.45800781 C-58.5832941 134.05760107 -58.77046609 132.6572101 -58.95776367 131.25683594 C-59.55599605 126.78365307 -60.14965644 122.3098799 -60.7421875 117.8359375 C-60.85473877 117.00835937 -60.96729004 116.18078125 -61.08325195 115.328125 C-63.55277644 96.70444991 -63.55277644 96.70444991 -59.1015625 89.5703125 C-53.53406995 82.46695994 -48.0025179 80.02550964 -39.54272461 77.59765625 C-32.0891836 75.43573453 -27.79828324 73.14154445 -23.8046875 66.2734375 C-20.80533498 59.56724398 -20.48522309 53.10600797 -22.55859375 46.0625 C-25.71836636 38.73006599 -30.78185769 35.3161024 -37.7421875 31.8359375 C-46.51137713 31.02074059 -53.72545838 31.13297894 -60.7421875 36.8359375 C-67.23615745 42.94602745 -68.26346356 50.01596635 -69.421875 58.421875 C-70.64140227 66.18250308 -73.75400401 71.68192519 -79.9609375 76.61328125 C-85.07326768 80.12240262 -90.72681485 80.61147315 -96.7421875 79.8359375 C-103.81682245 77.96358855 -108.79831897 73.9756996 -112.7421875 67.8359375 C-117.40551401 57.14137538 -115.81028056 41.45970755 -111.7421875 30.8359375 C-107.23828189 19.65534368 -101.39051423 11.17676817 -92.7421875 2.8359375 C-92.10925781 2.17207031 -91.47632812 1.50820313 -90.82421875 0.82421875 C-66.44458208 -23.12487246 -25.29270741 -19.96034174 0 0 Z " fill="#010000" transform="translate(114.7421875,15.1640625)"/>
<path d="M0 0 C3.4685347 0.52151018 6.660246 1.12843713 9.9375 2.375 C31.00333397 9.45507334 55.20625113 9.68533308 75.83984375 0.7734375 C78 0 78 0 80.203125 0.1171875 C82 1 82 1 83.046875 2.7578125 C86.34747294 13.86982557 86.53694372 24.7853711 81.48046875 35.3515625 C75.14174264 46.69102503 66.17687253 54.31779611 54 59 C40.28898985 61.58550477 28.13580491 60.65114517 16.25 53.1875 C14.81334445 52.15218772 13.39537939 51.09030595 12 50 C11.38382813 49.52175781 10.76765625 49.04351562 10.1328125 48.55078125 C2.10963734 41.47255783 -3.48350452 29.10988307 -4.25 18.55859375 C-3.96606384 14.51693992 -3.12580081 10.93814537 -2 7.0625 C-1.80921875 6.37865234 -1.6184375 5.69480469 -1.421875 4.99023438 C-0.95595063 3.32455474 -0.47911589 1.66193325 0 0 Z " fill="#F3D7A9" transform="translate(215,399)"/>
<path d="M0 0 C2.45537341 1.66484517 4.76548987 3.41955453 7.0703125 5.28515625 C8.1221875 6.04828125 9.1740625 6.81140625 10.2578125 7.59765625 C19.66943729 16.5909866 26.57020429 29.71925658 27.25390625 42.796875 C27.5347058 59.39708388 23.21399731 73.59970069 12.0703125 86.28515625 C1.82852764 96.10788281 -12.49014697 103.28515625 -26.9296875 103.28515625 C-27.06246094 104.39375 -27.19523437 105.50234375 -27.33203125 106.64453125 C-27.51028507 108.10808895 -27.68867778 109.57162974 -27.8671875 111.03515625 C-27.99770508 112.12957031 -27.99770508 112.12957031 -28.13085938 113.24609375 C-28.55224362 116.67959503 -29.08903868 119.92256097 -29.9296875 123.28515625 C-34.5496875 122.95515625 -39.1696875 122.62515625 -43.9296875 122.28515625 C-42.77857329 93.32554622 -42.77857329 93.32554622 -38.85546875 88.99609375 C-35.15306985 86.83100601 -32.02869506 86.82164973 -27.8671875 86.84765625 C-16.11020893 86.4950854 -7.60403824 82.9413197 0.9453125 74.6796875 C4.06795986 71.16096906 6.16608576 67.56579604 8.0703125 63.28515625 C8.38742187 62.68574219 8.70453125 62.08632812 9.03125 61.46875 C12.88768078 53.27825711 12.24447619 42.75685929 9.4453125 34.34765625 C5.01825684 23.89918572 -2.83612376 15.8750729 -13.0703125 11.01171875 C-21.56596859 7.69198759 -34.47987732 7.72584219 -42.95703125 11.25390625 C-54.53714735 17.30766992 -61.63169813 24.936299 -65.9296875 37.28515625 C-68.5296875 42.88515625 -68.5296875 42.88515625 -70.9296875 45.28515625 C-77.15471325 45.85106768 -77.15471325 45.85106768 -79.609375 44.05859375 C-81.8552557 41.04193742 -81.63658699 38.32707692 -81.5390625 34.66015625 C-79.13632931 21.35271091 -70.36719916 10.18164047 -59.6171875 2.53515625 C-41.975022 -9.51804022 -18.64186987 -10.91170783 0 0 Z " fill="#EB5372" transform="translate(469.9296875,22.71484375)"/>
<path d="M0 0 C11.90794659 9.11597041 20.47454004 20.98983225 23.0625 36 C23.20868785 37.45636198 23.3314647 38.91516521 23.4375 40.375 C23.50324219 41.261875 23.56898437 42.14875 23.63671875 43.0625 C24.20817811 57.88103245 18.73644039 71.44246663 9.1875 82.625 C2.14521887 90.05655295 -5.74669482 95.3358757 -15.5625 98.375 C-16.2225 98.375 -16.8825 98.375 -17.5625 98.375 C-17.418125 99.05304688 -17.27375 99.73109375 -17.125 100.4296875 C-15.83914254 106.87683393 -15.37204047 112.8041463 -15.5625 119.375 C-22.4925 120.365 -22.4925 120.365 -29.5625 121.375 C-35.15608228 92.63313381 -35.15608228 92.63313381 -32.59765625 87.40234375 C-29.36408438 84.33000261 -25.20949571 83.71990831 -20.9921875 82.953125 C-11.41960732 80.67540496 -3.54489388 74.81985218 1.6875 66.625 C7.15783964 56.81056711 9.34838333 46.5475349 6.74609375 35.41796875 C3.29293752 25.08739676 -2.22300601 17.1281283 -11.5625 11.375 C-21.51642479 6.56612884 -31.93288874 4.2827189 -42.8671875 7.28125 C-53.84826393 11.64015057 -62.57706604 18.22297598 -67.8515625 29.01171875 C-70.10475755 34.69333649 -70.92935472 39.90971465 -71.28515625 45.984375 C-71.69198287 49.4911059 -73.0943132 51.9068132 -75.5625 54.375 C-81.89264354 54.84389952 -81.89264354 54.84389952 -84.4375 53.0625 C-88.19992718 47.41885923 -87.17266048 39.44050507 -85.9140625 33.1171875 C-81.51443316 17.51166462 -72.68433164 5.13147208 -58.625 -3.0625 C-40.02151562 -13.26972152 -17.48854313 -12.081222 0 0 Z " fill="#EB5372" transform="translate(101.5625,24.625)"/>
<path d="M0 0 C0.79019531 0.03609375 1.58039063 0.0721875 2.39453125 0.109375 C3.28205078 0.17898437 3.28205078 0.17898437 4.1875 0.25 C4.19114563 1.24541809 4.19479126 2.24083618 4.19854736 3.26641846 C4.23580424 12.73757318 4.29390364 22.20841193 4.37140274 31.6793251 C4.41058468 36.54615702 4.44291436 41.41281592 4.45849609 46.27978516 C4.47385866 50.99387016 4.50864015 55.70747847 4.55580902 60.42134857 C4.57042402 62.20223551 4.57852929 63.98319057 4.57938385 65.76413727 C4.60332761 90.68899581 9.78745909 112.36164001 25.1875 132.25 C25.81269531 133.05953125 26.43789062 133.8690625 27.08203125 134.703125 C33.11701859 141.97052028 41.48289397 149.38363373 50.1875 153.25 C50.1875 153.91 50.1875 154.57 50.1875 155.25 C31.49612949 151.02794925 15.04882664 138.94475234 4.14453125 123.3671875 C-6.67342977 106.13618372 -10.60408746 90.06701796 -10.4765625 70.015625 C-10.47993995 68.11993093 -10.48480025 66.22423899 -10.49105835 64.32855225 C-10.49836439 60.39199828 -10.48791473 56.45601778 -10.46435547 52.51953125 C-10.43563395 47.47541768 -10.4524573 42.43262091 -10.48221779 37.38855362 C-10.50026085 33.49031579 -10.49455061 29.59239234 -10.48157883 25.6941452 C-10.47824869 23.83300366 -10.48231808 21.97183341 -10.49397659 20.1107254 C-10.50666224 17.5212828 -10.48735332 14.93400728 -10.45947266 12.34472656 C-10.46959381 11.58008087 -10.47971497 10.81543518 -10.49014282 10.02761841 C-10.41555894 6.29293703 -10.10466205 4.57485805 -7.57284546 1.75970459 C-4.68643928 0.18105412 -3.23821162 -0.19332607 0 0 Z " fill="#EDB381" transform="translate(183.8125,233.75)"/>
<path d="M0 0 C-1.02738281 0.54527344 -2.05476563 1.09054688 -3.11328125 1.65234375 C-11.84190888 6.368465 -19.55581695 11.37780295 -27 18 C-28.25876953 19.04414062 -28.25876953 19.04414062 -29.54296875 20.109375 C-40.64738122 29.54382157 -48.2956809 41.21400915 -55 54 C-55.54527344 55.02480469 -56.09054688 56.04960937 -56.65234375 57.10546875 C-63.89231033 71.64066882 -67.21932352 87.55622562 -67.0625 103.72265625 C-67.05871338 104.62696884 -67.05492676 105.53128143 -67.05102539 106.46299744 C-67.0388995 109.32954891 -67.02027675 112.19599533 -67 115.0625 C-66.97329292 118.84504964 -66.95335566 122.62754726 -66.9375 126.41015625 C-66.92920166 127.26762955 -66.92090332 128.12510284 -66.91235352 129.00856018 C-66.90739868 130.23034218 -66.90739868 130.23034218 -66.90234375 131.47680664 C-66.89448853 132.53648399 -66.89448853 132.53648399 -66.88647461 133.61756897 C-67.03637804 136.76342535 -67.55460392 139.88222744 -68 143 C-72.95 143 -77.9 143 -83 143 C-83.12534411 135.96067503 -83.21514889 128.92202585 -83.2746582 121.88183594 C-83.29951418 119.4963039 -83.33341133 117.11084561 -83.37719727 114.72558594 C-83.92918817 83.84007127 -76.64839836 59.18723811 -57 35 C-57.28875 34.4225 -57.5775 33.845 -57.875 33.25 C-58.91666667 31.16666667 -59.95833333 29.08333333 -61 27 C-59.57189185 25.49105554 -58.13218981 23.99307655 -56.6875 22.5 C-55.88699219 21.6646875 -55.08648437 20.829375 -54.26171875 19.96875 C-52 18 -52 18 -49 18 C-47.3125 20 -47.3125 20 -46 22 C-42.41250744 20.3770867 -39.42672395 18.18900958 -36.25 15.875 C-8.10451944 -4.05225972 -8.10451944 -4.05225972 0 0 Z " fill="#FADF1F" transform="translate(227,99)"/>
<path d="M0 0 C6.03854022 5.870803 7.90452873 11.88572081 8.25 20.1875 C7.40012742 27.07439846 4.62904331 32.75008353 -0.75 37.1875 C-6.96305411 41.26897999 -13.44138502 42.3507021 -20.75 41.1875 C-28.14826832 38.87420861 -32.93678812 34.91338663 -36.75 28.1875 C-38.8495605 21.8888185 -38.92426642 14.48064567 -36.69140625 8.21875 C-33.22008464 1.97225257 -28.67717053 -2.30318887 -21.7734375 -4.41796875 C-13.6980777 -5.99250802 -6.81894655 -4.49430568 0 0 Z " fill="#010000" transform="translate(100.75,178.8125)"/>
<path d="M0 0 C5.62190491 3.35174881 9.56334243 8.22193737 11.5625 14.4375 C12.40254483 22.06627917 12.38707931 29.18553036 7.5625 35.4375 C3.18344218 40.40648271 -1.88692523 43.33862508 -8.4375 44.4375 C-15.25812183 44.59204581 -21.09501641 43.49904208 -26.25 38.77734375 C-31.29034871 33.49547833 -34.19583011 28.29355426 -34.5625 20.92578125 C-34.26023903 14.75776837 -32.51481784 10.09301939 -28.4375 5.4375 C-20.51168744 -1.6540165 -10.2357597 -4.64179801 0 0 Z " fill="#000000" transform="translate(437.4375,176.5625)"/>
<path d="M0 0 C1.04575195 0.00999023 2.09150391 0.01998047 3.16894531 0.03027344 C5.15039551 0.08489746 5.15039551 0.08489746 7.171875 0.140625 C11.379375 0.223125 15.586875 0.305625 19.921875 0.390625 C19.921875 15.240625 19.921875 30.090625 19.921875 45.390625 C2.1678643 45.390625 2.1678643 45.390625 -4.078125 39.390625 C-10.3700109 32.42012667 -10.96039522 26.23179928 -10.703125 17.078125 C-10.70957031 15.91216797 -10.71601563 14.74621094 -10.72265625 13.54492188 C-10.61631667 5.14892834 -10.61631667 5.14892834 -8.42041016 2.05493164 C-5.41300363 -0.08197583 -3.66627626 -0.07188777 0 0 Z " fill="#EAB07E" transform="translate(139.078125,256.609375)"/>
<path d="M0 0 C4.0425 -0.04125 8.085 -0.0825 12.25 -0.125 C13.51875977 -0.14320801 14.78751953 -0.16141602 16.09472656 -0.18017578 C17.60244629 -0.18766846 17.60244629 -0.18766846 19.140625 -0.1953125 C20.68024902 -0.21102295 20.68024902 -0.21102295 22.25097656 -0.22705078 C25.0518709 0.00428419 26.6640697 0.46759207 29 2 C31.14142584 6.28285168 30.36315584 11.8583092 30.4375 16.5625 C30.48326172 17.71814453 30.52902344 18.87378906 30.57617188 20.06445312 C30.67886938 27.92750962 29.52350314 33.20696129 24 39 C15.72240557 45.36473233 11.45523535 45 0 45 C0 30.15 0 15.3 0 0 Z " fill="#EAB07F" transform="translate(353,257)"/>
<path d="M0 0 C1.93552734 0.02707031 1.93552734 0.02707031 3.91015625 0.0546875 C7.06542959 0.10143229 10.22031608 0.17316061 13.375 0.25 C13.375 5.2 13.375 10.15 13.375 15.25 C11.57933594 15.27578125 9.78367187 15.3015625 7.93359375 15.328125 C5.55987196 15.3844188 3.18617498 15.44176584 0.8125 15.5 C-0.36892578 15.51417969 -1.55035156 15.52835937 -2.76757812 15.54296875 C-9.53170983 15.73244023 -14.18807617 16.07127032 -19.625 20.25 C-20.285 21.24 -20.945 22.23 -21.625 23.25 C-25.3852985 22.66892368 -28.15535032 21.59800504 -31.4375 19.6875 C-32.22769531 19.23246094 -33.01789063 18.77742188 -33.83203125 18.30859375 C-34.42371094 17.95925781 -35.01539063 17.60992187 -35.625 17.25 C-34.29770468 13.27502703 -32.73683385 10.98259362 -29.625 8.1875 C-28.92375 7.53652344 -28.2225 6.88554687 -27.5 6.21484375 C-18.66033094 0.17360253 -10.50936387 -0.28140418 0 0 Z " fill="#050403" transform="translate(279.625,336.75)"/>
<path d="M0 0 C4.95 0 9.9 0 15 0 C15 9.9 15 19.8 15 30 C10.05 30 5.1 30 0 30 C0 20.1 0 10.2 0 0 Z " fill="#040302" transform="translate(297,272)"/>
<path d="M0 0 C4.95 0 9.9 0 15 0 C15 9.9 15 19.8 15 30 C10.05 30 5.1 30 0 30 C0 20.1 0 10.2 0 0 Z " fill="#040302" transform="translate(200,272)"/>
<path d="M0 0 C5.2584002 0.67415387 10.02638346 2.24265549 15 4 C14.80365967 4.65895264 14.60731934 5.31790527 14.4050293 5.99682617 C9.19582552 23.36647474 9.19582552 23.36647474 5 41 C1.98921383 38.45579765 0.83397317 35.68308065 -0.625 32.0625 C-1.26308594 30.50208984 -1.26308594 30.50208984 -1.9140625 28.91015625 C-4.76883647 21.25977277 -4.2455708 14.79302922 -2 7.0625 C-1.80921875 6.37865234 -1.6184375 5.69480469 -1.421875 4.99023438 C-0.95595063 3.32455474 -0.47911589 1.66193325 0 0 Z " fill="#EAB17F" transform="translate(215,399)"/>
<path d="M0 0 C5.28 0 10.56 0 16 0 C16 4.95 16 9.9 16 15 C10.72 15 5.44 15 0 15 C0 10.05 0 5.1 0 0 Z " fill="#111009" transform="translate(308,135)"/>
<path d="M0 0 C5.28 0 10.56 0 16 0 C16 4.95 16 9.9 16 15 C10.72 15 5.44 15 0 15 C0 10.05 0 5.1 0 0 Z " fill="#111009" transform="translate(278,120)"/>
<path d="M0 0 C-0.33 7.92 -0.66 15.84 -1 24 C-5.62 24 -10.24 24 -15 24 C-13.99349496 17.17813252 -8.64569783 0 0 0 Z " fill="#B1E0F3" transform="translate(87,473)"/>
<path d="M0 0 C2 1.625 2 1.625 3 4 C2.93416738 7.75245951 2.81598805 10.06312483 0.3125 12.9375 C-2.76819895 14.35295627 -4.64720251 14.55879958 -8 14 C-10.4375 11.9375 -10.4375 11.9375 -12 9 C-12 5.19715329 -11.7968187 2.98069994 -9.375 0 C-5.88418213 -1.46981805 -3.60851044 -0.98413921 0 0 Z " fill="#E75170" transform="translate(431,191)"/>
<path d="M0 0 C2.4375 1.625 2.4375 1.625 4 4 C4.60605429 7.63632575 4.47161336 9.28314769 2.4375 12.375 C-0.93510779 14.62340519 -3.02512383 14.56783945 -7 14 C-9.4375 12.375 -9.4375 12.375 -11 10 C-11.60605429 6.36367425 -11.47161336 4.71685231 -9.4375 1.625 C-6.06489221 -0.62340519 -3.97487617 -0.56783945 0 0 Z " fill="#E95271" transform="translate(89,190)"/>
</svg>
