<?xml version="1.0" encoding="UTF-8"?>
<svg version="1.1" xmlns="http://www.w3.org/2000/svg" width="512" height="512">
<path d="M0 0 C1.48196365 -0.01925285 1.48196365 -0.01925285 2.99386597 -0.03889465 C4.06468414 -0.04628159 5.13550232 -0.05366852 6.23876953 -0.0612793 C7.88499802 -0.07338692 7.88499802 -0.07338692 9.56448364 -0.08573914 C11.88965267 -0.09958594 14.21484208 -0.11030542 16.54003906 -0.11816406 C20.10016212 -0.13539438 23.65936098 -0.17927833 27.21923828 -0.22338867 C29.47574185 -0.23351376 31.73225333 -0.24203044 33.98876953 -0.2487793 C35.05553925 -0.26628738 36.12230896 -0.28379547 37.22140503 -0.30183411 C44.54893964 -0.28027358 44.54893964 -0.28027358 47.92578125 1.93310547 C49.37537196 4.39580199 49.71816875 5.67146673 49.63720703 8.50512695 C49.62431641 9.3043457 49.61142578 10.10356445 49.59814453 10.92700195 C49.54787109 12.16450195 49.54787109 12.16450195 49.49658203 13.42700195 C49.47853516 14.2674707 49.46048828 15.10793945 49.44189453 15.97387695 C49.39489001 18.0420759 49.32314928 20.10968636 49.24658203 22.17700195 C50.74898438 22.33749023 50.74898438 22.33749023 52.28173828 22.5012207 C56.31451234 23.08022849 59.94066537 24.42158127 63.68408203 25.98950195 C64.33932861 26.25577393 64.9945752 26.5220459 65.66967773 26.79638672 C69.18683979 28.24488664 72.58492866 29.81401725 75.93408203 31.61450195 C78.92881073 33.35270915 78.92881073 33.35270915 81.17626953 33.0559082 C84.91834888 31.46728961 87.2384144 28.16684881 89.93017578 25.20825195 C92.53006439 22.92841709 93.81352118 22.30434888 97.24658203 22.17700195 C102.61100284 23.54693367 105.89518916 27.34063121 109.69970703 31.1262207 C110.40053406 31.81706253 111.10136108 32.50790436 111.82342529 33.21968079 C113.299799 34.68089388 114.77215104 36.1461801 116.24072266 37.61523438 C118.48715459 39.85510206 120.75646093 42.06988621 123.02783203 44.28442383 C124.46159125 45.70938102 125.89393182 47.13576735 127.32470703 48.5637207 C128.00382141 49.22127853 128.68293579 49.87883636 129.38262939 50.55632019 C132.50567634 53.72552835 134.08646424 55.58600581 135.27294922 59.96533203 C135.22459186 65.85552671 131.42259272 69.07811309 127.49658203 73.05200195 C126.41813666 74.09872834 125.33648266 75.14220866 124.24658203 76.17700195 C125.59053892 80.46608924 127.24049399 84.43912381 129.18408203 88.48950195 C135.24658203 101.47422078 135.24658203 101.47422078 135.24658203 108.17700195 C136.49955078 108.1305957 137.75251953 108.08418945 139.04345703 108.03637695 C140.69447484 107.99885382 142.34551846 107.96245424 143.99658203 107.92700195 C144.82158203 107.89348633 145.64658203 107.8599707 146.49658203 107.82543945 C152.62675103 107.72656576 152.62675103 107.72656576 155.76220703 110.00512695 C157.95204508 113.20920578 158.37450403 115.78653742 158.40771484 119.5690918 C158.41732239 120.45366058 158.42692993 121.33822937 158.43682861 122.24960327 C158.44320343 123.67932968 158.44320343 123.67932968 158.44970703 125.13793945 C158.4554071 126.12065826 158.46110718 127.10337708 158.46697998 128.11587524 C158.47642722 130.19548466 158.48296287 132.27510903 158.48681641 134.35473633 C158.49652319 137.53273676 158.52754989 140.71009077 158.55908203 143.88793945 C158.56561214 145.90876895 158.57086258 147.92960306 158.57470703 149.95043945 C158.59322723 151.37409317 158.59322723 151.37409317 158.61212158 152.82650757 C158.59557896 157.73716689 158.54503992 161.24764395 155.24658203 165.17700195 C152.19977142 167.20820903 151.64539879 167.4236007 148.23486328 167.37231445 C147.47753906 167.36586914 146.72021484 167.35942383 145.93994141 167.3527832 C144.76141602 167.32764648 144.76141602 167.32764648 143.55908203 167.30200195 C142.76179688 167.29297852 141.96451172 167.28395508 141.14306641 167.2746582 C139.17744303 167.2511178 137.21197428 167.21524742 135.24658203 167.17700195 C135.08158203 168.45575195 134.91658203 169.73450195 134.74658203 171.05200195 C133.51001255 177.42720461 130.79890387 183.07770992 128.07861328 188.93041992 C127.55654297 190.05407959 127.55654297 190.05407959 127.02392578 191.20043945 C126.70673584 191.86994629 126.3895459 192.53945312 126.06274414 193.22924805 C125.21938872 195.24189824 124.54403073 197.0106722 124.24658203 199.17700195 C126.61069229 201.86022216 129.23799761 204.09148719 131.92626953 206.4465332 C134.81533808 209.84629569 135.33460047 211.7320708 135.24658203 216.17700195 C132.43856616 221.09156407 128.82705398 224.8762334 124.83642578 228.81762695 C124.22771133 229.42588318 123.61899689 230.0341394 122.99183655 230.66082764 C121.7125047 231.9371546 120.4307596 233.21106677 119.14672852 234.48266602 C117.18135083 236.42970768 115.22417283 238.38471288 113.26806641 240.34106445 C112.02049165 241.58372612 110.77246054 242.82592983 109.52392578 244.06762695 C108.93949203 244.65094788 108.35505829 245.2342688 107.75291443 245.83526611 C101.57328608 251.94287771 101.57328608 251.94287771 97.05908203 252.73950195 C92.35418538 252.04533687 90.57215854 250.33544554 87.23876953 247.09887695 C85.02292838 244.96124196 82.67068275 243.07266549 80.24658203 241.17700195 C79.15861328 241.7080957 78.07064453 242.23918945 76.94970703 242.78637695 C55.42451578 253.17700195 55.42451578 253.17700195 49.24658203 253.17700195 C49.30458984 254.4299707 49.36259766 255.68293945 49.42236328 256.97387695 C49.46926682 258.62488135 49.51476634 260.27592606 49.55908203 261.92700195 C49.62192383 263.16450195 49.62192383 263.16450195 49.68603516 264.42700195 C49.70214844 265.2262207 49.71826172 266.02543945 49.73486328 266.84887695 C49.76104736 267.58203125 49.78723145 268.31518555 49.81420898 269.07055664 C49.24658203 271.17700195 49.24658203 271.17700195 47.3918457 273.41430664 C42.77981507 275.99901992 38.6392346 275.75004454 33.43408203 275.70825195 C31.86436646 275.71399231 31.86436646 275.71399231 30.26293945 275.71984863 C28.05402665 275.72256633 25.84508159 275.71521517 23.63623047 275.69848633 C20.25822085 275.67707572 16.88233813 275.69829393 13.50439453 275.72387695 C11.35595234 275.72123365 9.20751148 275.71610863 7.05908203 275.70825195 C6.05063232 275.71634888 5.04218262 275.7244458 4.00317383 275.73278809 C-0.42857493 275.67362502 -3.02541937 275.62320938 -6.86669922 273.26879883 C-10.26464668 269.50150925 -10.05967321 265.91645167 -10.31591797 261.05200195 C-10.35910156 260.29790039 -10.40228516 259.54379883 -10.44677734 258.7668457 C-10.55290116 256.90378307 -10.65366798 255.04041671 -10.75341797 253.17700195 C-12.11660156 252.75741211 -12.11660156 252.75741211 -13.50732422 252.3293457 C-22.98205587 249.30714925 -31.83498468 245.56664217 -40.75341797 241.17700195 C-41.45208984 241.88727539 -42.15076172 242.59754883 -42.87060547 243.3293457 C-43.78068359 244.24844727 -44.69076172 245.16754883 -45.62841797 246.11450195 C-46.53333984 247.03102539 -47.43826172 247.94754883 -48.37060547 248.8918457 C-51.15384205 251.56101521 -52.08529384 252.07010209 -55.87841797 252.67700195 C-65.04674947 251.49399144 -73.03648194 240.0472909 -79.41040039 233.65039062 C-81.20784033 231.84752855 -83.01064458 230.0501521 -84.81396484 228.25317383 C-85.95946844 227.10701048 -87.10466236 225.96053753 -88.24951172 224.8137207 C-88.78797226 224.27728439 -89.3264328 223.74084808 -89.88121033 223.18815613 C-94.49234465 218.54763687 -94.49234465 218.54763687 -95.25341797 214.55200195 C-94.49509908 209.43334949 -91.31018527 206.75661786 -87.75341797 203.17700195 C-86.94904297 202.35200195 -86.14466797 201.52700195 -85.31591797 200.67700195 C-84.80029297 200.18200195 -84.28466797 199.68700195 -83.75341797 199.17700195 C-85.18025474 194.5486558 -87.07314631 190.26941302 -89.19091797 185.92700195 C-91.96206297 180.13929426 -94.20947441 174.42629733 -95.75341797 168.17700195 C-96.85041016 168.1512207 -97.94740234 168.12543945 -99.07763672 168.09887695 C-100.53210245 168.04257505 -101.986528 167.98522818 -103.44091797 167.92700195 C-104.16214844 167.91282227 -104.88337891 167.89864258 -105.62646484 167.8840332 C-110.53472037 167.65991195 -113.17250272 166.81953907 -116.75341797 163.17700195 C-117.94357278 160.79669234 -117.905273 159.28037084 -117.94628906 156.62304688 C-117.96235199 155.6783403 -117.97841492 154.73363373 -117.9949646 153.76029968 C-118.03939059 149.43786302 -118.0804783 145.11558028 -118.10351562 140.79296875 C-118.12007893 138.51259153 -118.14737362 136.23226629 -118.18554688 133.95214844 C-118.24028578 130.66614825 -118.26218554 127.38136529 -118.27685547 124.0949707 C-118.29952484 123.07710983 -118.32219421 122.05924896 -118.34555054 121.01054382 C-118.33148383 116.30115508 -118.30447136 113.93888646 -115.48364258 110.03881836 C-112.85375149 108.24542219 -111.659261 107.5412579 -108.54638672 107.4699707 C-107.79550781 107.4409668 -107.04462891 107.41196289 -106.27099609 107.38208008 C-105.50207031 107.3762793 -104.73314453 107.37047852 -103.94091797 107.36450195 C-103.15265625 107.33936523 -102.36439453 107.31422852 -101.55224609 107.28833008 C-99.61983424 107.22977214 -97.6865747 107.20044707 -95.75341797 107.17700195 C-95.38990234 106.02844727 -95.02638672 104.87989258 -94.65185547 103.6965332 C-91.58968684 94.18142439 -88.21880379 85.13944301 -83.75341797 76.17700195 C-84.81882812 75.12899414 -84.81882812 75.12899414 -85.90576172 74.05981445 C-86.82486328 73.14973633 -87.74396484 72.2396582 -88.69091797 71.30200195 C-89.60744141 70.39708008 -90.52396484 69.4921582 -91.46826172 68.55981445 C-93.91827735 66.0050973 -94.60157697 64.9741672 -95.25341797 61.55200195 C-93.9429992 52.70667525 -82.14763036 44.31668412 -75.96435547 38.09277344 C-74.73234968 36.84913568 -73.50485317 35.60101579 -72.28173828 34.34863281 C-70.49810567 32.52247619 -68.70171873 30.70980289 -66.90185547 28.8996582 C-66.35902924 28.33932388 -65.816203 27.77898956 -65.25692749 27.20167542 C-62.23665607 24.19847548 -60.09098331 22.37166615 -55.75341797 22.17700195 C-50.32858702 23.55832465 -47.6187508 27.31888749 -44.03466797 31.3762207 C-41.91924669 33.43925729 -41.91924669 33.43925729 -39.31982422 33.12231445 C-36.46386857 32.07034905 -33.87250114 30.80562488 -31.19091797 29.36450195 C-17.19694207 22.17700195 -17.19694207 22.17700195 -9.75341797 22.17700195 C-9.78822266 21.08000977 -9.82302734 19.98301758 -9.85888672 18.8527832 C-9.88703662 17.3983715 -9.91433549 15.94394315 -9.94091797 14.48950195 C-9.96605469 13.76827148 -9.99119141 13.04704102 -10.01708984 12.30395508 C-10.07994494 7.71553321 -9.62045548 4.80765721 -6.75341797 1.17700195 C-4.3207379 -0.03933808 -2.71917473 0.03070659 0 0 Z " fill="#FDB129" transform="translate(276.75341796875,17.822998046875)"/>
<path d="M0 0 C5.72529868 4.37698581 10.26844325 9.68704269 12.22265625 16.69921875 C13.24033399 24.61218244 12.77118523 30.80830381 8.15234375 37.44921875 C4.63800385 41.54691061 0.60264608 44.57221109 -3.77734375 47.69921875 C-5.11661556 48.67477969 -6.45509855 49.65142406 -7.79296875 50.62890625 C-11.64832225 53.43564128 -15.52116549 56.21730492 -19.3984375 58.99365234 C-23.19893011 61.71843081 -26.98771434 64.4593631 -30.77734375 67.19921875 C-32.27728361 68.28263535 -33.77728372 69.36596855 -35.27734375 70.44921875 C-36.01984375 70.98546875 -36.76234375 71.52171875 -37.52734375 72.07421875 C-62.27734375 89.94921875 -62.27734375 89.94921875 -64.52709961 91.57397461 C-66.02799925 92.65800291 -67.52881297 93.74215017 -69.02954102 94.82641602 C-72.76508342 97.5250953 -76.50206629 100.22173187 -80.2421875 102.9140625 C-88.03650916 108.52825553 -95.8014904 114.17859278 -103.52734375 119.88671875 C-111.22500178 125.56695215 -118.92407059 131.23537497 -126.77734375 136.69921875 C-127.64069336 137.30854248 -127.64069336 137.30854248 -128.52148438 137.93017578 C-149.53347706 152.65826217 -169.73318461 150.90149827 -194.04475403 146.70551872 C-197.27334074 146.14858096 -200.50483272 145.61237488 -203.7376709 145.08070374 C-210.58726691 143.95052879 -217.4324651 142.79506986 -224.27734375 141.63671875 C-232.24893661 140.28927556 -240.22210719 138.9526417 -248.1993866 137.63925362 C-251.36315114 137.11327368 -254.52357659 136.5698395 -257.6842041 136.02537537 C-274.24030386 133.24395454 -287.23800894 132.57930457 -301.46142578 142.55493164 C-304.26184178 144.56665186 -307.02553786 146.62148635 -309.77734375 148.69921875 C-309.18364879 152.10357087 -307.98662644 153.82492124 -305.71484375 156.38671875 C-302.88584656 160.08988295 -301.694771 162.8685271 -302.1015625 167.55859375 C-303.51666508 172.0411152 -307.05769231 174.09193939 -310.77734375 176.69921875 C-312.14636404 177.68546165 -313.51480334 178.6725113 -314.8828125 179.66015625 C-318.51034745 182.25937007 -322.15604075 184.82984093 -325.83203125 187.36010742 C-327.06151881 188.20646024 -328.28617919 189.05990767 -329.50390625 189.9230957 C-332.82072714 192.23398701 -335.4318274 193.63300186 -339.60693359 193.39135742 C-348.79430596 190.46152608 -357.5980281 177.96420025 -364.40234375 171.07421875 C-372.32859216 162.93234591 -372.32859216 162.93234591 -380.70703125 155.26953125 C-387.56762336 149.42083639 -393.74415265 142.78404913 -400.07763672 136.37841797 C-407.70618126 128.56643095 -407.70618126 128.56643095 -415.765625 121.2109375 C-422.03425634 115.8830149 -427.68484152 109.8567431 -433.46484375 104.01171875 C-435.86163573 101.58820029 -438.2618181 99.16811264 -440.6640625 96.75 C-441.20375168 96.20201248 -441.74344086 95.65402496 -442.29948425 95.08943176 C-444.63602345 92.73788733 -446.93297693 90.57555838 -449.53442383 88.50854492 C-452.91875355 85.77846246 -453.72376065 84.17381189 -454.21484375 79.82421875 C-454.40751838 76.65441034 -453.85830253 75.79492583 -451.76171875 73.31640625 C-448.19435052 70.18795505 -444.46193793 67.43538719 -440.58984375 64.69921875 C-438.98038077 63.54960233 -437.37100841 62.39985903 -435.76171875 61.25 C-434.93865234 60.66428223 -434.11558594 60.07856445 -433.26757812 59.47509766 C-430.04898831 57.17980135 -426.84360396 54.8665736 -423.640625 52.54956055 C-422.11653657 51.44805733 -420.59051518 50.34922331 -419.0625 49.25317383 C-415.81549014 46.92100181 -412.59073127 44.57849213 -409.44921875 42.10546875 C-402.71618682 36.88093031 -402.71618682 36.88093031 -397.90234375 35.94921875 C-390.63442602 37.69351901 -387.01722027 43.98088385 -382.77734375 49.69921875 C-382.32633301 49.37348877 -381.87532227 49.04775879 -381.41064453 48.7121582 C-380.03817805 47.72093241 -378.66569965 46.72972312 -377.29321289 45.73852539 C-375.67512607 44.56986123 -374.05712728 43.40107519 -372.43920898 42.23217773 C-368.37552981 39.29653673 -364.31082061 36.36236591 -360.2421875 33.43359375 C-353.27169517 28.41277074 -346.31855844 23.37193082 -339.41357422 18.26123047 C-305.65232568 -6.72142024 -305.65232568 -6.72142024 -287.34423828 -6.64941406 C-286.43752443 -6.64622791 -285.53081059 -6.64304176 -284.59662056 -6.63975906 C-273.15486783 -6.44342989 -261.97693198 -4.56870208 -250.70703125 -2.72265625 C-248.36460652 -2.34998802 -246.02200191 -1.97844893 -243.67922974 -1.60797119 C-238.81178777 -0.83466581 -233.94630031 -0.05033736 -229.08203125 0.74267578 C-222.87291229 1.75437089 -216.66020155 2.74159156 -210.4459362 3.72111893 C-205.62483877 4.48314984 -200.80555101 5.25615028 -195.98675919 6.03261566 C-193.69646934 6.40069467 -191.4057104 6.76586802 -189.11446762 7.12796783 C-185.91282862 7.6360188 -182.71383761 8.15837757 -179.51513672 8.68457031 C-178.58714767 8.82915176 -177.65915863 8.97373322 -176.70304871 9.12269592 C-163.92173745 11.26771194 -154.44917968 15.42483399 -146.18359375 25.67578125 C-139.46076636 35.63704378 -138.09327162 45.99409127 -137.77734375 57.69921875 C-127.03561249 51.56787657 -117.0215496 44.72169968 -107.07128906 37.38427734 C-103.34752626 34.64892072 -99.5914537 31.95867572 -95.83984375 29.26171875 C-90.43592659 25.36901673 -85.0638565 21.43716774 -79.71875 17.46411133 C-75.75312403 14.52204337 -71.7696713 11.60492489 -67.77734375 8.69921875 C-66.95492188 8.09948242 -66.1325 7.49974609 -65.28515625 6.88183594 C-44.47333039 -8.18404579 -23.50966644 -15.17615866 0 0 Z " fill="#093642" transform="translate(476.77734375,301.30078125)"/>
<path d="M0 0 C4.19279986 2.77504222 7.26339227 5.39285586 9.375 10 C8.74563691 15.0349047 5.03028278 18.32657485 1.20263672 21.48144531 C-0.75254591 22.91052645 -2.73877716 24.27597761 -4.75 25.625 C-6.26765484 26.66951629 -7.78455754 27.7151261 -9.30078125 28.76171875 C-10.07760254 29.29458496 -10.85442383 29.82745117 -11.65478516 30.37646484 C-15.45593406 33.00790772 -19.19623464 35.72190043 -22.9375 38.4375 C-24.44785789 39.53133116 -25.9582748 40.62508084 -27.46875 41.71875 C-28.21769531 42.26144531 -28.96664063 42.80414063 -29.73828125 43.36328125 C-31.97939733 44.98509064 -34.22351315 46.60265132 -36.46875 48.21875 C-44.17785181 53.7698091 -51.85903285 59.35544803 -59.5 65 C-67.87948458 71.19011119 -76.31107363 77.30474309 -84.76611328 83.39111328 C-88.51359795 86.09012136 -92.25651595 88.79544751 -96 91.5 C-97.48957914 92.57552664 -98.97916248 93.65104746 -100.46875 94.7265625 C-103.57436571 96.96935715 -106.67830201 99.21445361 -109.78125 101.4609375 C-113.5437215 104.18456663 -117.31063616 106.90194035 -121.08056641 109.61523438 C-122.75952866 110.82651317 -124.43296994 112.04543719 -126.10546875 113.265625 C-133.9473652 118.91273954 -140.85466125 122.12186022 -150.6875 122.1875 C-151.64011719 122.20167969 -152.59273437 122.21585937 -153.57421875 122.23046875 C-157.30223207 121.9796674 -160.78162448 121.28951015 -164.43139648 120.51928711 C-168.3273173 119.73166012 -172.24949058 119.21559013 -176.1875 118.6875 C-185.33409711 117.42207069 -194.44952359 115.98547754 -203.5625 114.5 C-214.67974828 112.68934481 -225.80384478 110.94636092 -236.94726562 109.30419922 C-249.77493311 107.40323898 -249.77493311 107.40323898 -254.99609375 106.45703125 C-270.02335668 104.17069866 -284.32081765 107.44702079 -296.72802734 116.22216797 C-299.36878916 118.21284915 -301.93457637 120.25783895 -304.4765625 122.375 C-307 124 -307 124 -308.98413086 123.81420898 C-311.4679268 122.8110045 -312.2557666 121.78646986 -313.77734375 119.59765625 C-314.28394531 118.88158203 -314.79054688 118.16550781 -315.3125 117.42773438 C-315.84875 116.64720703 -316.385 115.86667969 -316.9375 115.0625 C-318.10257762 113.40735005 -319.26795032 111.75240777 -320.43359375 110.09765625 C-321.02640137 109.2483252 -321.61920898 108.39899414 -322.22998047 107.52392578 C-324.94506461 103.65240304 -327.72323884 99.82739329 -330.5 96 C-331.58109857 94.50417316 -332.66182633 93.00807826 -333.7421875 91.51171875 C-334.27811523 90.76970215 -334.81404297 90.02768555 -335.36621094 89.26318359 C-337.01853654 86.97432252 -338.66957112 84.68453508 -340.3203125 82.39453125 C-340.86800293 81.635354 -341.41569336 80.87617676 -341.97998047 80.09399414 C-343.06616617 78.58755226 -344.15115175 77.08024423 -345.23486328 75.57202148 C-347.88179562 71.89608711 -350.55658845 68.24763714 -353.296875 64.640625 C-353.81556152 63.95250732 -354.33424805 63.26438965 -354.86865234 62.55541992 C-355.8498479 61.25728389 -356.83938633 59.96539865 -357.83837891 58.6809082 C-358.97110382 57.17687075 -359.99695097 55.5934513 -361 54 C-359.91235081 50.73705243 -359.51148783 50.37830082 -356.81640625 48.5390625 C-356.14552979 48.07443604 -355.47465332 47.60980957 -354.78344727 47.13110352 C-354.05053467 46.63408936 -353.31762207 46.1370752 -352.5625 45.625 C-350.99931118 44.54396411 -349.4368336 43.46189918 -347.875 42.37890625 C-347.06675781 41.82090332 -346.25851562 41.26290039 -345.42578125 40.68798828 C-341.6029265 38.02784157 -337.83220682 35.29720647 -334.0625 32.5625 C-333.32040283 32.02536377 -332.57830566 31.48822754 -331.8137207 30.93481445 C-330.3034521 29.8416661 -328.79344282 28.74815941 -327.28369141 27.65429688 C-321.95158402 23.79173972 -316.61494069 19.93548939 -311.2734375 16.0859375 C-308.52077832 14.10169286 -305.77646684 12.10679032 -303.0390625 10.1015625 C-289.9667798 0.56805296 -280.14846628 -3.8851683 -263.63671875 -1.3984375 C-260.70019477 -0.91765428 -257.77389172 -0.39094215 -254.84765625 0.1484375 C-251.10174242 0.8320805 -247.34829443 1.38646958 -243.5769043 1.91088867 C-236.34167478 2.93675071 -229.13167288 4.0872242 -221.921875 5.27734375 C-219.98468597 5.59536705 -219.98468597 5.59536705 -218.00836182 5.91981506 C-214.60889629 6.47794125 -211.20972262 7.03782528 -207.81060791 7.5980835 C-203.72920816 8.27035813 -199.64741628 8.94024921 -195.56565094 9.61030006 C-192.28290519 10.14945871 -189.00054987 10.6907909 -185.71862793 11.23495483 C-180.24256134 12.14279257 -174.76691812 13.04392127 -169.27929688 13.87939453 C-168.44771057 14.0088295 -167.61612427 14.13826447 -166.75933838 14.2716217 C-165.29457743 14.49854626 -163.8286308 14.71803966 -162.36126709 14.92747498 C-155.99552421 15.92696282 -151.13938506 17.99283063 -147.16796875 23.2109375 C-142.83825551 29.84307349 -140.84393011 36.04679628 -142 44 C-143.56654129 47.68137204 -145.39793224 50.19896612 -149 52 C-157.14112259 52.57130685 -164.9962179 51.00443428 -172.98260498 49.60626221 C-175.40085208 49.18297488 -177.82048877 48.76869877 -180.24072266 48.35693359 C-183.40707085 47.81778214 -186.57291595 47.27584903 -189.73828125 46.73095703 C-194.94628391 45.83584957 -200.15782323 44.9650356 -205.375 44.125 C-206.09091309 44.00535889 -206.80682617 43.88571777 -207.54443359 43.76245117 C-214.77876049 42.36233528 -214.77876049 42.36233528 -221.375 44.625 C-223.48706506 47.71186432 -223.61195145 49.3282913 -223 53 C-221.30820066 55.55951304 -219.78296522 56.7736343 -216.82470703 57.62890625 C-213.99493406 58.17167562 -211.16616618 58.6013077 -208.3125 59 C-206.72900757 59.24145752 -206.72900757 59.24145752 -205.11352539 59.48779297 C-202.8796581 59.82832051 -200.64483776 60.16264572 -198.40917969 60.49121094 C-193.97863502 61.15242943 -189.55958459 61.8772248 -185.13916016 62.60253906 C-180.99782453 63.27834036 -176.85301364 63.93053992 -172.70703125 64.57714844 C-171.03985359 64.83756977 -169.3730869 65.10065853 -167.70703125 65.36816406 C-137.12909054 70.24607365 -116.14936907 62.01239929 -91.57861328 44.24951172 C-87.52029279 41.29293181 -83.48361785 38.30820997 -79.45703125 35.30859375 C-75.10229769 32.0659039 -70.69903644 28.8979399 -66.27197266 25.75512695 C-62.30677673 22.93847449 -58.36425794 20.09215487 -54.42895508 17.23388672 C-47.73673734 12.37906817 -41.02488243 7.55142795 -34.25 2.8125 C-33.28537842 2.12619507 -33.28537842 2.12619507 -32.30126953 1.42602539 C-21.8663688 -5.80948239 -11.23213056 -5.69963768 0 0 Z " fill="#E8BFAB" transform="translate(464,313)"/>
<path d="M0 0 C1.48196365 -0.01925285 1.48196365 -0.01925285 2.99386597 -0.03889465 C4.06468414 -0.04628159 5.13550232 -0.05366852 6.23876953 -0.0612793 C7.88499802 -0.07338692 7.88499802 -0.07338692 9.56448364 -0.08573914 C11.88965267 -0.09958594 14.21484208 -0.11030542 16.54003906 -0.11816406 C20.10016212 -0.13539438 23.65936098 -0.17927833 27.21923828 -0.22338867 C29.47574185 -0.23351376 31.73225333 -0.24203044 33.98876953 -0.2487793 C35.05553925 -0.26628738 36.12230896 -0.28379547 37.22140503 -0.30183411 C44.54893964 -0.28027358 44.54893964 -0.28027358 47.92578125 1.93310547 C49.37537196 4.39580199 49.71816875 5.67146673 49.63720703 8.50512695 C49.62431641 9.3043457 49.61142578 10.10356445 49.59814453 10.92700195 C49.54787109 12.16450195 49.54787109 12.16450195 49.49658203 13.42700195 C49.47853516 14.2674707 49.46048828 15.10793945 49.44189453 15.97387695 C49.39489001 18.0420759 49.32314928 20.10968636 49.24658203 22.17700195 C50.74898438 22.33749023 50.74898438 22.33749023 52.28173828 22.5012207 C56.31451234 23.08022849 59.94066537 24.42158127 63.68408203 25.98950195 C64.33932861 26.25577393 64.9945752 26.5220459 65.66967773 26.79638672 C69.18683979 28.24488664 72.58492866 29.81401725 75.93408203 31.61450195 C78.92881073 33.35270915 78.92881073 33.35270915 81.17626953 33.0559082 C84.91834888 31.46728961 87.2384144 28.16684881 89.93017578 25.20825195 C92.53006439 22.92841709 93.81352118 22.30434888 97.24658203 22.17700195 C102.61100284 23.54693367 105.89518916 27.34063121 109.69970703 31.1262207 C110.40053406 31.81706253 111.10136108 32.50790436 111.82342529 33.21968079 C113.299799 34.68089388 114.77215104 36.1461801 116.24072266 37.61523438 C118.48715459 39.85510206 120.75646093 42.06988621 123.02783203 44.28442383 C124.46159125 45.70938102 125.89393182 47.13576735 127.32470703 48.5637207 C128.00382141 49.22127853 128.68293579 49.87883636 129.38262939 50.55632019 C132.50567634 53.72552835 134.08646424 55.58600581 135.27294922 59.96533203 C135.22459186 65.85552671 131.42259272 69.07811309 127.49658203 73.05200195 C126.41813666 74.09872834 125.33648266 75.14220866 124.24658203 76.17700195 C125.59053892 80.46608924 127.24049399 84.43912381 129.18408203 88.48950195 C135.24658203 101.47422078 135.24658203 101.47422078 135.24658203 108.17700195 C136.49955078 108.1305957 137.75251953 108.08418945 139.04345703 108.03637695 C140.69447484 107.99885382 142.34551846 107.96245424 143.99658203 107.92700195 C144.82158203 107.89348633 145.64658203 107.8599707 146.49658203 107.82543945 C152.62675103 107.72656576 152.62675103 107.72656576 155.76220703 110.00512695 C157.95204508 113.20920578 158.37450403 115.78653742 158.40771484 119.5690918 C158.41732239 120.45366058 158.42692993 121.33822937 158.43682861 122.24960327 C158.44320343 123.67932968 158.44320343 123.67932968 158.44970703 125.13793945 C158.4554071 126.12065826 158.46110718 127.10337708 158.46697998 128.11587524 C158.47642722 130.19548466 158.48296287 132.27510903 158.48681641 134.35473633 C158.49652319 137.53273676 158.52754989 140.71009077 158.55908203 143.88793945 C158.56561214 145.90876895 158.57086258 147.92960306 158.57470703 149.95043945 C158.59322723 151.37409317 158.59322723 151.37409317 158.61212158 152.82650757 C158.59557896 157.73716689 158.54503992 161.24764395 155.24658203 165.17700195 C152.19977142 167.20820903 151.64539879 167.4236007 148.23486328 167.37231445 C147.47753906 167.36586914 146.72021484 167.35942383 145.93994141 167.3527832 C144.76141602 167.32764648 144.76141602 167.32764648 143.55908203 167.30200195 C142.76179688 167.29297852 141.96451172 167.28395508 141.14306641 167.2746582 C139.17744303 167.2511178 137.21197428 167.21524742 135.24658203 167.17700195 C135.08158203 168.45575195 134.91658203 169.73450195 134.74658203 171.05200195 C133.51001255 177.42720461 130.79890387 183.07770992 128.07861328 188.93041992 C127.55654297 190.05407959 127.55654297 190.05407959 127.02392578 191.20043945 C126.70673584 191.86994629 126.3895459 192.53945312 126.06274414 193.22924805 C125.21938872 195.24189824 124.54403073 197.0106722 124.24658203 199.17700195 C126.61069229 201.86022216 129.23799761 204.09148719 131.92626953 206.4465332 C134.81533808 209.84629569 135.33460047 211.7320708 135.24658203 216.17700195 C132.43856616 221.09156407 128.82705398 224.8762334 124.83642578 228.81762695 C124.22771133 229.42588318 123.61899689 230.0341394 122.99183655 230.66082764 C121.7125047 231.9371546 120.4307596 233.21106677 119.14672852 234.48266602 C117.18135083 236.42970768 115.22417283 238.38471288 113.26806641 240.34106445 C112.02049165 241.58372612 110.77246054 242.82592983 109.52392578 244.06762695 C108.93949203 244.65094788 108.35505829 245.2342688 107.75291443 245.83526611 C101.57328608 251.94287771 101.57328608 251.94287771 97.05908203 252.73950195 C92.35418538 252.04533687 90.57215854 250.33544554 87.23876953 247.09887695 C85.02292838 244.96124196 82.67068275 243.07266549 80.24658203 241.17700195 C79.15861328 241.7080957 78.07064453 242.23918945 76.94970703 242.78637695 C55.42451578 253.17700195 55.42451578 253.17700195 49.24658203 253.17700195 C49.30458984 254.4299707 49.36259766 255.68293945 49.42236328 256.97387695 C49.46926682 258.62488135 49.51476634 260.27592606 49.55908203 261.92700195 C49.62192383 263.16450195 49.62192383 263.16450195 49.68603516 264.42700195 C49.70214844 265.2262207 49.71826172 266.02543945 49.73486328 266.84887695 C49.76104736 267.58203125 49.78723145 268.31518555 49.81420898 269.07055664 C49.24658203 271.17700195 49.24658203 271.17700195 47.3918457 273.41430664 C42.77981507 275.99901992 38.6392346 275.75004454 33.43408203 275.70825195 C31.86436646 275.71399231 31.86436646 275.71399231 30.26293945 275.71984863 C28.05402665 275.72256633 25.84508159 275.71521517 23.63623047 275.69848633 C20.25822085 275.67707572 16.88233813 275.69829393 13.50439453 275.72387695 C11.35595234 275.72123365 9.20751148 275.71610863 7.05908203 275.70825195 C6.05063232 275.71634888 5.04218262 275.7244458 4.00317383 275.73278809 C-0.42857493 275.67362502 -3.02541937 275.62320938 -6.86669922 273.26879883 C-10.26464668 269.50150925 -10.05967321 265.91645167 -10.31591797 261.05200195 C-10.35910156 260.29790039 -10.40228516 259.54379883 -10.44677734 258.7668457 C-10.55290116 256.90378307 -10.65366798 255.04041671 -10.75341797 253.17700195 C-12.11660156 252.75741211 -12.11660156 252.75741211 -13.50732422 252.3293457 C-22.98205587 249.30714925 -31.83498468 245.56664217 -40.75341797 241.17700195 C-41.45208984 241.88727539 -42.15076172 242.59754883 -42.87060547 243.3293457 C-43.78068359 244.24844727 -44.69076172 245.16754883 -45.62841797 246.11450195 C-46.53333984 247.03102539 -47.43826172 247.94754883 -48.37060547 248.8918457 C-51.15384205 251.56101521 -52.08529384 252.07010209 -55.87841797 252.67700195 C-65.04674947 251.49399144 -73.03648194 240.0472909 -79.41040039 233.65039062 C-81.20784033 231.84752855 -83.01064458 230.0501521 -84.81396484 228.25317383 C-85.95946844 227.10701048 -87.10466236 225.96053753 -88.24951172 224.8137207 C-88.78797226 224.27728439 -89.3264328 223.74084808 -89.88121033 223.18815613 C-94.49234465 218.54763687 -94.49234465 218.54763687 -95.25341797 214.55200195 C-94.49509908 209.43334949 -91.31018527 206.75661786 -87.75341797 203.17700195 C-86.94904297 202.35200195 -86.14466797 201.52700195 -85.31591797 200.67700195 C-84.80029297 200.18200195 -84.28466797 199.68700195 -83.75341797 199.17700195 C-85.18025474 194.5486558 -87.07314631 190.26941302 -89.19091797 185.92700195 C-91.96206297 180.13929426 -94.20947441 174.42629733 -95.75341797 168.17700195 C-96.85041016 168.1512207 -97.94740234 168.12543945 -99.07763672 168.09887695 C-100.53210245 168.04257505 -101.986528 167.98522818 -103.44091797 167.92700195 C-104.16214844 167.91282227 -104.88337891 167.89864258 -105.62646484 167.8840332 C-110.53472037 167.65991195 -113.17250272 166.81953907 -116.75341797 163.17700195 C-117.94357278 160.79669234 -117.905273 159.28037084 -117.94628906 156.62304688 C-117.96235199 155.6783403 -117.97841492 154.73363373 -117.9949646 153.76029968 C-118.03939059 149.43786302 -118.0804783 145.11558028 -118.10351562 140.79296875 C-118.12007893 138.51259153 -118.14737362 136.23226629 -118.18554688 133.95214844 C-118.24028578 130.66614825 -118.26218554 127.38136529 -118.27685547 124.0949707 C-118.29952484 123.07710983 -118.32219421 122.05924896 -118.34555054 121.01054382 C-118.33148383 116.30115508 -118.30447136 113.93888646 -115.48364258 110.03881836 C-112.85375149 108.24542219 -111.659261 107.5412579 -108.54638672 107.4699707 C-107.79550781 107.4409668 -107.04462891 107.41196289 -106.27099609 107.38208008 C-105.50207031 107.3762793 -104.73314453 107.37047852 -103.94091797 107.36450195 C-103.15265625 107.33936523 -102.36439453 107.31422852 -101.55224609 107.28833008 C-99.61983424 107.22977214 -97.6865747 107.20044707 -95.75341797 107.17700195 C-95.38990234 106.02844727 -95.02638672 104.87989258 -94.65185547 103.6965332 C-91.58968684 94.18142439 -88.21880379 85.13944301 -83.75341797 76.17700195 C-84.81882812 75.12899414 -84.81882812 75.12899414 -85.90576172 74.05981445 C-86.82486328 73.14973633 -87.74396484 72.2396582 -88.69091797 71.30200195 C-89.60744141 70.39708008 -90.52396484 69.4921582 -91.46826172 68.55981445 C-93.91827735 66.0050973 -94.60157697 64.9741672 -95.25341797 61.55200195 C-93.9429992 52.70667525 -82.14763036 44.31668412 -75.96435547 38.09277344 C-74.73234968 36.84913568 -73.50485317 35.60101579 -72.28173828 34.34863281 C-70.49810567 32.52247619 -68.70171873 30.70980289 -66.90185547 28.8996582 C-66.35902924 28.33932388 -65.816203 27.77898956 -65.25692749 27.20167542 C-62.23665607 24.19847548 -60.09098331 22.37166615 -55.75341797 22.17700195 C-50.32858702 23.55832465 -47.6187508 27.31888749 -44.03466797 31.3762207 C-41.91924669 33.43925729 -41.91924669 33.43925729 -39.31982422 33.12231445 C-36.46386857 32.07034905 -33.87250114 30.80562488 -31.19091797 29.36450195 C-17.19694207 22.17700195 -17.19694207 22.17700195 -9.75341797 22.17700195 C-9.78822266 21.08000977 -9.82302734 19.98301758 -9.85888672 18.8527832 C-9.88703662 17.3983715 -9.91433549 15.94394315 -9.94091797 14.48950195 C-9.96605469 13.76827148 -9.99119141 13.04704102 -10.01708984 12.30395508 C-10.07994494 7.71553321 -9.62045548 4.80765721 -6.75341797 1.17700195 C-4.3207379 -0.03933808 -2.71917473 0.03070659 0 0 Z M7.24658203 16.17700195 C7.03715489 20.93275881 7.03715489 20.93275881 6.85864258 25.68969727 C6.62814818 29.8599073 6.08757799 32.13809392 3.24658203 35.17700195 C1.23217773 36.05493164 1.23217773 36.05493164 -1.07763672 36.59887695 C-2.36263062 36.92408325 -2.36263062 36.92408325 -3.67358398 37.25585938 C-4.5868042 37.47733643 -5.50002441 37.69881348 -6.44091797 37.92700195 C-16.83183168 40.65485196 -27.32794335 44.24396914 -35.95654297 50.8684082 C-38.36056537 52.61916365 -40.58651933 52.94456903 -43.53076172 52.8840332 C-47.59274706 51.59190781 -49.9890342 48.22232594 -52.67529297 45.0480957 C-53.36107422 44.43063477 -54.04685547 43.81317383 -54.75341797 43.17700195 C-58.40644308 43.48331151 -60.15102754 45.22132788 -62.64404297 47.7746582 C-63.35302734 48.49331055 -64.06201172 49.21196289 -64.79248047 49.95239258 C-65.52208984 50.70713867 -66.25169922 51.46188477 -67.00341797 52.23950195 C-67.74849609 52.99811523 -68.49357422 53.75672852 -69.26123047 54.53833008 C-71.0988849 56.41132402 -72.92917521 58.29095806 -74.75341797 60.17700195 C-73.80355083 61.29084099 -72.85287182 62.40398772 -71.90185547 63.5168457 C-71.37253418 64.1368042 -70.84321289 64.7567627 -70.29785156 65.39550781 C-69.02033225 66.86911806 -67.70414777 68.30910927 -66.37841797 69.73950195 C-64.26052573 72.91634032 -64.34193599 74.38868416 -64.75341797 78.17700195 C-66.04330218 80.7625032 -67.35810435 83.11339837 -68.87841797 85.55200195 C-74.40690763 94.88166881 -78.82708872 104.71450479 -80.87841797 115.42700195 C-81.84786221 119.58176298 -82.39485704 120.67158029 -85.75341797 123.17700195 C-88.48658696 123.6305917 -90.77343604 123.8692682 -93.50341797 123.92700195 C-97.09216797 124.05075195 -97.09216797 124.05075195 -100.75341797 124.17700195 C-100.75341797 132.75700195 -100.75341797 141.33700195 -100.75341797 150.17700195 C-97.23779297 150.40486654 -93.72216797 150.63273112 -90.20654297 150.8605957 C-87.57024244 151.10215718 -85.27304502 151.4198413 -82.75341797 152.17700195 C-82.59486328 152.79704102 -82.43630859 153.41708008 -82.27294922 154.0559082 C-76.78919228 176.66028274 -76.78919228 176.66028274 -64.75341797 196.17700195 C-64.25341797 198.73950195 -64.25341797 198.73950195 -64.75341797 202.17700195 C-66.32998722 204.37912683 -68.05673066 206.29241018 -69.92919922 208.24731445 C-72.06034615 210.42851288 -72.06034615 210.42851288 -74.75341797 214.17700195 C-68.81341797 220.11700195 -62.87341797 226.05700195 -56.75341797 232.17700195 C-51.91181549 228.05843582 -51.91181549 228.05843582 -47.25341797 223.73950195 C-43.70664234 221.52276719 -41.78190101 222.28552136 -37.75341797 223.17700195 C-34.60498047 224.8137207 -34.60498047 224.8137207 -31.37841797 226.86450195 C-20.75831268 233.29825267 -9.0197027 237.01376302 3.12158203 239.4387207 C3.82283203 239.68235352 4.52408203 239.92598633 5.24658203 240.17700195 C6.48466618 243.89125439 6.60239074 247.48990949 6.80908203 251.36450195 C7.02564453 255.23168945 7.02564453 255.23168945 7.24658203 259.17700195 C15.82658203 259.17700195 24.40658203 259.17700195 33.24658203 259.17700195 C33.41667086 254.09210321 33.41667086 254.09210321 33.54443359 249.00610352 C33.69852716 245.78635902 34.02175669 243.52482334 35.78173828 240.80200195 C39.12307174 238.5991577 42.58806206 237.80923284 46.43408203 236.92700195 C53.11408007 235.23924376 59.27721868 233.0854784 65.49658203 230.11450195 C66.18647217 229.78611328 66.8763623 229.45772461 67.5871582 229.11938477 C70.75311909 227.56226557 73.5941071 225.93978914 76.52001953 223.94262695 C79.24658203 222.17700195 79.24658203 222.17700195 82.62158203 221.98950195 C86.89669024 223.38996844 89.2399026 225.41060305 92.44970703 228.4855957 C94.34193741 230.36074426 94.34193741 230.36074426 97.24658203 232.17700195 C100.12086628 229.44738898 102.96717596 226.69027821 105.80908203 223.92700195 C107.03788086 222.76104492 107.03788086 222.76104492 108.29150391 221.5715332 C109.06171875 220.81743164 109.83193359 220.06333008 110.62548828 219.28637695 C111.34293213 218.59511719 112.06037598 217.90385742 112.79956055 217.19165039 C114.48556654 215.29901947 114.48556654 215.29901947 114.08837891 213.03857422 C112.59778354 209.74223152 109.66990552 207.77860458 106.96142578 205.4699707 C104.48987089 202.1651809 104.69266057 200.22915045 105.24658203 196.17700195 C106.38606623 193.46675182 107.87620556 191.04006828 109.43408203 188.55200195 C115.57906186 178.18122397 119.31494395 167.67055342 122.25439453 155.9777832 C123.24658203 153.17700195 123.24658203 153.17700195 126.24658203 151.17700195 C128.84265117 150.87625515 131.33211327 150.66905033 133.93408203 150.55200195 C137.55376953 150.36637695 137.55376953 150.36637695 141.24658203 150.17700195 C141.24658203 141.59700195 141.24658203 133.01700195 141.24658203 124.17700195 C136.11664461 123.96733539 136.11664461 123.96733539 130.9855957 123.7890625 C128.16706046 123.64373343 125.81705312 123.511051 123.35205078 122.06762695 C121.70522324 119.25114452 121.11131393 116.41118429 120.37158203 113.23950195 C117.55553641 101.9549723 112.98598335 92.31309166 106.82080078 82.5012207 C105.00678639 78.67063448 104.6949144 76.36577034 105.24658203 72.17700195 C106.70751953 69.8137207 106.70751953 69.8137207 108.62158203 67.86450195 C109.24806641 67.20836914 109.87455078 66.55223633 110.52001953 65.8762207 C111.08978516 65.31547852 111.65955078 64.75473633 112.24658203 64.17700195 C113.23658203 63.18700195 113.23658203 63.18700195 114.24658203 62.17700195 C113.77113663 56.96189717 109.43925171 53.85655593 105.93408203 50.36450195 C105.25667969 49.65874023 104.57927734 48.95297852 103.88134766 48.22583008 C102.89231445 47.23292969 102.89231445 47.23292969 101.88330078 46.2199707 C101.28219482 45.6117749 100.68108887 45.0035791 100.06176758 44.37695312 C98.31296169 42.94890797 98.31296169 42.94890797 96.13549805 43.37133789 C92.81850659 44.78610741 90.9095221 47.74588241 88.63720703 50.4621582 C85.81680971 52.48528635 83.72428304 52.71985934 80.28076172 52.5390625 C76.95651326 51.94738458 74.55763842 50.37373024 71.74658203 48.55200195 C61.75068728 42.39236211 50.87469495 38.44144236 39.38330078 36.01293945 C36.50721921 34.88774484 35.67703194 33.92167771 34.24658203 31.17700195 C33.87518912 28.51204519 33.64800808 26.09420789 33.55908203 23.42700195 C33.45595703 21.03450195 33.35283203 18.64200195 33.24658203 16.17700195 C24.66658203 16.17700195 16.08658203 16.17700195 7.24658203 16.17700195 Z " fill="#093641" transform="translate(276.75341796875,17.822998046875)"/>
<path d="M0 0 C1.22493164 -0.01836914 1.22493164 -0.01836914 2.47460938 -0.03710938 C15.56732983 -0.06840671 27.70768973 4.79587459 37.6875 13.1875 C38.91146484 14.11175781 38.91146484 14.11175781 40.16015625 15.0546875 C47.59165534 21.32609168 52.22699459 30.24115461 55.6875 39.1875 C56.23857422 40.48494141 56.23857422 40.48494141 56.80078125 41.80859375 C58.08259397 46.6930343 58.01617973 51.40884014 58 56.4375 C58.01611328 57.42363281 58.03222656 58.40976563 58.04882812 59.42578125 C58.05907929 74.98705288 51.46773234 88.55173889 40.60546875 99.4921875 C28.07975131 111.0621273 12.87330232 115.74501262 -3.87890625 115.46875 C-10.08533273 115.20220817 -15.58084732 113.51694173 -21.3125 111.1875 C-22.19421875 110.836875 -23.0759375 110.48625 -23.984375 110.125 C-30.86531905 107.04780763 -36.00897382 102.47313907 -41.3125 97.1875 C-41.96347656 96.55972656 -42.61445313 95.93195313 -43.28515625 95.28515625 C-53.29944861 84.87469408 -57.85895215 69.65739756 -57.8046875 55.45532227 C-57.18369881 39.01270604 -49.16751601 24.31521442 -37.3125 13.1875 C-25.91439881 4.15621763 -14.39441476 0.01120188 0 0 Z " fill="#D5EAFC" transform="translate(296.3125,97.8125)"/>
<path d="M0 0 C0.95519531 -0.00322266 1.91039062 -0.00644531 2.89453125 -0.00976562 C12.53429313 0.0619782 21.61734458 1.38292294 30.4375 5.375 C31.11425781 5.67736572 31.79101562 5.97973145 32.48828125 6.29125977 C39.21235787 9.43048374 44.85920033 13.47511258 50.5 18.3125 C51.22574219 18.92609375 51.95148438 19.5396875 52.69921875 20.171875 C64.46400014 30.98900209 73.57926673 48.01948772 74.68920898 64.04418945 C74.76731976 66.9697248 74.77307298 69.88607725 74.75 72.8125 C74.75773438 73.79347656 74.76546875 74.77445312 74.7734375 75.78515625 C74.72100057 95.47522388 66.37964069 112.67223109 53.0390625 126.9296875 C42.30894992 136.99948546 29.59267519 142.53402912 15.5 146.3125 C14.87770508 146.48450928 14.25541016 146.65651855 13.61425781 146.83374023 C-4.69020915 150.9786663 -23.95326395 144.70921327 -39.5 135.3125 C-56.27525082 124.09897663 -67.44283242 106.80576331 -71.75 87.1875 C-74.88190993 67.17174834 -70.96761729 48.71488951 -59.84375 31.79296875 C-45.47753477 12.44601381 -24.42198137 -0.41197674 0 0 Z M-43.5 36.3125 C-48.44585159 42.74485987 -51.91723436 49.64207541 -54.5 57.3125 C-55.11875 59.106875 -55.11875 59.106875 -55.75 60.9375 C-59.01255426 75.64865374 -55.77288085 90.84255406 -48.265625 103.71484375 C-45.11959574 108.3434045 -41.44688494 112.35864176 -37.5 116.3125 C-36.93539062 116.88871094 -36.37078125 117.46492188 -35.7890625 118.05859375 C-25.18238075 128.01852662 -10.94515636 131.82454561 3.234375 131.66186523 C17.82279246 131.18241078 31.78662797 124.91180684 42.25390625 114.75390625 C56.32863167 99.45529167 59.50855651 84.22018917 58.7265625 64.06103516 C58.24652659 58.23749608 56.29940324 53.43371799 53.5 48.3125 C53.01917969 47.40371094 52.53835938 46.49492187 52.04296875 45.55859375 C43.92740566 31.19040685 32.00547676 22.81055397 16.5 17.3125 C-6.10653846 12.32812808 -27.82239696 19.41579875 -43.5 36.3125 Z " fill="#0B3842" transform="translate(295.5,81.6875)"/>
<path d="M0 0 C1.23583984 1.38842773 1.23583984 1.38842773 2.4609375 3.18359375 C2.92556396 3.85447021 3.39019043 4.52534668 3.86889648 5.21655273 C4.36591064 5.94946533 4.8629248 6.68237793 5.375 7.4375 C6.45603589 9.00068882 7.53810082 10.5631664 8.62109375 12.125 C9.17909668 12.93324219 9.73709961 13.74148438 10.31201172 14.57421875 C12.97215672 18.39707104 15.7026935 22.16786825 18.4375 25.9375 C19.5312906 27.44788726 20.6250404 28.95830408 21.71875 30.46875 C22.26144531 31.21769531 22.80414063 31.96664062 23.36328125 32.73828125 C24.98509064 34.97939733 26.60265132 37.22351315 28.21875 39.46875 C33.8307836 47.26238925 39.47992977 55.02599206 45.1875 62.75 C49.58236039 68.69810256 53.94872999 74.66253627 58.22094727 80.69946289 C60.61445697 84.07827355 63.04470133 87.4264131 65.50390625 90.7578125 C66.10388428 91.57499756 66.7038623 92.39218262 67.32202148 93.23413086 C68.50461885 94.84332801 69.69275796 96.44847032 70.88696289 98.04907227 C71.42184326 98.77924561 71.95672363 99.50941895 72.5078125 100.26171875 C72.98879395 100.91100342 73.46977539 101.56028809 73.96533203 102.22924805 C75 104 75 104 75 107 C73.1171207 108.7407752 71.30193896 110.23729151 69.25 111.75 C68.71117187 112.17410156 68.17234375 112.59820312 67.6171875 113.03515625 C63.65445741 116.00237122 63.65445741 116.00237122 60.84375 115.9921875 C58.53374179 114.74908986 57.04208098 113.29297096 55.25 111.375 C52.81457088 108.78607745 50.31661959 106.39796326 47.609375 104.1015625 C40.39776919 97.85295561 33.83300282 90.88591891 27.12695312 84.10644531 C19.2854872 76.06795589 19.2854872 76.06795589 11 68.5 C3.95012579 62.51510679 -2.37510901 55.67552848 -8.87304688 49.10644531 C-17.86754192 39.95479806 -17.86754192 39.95479806 -27.40039062 31.37475586 C-30.08626125 29.06643207 -32.52802136 26.53377811 -35 24 C-33.69263822 20.07791466 -31.27509393 18.79768372 -28 16.5625 C-26.7327974 15.68268836 -25.46588378 14.8024604 -24.19921875 13.921875 C-23.52294434 13.45458984 -22.84666992 12.98730469 -22.14990234 12.50585938 C-19.875923 10.91309256 -17.6338616 9.28170403 -15.39453125 7.640625 C-14.63205078 7.08689209 -13.86957031 6.53315918 -13.08398438 5.96264648 C-11.58397663 4.87294825 -10.08904955 3.77621761 -8.59960938 2.67211914 C-7.91318359 2.17832764 -7.22675781 1.68453613 -6.51953125 1.17578125 C-5.91214111 0.73145752 -5.30475098 0.28713379 -4.67895508 -0.1706543 C-3 -1 -3 -1 0 0 Z " fill="#B27216" transform="translate(79,359)"/>
<path d="M0 0 C2.4375 1.5 2.4375 1.5 4 4 C4.95263457 10.55718538 4.95263457 10.55718538 2.71655273 13.94384766 C0.89551497 15.93038722 -1.00460413 17.75128006 -3 19.5625 C-3.69335449 20.22233887 -4.38670898 20.88217773 -5.10107422 21.56201172 C-8.94286194 25.19442788 -12.87110675 28.72543058 -16.9140625 32.1328125 C-19.8967098 34.80267282 -22.68587268 37.65442324 -25.5 40.5 C-29.59759359 44.63907785 -33.70409102 48.68853953 -38.171875 52.43359375 C-39.49441616 53.56679675 -40.77091302 54.75447882 -42.015625 55.97265625 C-43.02882813 56.94525391 -43.02882813 56.94525391 -44.0625 57.9375 C-44.65160156 58.52402344 -45.24070312 59.11054688 -45.84765625 59.71484375 C-49.07458362 61.64162979 -51.29018596 61.40261548 -55 61 C-57.37617287 59.31176598 -59.1256659 57.83676936 -61.1171875 55.77734375 C-61.65981232 55.23904434 -62.20243713 54.70074493 -62.76150513 54.14613342 C-63.90098504 53.00703381 -65.03180221 51.85921002 -66.15429688 50.70336914 C-67.86840484 48.94426827 -69.61444446 47.22246577 -71.3671875 45.50195312 C-72.47343777 44.38748104 -73.57767532 43.27100673 -74.6796875 42.15234375 C-75.45927322 41.38627052 -75.45927322 41.38627052 -76.25460815 40.60472107 C-79.77727999 36.91882991 -80.94044682 34.09330492 -81 29 C-78.67244292 25.68499446 -77.11047362 24.2961263 -73.1875 23.25 C-68.25188572 24.41132101 -65.53211686 27.48640823 -62 31 C-61.09765625 31.88816406 -60.1953125 32.77632812 -59.265625 33.69140625 C-56.82757376 36.11223962 -54.40713318 38.54847297 -52 41 C-48.97022571 39.64768813 -46.91527387 38.14519457 -44.609375 35.76953125 C-43.98659668 35.13515137 -43.36381836 34.50077148 -42.72216797 33.84716797 C-42.07135254 33.17572754 -41.42053711 32.50428711 -40.75 31.8125 C-39.39511643 30.43433998 -38.03836929 29.05800937 -36.6796875 27.68359375 C-36.07366699 27.06540771 -35.46764648 26.44722168 -34.84326172 25.81030273 C-32.36424453 23.37561235 -29.75497605 21.1157271 -27.09765625 18.87890625 C-23.45994054 15.62054265 -20.06778338 12.10705378 -16.65380859 8.61669922 C-7.14796936 -1.03970463 -7.14796936 -1.03970463 0 0 Z " fill="#0A3844" transform="translate(333,126)"/>
</svg>
