<?xml version="1.0" encoding="UTF-8"?>
<svg version="1.1" xmlns="http://www.w3.org/2000/svg" width="512" height="512">
<path d="M0 0 C1.59612769 -0.00435471 3.1922533 -0.00954038 4.78837585 -0.01548767 C9.09846027 -0.02880835 13.40845663 -0.02946403 17.7185576 -0.02692437 C21.32902303 -0.02584978 24.93947099 -0.03075054 28.54993266 -0.03552979 C37.07496856 -0.04660135 45.5999604 -0.04707587 54.125 -0.04101562 C62.89096324 -0.03497947 71.65676582 -0.04728316 80.42270166 -0.06858569 C87.97464667 -0.0862566 95.5265408 -0.09219436 103.07850569 -0.08894795 C107.57751094 -0.08714344 112.07640161 -0.08968742 116.57538795 -0.10366249 C120.81002752 -0.1163257 125.04441848 -0.11421732 129.27905464 -0.1012516 C130.82327105 -0.09890451 132.36750543 -0.10155258 133.9117012 -0.10987473 C152.79821641 -0.20423182 167.98087596 3.68400963 181.87182617 17.03637695 C194.93527062 30.67090094 198.32569091 46.17226676 198.29101562 64.52148438 C198.29536939 66.05000557 198.30055475 67.57852459 198.3065033 69.10704041 C198.31982758 73.2349027 198.32047973 77.36267308 198.31794 81.49055266 C198.31686661 84.94256708 198.3217626 88.39456318 198.32654542 91.84657365 C198.33761611 99.98920121 198.33809062 108.13178263 198.33203125 116.27441406 C198.32598177 124.66729782 198.33833271 133.06001435 198.35960132 141.45286959 C198.3772184 148.67093033 198.38321883 155.88893781 198.37996358 163.10701925 C198.37815203 167.41299294 198.38077482 171.71884709 198.39467812 176.02480125 C198.40725496 180.07063174 198.40531386 184.11620088 198.39226723 188.16202736 C198.38990224 189.64468092 198.3926334 191.12735289 198.40089035 192.60998535 C198.41136415 194.63707608 198.40145099 196.66424133 198.39057922 198.69132996 C198.39083084 200.39109623 198.39083084 200.39109623 198.39108753 202.12520123 C197.773981 207.31173524 195.88150499 210.44712575 192.14135742 214.0246582 C186.87586746 217.81581098 182.68597252 218.56912839 176.28701782 218.53535461 C175.13033098 218.54109293 175.13033098 218.54109293 173.95027673 218.54694718 C171.37018321 218.55725374 168.7903132 218.5532895 166.21020508 218.54931641 C164.35877781 218.5536642 162.50735235 218.55884757 160.65592957 218.56480408 C155.62903619 218.57819863 150.60221798 218.57877219 145.57531023 218.57624078 C141.37799358 218.57517129 137.18069216 218.58005391 132.98337877 218.5848462 C123.08029758 218.59594315 113.17725432 218.59637785 103.27416992 218.59033203 C93.06027366 218.58429229 82.84651515 218.59660285 72.63264239 218.6179021 C63.86137057 218.63552004 55.09014259 218.64151912 46.31885374 218.63826436 C41.08108804 218.63645154 35.8434206 218.63908757 30.60567093 218.6529789 C25.67921368 218.66555556 20.75297107 218.66361459 15.82651711 218.65056801 C14.02016312 218.64820227 12.21379403 218.65093684 10.40745735 218.65919113 C7.93794449 218.66966067 5.46915155 218.66155655 2.99966431 218.64888 C2.28807557 218.65625429 1.57648683 218.66362857 0.84333479 218.67122632 C-5.39937916 218.60400077 -9.83775536 216.98161395 -14.73364258 213.0871582 C-21.26827238 204.91887095 -20.30807532 196.17586474 -19.98364258 186.2746582 C-20.56243164 186.43321289 -21.1412207 186.59176758 -21.73754883 186.75512695 C-30.78589364 188.84804845 -40.3565399 186.4183949 -48.34692383 181.9543457 C-57.30411493 175.58865261 -63.67858694 167.10175673 -65.98364258 156.2746582 C-66.09256531 154.56084774 -66.15197238 152.84355779 -66.17651367 151.12646484 C-66.1925766 150.10182632 -66.20863953 149.07718781 -66.22518921 148.02149963 C-66.26976199 143.35792849 -66.31066942 138.69449591 -66.33374023 134.03076172 C-66.35033037 131.57005374 -66.37766003 129.10939454 -66.41577148 126.64892578 C-66.47046123 123.09813485 -66.49239932 119.54846945 -66.50708008 115.99731445 C-66.52974945 114.89823257 -66.55241882 113.7991507 -66.57577515 112.66676331 C-66.55221239 104.16947555 -66.55221239 104.16947555 -63.57592773 101.04199219 C-60.98364258 99.2746582 -60.98364258 99.2746582 -58.98364258 99.2746582 C-58.98364258 93.0046582 -58.98364258 86.7346582 -58.98364258 80.2746582 C-60.30364258 79.9446582 -61.62364258 79.6146582 -62.98364258 79.2746582 C-64.70874023 78.07324219 -64.70874023 78.07324219 -65.98364258 76.2746582 C-66.37182617 73.64599609 -66.37182617 73.64599609 -66.38208008 70.49731445 C-66.38594727 69.34295898 -66.38981445 68.18860352 -66.39379883 66.99926758 C-66.38219727 65.79077148 -66.3705957 64.58227539 -66.35864258 63.3371582 C-66.37024414 62.1634668 -66.3818457 60.98977539 -66.39379883 59.78051758 C-66.33794744 42.94132287 -61.11538465 28.75938301 -49.36254883 16.48950195 C-34.78622547 2.91844227 -19.25282581 -0.03489981 0 0 Z " fill="#000001" transform="translate(189.983642578125,292.725341796875)"/>
<path d="M0 0 C1.5465731 -0.00599187 3.09314322 -0.01279892 4.63970947 -0.02035522 C8.82387561 -0.03795796 13.00795983 -0.04270825 17.19215941 -0.0439868 C19.81216444 -0.0454125 22.43214892 -0.04969007 25.05214882 -0.05498123 C34.20942115 -0.07346438 43.36663541 -0.08165422 52.52392578 -0.08007812 C61.03200186 -0.07887802 69.53982373 -0.09995897 78.04783553 -0.13156545 C85.37469069 -0.15780469 92.70146323 -0.16844219 100.02836496 -0.16716731 C104.3944251 -0.16665981 108.76025926 -0.17222448 113.1262722 -0.19352341 C117.23782559 -0.21303463 121.34894046 -0.21294335 125.46051025 -0.19849014 C126.95957907 -0.19641662 128.45867628 -0.20101482 129.95769691 -0.21321106 C144.32739325 -0.32244327 158.02036144 2.32690371 168.92114258 12.32568359 C179.79184396 23.82510091 182.00984675 35.54375389 181.9453125 50.83886719 C181.9463865 52.31609176 181.94832693 53.79331591 181.95106506 55.27053833 C181.95589523 59.26597328 181.94828249 63.26129584 181.93811202 67.25671721 C181.92930971 71.43893519 181.93108933 75.62114988 181.93147278 79.80337524 C181.93053766 86.81913122 181.92187091 93.83484382 181.90820312 100.85058594 C181.89244248 108.97081539 181.88720636 117.09099748 181.88793868 125.21124113 C181.88854795 133.02114036 181.88345412 140.83102414 181.87514687 148.64091873 C181.87160951 151.96706895 181.86978299 155.29321369 181.86925316 158.61936569 C181.86825215 162.52801383 181.86217558 166.43662188 181.85208702 170.34525681 C181.84915536 171.78324132 181.84793799 173.22123045 181.84851456 174.65921783 C181.84900188 176.61374842 181.84275615 178.5682773 181.83610535 180.52279663 C181.8344295 181.61893469 181.83275366 182.71507275 181.83102703 183.84442711 C181.70239258 186.29052734 181.70239258 186.29052734 180.70239258 187.29052734 C178.41087841 187.37843709 176.11666734 187.39746773 173.82348633 187.38818359 C172.79349266 187.38606117 172.79349266 187.38606117 171.74269104 187.38389587 C169.54171457 187.37828214 167.34083849 187.36572741 165.13989258 187.35302734 C163.65096175 187.34801411 162.16202934 187.3434509 160.6730957 187.33935547 C157.01616183 187.32830827 153.35928699 187.31103447 149.70239258 187.29052734 C149.70092602 186.51507915 149.69945946 185.73963095 149.69794846 184.94068432 C149.66092534 166.08771133 149.60197061 147.23492432 149.51848984 128.3820982 C149.4786504 119.26506434 149.44628291 110.14811742 149.43139648 101.03100586 C149.4184053 93.0861608 149.39150583 85.14150663 149.34777951 77.19676906 C149.32510736 72.98855685 149.30948532 68.78058057 149.31050873 64.57230186 C149.31125197 60.61347142 149.2934377 56.65516363 149.26122475 52.69646835 C149.25268737 51.24161346 149.25100173 49.78670019 149.25658989 48.33183098 C149.26319255 46.34914184 149.24301421 44.36641687 149.22137451 42.38383484 C149.21768734 41.27307429 149.21400017 40.16231375 149.21020126 39.01789379 C148.94378907 36.19616135 148.94378907 36.19616135 146.89261246 34.41360188 C143.46544973 32.65626271 141.31322042 33.17445328 137.70239258 34.29052734 C135.69198254 37.22502142 135.69198254 37.22502142 134.70239258 40.29052734 C134.09395508 40.00177734 133.48551758 39.71302734 132.85864258 39.41552734 C123.97834122 35.65445853 113.69258866 34.08550313 104.44458008 37.48974609 C102.6055155 38.40426731 100.77620813 39.33883972 98.96020508 40.29833984 C96.70239258 41.29052734 96.70239258 41.29052734 93.45239258 40.79052734 C92.54489258 40.29552734 91.63739258 39.80052734 90.70239258 39.29052734 C82.03484431 35.01567968 72.50419012 34.57724485 63.21020508 37.32177734 C54.55003033 41.2882696 48.28053301 47.35445955 44.20239258 55.97802734 C40.26437699 67.38591106 42.7651405 77.67543537 47.70239258 88.29052734 C37.95481028 91.46737097 28.07678934 94.11318127 18.16967773 96.73999023 C12.34480886 98.28889763 6.56645125 99.90252396 0.83007812 101.75512695 C-1.29760742 102.29052734 -1.29760742 102.29052734 -5.29760742 102.29052734 C-5.30307587 101.08236359 -5.30307587 101.08236359 -5.30865479 99.84979248 C-5.3465299 92.25723705 -5.4033763 84.66517255 -5.48151016 77.0729332 C-5.52101089 73.16969883 -5.55318632 69.26669093 -5.56860352 65.36328125 C-5.5837535 61.59584325 -5.61816815 57.82902771 -5.66591644 54.06186676 C-5.68074762 52.62502708 -5.68864944 51.18809853 -5.68949127 49.75118256 C-5.69185706 47.73782487 -5.72119807 45.72455366 -5.75170898 43.71142578 C-5.76059143 42.56559021 -5.76947388 41.41975464 -5.77862549 40.23919678 C-6.40962975 36.65405662 -7.41985191 35.45961164 -10.29760742 33.29052734 C-13.38672161 32.84922532 -15.30924134 32.63157717 -17.95417786 34.39497375 C-19.96973618 37.23888825 -19.69893543 39.59846748 -19.72998047 43.05688477 C-19.74017212 43.74007278 -19.75036377 44.4232608 -19.76086426 45.12715149 C-19.7910392 47.38351595 -19.80026662 49.63945622 -19.80932617 51.89599609 C-19.82616961 53.4611401 -19.8443194 55.02627054 -19.86372375 56.59138489 C-19.91126669 60.70950078 -19.94104806 64.82756172 -19.96716309 68.94586182 C-19.9969471 73.14875137 -20.04348478 77.35145149 -20.08862305 81.55419922 C-20.17470493 89.79954896 -20.24202825 98.04491586 -20.29760742 106.29052734 C-20.91104004 106.48678711 -21.52447266 106.68304688 -22.15649414 106.88525391 C-23.36716553 107.27922363 -23.36716553 107.27922363 -24.60229492 107.68115234 C-25.40135254 107.93928711 -26.20041016 108.19742188 -27.02368164 108.46337891 C-30.15640103 109.60291651 -32.1515717 110.71528448 -34.29760742 113.29052734 C-34.22873877 117.28490908 -34.16618453 119.42195024 -31.29760742 122.29052734 C-25.76581375 122.64708249 -20.94893267 121.97945114 -15.59838867 120.53271484 C-14.88976685 120.34921982 -14.18114502 120.16572479 -13.4510498 119.97666931 C-11.16808609 119.38258797 -8.88915679 118.77443549 -6.61010742 118.16552734 C-5.02327224 117.74914463 -3.43627548 117.3333772 -1.84912109 116.91821289 C7.24369832 114.52893936 16.30192445 112.03363038 25.32421875 109.38964844 C31.74426941 107.52131465 38.20922997 105.88436442 44.70239258 104.29052734 C54.94066273 101.77626733 65.06721357 98.9647239 75.1887207 96.01953125 C79.39632085 94.79926182 83.610173 93.60207433 87.82739258 92.41552734 C88.58004395 92.20017334 89.33269531 91.98481934 90.1081543 91.76293945 C93.06864804 90.93255706 95.61124354 90.29052734 98.70239258 90.29052734 C104.85134151 107.80405153 104.85134151 107.80405153 101.81958008 115.54443359 C97.93184244 122.53463735 92.14127438 124.97021435 84.73754883 127.22021484 C82.41629834 127.87919904 80.09187861 128.52709175 77.76489258 129.16552734 C76.53085693 129.51139893 75.29682129 129.85727051 74.02539062 130.21362305 C65.05867584 132.70383412 56.05087115 135.00325277 47.01123047 137.21191406 C40.68001614 138.76594422 34.438308 140.50180787 28.20263672 142.39892578 C21.1559838 144.51334185 14.01875829 146.24019141 6.87109375 147.9765625 C0.92082636 149.43640925 -4.94402051 151.05601329 -10.80175781 152.85009766 C-30.07103872 158.70574302 -30.07103872 158.70574302 -38.68432617 155.36474609 C-44.27946175 152.18968764 -47.76980826 147.58222608 -51.29760742 142.29052734 C-52.16106693 138.95033511 -52.42847498 135.80533116 -52.45532227 132.36425781 C-52.47071548 130.93785477 -52.47071548 130.93785477 -52.48641968 129.4826355 C-52.49372101 128.46791168 -52.50102234 127.45318787 -52.50854492 126.40771484 C-52.53659364 124.25015492 -52.56525793 122.09260292 -52.59448242 119.93505859 C-52.63586707 116.54003964 -52.67276456 113.14517208 -52.69897461 109.75 C-52.72648683 106.4689301 -52.77233321 103.18852913 -52.82104492 99.90771484 C-52.82429779 98.88894257 -52.82755066 97.87017029 -52.8309021 96.82052612 C-52.84746857 95.87589508 -52.86403503 94.93126404 -52.88110352 93.95800781 C-52.88919037 93.12703583 -52.89727722 92.29606384 -52.90560913 91.43991089 C-53.39660916 88.74768642 -54.15132635 87.95041784 -56.29760742 86.29052734 C-57.61760742 85.63052734 -58.93760742 84.97052734 -60.29760742 84.29052734 C-60.29760742 78.02052734 -60.29760742 71.75052734 -60.29760742 65.29052734 C-58.31760742 64.30052734 -56.33760742 63.31052734 -54.29760742 62.29052734 C-53.05065582 59.79662414 -53.15582538 58.05600335 -53.12182617 55.26708984 C-52.77454276 38.2986608 -51.50967888 25.16075725 -39.41870117 12.29052734 C-27.89716295 1.49054 -15.10861894 -0.0117026 0 0 Z " fill="#0065C3" transform="translate(191.297607421875,307.70947265625)"/>
<path d="M0 0 C1.34472736 -0.00015537 2.68945515 -0.00165068 4.03417969 -0.00440979 C6.82784242 -0.00578264 9.62098467 0.00658746 12.41455078 0.02954102 C15.99356248 0.05814522 19.57172585 0.05511447 23.15080261 0.0424509 C25.91663884 0.03550357 28.68227849 0.04326829 31.4480896 0.05570793 C33.408497 0.06240098 35.368932 0.05808519 37.3293457 0.05360413 C38.51488037 0.0662883 39.70041504 0.07897247 40.921875 0.09204102 C41.96569336 0.097444 43.00951172 0.10284698 44.08496094 0.1084137 C46.6875 0.49609375 46.6875 0.49609375 48.54785156 1.77134705 C49.6875 3.49609375 49.6875 3.49609375 49.6875 7.49609375 C56.2875 7.49609375 62.8875 7.49609375 69.6875 7.49609375 C70.0175 5.84609375 70.3475 4.19609375 70.6875 2.49609375 C76.00378885 -1.04809881 83.44965558 -0.11203147 89.6875 0.49609375 C100.74061733 2.88302461 110.15531168 9.32496651 116.6875 18.49609375 C122.2988431 27.70941306 123.98922638 36.63966162 123.97802734 47.31103516 C123.98474457 48.24720169 123.99146179 49.18336823 123.99838257 50.14790344 C124.01724133 53.21454297 124.02127974 56.2809625 124.0234375 59.34765625 C124.02987076 61.49278857 124.03659951 63.63792002 124.04360962 65.78305054 C124.05554977 70.26652055 124.05929349 74.74991366 124.05810547 79.23339844 C124.05790176 84.97106706 124.08527279 90.70824332 124.11964989 96.44579506 C124.14190349 100.87080138 124.14594358 105.29568854 124.14488602 109.72074509 C124.14724163 111.83620282 124.15606288 113.95166385 124.17155075 116.06706619 C124.19119167 119.02504234 124.18538128 121.98194726 124.17333984 124.93994141 C124.18457886 125.80765671 124.19581787 126.67537201 124.20739746 127.56938171 C124.1476806 133.35521453 123.21955391 136.84082931 119.6875 141.49609375 C114.39362896 145.51456308 108.35761787 144.92617798 101.99414062 144.90014648 C100.82272018 144.90700974 99.65129974 144.91387299 98.44438171 144.92094421 C94.57738073 144.93922574 90.71078487 144.93537292 86.84375 144.9296875 C84.83382995 144.9321639 82.82391984 144.93651095 80.81400347 144.94104058 C74.49851631 144.95506908 68.18316447 144.95353805 61.86767578 144.94213867 C55.36121609 144.93065383 48.85516841 144.94474265 42.34876299 144.97153515 C36.75281139 144.9937122 31.15698894 145.0003252 25.56099653 144.99445873 C22.22290421 144.99109326 18.88528715 144.99519064 15.54719543 145.01070976 C11.82477097 145.02557866 8.1032553 145.01497167 4.38085938 144.99780273 C2.73019722 145.01230469 2.73019722 145.01230469 1.04618835 145.02709961 C-6.34452205 144.95568171 -9.89501683 143.90641239 -15.17578125 138.63671875 C-16.71845977 135.73160594 -16.60652424 133.51283709 -16.5 130.24609375 C-16.47292969 129.1684375 -16.44585938 128.09078125 -16.41796875 126.98046875 C-16.38316406 126.160625 -16.34835938 125.34078125 -16.3125 124.49609375 C-17.735625 124.58890625 -17.735625 124.58890625 -19.1875 124.68359375 C-27.02850067 124.65184881 -34.60532312 121.89752901 -40.3125 116.49609375 C-45.58965847 110.50315049 -47.5472481 104.61570377 -47.61889648 96.59545898 C-47.62722 95.93271469 -47.63554352 95.2699704 -47.64411926 94.58714294 C-47.66808676 92.40959675 -47.67697781 90.23235138 -47.68359375 88.0546875 C-47.69257486 86.52498799 -47.70169694 84.9952893 -47.71095276 83.46559143 C-47.72741276 80.26048662 -47.73513656 77.05548583 -47.73803711 73.8503418 C-47.74339739 69.77764256 -47.78099107 65.70594628 -47.82678127 61.63352871 C-47.85679152 58.47185364 -47.86376591 55.31041224 -47.86476326 52.14860725 C-47.86892347 50.64932762 -47.88118525 49.1500445 -47.90228081 47.65090752 C-48.06294791 35.2387202 -46.24975923 24.74798827 -38 15.05859375 C-26.67177051 3.54373775 -16.16716745 -0.14322169 0 0 Z " fill="#030200" transform="translate(47.3125,133.50390625)"/>
<path d="M0 0 C1.49176758 -0.01248528 1.49176758 -0.01248528 3.01367188 -0.02522278 C6.28959109 -0.04924427 9.56531074 -0.05808654 12.84130859 -0.06469727 C15.13186703 -0.07367141 17.42242489 -0.08279339 19.71298218 -0.09205627 C24.5127708 -0.10852885 29.31248983 -0.11624292 34.11230469 -0.11914062 C40.23514456 -0.12451438 46.35732159 -0.16216121 52.47997475 -0.20788479 C57.2123345 -0.23776684 61.94453702 -0.24486665 66.67698288 -0.24586678 C68.93263145 -0.25004897 71.18828136 -0.26240191 73.44383621 -0.28338432 C88.27835438 -0.41037077 100.42364395 -0.37942873 112.30224609 9.61889648 C123.7478599 20.87900602 127.25199213 31.01736911 127.43261623 46.95177746 C127.44660809 50.20164661 127.4402414 53.45104644 127.43115234 56.70092773 C127.436393 58.98012037 127.4426711 61.25931084 127.44993591 63.53849792 C127.46030642 68.29676583 127.4558229 73.054734 127.44116211 77.81298828 C127.42391996 83.90732135 127.44755486 90.00071637 127.48265171 96.09494495 C127.50460867 100.79359673 127.50318927 105.49202303 127.4948864 110.19071007 C127.4940671 112.43816855 127.50092624 114.68564362 127.51565742 116.93305397 C127.53308494 120.07086775 127.51857785 123.20698113 127.49584961 126.34472656 C127.50754181 127.26899948 127.51923401 128.1932724 127.53128052 129.14555359 C127.46850445 133.40708202 127.26505123 136.3853705 124.57530212 139.80400085 C119.83911013 144.17647131 116.58149739 144.60690813 110.23803711 144.61279297 C109.09341003 144.62527824 109.09341003 144.62527824 107.92565918 144.63801575 C105.40660482 144.6620843 102.88780944 144.67088319 100.36865234 144.67749023 C98.61514712 144.68645778 96.86164269 144.69557965 95.10813904 144.70484924 C91.43380881 144.72133239 87.75956964 144.72903833 84.08520508 144.73193359 C79.37947622 144.73732191 74.67460394 144.77502283 69.96911716 144.82067776 C66.34796528 144.85043229 62.72702027 144.85765677 59.10575676 144.85865974 C57.37100227 144.86286396 55.63624727 144.87530641 53.90161324 144.89617729 C51.47405188 144.92306459 49.04848432 144.91827612 46.62084961 144.90576172 C45.90640182 144.92059601 45.19195404 144.9354303 44.45585632 144.95071411 C40.5875323 144.8939879 38.95829395 144.38004864 35.87998962 141.95643616 C33.86474609 139.30639648 33.86474609 139.30639648 33.86474609 136.30639648 C27.59474609 136.30639648 21.32474609 136.30639648 14.86474609 136.30639648 C14.20474609 138.28639648 13.54474609 140.26639648 12.86474609 142.30639648 C8.43824889 145.70233447 2.12998479 144.85773038 -3.13525391 144.30639648 C-7.15069716 143.07087548 -9.5584856 141.08782451 -12.07275391 137.68139648 C-13.49617559 133.15993936 -13.38601765 129.00589481 -13.13525391 124.30639648 C-13.81330078 124.2922168 -14.49134766 124.27803711 -15.18994141 124.26342773 C-23.8978697 123.81717656 -31.33205865 121.62282311 -37.51025391 115.18139648 C-44.08015449 106.24363661 -44.72530825 96.6001139 -44.63134766 85.83764648 C-44.63150315 84.46724369 -44.63300037 83.09684046 -44.63575745 81.72644043 C-44.63713187 78.87219492 -44.6247466 76.01845774 -44.60180664 73.16430664 C-44.57342431 69.53676031 -44.576172 65.9100565 -44.58889675 62.28244781 C-44.59590803 59.45795712 -44.58800321 56.63365538 -44.57563972 53.80918884 C-44.56903557 51.83142163 -44.57323142 49.85362759 -44.57774353 47.87585449 C-44.43143756 33.7463804 -40.94826002 21.79792396 -31.28759766 11.22827148 C-21.96873762 2.90725671 -12.12897765 0.00869773 0 0 Z " fill="#000102" transform="translate(385.13525390625,133.693603515625)"/>
<path d="M0 0 C0.59973633 0.25281738 1.19947266 0.50563477 1.81738281 0.76611328 C19.13005277 8.22381387 31.06029916 19.87301419 38.4375 37.3125 C41.26449323 44.70092193 42.3487073 52.16391697 42.265625 60.03515625 C42.26040833 60.88803726 42.25519165 61.74091827 42.24981689 62.61964417 C42.10018577 72.56099959 41.14365144 82.42292577 40.08349609 92.30249023 C39.74789415 95.4572959 39.43761298 98.61394607 39.12890625 101.77148438 C36.88405048 123.75981593 31.81308547 141.39507634 14.484375 156.140625 C0.99151905 166.15145361 -14.84657945 169.67268932 -31.37890625 167.5703125 C-45.18439331 165.07144222 -56.26666497 159.03975484 -66 149 C-66.57234375 148.43667969 -67.1446875 147.87335938 -67.734375 147.29296875 C-77.69872418 136.73794939 -80.97478941 122.1215084 -82.38671875 108.12890625 C-82.49345413 107.12649399 -82.60018951 106.12408173 -82.7101593 105.09129333 C-82.93216252 102.98166382 -83.14956845 100.87154584 -83.36254883 98.76098633 C-83.68368752 95.60002611 -84.02536262 92.44177136 -84.36914062 89.28320312 C-85.39948483 79.51219488 -86.20801725 69.79901678 -86.24609375 59.96875 C-86.25342781 58.78128929 -86.25342781 58.78128929 -86.26091003 57.56983948 C-86.11021672 41.21087705 -79.02119547 26.84682509 -68 15 C-51.04260802 -1.60297703 -22.59637361 -9.72626516 0 0 Z " fill="#0066C3" transform="translate(278,110)"/>
<path d="M0 0 C2.13605243 0.00103923 4.27210679 -0.00000401 6.40815735 -0.00302124 C10.86557907 -0.00284265 15.32227088 0.01784308 19.77954102 0.05419922 C25.47555567 0.09965482 31.17050997 0.10063797 36.8666563 0.08716393 C41.27036365 0.08046398 45.67383179 0.09378119 50.07749367 0.11342239 C52.17731282 0.12108538 54.27715865 0.12343994 56.37698936 0.1202507 C59.31523268 0.11950414 62.25214368 0.14488845 65.19018555 0.17724609 C66.04599716 0.17229126 66.90180878 0.16733643 67.78355408 0.16223145 C76.44553586 0.31353385 83.80967958 3.55474542 89.99409485 9.64102173 C98.8501993 19.20249449 97.57796811 30.62225645 97.4140625 42.828125 C97.40472442 44.87648654 97.39761301 46.92485933 97.3926239 48.97323608 C97.37363254 54.33611472 97.32459995 59.69830455 97.269104 65.06091309 C97.21774126 70.54442022 97.19507362 76.02803983 97.16992188 81.51171875 C97.11647323 92.25030082 97.03125645 102.98837414 96.92578125 113.7265625 C91.64578125 113.7265625 86.36578125 113.7265625 80.92578125 113.7265625 C80.92031281 112.08618011 80.92031281 112.08618011 80.91473389 110.41265869 C80.87781118 100.11242501 80.82006843 89.81249104 80.74187851 79.5124855 C80.70234978 74.21696981 80.67018778 68.92162175 80.65478516 63.62597656 C80.63965412 58.51645856 80.60527187 53.40740126 80.55747223 48.29808807 C80.54262171 46.34767407 80.53473814 44.3971943 80.5338974 42.44672394 C80.53153701 39.71691119 80.50453299 36.98838127 80.47167969 34.25878906 C80.47671005 33.45030518 80.48174042 32.64182129 80.48692322 31.80883789 C80.42065562 28.25585866 80.20569702 26.11946537 78.1182251 23.18939209 C75.86234719 21.38361823 75.86234719 21.38361823 72.30078125 21.7890625 C68.67061201 22.401647 68.67061201 22.401647 66.92578125 25.7265625 C66.71233078 28.56383975 66.61448568 31.30620762 66.60693359 34.14526367 C66.59688797 35.00401596 66.58684235 35.86276825 66.57649231 36.74754333 C66.54558255 39.58819912 66.52860355 42.42876032 66.51171875 45.26953125 C66.49301337 47.23823362 66.47344043 49.20692793 66.45303345 51.1756134 C66.40163971 56.35903167 66.36205275 61.54247595 66.32489014 66.72601318 C66.28489586 72.0146736 66.23378267 77.30322512 66.18359375 82.59179688 C66.08674872 92.96997567 66.0023714 103.34821585 65.92578125 113.7265625 C64.10203979 113.73272583 64.10203979 113.73272583 62.24145508 113.73901367 C57.72165795 113.7608192 53.20272962 113.81512363 48.68334961 113.87915039 C46.72900736 113.90231801 44.77454048 113.91672321 42.82006836 113.92211914 C40.00686082 113.93141782 37.19561013 113.97242725 34.3828125 114.01953125 C33.51179398 114.0155986 32.64077545 114.01166595 31.74336243 114.00761414 C27.29450916 114.11412494 25.48427362 114.28044393 21.8972168 117.14575195 C19.94161641 119.53859081 19.94161641 119.53859081 18.92578125 121.7265625 C12.32578125 121.7265625 5.72578125 121.7265625 -1.07421875 121.7265625 C-1.73421875 120.0765625 -2.39421875 118.4265625 -3.07421875 116.7265625 C-6.2618424 114.60148006 -8.33934098 114.2245462 -12.07421875 113.7265625 C-12.07421875 110.7565625 -12.07421875 107.7865625 -12.07421875 104.7265625 C-3.08318771 101.98965538 5.91536707 99.43891499 15.05078125 97.2265625 C32.73052441 93.75869612 32.73052441 93.75869612 46.5078125 83.5 C51.51029407 73.74913116 50.37190008 66.57629443 47.67578125 56.2890625 C47.47162598 55.495 47.2674707 54.7009375 47.05712891 53.8828125 C46.1017147 50.51975448 45.42501617 48.24990534 42.984375 45.69140625 C36.73247323 42.76119802 28.44617568 46.66603047 22.2331543 48.56518555 C15.55505379 50.59180806 8.81987185 52.34337009 2.05078125 54.0390625 C0.99818115 54.30549561 -0.05441895 54.57192871 -1.13891602 54.84643555 C-2.61896118 55.21442261 -2.61896118 55.21442261 -4.12890625 55.58984375 C-5.01046387 55.80938721 -5.89202148 56.02893066 -6.80029297 56.25512695 C-9.07421875 56.7265625 -9.07421875 56.7265625 -12.07421875 56.7265625 C-12.0992749 55.80319092 -12.12433105 54.87981934 -12.15014648 53.9284668 C-12.2453092 50.50109834 -12.34454089 47.07389789 -12.4465332 43.64672852 C-12.48983205 42.16370235 -12.53151074 40.68062796 -12.5715332 39.19750977 C-12.62935833 37.06511911 -12.69301707 34.93297008 -12.7578125 32.80078125 C-12.79447021 31.51776123 -12.83112793 30.23474121 -12.86889648 28.9128418 C-12.93983109 25.70544699 -12.93983109 25.70544699 -14.07421875 22.7265625 C-15.93046875 22.38625 -15.93046875 22.38625 -17.82421875 22.0390625 C-18.86835938 21.84763672 -18.86835938 21.84763672 -19.93359375 21.65234375 C-22.86319593 21.75391755 -23.95290788 22.74793512 -26.07421875 24.7265625 C-26.67589147 26.8006822 -26.67589147 26.8006822 -26.59179688 29.13452148 C-26.60440552 30.02231796 -26.61701416 30.91011444 -26.63000488 31.82481384 C-26.62190796 32.78110184 -26.61381104 33.73738983 -26.60546875 34.72265625 C-26.61120911 36.20029198 -26.61120911 36.20029198 -26.61706543 37.70777893 C-26.619788 39.79160585 -26.61240276 41.87546674 -26.59570312 43.95922852 C-26.57432156 47.14872565 -26.5954818 50.33596428 -26.62109375 53.52539062 C-26.61845009 55.54948414 -26.61332432 57.57357625 -26.60546875 59.59765625 C-26.61356567 60.55192001 -26.6216626 61.50618378 -26.63000488 62.48936462 C-26.58252105 67.74396086 -26.58252105 67.74396086 -24.30053711 72.36474609 C-21.76644068 73.91482723 -20.81645914 74.11816633 -17.921875 73.64453125 C-17.13184082 73.5161084 -16.34180664 73.38768555 -15.52783203 73.25537109 C-11.4571576 72.37804962 -7.49285012 71.25518728 -3.51171875 70.0390625 C4.65362749 67.62415893 12.85137722 65.41253111 21.11328125 63.3515625 C22.1587915 63.08899658 23.20430176 62.82643066 24.28149414 62.5559082 C31.66453948 60.7265625 31.66453948 60.7265625 33.92578125 60.7265625 C35.69634809 65.82996105 36.27493675 69.32994051 34.92578125 74.7265625 C29.19349489 82.15662794 12.72357942 83.30302111 4.0390625 85.43359375 C-2.96993705 87.16388562 -9.90634187 89.05315973 -16.80957031 91.16577148 C-31.41547894 95.62368684 -31.41547894 95.62368684 -38.44921875 91.9765625 C-41.82729149 89.08107158 -42.93072727 87.27983363 -43.34164429 82.83172607 C-43.34926788 81.71002014 -43.35689148 80.58831421 -43.36474609 79.43261719 C-43.3775058 78.15739197 -43.3902655 76.88216675 -43.40341187 75.56829834 C-43.40647026 74.17834627 -43.40869762 72.78839217 -43.41015625 71.3984375 C-43.41658769 69.96600207 -43.42331631 68.53356795 -43.43032837 67.10113525 C-43.44229645 64.0984798 -43.44600987 61.09593933 -43.44482422 58.09326172 C-43.44462147 54.26226979 -43.47187864 50.43202339 -43.50636864 46.60120773 C-43.52870996 43.64132362 -43.53265951 40.68161657 -43.53160477 37.7216568 C-43.53395159 36.31037079 -43.54272301 34.89907922 -43.5582695 33.48787689 C-43.63849973 25.45020658 -43.46712513 19.57225169 -39.07421875 12.7265625 C-38.41421875 11.6953125 -37.75421875 10.6640625 -37.07421875 9.6015625 C-27.09319296 -1.22655632 -13.48222183 -0.1301219 0 0 Z " fill="#00BEF8" transform="translate(400.07421875,148.2734375)"/>
<path d="M0 0 C6.6 0 13.2 0 20 0 C20.99 1.98 21.98 3.96 23 6 C25.58050993 7.29025496 27.6160514 7.14594 30.5 7.25 C38.67677831 7.8684118 46.15021114 11.15021114 52 17 C56.77925638 23.69912861 58.14807859 28.62368227 58.11352539 36.87768555 C58.11367142 37.78520569 58.11381744 38.69272583 58.1139679 39.62774658 C58.11327061 42.63076152 58.10548676 45.63371463 58.09765625 48.63671875 C58.09579142 50.71751369 58.09436782 52.79830908 58.09336853 54.87910461 C58.08954849 60.3585023 58.07972255 65.83787352 58.06866455 71.31726074 C58.05843943 76.90746706 58.05386855 82.49767765 58.04882812 88.08789062 C58.03809985 99.05860538 58.02102955 110.02930049 58 121 C52.72 121 47.44 121 42 121 C41.99453156 119.33749458 41.99453156 119.33749458 41.98895264 117.6414032 C41.9520493 107.20841459 41.89432797 96.77572242 41.81609726 86.3429594 C41.77654807 80.97903385 41.74439618 75.61527429 41.72900391 70.2512207 C41.71388626 65.07687099 41.67952816 59.90297742 41.63169098 54.72883034 C41.61682655 52.7524696 41.6089561 50.77604376 41.60811615 48.7996273 C41.60575991 46.0360865 41.57878979 43.27382019 41.54589844 40.51049805 C41.5509288 39.68906815 41.55595917 38.86763824 41.56114197 38.02131653 C41.49763074 33.59286803 41.49763074 33.59286803 39.19244385 29.96028137 C35.85153457 28.49697687 33.46263078 29.10228091 30 30 C27.44622445 33.83066333 27.6929708 36.97578626 27.68115234 41.41870117 C27.67110672 42.27745346 27.6610611 43.13620575 27.65071106 44.02098083 C27.6198013 46.86163662 27.6028223 49.70219782 27.5859375 52.54296875 C27.56723212 54.51167112 27.54765918 56.48036543 27.5272522 58.4490509 C27.47585846 63.63246917 27.4362715 68.81591345 27.39910889 73.99945068 C27.35208376 80.21783939 27.29045495 86.4360983 27.23126221 92.6543808 C27.14296171 102.10286835 27.07326045 111.55132991 27 121 C1.26 121 -24.48 121 -51 121 C-51 118.03 -51 115.06 -51 112 C-40.50112704 108.9325582 -30.00642882 105.95092824 -19.375 103.375 C-3.78124824 100.0280476 -3.78124824 100.0280476 8.24609375 90.32421875 C12.54532328 83.13900123 11.88524831 75.44199489 10.01171875 67.5546875 C9.602939 66.01245079 9.1823544 64.47329446 8.75 62.9375 C8.44364624 61.82967163 8.44364624 61.82967163 8.13110352 60.69946289 C7.23819326 57.78680245 6.27403964 55.35053128 4.390625 52.94140625 C-1.72480778 50.53320478 -9.19787096 53.40435174 -15.25 55.1875 C-16.00434326 55.40237061 -16.75868652 55.61724121 -17.53588867 55.83862305 C-20.95989126 56.81656086 -24.37713673 57.81687537 -27.79345703 58.82128906 C-29.6992116 59.38155688 -31.6056233 59.93959445 -33.51269531 60.49536133 C-35.34597095 61.03041309 -37.17744516 61.57168572 -39.00683594 62.11987305 C-39.84633789 62.36519775 -40.68583984 62.61052246 -41.55078125 62.86328125 C-42.28981689 63.08282471 -43.02885254 63.30236816 -43.7902832 63.52856445 C-46.24608331 64.05250104 -48.49609925 64.080061 -51 64 C-51.0093457 63.08186523 -51.01869141 62.16373047 -51.02832031 61.21777344 C-51.07239931 57.80294722 -51.13403732 54.38936892 -51.20751953 50.97509766 C-51.23570088 49.49897804 -51.25692966 48.02270831 -51.27099609 46.54638672 C-51.29246698 44.42076943 -51.33913043 42.29695121 -51.390625 40.171875 C-51.41157227 38.8940918 -51.43251953 37.61630859 -51.45410156 36.29980469 C-51.75170434 32.9470584 -51.75170434 32.9470584 -53.81152344 30.54785156 C-56.04664491 28.64337598 -56.04664491 28.64337598 -59.625 29.0625 C-63.25516924 29.6750845 -63.25516924 29.6750845 -65 33 C-65.31502153 35.04922249 -65.31502153 35.04922249 -65.29052734 37.31616211 C-65.30328705 38.18393784 -65.31604675 39.05171356 -65.32919312 39.94578552 C-65.33141876 40.88019974 -65.33364441 41.81461395 -65.3359375 42.77734375 C-65.3425943 43.74023819 -65.3492511 44.70313263 -65.35610962 45.69520569 C-65.36623593 47.73192432 -65.37092665 49.76867614 -65.37060547 51.80541992 C-65.37497863 54.92226775 -65.41129855 58.03769965 -65.44921875 61.15429688 C-65.45508688 63.13280765 -65.4590563 65.11132516 -65.4609375 67.08984375 C-65.47530853 68.02223373 -65.48967957 68.95462372 -65.50448608 69.91526794 C-65.49454887 75.09370301 -65.49454887 75.09370301 -63.20092773 79.62646484 C-59.77556901 81.76413187 -56.73288772 80.84099328 -53 80 C-52.28021973 79.8448291 -51.56043945 79.6896582 -50.81884766 79.52978516 C-48.47267291 78.99458485 -46.14333288 78.41090347 -43.8125 77.8125 C-42.95825439 77.5969043 -42.10400879 77.38130859 -41.22387695 77.15917969 C-33.79165112 75.25871419 -26.41826795 73.16204452 -19.06762695 70.96801758 C-14.37205541 69.58642623 -9.86580099 68.55158878 -5 68 C-3.24800337 72.48949137 -2.46447942 76.18031481 -3 81 C-5.13370364 84.49151505 -7.67209469 85.31825907 -11.4375 86.40234375 C-12.33130371 86.66160645 -13.22510742 86.92086914 -14.14599609 87.18798828 C-15.08781738 87.45595215 -16.02963867 87.72391602 -17 88 C-18.37212646 88.39614502 -18.37212646 88.39614502 -19.77197266 88.80029297 C-31.49261235 92.16782793 -43.25201512 95.39975568 -55.0625 98.4375 C-56.04234863 98.69635986 -57.02219727 98.95521973 -58.03173828 99.22192383 C-71.17158582 102.54277137 -71.17158582 102.54277137 -76.27734375 99.7578125 C-76.82519531 99.21898437 -77.37304688 98.68015625 -77.9375 98.125 C-78.50339844 97.59132813 -79.06929687 97.05765625 -79.65234375 96.5078125 C-82.36628598 93.47134381 -82.14652606 91.02917582 -82.19287109 87.05664062 C-82.20893402 85.80774048 -82.22499695 84.55884033 -82.24154663 83.27209473 C-82.25303988 81.90015344 -82.26364743 80.5282045 -82.2734375 79.15625 C-82.27876118 78.46448166 -82.28408485 77.77271332 -82.28956985 77.0599823 C-82.31631511 73.39156198 -82.33567714 69.72317568 -82.35009766 66.0546875 C-82.36338385 63.03224054 -82.3911333 60.01047729 -82.43212891 56.98828125 C-82.48176241 53.32893768 -82.506257 49.67020955 -82.51332474 46.01054382 C-82.51999201 44.62319727 -82.5350947 43.23586198 -82.55921555 41.84870911 C-82.73552691 31.08678907 -81.09991563 23.21720953 -73.75 15.125 C-66.06411743 8.12532838 -58.07141723 7.43358429 -48.01171875 7.53125 C-46.18058281 7.52067566 -46.18058281 7.52067566 -44.31245422 7.5098877 C-40.43725315 7.48793689 -36.56274479 7.49084607 -32.6875 7.5 C-27.56603299 7.51201554 -22.44559482 7.49844098 -17.32421875 7.46875 C-16.14816574 7.48006958 -14.97211273 7.49138916 -13.76042175 7.50305176 C-12.12270561 7.49283997 -12.12270561 7.49283997 -10.4519043 7.48242188 C-9.01369576 7.48719543 -9.01369576 7.48719543 -7.5464325 7.49206543 C-4.23959525 6.85306153 -3.07536529 5.60041872 -1 3 C-0.67 2.01 -0.34 1.02 0 0 Z " fill="#FCC143" transform="translate(97,141)"/>
<path d="M0 0 C8.00085624 7.34609555 13.74287922 17.62391882 14.2734375 28.58203125 C14.28614369 30.28382467 14.27726908 31.98587764 14.25 33.6875 C14.23694824 35.08029175 14.23694824 35.08029175 14.22363281 36.5012207 C14.06242482 44.5530313 13.42059018 52.55083254 12.625 60.5625 C12.46136963 62.29753784 12.46136963 62.29753784 12.29443359 64.06762695 C10.6506183 78.98799766 5.62194103 89.33571708 -5.75 99.11328125 C-15.69603918 106.49101755 -27.2008409 106.80933577 -39.125 105.875 C-49.1096232 103.98634236 -58.70634235 97.81338963 -64.5625 89.5 C-69.63409446 80.70098172 -71.81709003 72.45123585 -72.8125 62.375 C-72.92916016 61.31152344 -73.04582031 60.24804688 -73.16601562 59.15234375 C-73.50166715 56.06131555 -73.81574982 52.9687671 -74.125 49.875 C-74.22216309 48.95130615 -74.31932617 48.0276123 -74.41943359 47.07592773 C-76.11677997 30.7804883 -74.73317191 17.05776214 -64.4140625 3.65234375 C-47.05478355 -15.35496802 -19.46502627 -15.58693674 0 0 Z " fill="#000101" transform="translate(457.125,12.125)"/>
<path d="M0 0 C8.41834491 6.48020223 15.12502908 16.98008146 16.74633789 27.58203125 C17.77589948 37.39606203 16.67592895 47.29131434 15.6875 57.0625 C15.56955078 58.34705078 15.45160156 59.63160156 15.33007812 60.95507812 C14.00729155 74.25756263 11.45551845 88.57002284 1 98 C-11.17730663 107.04544342 -22.04962493 109.49988703 -37 108 C-48.55712408 105.59904817 -57.0476887 98.2697484 -64 89 C-70.31728257 78.68301781 -70.42838121 65.47487341 -71.54248047 53.7097168 C-71.68072345 52.27930855 -71.82622434 50.84958301 -71.97900391 49.4206543 C-73.65328242 33.75521535 -72.50145897 20.73311428 -63.25 7.49609375 C-47.18460161 -12.28442802 -20.2923644 -13.52824293 0 0 Z " fill="#010100" transform="translate(113,10)"/>
<path d="M0 0 C0.59973633 0.25281738 1.19947266 0.50563477 1.81738281 0.76611328 C19.13005277 8.22381387 31.06029916 19.87301419 38.4375 37.3125 C41.26449323 44.70092193 42.3487073 52.16391697 42.265625 60.03515625 C42.26040833 60.88803726 42.25519165 61.74091827 42.24981689 62.61964417 C42.10018577 72.56099959 41.14365144 82.42292577 40.08349609 92.30249023 C39.74789415 95.4572959 39.43761298 98.61394607 39.12890625 101.77148438 C36.88405048 123.75981593 31.81308547 141.39507634 14.484375 156.140625 C0.99151905 166.15145361 -14.84657945 169.67268932 -31.37890625 167.5703125 C-45.18439331 165.07144222 -56.26666497 159.03975484 -66 149 C-66.57234375 148.43667969 -67.1446875 147.87335938 -67.734375 147.29296875 C-77.69872418 136.73794939 -80.97478941 122.1215084 -82.38671875 108.12890625 C-82.49345413 107.12649399 -82.60018951 106.12408173 -82.7101593 105.09129333 C-82.93216252 102.98166382 -83.14956845 100.87154584 -83.36254883 98.76098633 C-83.68368752 95.60002611 -84.02536262 92.44177136 -84.36914062 89.28320312 C-85.39948483 79.51219488 -86.20801725 69.79901678 -86.24609375 59.96875 C-86.25342781 58.78128929 -86.25342781 58.78128929 -86.26091003 57.56983948 C-86.11021672 41.21087705 -79.02119547 26.84682509 -68 15 C-51.04260802 -1.60297703 -22.59637361 -9.72626516 0 0 Z M-59 28 C-73.09730714 46.7771509 -71.39753916 64.43260768 -69.08349609 86.64404297 C-68.75163682 89.85914224 -68.43986585 93.07578957 -68.12890625 96.29296875 C-66.22005869 115.27391395 -63.76896627 131.26203722 -48.4765625 144.2421875 C-37.8319436 151.79751638 -26.66134639 153.00971624 -14 152 C-1.68731341 149.62172169 7.53326695 142.89342129 15 133 C22.68497494 121.40224818 22.99517652 106.07296554 24.36254883 92.67333984 C24.68686536 89.50619763 25.02700979 86.34104326 25.36914062 83.17578125 C27.42150862 63.81505903 28.75158096 47.72454217 17 31 C16.56042969 30.36449219 16.12085938 29.72898437 15.66796875 29.07421875 C9.06092726 20.48696885 -0.9266339 16.16494273 -11 13 C-11.99 12.67 -12.98 12.34 -14 12 C-31.13437332 10.98866355 -46.98486451 14.71207474 -59 28 Z " fill="#000001" transform="translate(278,110)"/>
<path d="M0 0 C0 29.7 0 59.4 0 90 C-34.81734345 90.04030303 -34.81734345 90.04030303 -49.36132812 90.04882812 C-59.42000842 90.0547713 -69.47868036 90.06177348 -79.53735352 90.07543945 C-86.86167932 90.08538575 -94.18599837 90.0918533 -101.51033074 90.09408849 C-105.39090787 90.09539569 -109.2714657 90.09848212 -113.15203667 90.10573006 C-116.80039557 90.11248942 -120.44872711 90.11461713 -124.09709167 90.11310768 C-126.08288419 90.11351637 -128.0686737 90.118912 -130.05445862 90.12442017 C-131.2254007 90.1230455 -132.39634277 90.12167084 -133.60276794 90.12025452 C-135.13893595 90.12163721 -135.13893595 90.12163721 -136.70613766 90.12304783 C-139 90 -139 90 -140 89 C-140.08669432 87.5112814 -140.10703494 86.018555 -140.09765625 84.52734375 C-140.09443359 83.62822266 -140.09121094 82.72910156 -140.08789062 81.80273438 C-140.07951172 80.85720703 -140.07113281 79.91167969 -140.0625 78.9375 C-140.05798828 77.98810547 -140.05347656 77.03871094 -140.04882812 76.06054688 C-140.0370011 73.70696935 -140.02052025 71.35351523 -140 69 C-131.38906583 66.25372188 -122.73496125 63.83061953 -113.97134399 61.6222229 C-103.36507785 58.94705386 -92.80816723 56.14807648 -82.30761719 53.08081055 C-76.4864333 51.3921126 -70.63701937 49.8786667 -64.75 48.4375 C-41.6858437 43.67675184 -41.6858437 43.67675184 -23.2109375 30.17578125 C-21.67263958 27.41180725 -21.02740066 24.68824387 -20.25 21.625 C-18.17491159 14.06264852 -14.07717456 10.6417683 -8 6 C-6.63909781 4.82022508 -5.28395805 3.63373339 -3.9375 2.4375 C-1 0 -1 0 0 0 Z " fill="#0066C3" transform="translate(326,405)"/>
<path d="M0 0 C11.02408681 4.58350543 17.90296376 11.69906712 23.02734375 22.48046875 C26.16584959 30.61033328 26.27953893 37.86935278 26.24291992 46.54833984 C26.24399392 48.02556441 26.24593435 49.50278857 26.24867249 50.98001099 C26.25350266 54.97544594 26.24588991 58.9707685 26.23571944 62.96618986 C26.22691713 67.14840785 26.22869675 71.33062254 26.2290802 75.5128479 C26.22814508 82.52860388 26.21947834 89.54431647 26.20581055 96.56005859 C26.1900499 104.68028805 26.18481378 112.80047014 26.1855461 120.92071378 C26.18615537 128.73061302 26.18106154 136.54049679 26.17275429 144.35039139 C26.16921693 147.6765416 26.16739041 151.00268634 26.16686058 154.32883835 C26.16585958 158.23748649 26.159783 162.14609454 26.14969444 166.05472946 C26.14676278 167.49271398 26.14554541 168.9307031 26.14612198 170.36869049 C26.14660931 172.32322107 26.14036357 174.27774996 26.13371277 176.23226929 C26.13203692 177.32840734 26.13036108 178.4245454 26.12863445 179.55389977 C26 182 26 182 25 183 C14.77 183 4.54 183 -6 183 C-6 134.16 -6 85.32 -6 35 C-5.67 35 -5.34 35 -5 35 C-4.67 71.63 -4.34 108.26 -4 146 C0.46226824 135.95989646 2.29867988 130.15125537 2.25878906 119.4777832 C2.2622937 118.3241478 2.26579834 117.17051239 2.26940918 115.98191833 C2.27820467 112.17147791 2.27238295 108.36122355 2.265625 104.55078125 C2.26697273 101.8952766 2.26891142 99.23977754 2.27142334 96.58427429 C2.27505846 91.01685583 2.27027848 85.44949047 2.26074219 79.88208008 C2.24988523 73.47012594 2.25336488 67.05829929 2.264395 60.6463483 C2.27351288 55.12252322 2.27473048 49.59873623 2.26951766 44.07490605 C2.26641912 40.78429604 2.26672864 37.49375805 2.27259064 34.2031498 C2.2777029 30.52507714 2.26987844 26.84724438 2.25878906 23.16918945 C2.26283752 22.09607513 2.26688599 21.02296082 2.27105713 19.91732788 C2.23312221 13.08223404 1.44646621 6.68000632 0 0 Z " fill="#0054A1" transform="translate(347,312)"/>
<path d="M0 0 C4.15571144 3.04960478 6.93956414 6.52272968 9.59765625 10.90625 C10.23703125 11.958125 10.87640625 13.01 11.53515625 14.09375 C14.37282926 24.27598847 12.37238984 35.30444296 11.28515625 45.65625 C11.16769043 46.80448242 11.05022461 47.95271484 10.92919922 49.13574219 C9.69570507 60.04027158 8.25148932 69.48623075 -0.40234375 76.90625 C-7.42516334 81.35188809 -14.12876353 82.83878984 -22.40234375 81.90625 C-29.65345922 79.66060787 -35.37169041 75.35315706 -39.40234375 68.90625 C-42.4276087 62.25215739 -43.32002853 55.76412927 -44.08984375 48.53125 C-44.27546875 46.81228516 -44.27546875 46.81228516 -44.46484375 45.05859375 C-47.45109192 15.75398262 -47.45109192 15.75398262 -40.40234375 6.90625 C-29.26570173 -5.18793508 -14.84156784 -8.46948151 0 0 Z " fill="#00BEF8" transform="translate(443.40234375,21.09375)"/>
<path d="M0 0 C7.21548441 4.61407637 12.73716077 9.85822221 15.05859375 18.31640625 C16.2006667 28.80371071 14.90419853 39.36966659 13.80859375 49.81640625 C13.64520508 51.44449219 13.64520508 51.44449219 13.47851562 53.10546875 C12.37849114 62.48159364 10.34914885 71.31740666 3.09765625 77.84375 C-3.05098082 82.28443233 -9.65408961 84.0885204 -17.20703125 83.7578125 C-24.8957048 82.51664091 -30.40197318 78.49610947 -35.46875 72.76953125 C-40.09798417 65.05823401 -40.76314855 56.41421803 -41.62890625 47.62890625 C-41.75845703 46.45134766 -41.88800781 45.27378906 -42.02148438 44.06054688 C-44.66102904 18.54494848 -44.66102904 18.54494848 -36.94140625 7.31640625 C-28.2258657 -3.20161836 -12.07278456 -6.35759481 0 0 Z " fill="#FDC143" transform="translate(98.94140625,19.68359375)"/>
<path d="M0 0 C2.625 1.75 2.625 1.75 5 3.9375 C7.89251403 5.93471207 9.97670437 6.43875389 13.49609375 6.28515625 C17.59214977 5.25550547 20.46807346 2.42523587 23.625 -0.25 C27.84455958 -2.35977979 33.04362095 -1.76095581 37.625 -1.25 C42.81524023 0.76100948 46.56799389 4.10335071 49.625 8.75 C51.3981866 14.06955981 51.7497186 19.77397469 49.7421875 25.0859375 C45.3403871 32.38712739 38.21404371 37.51982435 31.625 42.75 C30.14395437 39.96512787 29.13036847 37.27432464 28.25 34.25 C27.03850096 30.51095728 25.80590484 28.21263601 22.625 25.75 C15.14807155 22.01153577 4.82639401 26.23967599 -2.625 28.25 C-5.10795299 28.9116099 -7.59228385 29.56807577 -10.078125 30.21875 C-11.71249512 30.65864258 -11.71249512 30.65864258 -13.37988281 31.10742188 C-16.19965387 31.71238091 -18.5091679 32.04693863 -21.375 31.75 C-25.78338818 27.34161182 -27.465635 23.06857316 -27.8125 16.9375 C-27.69787528 11.4437011 -25.89033637 7.8975222 -22.375 3.75 C-16.05708766 -2.11663289 -8.04520065 -2.97970395 0 0 Z " fill="#E1384E" transform="translate(275.375,359.25)"/>
<path d="M0 0 C0 6.27 0 12.54 0 19 C-18.10607661 19.02311809 -36.21214818 19.04097876 -54.31823635 19.05181217 C-62.72461384 19.05697531 -71.13098201 19.06401834 -79.53735352 19.07543945 C-86.86167932 19.08538575 -94.18599837 19.0918533 -101.51033074 19.09408849 C-105.39090787 19.09539569 -109.2714657 19.09848212 -113.15203667 19.10573006 C-116.80039557 19.11248942 -120.44872711 19.11461713 -124.09709167 19.11310768 C-126.08288419 19.11351637 -128.0686737 19.118912 -130.05445862 19.12442017 C-131.2254007 19.1230455 -132.39634277 19.12167084 -133.60276794 19.12025452 C-135.13893595 19.12163721 -135.13893595 19.12163721 -136.70613766 19.12304783 C-139 19 -139 19 -140 18 C-140.07226502 16.14712498 -140.0838122 14.29166122 -140.0625 12.4375 C-140.05347656 11.42558594 -140.04445312 10.41367187 -140.03515625 9.37109375 C-140.02355469 8.58863281 -140.01195312 7.80617188 -140 7 C-139.08892046 6.99641747 -139.08892046 6.99641747 -138.15943527 6.99276257 C-123.3340385 6.93345166 -108.50879146 6.85779974 -93.68357468 6.76428509 C-86.5139997 6.71944886 -79.34447305 6.68000669 -72.17480469 6.65356445 C-65.92078288 6.63048517 -59.66691558 6.59697786 -53.41301656 6.55129844 C-50.106068 6.52749887 -46.79930169 6.51024016 -43.49227142 6.50238609 C-39.78726265 6.49269993 -36.08280202 6.46458545 -32.37792969 6.43237305 C-31.29898438 6.43380814 -30.22003906 6.43524323 -29.10839844 6.4367218 C-18.99043355 6.31309949 -9.08464027 0 0 0 Z " fill="#0055A3" transform="translate(326,476)"/>
<path d="M0 0 C4.55784776 1.54503314 6.30336836 3.716559 9.20703125 7.4375 C10.95279042 9.57478827 11.93655823 10.17328296 14.67578125 10.453125 C19.54333871 10.55129423 22.79811793 10.49115172 26.6875 7.25 C27.47125 6.21875 28.255 5.1875 29.0625 4.125 C31.6875 1.25 31.6875 1.25 35.25 0.125 C38.6875 0.25 38.6875 0.25 41.125 1.6875 C42.82492466 4.47537644 43.56325272 6.66868018 43.390625 9.9609375 C41.57872985 15.85966282 36.44390209 20.29190015 31.54296875 23.7734375 C24.55090805 27.43162139 16.43424579 27.36571633 8.87890625 25.58984375 C1.61704244 23.0365857 -3.09137927 18.58168109 -7.3125 12.25 C-7.97147858 5.33072488 -7.97147858 5.33072488 -5.75 1.6875 C-3.3125 0.25 -3.3125 0.25 0 0 Z " fill="#000103" transform="translate(238.3125,219.75)"/>
<path d="M0 0 C4.11831714 0.6618724 5.05841878 1.24553545 7.5 4.5625 C7.8756042 7.34847759 8.01628059 9.66747276 7.9375 12.4375 C7.94458984 13.13230469 7.95167969 13.82710937 7.95898438 14.54296875 C7.90111256 19.27065113 7.12329818 22.6246826 4.5 26.5625 C0.88144501 29.45856854 -1.9806516 29.99420752 -6.5625 30 C-7.58472656 30.01933594 -8.60695312 30.03867188 -9.66015625 30.05859375 C-13.18068258 29.44359121 -14.34114781 28.35988593 -16.5 25.5625 C-17.0625 22.625 -17.0625 22.625 -16.5 19.5625 C-14.25 16.6875 -14.25 16.6875 -11.5 14.5625 C-10.18 14.5625 -8.86 14.5625 -7.5 14.5625 C-7.54640625 13.97082031 -7.5928125 13.37914062 -7.640625 12.76953125 C-7.82551506 8.72175966 -7.80915469 6.16844319 -5.9375 2.5 C-3.5 0.5625 -3.5 0.5625 0 0 Z " fill="#000204" transform="translate(260.5,179.4375)"/>
</svg>
