<?xml version="1.0" encoding="UTF-8"?>
<svg version="1.1" xmlns="http://www.w3.org/2000/svg" width="374" height="374">
<path d="M0 0 C8.89766244 7.13338967 16.79101248 15.64245345 24.84130859 23.69604492 C26.3139099 25.16564884 27.78671424 26.63504933 29.25970459 28.10426331 C33.23274994 32.06852976 37.20259866 36.03598203 41.17157698 40.00431991 C43.6539321 42.48596177 46.13699893 44.96688921 48.62031937 47.44756508 C57.28993075 56.10794775 65.95697831 64.77088658 74.62158203 73.4362793 C82.69120757 81.50650701 90.76641027 89.57112429 98.84421289 97.63316649 C105.7915135 104.56739597 112.73495779 111.50547088 119.6754061 118.44655877 C123.81573427 122.58714178 127.95759717 126.72616035 132.10334396 130.86131859 C135.99675794 134.74505726 139.88534954 138.63356015 143.77028656 142.52577782 C145.19559129 143.95212864 146.62260317 145.37677593 148.05144882 146.79957962 C150.0028621 148.74327466 151.94799473 150.69304934 153.89169312 152.64445496 C154.4568628 153.20448107 155.02203248 153.76450719 155.60432851 154.3415038 C161.6792514 160.46971103 165.81667662 166.60405083 166.0703125 175.453125 C165.56907669 185.06505876 160.12006082 191.33503571 153.49223328 197.89544678 C152.85248796 198.54057763 152.21274264 199.18570849 151.5536111 199.85038877 C149.42519576 201.99302029 147.28631625 204.12487495 145.1472168 206.25683594 C143.61206691 207.79769259 142.07754741 209.33917753 140.54360962 210.88124084 C136.38737496 215.05538559 132.22166658 219.21995114 128.05361533 223.38229275 C124.57160157 226.86121231 121.09419361 230.34471749 117.61674625 233.82820058 C109.41286356 242.04611914 101.20121652 250.25622131 92.98461914 258.46142578 C84.51307548 266.92148232 76.05443693 275.39421476 67.60203999 283.8734014 C60.33778998 291.15981043 53.06580285 298.43843264 45.78753024 305.71083474 C41.44353234 310.05146323 37.10247719 314.39493296 32.76877403 318.74584198 C28.69423522 322.83585133 24.61009905 326.91602868 20.51842117 330.98888969 C19.02022155 332.48340418 17.52540852 333.98132265 16.03429222 335.48290443 C13.99490531 337.53550658 11.94351909 339.57533322 9.88871765 341.61248779 C9.01246932 342.50314363 9.01246932 342.50314363 8.11851901 343.41179252 C2.72958695 348.70623654 -3.33175564 352.44408084 -11.00390625 353.02734375 C-25.59884887 352.82741303 -35.60028601 339.83098189 -45.07910156 330.30908203 C-46.58891935 328.80333392 -48.09937359 327.29822377 -49.6104126 325.79370117 C-53.69562145 321.7221233 -57.77133845 317.64116791 -61.84496784 313.55800867 C-66.11689694 309.27846254 -70.39616559 305.00626548 -74.67425537 300.73287964 C-81.85497337 293.55761263 -89.02935843 286.37605905 -96.20019531 279.19091797 C-104.48286308 270.89191881 -112.77629108 262.60379052 -121.07537866 254.32121384 C-128.2106281 247.19959047 -135.33999944 240.07212226 -142.46451545 232.93976104 C-146.71533817 228.68426881 -150.96814392 224.43081156 -155.22626495 220.182621 C-159.22875186 216.18881792 -163.22379454 212.18771294 -167.21327972 208.18092346 C-168.67600329 206.71424294 -170.14126762 205.25009115 -171.60928345 203.78870773 C-173.61751194 201.78871562 -175.61621201 199.779647 -177.612854 197.76809692 C-178.19135676 197.19628634 -178.76985951 196.62447575 -179.36589265 196.03533757 C-185.41632748 189.89738456 -190.05892253 183.603256 -190.25 174.75 C-189.94256747 160.25337399 -177.37843708 151.22675771 -167.79858398 141.68505859 C-166.8118321 140.69858966 -165.8253021 139.71189875 -164.838974 138.7250061 C-162.19306388 136.07881222 -159.54410957 133.43568578 -156.89454532 130.79315138 C-154.11408587 128.01899633 -151.33650903 125.24195798 -148.55860901 122.46524048 C-143.31227179 117.22199587 -138.0633936 111.98130282 -132.81356913 106.74155009 C-126.83082493 100.77003176 -120.85096243 94.7956312 -114.87132537 88.82100177 C-102.58405908 76.54415292 -90.29322722 64.27087991 -78 52 C-74.80444918 53.52576844 -72.58640093 55.13886092 -70.04174805 57.62011719 C-69.27803391 58.36138855 -68.51431976 59.10265991 -67.72746277 59.86639404 C-66.91376724 60.66845276 -66.10007172 61.47051147 -65.26171875 62.296875 C-64.42155716 63.12326477 -63.58139557 63.94965454 -62.71577454 64.80108643 C-60.94360009 66.5500015 -59.17439748 68.30193232 -57.40795898 70.05664062 C-54.69584592 72.74173722 -51.9607282 75.40189934 -49.22460938 78.0625 C-47.50633069 79.76413 -45.78948392 81.46720739 -44.07421875 83.171875 C-43.25040207 83.96583679 -42.42658539 84.75979858 -41.57780457 85.57781982 C-36.00462285 91.19516257 -36.00462285 91.19516257 -35.98046875 95.40039062 C-36.31691406 96.25826172 -36.65335938 97.11613281 -37 98 C-37.71862399 105.30404714 -36.89727852 111.66949996 -33 118 C-29.38500271 121.90210898 -25.41678137 125.05547909 -21 128 C-20.66623387 131.10581882 -20.5282008 134.01588626 -20.51660156 137.12792969 C-20.50170685 138.0744339 -20.48681213 139.02093811 -20.47146606 139.99612427 C-20.42752958 143.13810697 -20.40718305 146.27963514 -20.390625 149.421875 C-20.37337414 151.60182716 -20.3561009 153.78177914 -20.33880615 155.96173096 C-20.30725431 160.53831101 -20.28974164 165.11473267 -20.27929688 169.69140625 C-20.26285198 175.55451959 -20.19080838 181.41553911 -20.10538101 187.27799606 C-20.04948232 191.78365158 -20.03388427 196.28880393 -20.02928925 200.79477692 C-20.02020926 202.95581745 -19.99612067 205.11684909 -19.9567337 207.27754974 C-19.90549798 210.30480928 -19.91119069 213.32697393 -19.93066406 216.35449219 C-19.90301971 217.24615082 -19.87537537 218.13780945 -19.84689331 219.05648804 C-19.89931182 221.66038281 -20.0438265 223.57309831 -21 226 C-23.1327318 227.95250606 -25.24308455 229.30809551 -27.78197861 230.68480301 C-32.13106957 233.26363808 -34.19039533 237.30368544 -36.3125 241.75 C-38.12135861 250.30096795 -37.47900836 257.44629283 -33 265 C-29.21007714 270.79635261 -24.52309828 273.90835435 -18 276 C-9.37754323 277.31027529 -2.09937536 276.18129851 5 271 C10.0934398 266.30418933 13.55591851 261.82844987 14.37109375 254.80078125 C14.54264547 245.78927055 13.57409735 238.79985752 7.1796875 232.08984375 C4.89608494 230.0689988 2.72983143 228.36491572 0 227 C0 194.66 0 162.32 0 129 C7.88992913 135.7627964 7.88992913 135.7627964 10.65625 138.44750977 C11.27959229 139.05156143 11.90293457 139.6556131 12.54516602 140.27796936 C15.31229623 142.98650066 18.07417126 145.70018194 20.82763672 148.42260742 C22.28405671 149.85725804 23.74671705 151.28559926 25.21533203 152.70776367 C27.34557383 154.7714206 29.45574729 156.85380842 31.5625 158.94140625 C32.22378906 159.57486465 32.88507813 160.20832306 33.56640625 160.86097717 C35.21260136 162.51480844 36.70442554 164.05926925 38 166 C37.91943359 168.76855469 37.91943359 168.76855469 37 171 C36.16420029 179.44157703 36.97811864 186.01041032 42 193 C46.69260707 198.09942583 51.18605645 201.60386577 58.234375 202.3359375 C67.03490752 202.43372119 73.59248213 202.02558391 80.25390625 195.94140625 C86.8465188 188.9478119 88.44629486 183.49206139 88.24609375 173.96484375 C87.63460813 166.59789793 84.55710025 160.88727121 79 156 C73.96231126 152.85144453 69.10946704 150.85681013 63.125 150.875 C62.28195312 150.87242187 61.43890625 150.86984375 60.5703125 150.8671875 C57.99472624 150.90021123 57.99472624 150.90021123 55.59858704 151.70809937 C53 152 53 152 50.9181366 150.75405884 C50.23640884 150.1102829 49.55468109 149.46650696 48.85229492 148.80322266 C48.07186325 148.07720856 47.29143158 147.35119446 46.48735046 146.60317993 C45.6600795 145.79827118 44.83280853 144.99336243 43.98046875 144.1640625 C42.69261223 142.92394913 42.69261223 142.92394913 41.3787384 141.65878296 C39.56422254 139.89662727 37.75824976 138.12563889 35.96020508 136.34667969 C33.21879842 133.65572244 30.42250736 131.03238245 27.61914062 128.40625 C13.09162473 114.35538501 13.09162473 114.35538501 12.79512024 105.78756714 C12.92331581 103.67157714 13.1780696 101.63896902 13.52685547 99.54907227 C14.15798151 94.81497562 12.97108807 92.01488035 10.54296875 88.015625 C5.84034395 81.87244931 0.61388838 78.54636631 -7 77 C-10.61732791 76.64930753 -13.95138906 76.68343392 -17.46366882 77.74375916 C-20 78 -20 78 -22.15779114 76.56373596 C-22.87504868 75.83315475 -23.59230621 75.10257355 -24.33129883 74.34985352 C-25.151772 73.52892715 -25.97224518 72.70800079 -26.81758118 71.86219788 C-28.12410896 70.50921852 -28.12410896 70.50921852 -29.45703125 69.12890625 C-30.35999435 68.21745346 -31.26295746 67.30600067 -32.19328308 66.3669281 C-34.59215338 63.9451636 -36.97246325 61.50592576 -39.34936523 59.06262207 C-41.7786074 56.57196989 -44.22495334 54.09824559 -46.66992188 51.62304688 C-51.46350456 46.76514171 -56.23769428 41.88856506 -61 37 C-59.70624351 34.15864203 -58.34040301 32.08579035 -56.14599609 29.87133789 C-55.57134613 29.28715591 -54.99669617 28.70297394 -54.40463257 28.10108948 C-53.7838382 27.48120651 -53.16304382 26.86132355 -52.5234375 26.22265625 C-51.87935944 25.57429306 -51.23528137 24.92592987 -50.57168579 24.25791931 C-49.20740822 22.88790412 -47.84050928 21.52049504 -46.47119141 20.15551758 C-44.39465476 18.082125 -42.33175059 15.99582412 -40.26953125 13.90820312 C-38.93831235 12.57470937 -37.60630546 11.24200171 -36.2734375 9.91015625 C-35.66478851 9.29229752 -35.05613953 8.67443878 -34.42904663 8.03785706 C-24.7982771 -1.49184814 -12.91523668 -7.2636426 0 0 Z " fill="#EF3B2D" transform="translate(200,13)"/>
</svg>
