<?xml version="1.0" encoding="UTF-8"?>
<svg version="1.1" xmlns="http://www.w3.org/2000/svg" width="374" height="374">
<path d="M0 0 C1.25248535 0.28206299 1.25248535 0.28206299 2.53027344 0.56982422 C33.94408026 7.76238436 61.69791333 22.86473358 85 45 C85.52706543 45.4945166 86.05413086 45.9890332 86.59716797 46.49853516 C118.0912688 76.21351132 138.84373113 119.21651536 140.22853088 162.80050659 C140.62913854 178.68312175 140.44470716 194.42422768 137 210 C136.83371094 210.77375977 136.66742188 211.54751953 136.49609375 212.34472656 C126.09132823 259.33958416 96.97269689 298.7422969 56.78515625 324.65234375 C30.78574723 341 30.78574723 341 21 341 C21.01571045 339.05734253 21.01571045 339.05734253 21.03173828 337.07543945 C21.06828061 332.21300077 21.09102354 327.35057391 21.10986328 322.48803711 C21.11984358 320.39426626 21.13343259 318.30050906 21.15087891 316.20678711 C21.34080038 292.80734387 19.31730513 271.92437261 2.8125 253.76171875 C0.09148777 251.11694178 -2.82557078 249.07309663 -6 247 C-2.53750757 244.69167171 0.42840396 244.33640781 4.4375 243.75 C27.52577431 239.94352781 52.1976192 231.75245937 66.77319336 212.27539062 C78.11770188 196.19468658 81.28479934 178.15725796 78.71142578 158.83300781 C76.48016585 147.0627373 70.42876093 135.90721779 62.1875 127.29296875 C60.37999491 123.80281911 61.28923171 120.69998451 62 117 C62.25347834 115.47171352 62.50472743 113.94305587 62.75390625 112.4140625 C62.88643799 111.63345459 63.01896973 110.85284668 63.15551758 110.04858398 C65.3566818 96.94063124 66.97285997 84.04403085 60 72 C44.05511603 72.79450453 31.11079419 77.39462921 19 88 C17.89591797 89.39412109 17.89591797 89.39412109 16.76953125 90.81640625 C14 93 14 93 10.03125 92.68359375 C8.51376018 92.29486392 7.00333452 91.8778085 5.5 91.4375 C3.86651784 91.02224384 2.23239781 90.60948898 0.59765625 90.19921875 C-0.19624512 89.99087402 -0.99014648 89.7825293 -1.80810547 89.56787109 C-21.45798169 84.47702546 -44.29402402 85.33242632 -63.74609375 91.11328125 C-66.90598405 92.04223878 -69.70938984 92.84672558 -73 93 C-75.32236763 91.67029448 -76.56155208 90.20544012 -78.21484375 88.109375 C-86.16766549 78.71216769 -101.07529249 73.45887379 -113 72 C-116.41745555 71.82956663 -116.41745555 71.82956663 -119 72 C-119.65628849 73.20268681 -120.29947505 74.41252554 -120.9375 75.625 C-121.29714844 76.29789062 -121.65679687 76.97078125 -122.02734375 77.6640625 C-126.68393856 88.84737052 -123.8641223 102.47295014 -121.75390625 113.96875 C-121.62967285 114.6596875 -121.50543945 115.350625 -121.37744141 116.0625 C-121.04009834 117.79416532 -120.6173367 119.50868211 -120.18359375 121.21875 C-119.93505727 124.98381331 -121.10642108 126.14199532 -123.5 129 C-134.32719565 142.93693311 -140.1836193 159.26723091 -139 177 C-137.06592495 191.98527437 -132.71629833 204.15590765 -123 216 C-122.47921875 216.63550781 -121.9584375 217.27101562 -121.421875 217.92578125 C-104.377541 236.6487239 -76.80133392 241.96198059 -53 246 C-55.4422368 248.51232307 -57.92336214 250.73090983 -60.6875 252.875 C-67.49477351 258.74994524 -72.98127245 267.57933895 -76 276 C-83.17335239 277.13041884 -90.18851264 277.2581054 -97.4375 277.3125 C-98.72205078 277.34150391 -100.00660156 277.37050781 -101.33007812 277.40039062 C-109.37254987 277.45425571 -115.61383095 277.2346653 -121.58325195 271.47143555 C-123.11652016 269.76324905 -124.53112302 268.0012081 -125.9375 266.1875 C-132.06998414 258.67974107 -138.49324162 251.92515642 -148 249 C-150.83073081 249.19513752 -150.83073081 249.19513752 -153 250 C-153 250.99 -153 251.98 -153 253 C-151.42746506 254.55965411 -151.42746506 254.55965411 -149.375 256.0625 C-141.0178678 263.18805483 -137.6664725 272.8261509 -133.890625 282.86791992 C-130.45295554 291.89267565 -126.47290375 298.31155605 -117.4375 302.75 C-112.35174186 304.5993666 -107.78716416 305.14378927 -102.38671875 305.31640625 C-101.13955078 305.35830078 -99.89238281 305.40019531 -98.60742188 305.44335938 C-97.31384766 305.48267578 -96.02027344 305.52199219 -94.6875 305.5625 C-93.37458984 305.60568359 -92.06167969 305.64886719 -90.70898438 305.69335938 C-87.47275712 305.79927227 -84.23645542 305.90134885 -81 306 C-80.97494385 307.00377686 -80.9498877 308.00755371 -80.92407227 309.04174805 C-80.82964704 312.7785236 -80.72951314 316.51512843 -80.62768555 320.25170898 C-80.58446917 321.86657711 -80.54278511 323.48148702 -80.50268555 325.09643555 C-80.44465952 327.42249117 -80.38105971 329.74833904 -80.31640625 332.07421875 C-80.29133751 333.15107185 -80.29133751 333.15107185 -80.26576233 334.24967957 C-80.15763988 337.93771676 -79.86035952 341.4085348 -79 345 C-85.50034343 344.49004257 -90.98697318 343.2670888 -97.0625 340.9375 C-98.29468262 340.472229 -98.29468262 340.472229 -99.55175781 339.99755859 C-107.65350414 336.86598818 -115.38955771 333.17816778 -123 329 C-123.63389648 328.65211426 -124.26779297 328.30422852 -124.92089844 327.94580078 C-165.39431369 305.39750595 -195.09554847 266.65052303 -208.05224609 222.34545898 C-210.20234655 214.64858082 -211.83200954 206.90704335 -213 199 C-213.0942627 198.36731201 -213.18852539 197.73462402 -213.28564453 197.08276367 C-214.25992991 189.64839107 -214.24358281 182.17440666 -214.25 174.6875 C-214.25067474 173.97824371 -214.25134949 173.26898743 -214.25204468 172.53823853 C-214.18437643 127.61347956 -197.05533565 83.67343515 -165.43066406 51.46582031 C-164.06585152 50.06746972 -162.73125628 48.63981529 -161.3984375 47.2109375 C-139.56176597 24.31871689 -109.71222905 8.23281322 -79 1 C-77.7639502 0.70585205 -77.7639502 0.70585205 -76.50292969 0.40576172 C-52.33763062 -5.0692588 -24.17873442 -5.80862532 0 0 Z " fill="#000000" transform="translate(224,17)"/>
</svg>
