<?xml version="1.0" encoding="UTF-8"?>
<svg version="1.1" xmlns="http://www.w3.org/2000/svg" width="24" height="24">
<path d="M0 0 C6.58344055 3.20731719 6.58344055 3.20731719 8.4375 6.1875 C9.00318842 10.23804253 8.92909623 14.13027538 8.4375 18.1875 C7.4375 19.1875 7.4375 19.1875 4.375 19.25 C3.405625 19.229375 2.43625 19.20875 1.4375 19.1875 C1.1075 17.5375 0.7775 15.8875 0.4375 14.1875 C-0.2225 14.1875 -0.8825 14.1875 -1.5625 14.1875 C-1.8925 15.8375 -2.2225 17.4875 -2.5625 19.1875 C-4.56204746 19.23004356 -6.56291636 19.22830783 -8.5625 19.1875 C-10.35465455 17.39534545 -9.94294151 14.93002626 -10.0625 12.5 C-10.0291813 6.91578575 -10.0291813 6.91578575 -8.17578125 4.0234375 C-5.52681627 1.59857151 -3.61700853 0.26465916 0 0 Z M-4.6875 5.75 C-7.34658987 8.45426858 -7.54753379 9.03284917 -7.9375 13.0625 C-7.81375 14.09375 -7.69 15.125 -7.5625 16.1875 C-6.2425 16.1875 -4.9225 16.1875 -3.5625 16.1875 C-3.2325 14.8675 -2.9025 13.5475 -2.5625 12.1875 C-1.2425 12.1875 0.0775 12.1875 1.4375 12.1875 C2.0975 13.8375 2.7575 15.4875 3.4375 17.1875 C4.4275 16.8575 5.4175 16.5275 6.4375 16.1875 C7.01227835 11.53919397 7.01227835 11.53919397 5.171875 7.38671875 C3.65398088 5.84303517 2.20560776 4.43800109 0.4375 3.1875 C-2.18719534 3.1875 -2.78452883 3.98952184 -4.6875 5.75 Z " fill="#FFFFFF" transform="translate(12.5625,1.8125)"/>
</svg>
