<?xml version="1.0" encoding="UTF-8"?>
<svg version="1.1" xmlns="http://www.w3.org/2000/svg" width="374" height="374">
<path d="M0 0 C103.95 0 207.9 0 315 0 C313.85131098 24.12246938 313.85131098 24.12246938 312.89941406 34.51226807 C312.79309284 35.71217463 312.68677162 36.9120812 312.57722855 38.14834857 C312.28809898 41.40167504 311.99518015 44.65463139 311.70047569 47.90745664 C311.38098319 51.44483973 311.06662886 54.98268031 310.75158691 58.52046204 C310.13665414 65.41711479 309.51716829 72.313351 308.89609909 79.20945355 C308.17166727 87.25548029 307.45207142 95.30193746 306.73268557 103.34841666 C305.44897165 117.70541012 304.16125292 132.06204144 302.87109375 146.41845703 C301.62115266 160.32740944 300.37359946 174.23657305 299.12890625 188.14599609 C299.05207249 189.00460598 298.97523873 189.86321588 298.89607668 190.74784425 C298.58717483 194.19985376 298.27827816 197.65186374 297.96939111 201.10387458 C296.70772269 215.20311283 295.44421618 229.30218643 294.18040466 243.40123272 C293.89307619 246.60669971 293.60581776 249.81217296 293.31861877 253.01765156 C292.56459422 261.43308147 291.80996563 269.8484565 291.05357361 278.26367399 C290.74108953 281.74025112 290.42888677 285.21685282 290.11750793 288.69352913 C289.77943325 292.46627941 289.44016733 296.23892072 289.10058594 300.01153564 C288.9542314 301.64912444 288.9542314 301.64912444 288.8049202 303.31979585 C288.27214233 309.22246742 287.67692454 315.11206798 287 321 C275.7560086 324.59931138 264.45206279 327.87949846 253.0625 330.984375 C251.36833174 331.44863464 249.67424181 331.9131802 247.98022461 332.37799072 C243.54802628 333.59345555 239.11496337 334.8057335 234.68164062 336.01708984 C228.535679 337.69682189 222.39066432 339.38000671 216.24609375 341.06481934 C212.80444606 342.00829143 209.36164774 342.94739384 205.91796875 343.88342285 C197.80269516 346.0944898 189.71242591 348.36113955 181.65625 350.77929688 C179.478402 351.42435331 177.30014453 352.06800972 175.12179565 352.71137238 C173.13242342 353.30718315 171.1517039 353.92701011 169.17016602 354.54827881 C161.58966528 356.78757879 156.52345086 357.33930399 149 355 C146.66739123 354.37990733 144.33443191 353.76113256 142.0012207 353.14331055 C139.30699693 352.399683 136.61663058 351.64245051 133.92578125 350.88671875 C132.45251188 350.47596118 130.97914625 350.06554874 129.50569153 349.65545654 C125.5823039 348.56253935 121.66014565 347.46527689 117.7383194 346.3667717 C111.23727487 344.54636596 104.73473886 342.731287 98.23236084 340.91565132 C96.60476681 340.46109493 94.97722374 340.006356 93.34973145 339.55143547 C82.86563771 336.62119026 72.37263559 333.72916576 61.86328125 330.890625 C59.65775504 330.29222533 57.45226831 329.69368014 55.24682617 329.0949707 C52.20898759 328.27045758 49.1704371 327.44957754 46.12832642 326.64096069 C43.39789459 325.91497906 40.67136892 325.17580427 37.9453125 324.43359375 C36.76156792 324.12551788 36.76156792 324.12551788 35.5539093 323.81121826 C30.22762335 322.34143503 30.22762335 322.34143503 28 319 C27.57206619 316.61978066 27.57206619 316.61978066 27.31661797 313.7409687 C27.21510079 312.64429284 27.11358362 311.54761698 27.00899017 310.41770852 C26.9058693 309.20809987 26.80274843 307.99849123 26.69650269 306.75222778 C26.58045437 305.4709569 26.46440605 304.18968601 26.34484112 302.86958873 C26.02237065 299.30658468 25.71066339 295.74270746 25.40066504 292.1785996 C25.0646956 288.33747628 24.71883303 284.49724262 24.37417603 280.65689087 C23.7002738 273.13039275 23.03550998 265.60311381 22.37372003 258.07554211 C21.60299801 249.31323409 20.82295688 240.55176339 20.04242648 231.79032455 C18.65012503 216.15851326 17.26582957 200.52600345 15.88623047 184.89306641 C14.54698072 169.71747614 13.20289885 154.54232502 11.85302734 139.36767578 C11.76991691 138.43337436 11.68680649 137.49907293 11.60117756 136.53645934 C11.26711852 132.78118005 10.9330532 129.02590133 10.59897291 125.27062393 C9.31352719 110.81979524 8.03164085 96.36865051 6.75047638 81.9174417 C6.36324192 77.54957939 5.97586582 73.18172975 5.58815145 68.81391001 C4.77267675 59.62668141 3.9584456 50.43934599 3.14821945 41.25165285 C2.81308529 37.45151641 2.4772818 33.65144252 2.13959503 29.85153198 C1.77382345 25.73514521 1.41148743 21.61846342 1.04953003 17.5017395 C0.94194772 16.2965923 0.8343654 15.09144511 0.72352302 13.84977829 C0.62722134 12.74788694 0.53091966 11.64599558 0.43169975 10.51071358 C0.34772654 9.56038093 0.26375334 8.61004828 0.17723548 7.63091767 C0.00622104 5.09234625 0 2.54432521 0 0 Z " fill="#E44D26" transform="translate(30,10)"/>
<path d="M0 0 C65.01 0 130.02 0 197 0 C196.21484072 13.34770777 195.15830561 26.67948552 194 40 C144.17 40 94.34 40 43 40 C43.99 47.92 44.98 55.84 46 64 C46 69.28 46 74.56 46 80 C93.52 80 141.04 80 190 80 C189.37022302 90.70620859 188.68206829 101.34581661 187.6953125 112.015625 C187.5699551 113.39433833 187.44488154 114.7730775 187.32006836 116.15184021 C187.05834436 119.03888294 186.79520769 121.9257913 186.53082275 124.81259155 C185.84702036 132.28199128 185.17324972 139.75229912 184.5 147.22265625 C184.40092031 148.32093467 184.40092031 148.32093467 184.29983902 149.44140053 C182.75149729 166.61838828 181.32784397 183.80460055 180 201 C172.4235096 203.17075447 164.84648271 205.33758522 157.25 207.4375 C156.4967041 207.64648926 155.7434082 207.85547852 154.96728516 208.07080078 C151.21112504 209.11266111 147.45392596 210.15062012 143.6953125 211.18359375 C142.25516343 211.5805663 140.81505961 211.97770305 139.375 212.375 C138.2936377 212.67216919 138.2936377 212.67216919 137.19042969 212.9753418 C132.73758811 214.2087693 128.30643358 215.50130702 123.8828125 216.8359375 C122.29654053 217.31087646 122.29654053 217.31087646 120.67822266 217.79541016 C118.61564921 218.41491101 116.55526419 219.04176343 114.49755859 219.67724609 C113.53930176 219.96422363 112.58104492 220.25120117 111.59375 220.546875 C110.75521484 220.80307617 109.91667969 221.05927734 109.05273438 221.32324219 C108.04533203 221.54657227 107.03792969 221.76990234 106 222 C105.01280975 222.22771843 105.01280975 222.22771843 104.00567627 222.46003723 C95.43483444 223.91266217 87.63210547 221.15851731 79.484375 218.79296875 C77.89920404 218.34642977 76.31360362 217.90141282 74.7276001 217.45783997 C70.57605589 216.29217482 66.43086456 215.10532131 62.28662109 213.91400146 C58.07252067 212.7070612 53.85232659 211.52182823 49.6328125 210.33398438 C43.462799 208.59283261 37.29457643 206.84559581 31.13183594 205.07885742 C29.89624939 204.72498459 28.66066284 204.37111176 27.38763428 204.0065155 C26.26971497 203.67436539 25.15179565 203.34221527 24 203 C22.88353088 202.66837357 21.76706177 202.33674713 20.61676025 201.99507141 C18 201 18 201 17 199 C16.71605527 196.76560767 16.48621332 194.52426666 16.28125 192.28125 C16.21867508 191.59896332 16.15610016 190.91667664 16.09162903 190.2137146 C15.88904829 187.97625243 15.6938834 185.73823161 15.5 183.5 C15.43307953 182.74189026 15.36615906 181.98378052 15.29721069 181.20269775 C14.06348197 167.13525592 13.40575235 153.12018167 13 139 C25.87 139 38.74 139 52 139 C53.08387463 142.25162388 53.30312015 144.99930359 53.53515625 148.41796875 C53.62216797 149.67158203 53.70917969 150.92519531 53.79882812 152.21679688 C53.9293457 154.18229492 53.9293457 154.18229492 54.0625 156.1875 C54.1539375 157.52281112 54.24573025 158.85809796 54.33789062 160.19335938 C54.5620946 163.46201727 54.78264926 166.7308804 55 170 C60.48836821 171.60953821 65.98331972 173.19330498 71.4855957 174.75463867 C73.3524771 175.28814852 75.21744963 175.82838932 77.08032227 176.37573242 C91.33394799 180.86028774 91.33394799 180.86028774 106 180 C106.84280518 179.80140381 107.68561035 179.60280762 108.55395508 179.39819336 C111.1446139 178.72943905 113.69354444 177.97636033 116.25 177.1875 C117.942205 176.67931051 119.63492839 176.17284452 121.328125 175.66796875 C122.63620117 175.27617432 122.63620117 175.27617432 123.97070312 174.87646484 C129.95156536 173.14602517 135.97856316 171.58232342 142 170 C142.11593506 168.70376709 142.23187012 167.40753418 142.35131836 166.07202148 C142.78370991 161.24307789 143.21852343 156.41435488 143.65405273 151.58569336 C143.8418839 149.49948936 144.02906637 147.41322684 144.21557617 145.3269043 C144.48444048 142.32064282 144.75567014 139.3146025 145.02734375 136.30859375 C145.10967758 135.38227646 145.19201141 134.45595917 145.27684021 133.50157166 C145.35684769 132.62118729 145.43685516 131.74080292 145.51928711 130.83374023 C145.58812607 130.06762924 145.65696503 129.30151825 145.72789001 128.51219177 C146.07237284 125.33183469 146.54759886 122.16680798 147 119 C101.79 119 56.58 119 10 119 C8.68 102.83 7.36 86.66 6 70 C5.34 64.39 4.68 58.78 4 53 C3.70079868 49.6703532 3.41649204 46.35265893 3.18359375 43.01953125 C3.0915139 41.77848885 3.0915139 41.77848885 2.99757385 40.51237488 C2.80741438 37.94598948 2.62193942 35.37930229 2.4375 32.8125 C2.24912566 30.2064535 2.0595991 27.60051351 1.86671448 24.99479675 C1.74823985 23.39336058 1.6322964 21.79173428 1.51939392 20.18989563 C1.28907474 17.06848685 1.0093293 14.05212741 0.45727539 10.9675293 C0 8 0 8 0 0 Z " fill="#FEFEFE" transform="translate(89,75)"/>
<path d="M0 0 C42.24 0 84.48 0 128 0 C128 6.66001557 127.85361763 13.03329793 127.23046875 19.625 C127.10959648 20.96283539 127.10959648 20.96283539 126.98628235 22.32769775 C126.72417279 25.21886082 126.45588185 28.10941306 126.1875 31 C126.00215232 33.03088329 125.81726183 35.06180836 125.6328125 37.09277344 C125.26256601 41.16682057 124.89040087 45.24068576 124.51708984 49.31445312 C124.06772133 54.23461224 123.63211068 59.15581305 123.20703125 64.078125 C123.11769318 65.11128342 123.11769318 65.11128342 123.02655029 66.16531372 C122.93872284 67.18103958 122.93872284 67.18103958 122.84912109 68.21728516 C121.75741598 80.84191419 120.57114715 93.45428296 119.31710815 106.06381226 C117.71522335 122.17770197 116.26458961 138.29859371 114.9375 154.4375 C114.85347931 155.45887054 114.76945862 156.48024109 114.68289185 157.53256226 C114.35162835 161.5627549 114.02075194 165.59297909 113.69038391 169.62324524 C111.59475698 195.15261069 109.18930958 220.64774162 106.67459106 246.13894653 C106.02006457 252.7789021 105.37953885 259.42012625 104.75 266.0625 C104.66999756 266.90659424 104.58999512 267.75068848 104.50756836 268.62036133 C104.33794137 270.41353288 104.16888029 272.20675797 104 274 C97.48595797 276.59311985 90.90193955 278.46994561 84.125 280.25 C81.80208246 280.8684863 79.47916582 281.48697598 77.15625 282.10546875 C74.77088522 282.73717512 72.38546888 283.36868684 70 284 C57.0713759 287.4293286 44.1678735 290.88211548 31.37402344 294.7878418 C24.90237843 296.75467528 18.39884262 298.58926505 11.875 300.375 C10.44172363 300.76957397 10.44172363 300.76957397 8.97949219 301.17211914 C8.09680664 301.4118042 7.21412109 301.65148926 6.3046875 301.8984375 C5.52077637 302.11161621 4.73686523 302.32479492 3.92919922 302.54443359 C2 303 2 303 0 303 C-0.33 289.47 -0.66 275.94 -1 262 C9.74230803 258.88843492 20.47925791 255.83984635 31.3125 253.0625 C41.43617785 250.46262817 51.4635924 247.58275607 61.484375 244.61328125 C65.32201242 243.48428279 69.16369632 242.37229282 73.015625 241.29296875 C73.90024414 241.04442139 74.78486328 240.79587402 75.69628906 240.53979492 C78 240 78 240 81 240 C80.98341339 238.90544243 80.98341339 238.90544243 80.9664917 237.78877258 C80.9046312 230.54178563 81.26550721 223.44175287 81.953125 216.23046875 C82.10346191 214.58083382 82.10346191 214.58083382 82.25683594 212.89787292 C82.58307924 209.3272882 82.91655231 205.75741843 83.25 202.1875 C83.71059897 197.17338357 84.16764602 192.15894456 84.625 187.14453125 C84.79857025 185.2503949 84.79857025 185.2503949 84.97564697 183.31799316 C85.74413608 174.90592381 86.48020115 166.49164726 87.1875 158.07421875 C87.3243924 156.44582314 87.3243924 156.44582314 87.46405029 154.78453064 C87.81167916 150.63773889 88.15793152 146.49084172 88.50012207 142.34359741 C88.73249889 139.52837732 88.96765272 136.71340007 89.203125 133.8984375 C89.26959229 133.07909225 89.33605957 132.25974701 89.40454102 131.41557312 C89.46859131 130.65372208 89.5326416 129.89187103 89.59863281 129.10693359 C89.67926971 128.12785538 89.67926971 128.12785538 89.76153564 127.1289978 C90.06663358 124.40509871 90.54939347 121.70363917 91 119 C43.48 119 -4.04 119 -53 119 C-54.02549207 105.66860308 -55.04737132 92.33680158 -56 79 C-6.17 79 43.66 79 95 79 C95 75.04 95 71.08 95 67 C95.99 57.76 96.98 48.52 98 39 C65.66 39 33.32 39 0 39 C0 26.13 0 13.26 0 0 Z " fill="#F06529" transform="translate(188,36)"/>
<path d="M0 0 C65.01 0 130.02 0 197 0 C196.21484072 13.34770777 195.15830561 26.67948552 194 40 C144.17 40 94.34 40 43 40 C43.99 47.92 44.98 55.84 46 64 C46 69.28 46 74.56 46 80 C93.52 80 141.04 80 190 80 C190 80.33 190 80.66 190 81 C159.97 81 129.94 81 99 81 C99 93.54 99 106.08 99 119 C69.63 119 40.26 119 10 119 C8.125 95.5625 8.125 95.5625 7.54736328 88.27954102 C6.76573223 78.54845456 5.92520803 68.84627529 4.7141571 59.15875244 C3.64276559 50.40455849 3.06944721 41.60716831 2.4375 32.8125 C2.24912566 30.2064535 2.0595991 27.60051351 1.86671448 24.99479675 C1.74823985 23.39336058 1.6322964 21.79173428 1.51939392 20.18989563 C1.28907474 17.06848685 1.0093293 14.05212741 0.45727539 10.9675293 C0 8 0 8 0 0 Z " fill="#EBE8E8" transform="translate(89,75)"/>
<path d="M0 0 C12.87 0 25.74 0 39 0 C40.08387463 3.25162388 40.30312015 5.99930359 40.53515625 9.41796875 C40.61386963 10.5474292 40.69258301 11.67688965 40.77368164 12.84057617 C40.8689917 14.27506104 40.96430176 15.7095459 41.0625 17.1875 C41.371875 21.745625 41.68125 26.30375 42 31 C63.78 36.94 63.78 36.94 86 43 C86 56.53 86 70.06 86 84 C80.18113642 82.83622728 74.66171126 81.72559125 68.99316406 80.15234375 C68.36735947 79.97970001 67.74155487 79.80705627 67.0967865 79.62918091 C65.06875669 79.06874336 63.04217795 78.50325228 61.015625 77.9375 C59.58704939 77.54131729 58.15839805 77.14540759 56.72967529 76.74975586 C53.75389986 75.92489032 50.77879258 75.09767262 47.80419922 74.26855469 C44.00361642 73.20927046 40.20179196 72.15452894 36.39950943 71.10136414 C33.45654474 70.28593755 30.5140482 69.46883282 27.57170868 68.65115356 C26.17005802 68.26170156 24.76831079 67.87259697 23.36646271 67.4838562 C21.40695234 66.94004661 19.4480919 66.39389681 17.48925781 65.84765625 C16.37802551 65.53836182 15.26679321 65.22906738 14.12188721 64.91040039 C7.83322325 63.07650898 7.83322325 63.07650898 5 62 C3.57241327 59.14482654 3.57177632 56.46062565 3.28125 53.28125 C3.21867508 52.59896332 3.15610016 51.91667664 3.09162903 51.2137146 C2.88904829 48.97625243 2.6938834 46.73823161 2.5 44.5 C2.43307953 43.74189026 2.36615906 42.98378052 2.29721069 42.20269775 C1.06348197 28.13525592 0.40575235 14.12018167 0 0 Z " fill="#EAE9E9" transform="translate(102,214)"/>
<path d="M0 0 C32.67 0 65.34 0 99 0 C97 27 97 27 95 38 C63.65 38 32.3 38 0 38 C0 25.46 0 12.92 0 0 Z " fill="#FEFEFE" transform="translate(187,76)"/>
<path d="M0 0 C44.88 0 89.76 0 136 0 C134.85072802 18.38835175 134.85072802 18.38835175 134.24609375 25.21875 C134.18092056 25.97297241 134.11574738 26.72719482 134.04859924 27.50427246 C133.84668284 29.83634084 133.64216167 32.16817113 133.4375 34.5 C133.29735016 36.11326598 133.15737541 37.72654718 133.01757812 39.33984375 C132.68039268 43.22673998 132.34087692 47.11342584 132 51 C127.83887008 52.85569126 123.89487921 54.42977453 119.453125 55.5 C118.4425 55.7475 117.431875 55.995 116.390625 56.25 C115.35421875 56.4975 114.3178125 56.745 113.25 57 C111.19241889 57.49880754 109.13512514 57.998802 107.078125 58.5 C106.07458984 58.74363281 105.07105469 58.98726562 104.03710938 59.23828125 C100.06075376 60.23556658 96.11497275 61.33175491 92.17089844 62.44921875 C90 63 90 63 88 63 C88 42.54 88 22.08 88 1 C58.96 1 29.92 1 0 1 C0 0.67 0 0.34 0 0 Z " fill="#F0682E" transform="translate(100,194)"/>
<path d="M0 0 C18.48 0 36.96 0 56 0 C56 13.2 56 26.4 56 40 C38.51 40 21.02 40 3 40 C1.97450793 26.66860308 0.95262868 13.33680158 0 0 Z " fill="#E44D26" transform="translate(132,115)"/>
</svg>
