<?xml version="1.0" encoding="UTF-8"?>
<svg version="1.1" xmlns="http://www.w3.org/2000/svg" width="374" height="374">
<path d="M0 0 C7.53445028 7.14038907 9.97609296 16.13253045 10.3125 26.3125 C9.69119072 49.92225278 -5.97177469 68.77921861 -22.12890625 84.43359375 C-26.18313991 88.25023896 -30.49659869 91.64200667 -34.92504883 95.00830078 C-47.1576254 104.39119358 -59.33116654 116.17763023 -62 132 C-63.87705864 149.45664538 -54.19634907 163.11147554 -44.41113281 176.63305664 C-40.23021239 182.48410875 -36.89847655 188.40215206 -34 195 C-37.48654476 193.5158627 -39.64191072 191.53785948 -42.25 188.8125 C-45.03156978 185.95844632 -47.81706006 183.24207534 -50.875 180.6875 C-64.12961305 169.25473616 -80.74987023 151.30896624 -82.23828125 133.08203125 C-82.55003281 119.3485546 -76.9087621 110.71858036 -67.8671875 100.6171875 C-60.25776566 92.78957435 -51.56978705 86.22359278 -43 79.5 C-41.21985526 78.10169318 -39.43993326 76.70310687 -37.66064453 75.30371094 C-36.15036028 74.11804233 -34.6359507 72.93763324 -33.12109375 71.7578125 C-16.11621468 58.24301778 -2.15943958 43.41697604 1 21 C1.43649 13.99048415 0.66072534 6.97301211 0 0 Z " fill="#E66F00" transform="translate(223,8)"/>
<path d="M0 0 C1.01320312 -0.01417969 2.02640625 -0.02835937 3.0703125 -0.04296875 C5.87040795 0.18712266 7.4950614 0.74701085 9.875 2.1875 C9.875 2.5175 9.875 2.8475 9.875 3.1875 C8.36873047 3.42533203 8.36873047 3.42533203 6.83203125 3.66796875 C-3.58578639 5.40853779 -14.73361915 7.3145595 -23.125 14.1875 C-22.795 15.1775 -22.465 16.1675 -22.125 17.1875 C-19.80986223 18.19998692 -17.65987755 18.97549719 -15.25 19.6875 C-14.53384521 19.90253174 -13.81769043 20.11756348 -13.07983398 20.33911133 C12.19455882 27.58801765 39.38641048 27.53571411 65.45678711 27.44824219 C68.86332846 27.43690561 72.26955507 27.44360579 75.67608547 27.45511913 C99.82866619 27.52424632 123.97709585 26.61617572 147.9375 23.375 C149.20988525 23.20540771 150.48227051 23.03581543 151.79321289 22.86108398 C159.53267364 21.77985374 167.1924023 20.48762726 174.8125 18.75 C175.6279126 18.56912842 176.4433252 18.38825684 177.28344727 18.2019043 C182.63003815 16.87360443 187.69644764 14.88422848 191.875 11.1875 C192.46265005 7.85748307 192.37775341 6.19300681 190.875 3.1875 C197.05704489 5.35956983 197.05704489 5.35956983 198.875 8.1875 C199.06376263 12.43465913 198.0516939 13.98556411 195.25 17.1875 C157.65545575 46.11797092 83.93175795 40.69144795 39 38.4375 C38.14992371 38.3955954 37.29984741 38.3536908 36.42401123 38.31051636 C18.14686246 37.38590466 0.0168561 35.56381752 -18.125 33.1875 C-19.68468506 32.98423096 -19.68468506 32.98423096 -21.27587891 32.77685547 C-41.22853311 30.08396689 -41.22853311 30.08396689 -47.125 24.1875 C-47.18912591 20.85295261 -46.99002668 18.35140633 -44.94921875 15.60546875 C-33.84105974 5.15883782 -14.93748483 0.09550822 0 0 Z " fill="#5281A0" transform="translate(104.125,306.8125)"/>
<path d="M0 0 C-0.98097656 0.60585937 -1.96195312 1.21171875 -2.97265625 1.8359375 C-36.22677884 20.13714945 -36.22677884 20.13714945 -58 49 C-60.03106524 60.59324848 -54.12498211 69.03033296 -47.74145508 78.15161133 C-46.77053166 79.51764289 -45.78529853 80.87365181 -44.78393555 82.2175293 C-39.91386289 88.93937306 -38.33834139 95.26613281 -39.4765625 103.5625 C-42.08890974 115.7274603 -53.08988067 125.30574721 -63 132 C-64.64560595 132.71707969 -66.30816847 133.40005974 -68 134 C-66.15767888 130.09285522 -63.78691425 126.66904682 -61.33984375 123.12109375 C-58.18116797 118.12062452 -58.45664551 112.71703419 -59 107 C-60.42476726 102.00877712 -63.44597325 98.40889779 -66.75 94.5 C-70.34005923 90.16902798 -72.94028119 85.69559607 -75.4375 80.6875 C-75.77942383 80.00558594 -76.12134766 79.32367188 -76.47363281 78.62109375 C-80.82821826 69.61954988 -81.61079465 59.85876555 -78.375 50.3125 C-70.21107636 30.4858283 -51.20519404 18.09593206 -32.18994141 9.76953125 C-3.92659422 -1.96329711 -3.92659422 -1.96329711 0 0 Z " fill="#E66F00" transform="translate(268,81)"/>
<path d="M0 0 C-2.69753752 1.42143417 -5.31185021 2.49117605 -8.23046875 3.3671875 C-9.03419922 3.61339844 -9.83792969 3.85960937 -10.66601562 4.11328125 C-12.32694551 4.61503389 -13.98839284 5.11507731 -15.65039062 5.61328125 C-26.96864675 8.8809072 -26.96864675 8.8809072 -36 16 C-30.72863162 18.14167664 -25.86863016 19.58646061 -20.1875 20.171875 C-19.45885742 20.25145447 -18.73021484 20.33103394 -17.97949219 20.4130249 C-9.32875157 21.27796098 -0.6856021 21.30615191 8 21.25 C8.86272522 21.24689819 9.72545044 21.24379639 10.61431885 21.24060059 C42.61561167 21.10713659 74.54859591 18.68601559 106.12402344 13.3671875 C109.11339008 12.98552303 111.98970585 12.93744843 115 13 C103.47366503 21.94378351 92.12203532 24.86465739 78 27 C77.12037598 27.13889648 76.24075195 27.27779297 75.33447266 27.42089844 C62.15431893 29.45450357 48.92856719 30.43516558 35.625 31.1875 C34.5097998 31.2518222 34.5097998 31.2518222 33.37207031 31.31744385 C16.71258035 32.25642826 0.15267448 32.23541381 -16.5 31.1875 C-17.21068634 31.14365173 -17.92137268 31.09980347 -18.65359497 31.05462646 C-55.24902322 28.75097678 -55.24902322 28.75097678 -63 21 C-63 18.625 -63 18.625 -62 16 C-45.48267673 3.13276884 -20.38507116 -1.01222422 0 0 Z " fill="#5281A0" transform="translate(148,203)"/>
<path d="M0 0 C-0.66 0.66 -1.32 1.32 -2 2 C-1.6814823 4.10820797 -1.6814823 4.10820797 -1 6 C1.43629884 6.48603703 3.87378565 6.96385629 6.3125 7.4375 C7.31893555 7.63956055 7.31893555 7.63956055 8.34570312 7.84570312 C28.25542488 11.67809088 48.66894363 10.60142843 68.6171875 7.75390625 C69.97046143 7.5693689 69.97046143 7.5693689 71.35107422 7.38110352 C73.09254207 7.13055685 74.8294492 6.84545752 76.55908203 6.52319336 C83.54952734 5.41129397 87.96910098 7.16175123 94.125 10.4375 C94.98609375 10.87126953 95.8471875 11.30503906 96.734375 11.75195312 C98.83477534 12.81382219 100.92148133 13.89608702 103 15 C91.61307374 27.28311953 61.46234556 28.09184302 45.90527344 28.89794922 C26.38995403 29.58344531 -0.75677247 28.92232393 -16 15 C-17.125 11.5625 -17.125 11.5625 -17 8 C-13.27361231 2.83113966 -6.50086451 -2.22969518 0 0 Z " fill="#5281A0" transform="translate(141,283)"/>
<path d="M0 0 C-0.680625 0.7425 -1.36125 1.485 -2.0625 2.25 C-2.701875 3.1575 -3.34125 4.065 -4 5 C-3.68399123 7.14096316 -3.68399123 7.14096316 -3 9 C-1.25365495 9.49232068 0.49740978 9.9678957 2.25 10.4375 C3.22453125 10.70433594 4.1990625 10.97117188 5.203125 11.24609375 C16.7154992 13.53198698 28.61807267 13.27603942 40.3125 13.3125 C41.20663605 13.31611542 42.10077209 13.31973083 43.02200317 13.32345581 C58.94447459 13.34915237 74.22757024 11.89728003 89.94799805 9.46826172 C90.95515869 9.31373535 91.96231934 9.15920898 93 9 C93.95366455 8.85191895 94.9073291 8.70383789 95.88989258 8.55126953 C102.26684031 7.70632249 102.26684031 7.70632249 105.76953125 9.109375 C106.44371094 9.65078125 107.11789063 10.1921875 107.8125 10.75 C108.53953125 11.30429688 109.2665625 11.85859375 110.015625 12.4296875 C110.99789062 13.20699219 110.99789062 13.20699219 112 14 C113.65764498 15.01488468 115.31915242 16.02402398 117 17 C114.22881699 18.84745534 112.74055159 19.45745973 109.59765625 20.18359375 C108.71698486 20.38758789 107.83631348 20.59158203 106.92895508 20.80175781 C105.9830249 21.01155273 105.03709473 21.22134766 104.0625 21.4375 C103.08627686 21.65631836 102.11005371 21.87513672 101.10424805 22.10058594 C91.47497443 24.20434334 81.78593751 25.82589063 72 27 C71.22696533 27.09571289 70.45393066 27.19142578 69.6574707 27.29003906 C60.32156703 28.29756914 50.94172212 28.24266346 41.5625 28.25 C40.22498184 28.25151062 40.22498184 28.25151062 38.86044312 28.25305176 C-5.88711265 28.21882685 -5.88711265 28.21882685 -19 16 C-20.17280983 13.17145865 -20.32585954 11.90697571 -19.296875 9.04296875 C-17.63239234 6.42090721 -15.87279427 5.41290467 -13.1875 3.875 C-12.33542969 3.37742188 -11.48335937 2.87984375 -10.60546875 2.3671875 C-3.72684916 -1.24228305 -3.72684916 -1.24228305 0 0 Z " fill="#5281A0" transform="translate(133,244)"/>
<path d="M0 0 C0.33 0 0.66 0 1 0 C0.79088429 5.12333491 -0.14828698 8.42396461 -3.71875 12.1796875 C-34.20561967 36.50653898 -85.43019137 34.37845581 -122.27026367 34.31567383 C-125.20629228 34.31105093 -128.14190569 34.31795491 -131.07788086 34.33618164 C-193.05799963 34.71692234 -193.05799963 34.71692234 -213 24 C-209.64165772 22.88055257 -207.85008167 23.09496652 -204.36328125 23.5234375 C-203.22697266 23.6575 -202.09066406 23.7915625 -200.91992188 23.9296875 C-199.72947266 24.07664062 -198.53902344 24.22359375 -197.3125 24.375 C-178.73456195 26.6434198 -160.44777445 27.20552066 -141.75 27.1875 C-140.01589874 27.18659363 -140.01589874 27.18659363 -138.24676514 27.18566895 C-121.08457148 27.16131235 -104.0730058 26.90997603 -87 25 C-85.80971191 24.87109375 -84.61942383 24.7421875 -83.39306641 24.609375 C-40.83400601 19.93666185 -40.83400601 19.93666185 -2 3 C-1.34 2.01 -0.68 1.02 0 0 Z " fill="#5281A0" transform="translate(317,328)"/>
<path d="M0 0 C6.70036841 4.71919635 10.55766717 10.37018347 11.984375 18.48046875 C12.53968095 27.71544816 9.15398496 34.8131008 3.6015625 42.03125 C-8.61399184 55.35730928 -27.28084144 62.56982961 -44.5234375 66.59375 C-44.5234375 65.60375 -44.5234375 64.61375 -44.5234375 63.59375 C-43.23373047 62.90152344 -43.23373047 62.90152344 -41.91796875 62.1953125 C-27.57786509 54.34648758 -11.5873241 44.59281804 -5.5234375 28.59375 C-3.72002794 22.26963133 -4.08353653 17.18844966 -7.26953125 11.44921875 C-10.60847678 6.5084115 -15.20524341 3.68073531 -20.80078125 1.953125 C-26.42373813 1.21092696 -32.00777998 2.50317191 -37.5234375 3.59375 C-29.45904183 -7.89190444 -11.14783318 -6.21241477 0 0 Z " fill="#5281A0" transform="translate(306.5234375,203.40625)"/>
</svg>
