<?xml version="1.0" encoding="UTF-8"?>
<svg version="1.1" xmlns="http://www.w3.org/2000/svg" width="374" height="374">
<path d="M0 0 C116.16 0 232.32 0 352 0 C352 115.83 352 231.66 352 351 C235.84 351 119.68 351 0 351 C0 235.17 0 119.34 0 0 Z " fill="#FED500" transform="translate(12,11)"/>
<path d="M0 0 C5.10563001 4.38298699 9.69583141 9.10996034 13 15 C13 15.66 13 16.32 13 17 C11.41113281 18.18920898 11.41113281 18.18920898 9.203125 19.49609375 C8.4090625 19.97240234 7.615 20.44871094 6.796875 20.93945312 C5.95640625 21.43380859 5.1159375 21.92816406 4.25 22.4375 C2.60829263 23.41354633 0.9676321 24.39135604 -0.671875 25.37109375 C-1.4050293 25.80349365 -2.13818359 26.23589355 -2.89355469 26.68139648 C-5.05689342 27.98581119 -5.05689342 27.98581119 -7.14355469 29.66845703 C-9 31 -9 31 -11.03125 30.93359375 C-13.55984342 29.73451869 -14.76239312 28.24635591 -16.5 26.0625 C-18.79469448 23.18891668 -20.48698291 21.22272856 -24 20 C-33.20192772 18.97276569 -33.20192772 18.97276569 -41.75 21.75 C-45.07320778 25.07320778 -45.87672686 26.66865011 -46.3125 31.375 C-45.9118594 36.02243099 -44.99612861 39.12359306 -41.51831055 42.39282227 C-35.47251927 47.1241347 -28.85574589 49.91846792 -21.8125 52.875 C-12.37911791 56.95269622 -3.36685281 60.96107678 5 67 C6.04220703 67.74443359 6.04220703 67.74443359 7.10546875 68.50390625 C14.76579278 74.4982323 20.02482618 83.52814372 22 93 C23.34089877 107.5487517 21.47306061 119.90592913 12.3125 131.6875 C3.16010246 141.74584552 -11.83646191 146.60228784 -25.05859375 147.23828125 C-43.77569147 147.71137651 -59.72860968 143.5925823 -73.703125 130.44140625 C-78.36600124 125.48511773 -81.96402197 120.07195606 -85 114 C-77.08 108.72 -69.16 103.44 -61 98 C-57.72203808 101.27796192 -55.20072637 103.92465788 -52.5625 107.5625 C-48.57411924 112.77075427 -44.23614902 115.92128366 -38 118 C-29.6270454 118.80635397 -22.04748645 119.01455767 -15 114 C-11.91562342 110.81923665 -11.75365852 107.83749968 -11.5625 103.5625 C-11.74470778 98.52816657 -12.37437054 95.71195397 -16 92 C-22.97201751 87.18721724 -30.52382191 83.92516288 -38.3125 80.6875 C-52.85171453 74.45017484 -67.31107278 67.30839448 -74.15625 52.11328125 C-74.57390625 51.06720703 -74.57390625 51.06720703 -75 50 C-75.2990625 49.25105469 -75.598125 48.50210938 -75.90625 47.73046875 C-79.88676422 36.32334697 -78.70389068 25.00374427 -74 14 C-68.31366071 3.09088168 -59.02898758 -3.47393399 -47.5078125 -7.30859375 C-31.82138779 -11.6333557 -13.37721901 -9.50811566 0 0 Z " fill="#020100" transform="translate(302,176)"/>
<path d="M0 0 C10.89 0 21.78 0 33 0 C33.09063658 14.99582227 33.1641763 29.99150227 33.20724869 44.98753452 C33.22778825 51.95199522 33.25574181 58.91627241 33.30175781 65.88061523 C33.34620607 72.61095109 33.36918773 79.34105766 33.37950897 86.07154655 C33.38685737 88.62977013 33.4012062 91.1879842 33.42292023 93.74612617 C33.72577901 130.93002004 33.72577901 130.93002004 20.00390625 145.0546875 C8.39380672 154.98185517 -6.28355161 156.96536469 -21 156 C-35.20843287 154.0321654 -48.92577193 146.03044087 -57.69140625 134.63671875 C-64 125.94340419 -64 125.94340419 -64 122 C-63.09378906 121.49210937 -62.18757813 120.98421875 -61.25390625 120.4609375 C-54.90905642 116.88165727 -48.6935578 113.29020599 -42.76953125 109.03125 C-41 108 -41 108 -38 108 C-36.67578125 109.57421875 -36.67578125 109.57421875 -35.3125 111.6875 C-31.74771478 116.72644452 -27.43219001 119.28390499 -22 122 C-12.4572105 122.77484434 -12.4572105 122.77484434 -4 119 C-0.32610758 113.51556434 -0.55880389 108.30945515 -0.56762695 101.94580078 C-0.5574353 100.84277115 -0.54724365 99.73974152 -0.53674316 98.60328674 C-0.50661436 94.96724365 -0.49734709 91.33146403 -0.48828125 87.6953125 C-0.47143454 85.17039108 -0.45328432 82.64547804 -0.43388367 80.12057495 C-0.39122939 74.16029156 -0.36169574 68.20003518 -0.33856028 62.23965251 C-0.31147524 55.45117006 -0.26756588 48.66282868 -0.22227156 41.87444711 C-0.12951405 27.91635846 -0.06001345 13.95826587 0 0 Z " fill="#030300" transform="translate(168,167)"/>
</svg>
