<?xml version="1.0" encoding="UTF-8"?>
<svg version="1.1" xmlns="http://www.w3.org/2000/svg" width="512" height="512">
<path d="M0 0 C1.69140034 -0.00417828 3.38279788 -0.0096585 5.07419026 -0.01631981 C9.69894108 -0.03072831 14.323513 -0.02654411 18.94827342 -0.019153 C23.94498396 -0.01441223 28.9416563 -0.02693921 33.93835449 -0.03717041 C43.71834757 -0.05434592 53.49827636 -0.055201 63.2782806 -0.04995751 C71.22938205 -0.04591226 79.18046454 -0.04736359 87.13156509 -0.05270576 C88.83054658 -0.0538284 88.83054658 -0.0538284 90.56385092 -0.05497371 C92.86500954 -0.05650522 95.16616816 -0.05804357 97.46732678 -0.05958868 C119.03574466 -0.07330921 140.60412625 -0.06787917 162.1725433 -0.05640347 C181.89246995 -0.04647155 201.61230276 -0.05941187 221.33221494 -0.08333766 C241.59488807 -0.10773621 261.85751752 -0.11733466 282.12020504 -0.11068493 C293.49046185 -0.1071944 304.8606465 -0.10941386 316.23089218 -0.12693596 C325.91004827 -0.14166735 335.58908138 -0.14228105 345.26823507 -0.12486505 C350.20354845 -0.11636048 355.13864224 -0.11419232 360.07394409 -0.1295166 C364.5979962 -0.14338968 369.12164112 -0.13856693 373.64566983 -0.11927737 C375.27611219 -0.11552508 376.90658736 -0.11841692 378.5370004 -0.12888902 C397.58266395 -0.24245234 413.19635655 5.24530573 427.19949341 18.38768005 C440.89810637 32.81972479 444.66487159 48.94028602 444.58717346 68.18818665 C444.59135174 69.87958699 444.59683196 71.57098452 444.60349327 73.2623769 C444.61790177 77.88712773 444.61371757 82.51169964 444.60632646 87.13646007 C444.60158569 92.1331706 444.61411268 97.12984294 444.62434387 102.12654114 C444.64151938 111.90653421 444.64237447 121.68646301 444.63713097 131.46646725 C444.63308572 139.4175687 444.63453705 147.36865119 444.63987923 155.31975174 C444.64062765 156.45240606 444.64137607 157.58506038 444.64214717 158.75203756 C444.64367869 161.05319619 444.64521703 163.35435481 444.64676214 165.65551342 C444.66048267 187.22393131 444.65505263 208.79231289 444.64357693 230.36072995 C444.63364501 250.08065659 444.64658533 269.80048941 444.67051112 289.52040158 C444.69490967 309.78307472 444.70450812 330.04570416 444.69785839 350.30839169 C444.69436786 361.6786485 444.69658732 373.04883315 444.71410942 384.41907883 C444.72884081 394.09823491 444.72945451 403.77726802 444.71203851 413.45642172 C444.70353394 418.3917351 444.70136579 423.32682888 444.71669006 428.26213074 C444.73056314 432.78618284 444.72574039 437.30982777 444.70645083 441.83385648 C444.70269855 443.46429883 444.70559038 445.09477401 444.71606248 446.72518705 C444.8296258 465.77085059 439.34186773 481.38454319 426.19949341 495.38768005 C411.76744867 509.08629301 395.64688744 512.85305824 376.39898682 512.77536011 C374.70758648 512.77953839 373.01618894 512.78501861 371.32479656 512.79167992 C366.70004573 512.80608841 362.07547382 512.80190422 357.4507134 512.79451311 C352.45400286 512.78977234 347.45733052 512.80229932 342.46063232 512.81253052 C332.68063925 512.82970603 322.90071046 512.83056111 313.12070622 512.82531761 C305.16960476 512.82127236 297.21852227 512.82272369 289.26742172 512.82806587 C287.56844024 512.82918851 287.56844024 512.82918851 285.8351359 512.83033382 C283.53397728 512.83186533 281.23281866 512.83340368 278.93166004 512.83494879 C257.36324216 512.84866931 235.79486057 512.84323927 214.22644351 512.83176357 C194.50651687 512.82183166 174.78668405 512.83477197 155.06677188 512.85869776 C134.80409874 512.88309631 114.5414693 512.89269477 94.27878177 512.88604504 C82.90852497 512.88255451 71.53834032 512.88477397 60.16809464 512.90229607 C50.48893855 512.91702746 40.80990544 512.91764116 31.13075174 512.90022516 C26.19543836 512.89172058 21.26034458 512.88955243 16.32504272 512.90487671 C11.80099062 512.91874979 7.27734569 512.91392704 2.75331698 512.89463747 C1.12287463 512.89088519 -0.50760055 512.89377703 -2.13801359 512.90424912 C-20.67781626 513.01479616 -36.96019221 507.79971082 -50.58566284 494.77049255 C-64.21111224 480.11171983 -68.26670398 464.03801243 -68.18818665 444.58717346 C-68.19236492 442.89577312 -68.19784514 441.20437559 -68.20450646 439.5129832 C-68.21891495 434.88823238 -68.21473075 430.26366047 -68.20733964 425.63890004 C-68.20259887 420.6421895 -68.21512586 415.64551716 -68.22535706 410.64881897 C-68.24253257 400.86882589 -68.24338765 391.0888971 -68.23814415 381.30889286 C-68.2340989 373.35779141 -68.23555023 365.40670892 -68.24089241 357.45560837 C-68.24164083 356.32295405 -68.24238925 355.19029972 -68.24316036 354.02332254 C-68.24469187 351.72216392 -68.24623022 349.4210053 -68.24777532 347.11984669 C-68.26149585 325.5514288 -68.25606581 303.98304721 -68.24459011 282.41463016 C-68.23465819 262.69470351 -68.24759851 242.9748707 -68.2715243 223.25495853 C-68.29592285 202.99228539 -68.30552131 182.72965595 -68.29887158 162.46696842 C-68.29538105 151.09671161 -68.2976005 139.72652696 -68.3151226 128.35628128 C-68.329854 118.6771252 -68.3304677 108.99809209 -68.31305169 99.31893839 C-68.30454712 94.38362501 -68.30237897 89.44853122 -68.31770325 84.51322937 C-68.33157633 79.98917726 -68.32675358 75.46553234 -68.30746401 70.94150363 C-68.30371173 69.31106128 -68.30660356 67.6805861 -68.31707566 66.05017306 C-68.43063899 47.00450952 -62.94288092 31.39081692 -49.80050659 17.38768005 C-35.36846185 3.6890671 -19.24790062 -0.07769813 0 0 Z M21.19949341 104.38768005 C13.96106303 115.33618458 12.2799988 126.77864379 14.84793091 139.6337738 C18.59485758 150.92259133 25.75178074 158.00331417 36.19949341 163.38768005 C46.34506809 168.23616047 60.15036376 168.01002895 70.76199341 164.76268005 C81.4829434 160.53657944 89.53107014 153.95642389 94.38699341 143.4150238 C98.92422675 132.09375407 97.82331163 121.58823351 93.19949341 110.38768005 C91.50703816 107.36329257 89.58166555 104.89727071 87.19949341 102.38768005 C86.62457153 101.77279724 86.04964966 101.15791443 85.45730591 100.5243988 C76.62668598 91.9685907 65.22183157 89.03811719 53.20339966 89.16893005 C40.5459169 90.09067132 29.69539814 94.93559416 21.19949341 104.38768005 Z M216.78591919 219.51072693 C214.40747371 222.32474492 212.34107815 225.38946142 210.19949341 228.38768005 C209.86949341 218.48768005 209.53949341 208.58768005 209.19949341 198.38768005 C184.44949341 198.38768005 159.69949341 198.38768005 134.19949341 198.38768005 C134.19949341 272.63768005 134.19949341 346.88768005 134.19949341 423.38768005 C158.94949341 423.38768005 183.69949341 423.38768005 209.19949341 423.38768005 C209.22527466 413.48123474 209.25105591 403.57478943 209.27761841 393.3681488 C209.3027916 387.08362395 209.32896596 380.79912955 209.35964966 374.51463318 C209.4081419 364.54466478 209.4526043 354.57479764 209.4704895 344.60472107 C209.48353605 337.34245109 209.51057687 330.08038781 209.55410647 322.81823426 C209.57665418 318.97641008 209.59240814 315.13484017 209.59137726 311.29294395 C209.59062665 307.66894906 209.60873601 304.04551485 209.64066124 300.42166519 C209.65310073 298.47362406 209.64612754 296.52548843 209.63835144 294.5774231 C209.78810243 281.8259885 213.61739607 271.89470307 222.19949341 262.38768005 C232.6670502 253.55680311 243.78712169 251.59526422 257.19949341 252.38768005 C265.44150836 253.73471297 272.66674286 257.32431876 278.17605591 263.66111755 C289.31635628 279.44716021 287.81213543 298.86984564 287.80699825 317.27041054 C287.81016247 321.01135917 287.83585224 324.75215785 287.85897827 328.49302673 C287.89927657 335.55089437 287.91981678 342.60867024 287.93295217 349.66663504 C287.95190591 359.22240618 288.00200281 368.77801345 288.05019569 378.33367348 C288.12512966 393.351667 288.1589912 408.3694627 288.19949341 423.38768005 C312.94949341 423.38768005 337.69949341 423.38768005 363.19949341 423.38768005 C363.22867852 400.92381461 363.22867852 400.92381461 363.24832153 378.45994568 C363.25423064 369.28521662 363.26113657 360.11049681 363.27493286 350.93577576 C363.28498047 344.25072131 363.29137051 337.56567446 363.2935819 330.88061267 C363.29487211 327.34934061 363.29784843 323.81809021 363.30522346 320.28682518 C363.78129623 292.35880457 363.78129623 292.35880457 360.51199341 264.70018005 C360.25144165 263.39585022 360.25144165 263.39585022 359.98562622 262.06517029 C355.47532646 240.75849858 345.3239477 220.0900004 326.92556763 207.53807068 C324.0740816 205.70402725 321.16442495 204.03409722 318.19949341 202.38768005 C316.86338013 201.63551208 316.86338013 201.63551208 315.50027466 200.8681488 C281.86590651 183.81918118 242.07527483 193.37627244 216.78591919 219.51072693 Z M18.19949341 198.38768005 C18.19949341 272.63768005 18.19949341 346.88768005 18.19949341 423.38768005 C42.61949341 423.38768005 67.03949341 423.38768005 92.19949341 423.38768005 C92.19949341 349.13768005 92.19949341 274.88768005 92.19949341 198.38768005 C67.77949341 198.38768005 43.35949341 198.38768005 18.19949341 198.38768005 Z " fill="#000000" transform="translate(67.80050659179688,-0.3876800537109375)"/>
</svg>
