<?xml version="1.0" encoding="UTF-8"?>
<svg version="1.1" xmlns="http://www.w3.org/2000/svg" width="374" height="374">
<path d="M0 0 C3.81752494 2.46857237 7.41492383 5.20796627 11 8 C13.95423287 9.96948858 14.68150917 10.26068213 18 10.45703125 C18.79559326 10.51487793 19.59118652 10.57272461 20.41088867 10.63232422 C21.26529541 10.69178223 22.11970215 10.75124023 23 10.8125 C36.2631538 11.93741865 50.19888187 14.55541776 62 21 C63.01578125 21.54140625 64.0315625 22.0828125 65.078125 22.640625 C84.24118307 33.21038349 101.73388795 46.46934343 117.52441406 61.58740234 C118.89127014 62.89591149 120.2693898 64.19262729 121.6484375 65.48828125 C128.5137744 72.10456018 134.30637633 79.38041049 140 87 C140.43344727 87.5779834 140.86689453 88.1559668 141.31347656 88.75146484 C150.84067317 101.53986636 158.56428404 114.47557342 164.77514648 129.18432617 C170.20623455 142.00243559 176.24043488 154.53828049 182.21347046 167.11009216 C184.11878702 171.12428373 185.99884614 175.14865964 187.8515625 179.1875 C188.25624756 180.06374023 188.66093262 180.93998047 189.07788086 181.84277344 C189.78371582 183.37402375 190.48318056 184.90823863 191.17407227 186.44628906 C193.63259784 191.7435578 196.30079337 196.482988 201.55078125 199.43359375 C202.46214844 199.76488281 203.37351562 200.09617188 204.3125 200.4375 C205.37210937 200.85 206.43171875 201.2625 207.5234375 201.6875 C208.67070312 202.120625 209.81796875 202.55375 211 203 C229.5903509 210.09740078 245.57790833 221.57148704 261 234 C262.03511719 234.79664063 263.07023437 235.59328125 264.13671875 236.4140625 C271.3261577 242.0970569 277.25621845 248.12963516 282 256 C282 256.99 282 257.98 282 259 C272.47835609 262.5587854 262.86933437 264.1381958 252.84790039 265.60449219 C247.39888493 266.40962821 242.26947331 267.41289311 237 269 C233.5625 269.125 233.5625 269.125 231 269 C235.58601867 277.73527366 244.60684079 282.30578663 253 286.875 C259.95614948 290.68058513 265.37128198 295.38958676 271 301 C271.76957031 301.76054687 272.53914063 302.52109375 273.33203125 303.3046875 C276.80333329 306.81156657 280.225019 310.36154342 283.625 313.9375 C284.29273438 314.62779297 284.96046875 315.31808594 285.6484375 316.02929688 C294 324.84019531 294 324.84019531 294 330 C289.91216533 328.76126222 287.34698075 326.62805718 284.18359375 323.83203125 C275.19338495 316.28926215 265.40252894 310.97738858 254.89746094 305.91455078 C236.93651068 297.2576131 217.83893795 286.27072246 210 267 C209.75 264 209.75 264 210 262 C227.59962219 254.20068422 244.90830126 251.81423631 264 251 C259.3434116 246.75733057 254.56524596 243.35871702 249.2109375 240.05078125 C246.15017794 238.09591657 243.19404712 236.04148607 240.23266602 233.94165039 C227.22708904 224.77393736 214.16248575 219.10284927 199.06103516 214.19482422 C186.11799817 209.92672433 181.07198333 203.94128036 174.97363281 191.98828125 C172.67083475 187.32582591 170.49320612 182.60710618 168.32617188 177.88037109 C166.86233745 174.70100466 165.37775731 171.53181499 163.890625 168.36328125 C159.12277639 158.18297485 154.38619278 148.00351978 149.98657227 137.65771484 C129.89211148 90.40696894 92.83760733 50.50180784 45.02783203 30.49145508 C36.14806968 27.02146408 27.59969745 26.26397771 18.10546875 25.81640625 C6.80935781 25.23681522 6.80935781 25.23681522 2 21 C-5.25122276 14.89084482 -13.46938346 10.99324356 -22 7 C-22.97066406 6.53851563 -23.94132812 6.07703125 -24.94140625 5.6015625 C-30.10325806 3.32356217 -35.34192236 1.71565109 -41 3 C-42.81032217 4.22689588 -42.81032217 4.22689588 -44 6 C-44.35049941 15.81398348 -37.63327222 23.14473665 -31.625 30.3125 C-21.61863646 42.37799617 -15.92488226 54.21995016 -11 69 C-3.41376532 92.78086651 -3.41376532 92.78086651 11.08203125 112.78125 C13.76605764 115.88619295 15.0201629 118.37688652 14.96875 122.515625 C13.89629521 128.77161128 12.19609783 134.5059153 10 140.4375 C1.60431647 163.34788325 3.21589272 188.56172074 12.5 210.92578125 C13.79995399 213.59000988 15.20657125 215.66747511 17 218 C17 218.66 17 219.32 17 220 C18.98 220.33 20.96 220.66 23 221 C23.10489746 220.0570105 23.10489746 220.0570105 23.21191406 219.0949707 C25.41226775 199.75697487 27.34887246 184.1605764 42 170 C44.45178235 172.97417916 45.74224993 175.68172929 47 179.3125 C57.88375138 208.29251859 75.03608249 241.45189005 99.34765625 261.44140625 C99.89292969 261.95574219 100.43820313 262.47007812 101 263 C101 263.66 101 264.32 101 265 C97.05778333 263.65590504 94.57781609 261.97831471 91.5625 259.125 C88.12969882 255.93594802 84.65474754 252.84395117 81.06054688 249.84106445 C64.27701361 235.76493076 52.48806479 221.75478536 43 202 C42.80664062 203.05058594 42.61328125 204.10117188 42.4140625 205.18359375 C41.74558691 208.80137847 41.0614307 212.41602065 40.37158203 216.02978516 C40.06859704 217.63628247 39.78020134 219.24552576 39.49609375 220.85546875 C38.37967269 226.6990781 36.44906244 230.90080362 31.8125 234.875 C26.41067724 237.0357291 21.79376201 236.7237987 16.4375 234.5625 C2.79567508 225.45744826 -2.70856833 209.28923099 -6 194 C-9.1068738 177.50054136 -8.26328082 159.10771345 -3.57763672 142.99658203 C-2.97141549 140.90119859 -2.42014031 138.79664388 -1.87890625 136.68359375 C-0.69482596 132.08701539 0.49846132 127.50461604 2 123 C1.91428339 120.90708843 1.91428339 120.90708843 1 119 C0.41089844 118.7628125 -0.17820313 118.525625 -0.78515625 118.28125 C-3.98092038 116.43255399 -5.43874529 113.67150731 -7.25 110.5625 C-7.83696655 109.56114014 -7.83696655 109.56114014 -8.43579102 108.53955078 C-14.37098096 98.12209963 -18.67604395 87.08886329 -22.44140625 75.7265625 C-22.75935402 74.7728627 -22.75935402 74.7728627 -23.08372498 73.79989624 C-24.13360083 70.64542574 -25.15934839 67.48844525 -26.14819336 64.31396484 C-28.86094123 56.01019185 -32.49862293 49.76030852 -38 43 C-38.92082278 41.81239962 -39.84033838 40.62378302 -40.7578125 39.43359375 C-41.53898437 38.44488281 -42.32015625 37.45617187 -43.125 36.4375 C-57.76016217 17.57477613 -57.76016217 17.57477613 -56.875 6.3125 C-55.81046525 -0.19928174 -53.11218893 -4.79664466 -48 -9 C-32.69347408 -17.37337304 -13.58521321 -8.06949384 0 0 Z " fill="#00668B" transform="translate(71,35)"/>
<path d="M0 0 C4.63469763 0.11922052 7.24665477 1.2053067 10.75 4.375 C13.89219251 8.73352509 14.11646559 12.17359337 13.3359375 17.31640625 C12.51131111 20.21359364 11.19817163 21.66869856 8.75 23.375 C8.09 23.375 7.43 23.375 6.75 23.375 C6.39808594 22.61316406 6.04617187 21.85132812 5.68359375 21.06640625 C2.37655668 14.15012245 -1.27246332 8.20667019 -6.25 2.375 C-3.87839852 0.00339852 -3.24378878 0.05516648 0 0 Z " fill="#00668B" transform="translate(90.25,81.625)"/>
</svg>
