<?xml version="1.0" encoding="UTF-8"?>
<svg version="1.1" xmlns="http://www.w3.org/2000/svg" width="512" height="512">
<path d="M0 0 C14.59834337 10.24516192 23.68879148 24.04680899 27.3125 41.5234375 C29.23537827 54.70037079 27.07552995 66.5139962 22.81640625 78.9765625 C23.5846875 79.17894531 24.35296875 79.38132812 25.14453125 79.58984375 C30.30593995 81.53909916 34.8374798 84.34245052 39.56640625 87.1640625 C41.70008556 88.42391455 43.83421721 89.68300077 45.96875 90.94140625 C47.63719971 91.92729736 47.63719971 91.92729736 49.33935547 92.93310547 C56.36657777 97.07328054 63.45166713 101.11482042 70.52441406 105.17651367 C71.5656543 105.77568604 72.60689453 106.3748584 73.6796875 106.9921875 C74.60048096 107.52102539 75.52127441 108.04986328 76.4699707 108.59472656 C78.28703392 109.66481061 80.06182571 110.80684214 81.81640625 111.9765625 C82.80640625 111.9765625 83.79640625 111.9765625 84.81640625 111.9765625 C86.30968783 110.50754014 86.30968783 110.50754014 87.75390625 108.5390625 C97.66341274 96.79754641 111.76496277 89.1377033 127.12426758 87.77124023 C145.50793697 87.0100399 162.2722113 90.58306156 176.25390625 103.2890625 C187.55396748 114.05951956 195.46415039 128.27460605 196.15234375 144.11328125 C196.46357368 163.22998096 192.58436278 178.50884448 179.09375 192.6953125 C178.34222656 193.448125 177.59070313 194.2009375 176.81640625 194.9765625 C176.17832031 195.62625 175.54023438 196.2759375 174.8828125 196.9453125 C165.45830226 205.87998333 152.73089721 210.9765625 139.81640625 210.9765625 C139.81640625 234.7365625 139.81640625 258.4965625 139.81640625 282.9765625 C143.44640625 283.3065625 147.07640625 283.6365625 150.81640625 283.9765625 C165.62414531 287.79315896 179.04682955 297.95349045 187.08520508 310.93701172 C196.36169973 326.84267389 198.85160506 344.66854678 194.25390625 362.6015625 C188.58966805 379.19817653 177.4407934 391.98704775 162.06640625 400.1640625 C147.89081265 406.88996681 130.89869587 408.66534471 115.703125 404.06640625 C103.51818517 399.46613803 92.20094052 393.05336391 84.81640625 381.9765625 C80.47079522 382.92247701 76.90578749 384.99077999 73.06640625 387.1640625 C72.29071289 387.59895996 71.51501953 388.03385742 70.71582031 388.48193359 C60.92250408 394.00002423 51.23710752 399.7066222 41.53613281 405.38476562 C37.84169796 407.54703809 34.14682319 409.70815501 30.44140625 411.8515625 C29.38179688 412.46773438 28.3221875 413.08390625 27.23046875 413.71875 C24.81640625 414.9765625 24.81640625 414.9765625 22.81640625 414.9765625 C23.23212891 416.27980469 23.23212891 416.27980469 23.65625 417.609375 C24.01847656 418.76179688 24.38070313 419.91421875 24.75390625 421.1015625 C25.11355469 422.23851562 25.47320312 423.37546875 25.84375 424.546875 C30.17990023 439.83659347 28.49251618 456.49716144 21.13232422 470.56933594 C12.69564185 485.55419756 0.56858522 495.87876488 -15.78125 501.3203125 C-32.29004503 505.83003212 -50.47754194 503.9296983 -65.43359375 495.7890625 C-80.60691846 486.29310695 -90.44090578 473.03627679 -94.99609375 455.7265625 C-97.94748651 441.49241686 -95.821844 428.54848607 -91.18359375 414.9765625 C-91.951875 414.77417969 -92.72015625 414.57179688 -93.51171875 414.36328125 C-98.67312745 412.41402584 -103.2046673 409.61067448 -107.93359375 406.7890625 C-110.06727306 405.52921045 -112.20140471 404.27012423 -114.3359375 403.01171875 C-115.4482373 402.35445801 -116.56053711 401.69719727 -117.70654297 401.02001953 C-124.73376527 396.87984446 -131.81885463 392.83830458 -138.89160156 388.77661133 C-140.45346191 387.87785278 -140.45346191 387.87785278 -142.046875 386.9609375 C-142.96766846 386.43209961 -143.88846191 385.90326172 -144.8371582 385.35839844 C-146.65422142 384.28831439 -148.42901321 383.14628286 -150.18359375 381.9765625 C-152.85572528 382.17118625 -153.92169288 382.7152852 -155.82421875 384.61328125 C-156.3553125 385.29003906 -156.88640625 385.96679688 -157.43359375 386.6640625 C-166.33543176 397.22205642 -179.5069526 404.1262841 -193.18359375 405.9765625 C-211.46672664 407.34810361 -228.75547032 404.344926 -243.07983398 392.06469727 C-254.42817488 381.75178237 -263.02099464 368.07988947 -264.40454102 352.48632812 C-265.21016158 333.94508198 -262.39274362 318.0867886 -249.80859375 303.7265625 C-248.28300827 302.12772871 -246.74219656 300.54322705 -245.18359375 298.9765625 C-244.5803125 298.33847656 -243.97703125 297.70039063 -243.35546875 297.04296875 C-234.3281816 288.23155151 -220.64230047 282.9765625 -208.18359375 282.9765625 C-208.18359375 259.2165625 -208.18359375 235.4565625 -208.18359375 210.9765625 C-211.81359375 210.6465625 -215.44359375 210.3165625 -219.18359375 209.9765625 C-234.17190684 206.00375662 -247.35562974 196.12828292 -255.52490234 182.94360352 C-264.74805766 167.06557349 -267.20483265 149.23012852 -262.62109375 131.3515625 C-256.95685555 114.75494847 -245.8079809 101.96607725 -230.43359375 93.7890625 C-216.14710318 87.01054082 -199.2432507 85.35415839 -183.9453125 89.94140625 C-171.47279522 94.61639505 -161.45962045 101.52263404 -153.18359375 111.9765625 C-148.83798272 111.03064799 -145.27297499 108.96234501 -141.43359375 106.7890625 C-140.65790039 106.35416504 -139.88220703 105.91926758 -139.08300781 105.47119141 C-129.28969158 99.95310077 -119.60429502 94.2465028 -109.90332031 88.56835938 C-106.20888546 86.40608691 -102.51401069 84.24496999 -98.80859375 82.1015625 C-97.21917969 81.17730469 -97.21917969 81.17730469 -95.59765625 80.234375 C-93.18359375 78.9765625 -93.18359375 78.9765625 -91.18359375 78.9765625 C-91.46074219 78.10773438 -91.73789063 77.23890625 -92.0234375 76.34375 C-92.38566406 75.19132812 -92.74789062 74.03890625 -93.12109375 72.8515625 C-93.48074219 71.71460937 -93.84039062 70.57765625 -94.2109375 69.40625 C-98.74004272 53.43615209 -96.41490478 36.85929375 -89.05859375 22.1640625 C-80.3209518 7.21955439 -66.95353596 -3.44238012 -50.18359375 -8.0234375 C-32.96410147 -11.87921533 -14.93091539 -9.34424798 0 0 Z M-91.58984375 90.94921875 C-92.71438965 91.5947168 -93.83893555 92.24021484 -94.99755859 92.90527344 C-96.22631541 93.61640095 -97.45499191 94.32766727 -98.68359375 95.0390625 C-99.93941523 95.76239275 -101.19543976 96.48537058 -102.45166016 97.20800781 C-105.05669058 98.70746755 -107.66021735 100.20949372 -110.26269531 101.71337891 C-113.43812591 103.54767232 -116.61753402 105.37490167 -119.7991333 107.19847107 C-122.72002764 108.87263203 -125.63921413 110.54976163 -128.55859375 112.2265625 C-129.63818359 112.84539307 -130.71777344 113.46422363 -131.83007812 114.10180664 C-136.72264197 116.92033191 -141.54419402 119.75608571 -146.18359375 122.9765625 C-145.89484375 123.88792969 -145.60609375 124.79929688 -145.30859375 125.73828125 C-140.93583933 140.56906071 -140.02888845 156.23357118 -145.18359375 170.9765625 C-145.54068099 172.63830183 -145.88032431 174.30416406 -146.18359375 175.9765625 C-144.48203125 176.97236328 -144.48203125 176.97236328 -142.74609375 177.98828125 C-141.22522534 178.88014853 -139.70439399 179.772079 -138.18359375 180.6640625 C-137.06791016 181.31665039 -137.06791016 181.31665039 -135.9296875 181.98242188 C-134.81787109 182.63500977 -134.81787109 182.63500977 -133.68359375 183.30078125 C-132.93722656 183.73567871 -132.19085938 184.17057617 -131.421875 184.61865234 C-129.91299623 185.53405196 -128.43064199 186.49446671 -126.9765625 187.49462891 C-126.28175781 187.9694873 -125.58695313 188.4443457 -124.87109375 188.93359375 C-124.25621094 189.37292236 -123.64132813 189.81225098 -123.0078125 190.26489258 C-121.14240136 191.2213224 -121.14240136 191.2213224 -119.06445312 190.22851562 C-116.72041116 188.66825508 -115.35603971 186.92566556 -113.68359375 184.6640625 C-113.11640625 183.90480469 -112.54921875 183.14554687 -111.96484375 182.36328125 C-111.37703125 181.57566406 -110.78921875 180.78804688 -110.18359375 179.9765625 C-95.60431302 160.72596121 -70.46688516 149.87417556 -47.17578125 146.546875 C-45.18055998 146.33516342 -43.18234075 146.15189118 -41.18359375 145.9765625 C-40.52359375 145.6465625 -39.86359375 145.3165625 -39.18359375 144.9765625 C-39.18359375 134.7465625 -39.18359375 124.5165625 -39.18359375 113.9765625 C-42.92703125 113.2340625 -42.92703125 113.2340625 -46.74609375 112.4765625 C-61.46188005 109.21970823 -74.32589598 102.09166005 -82.921875 89.515625 C-83.33824219 89.00773437 -83.75460938 88.49984375 -84.18359375 87.9765625 C-87.17998612 87.9765625 -89.0035874 89.45819265 -91.58984375 90.94921875 Z M15.81640625 87.9765625 C14.78776551 89.27211002 13.81920673 90.61554077 12.87890625 91.9765625 C2.37356773 105.77429577 -12.85305312 110.47716094 -29.18359375 113.9765625 C-29.18359375 124.2065625 -29.18359375 134.4365625 -29.18359375 144.9765625 C-26.57508885 146.28081495 -23.97983651 146.44690949 -21.1159668 146.82495117 C-0.32935167 149.65033608 16.79003317 157.32977612 32.81640625 170.9765625 C33.63882813 171.60175781 34.46125 172.22695312 35.30859375 172.87109375 C38.04878133 175.17165622 40.149585 177.6186875 42.37890625 180.4140625 C43.49458984 181.80431641 43.49458984 181.80431641 44.6328125 183.22265625 C45.35339844 184.13144531 46.07398438 185.04023438 46.81640625 185.9765625 C48.14946072 187.64345222 49.48270414 189.31019092 50.81640625 190.9765625 C54.48583486 189.60594851 57.75500122 187.94301462 61.1171875 185.9375 C62.09365234 185.35742188 63.07011719 184.77734375 64.07617188 184.1796875 C65.08357422 183.57640625 66.09097656 182.973125 67.12890625 182.3515625 C68.15564453 181.74054688 69.18238281 181.12953125 70.24023438 180.5 C72.767545 178.99536856 75.29284024 177.4874631 77.81640625 175.9765625 C77.52765625 175.06519531 77.23890625 174.15382813 76.94140625 173.21484375 C71.89203253 156.10806872 72.66678417 139.93279977 77.81640625 122.9765625 C69.04880453 117.50654214 60.18324447 112.25894888 51.19140625 107.1640625 C48.74287799 105.77320975 46.29515609 104.38094279 43.84765625 102.98828125 C43.24823212 102.647435 42.64880798 102.30658875 42.03121948 101.95541382 C38.28982296 99.82506603 34.56333433 97.67095505 30.84765625 95.49609375 C29.96674316 94.98087158 29.08583008 94.46564941 28.17822266 93.93481445 C26.5586159 92.98508824 24.94099313 92.0319679 23.32568359 91.07495117 C19.80783383 88.78865505 19.80783383 88.78865505 15.81640625 87.9765625 Z M-154.7265625 187.48046875 C-155.54060547 188.49947266 -155.54060547 188.49947266 -156.37109375 189.5390625 C-167.63124218 202.84011283 -181.12394408 208.53946969 -198.18359375 210.9765625 C-198.18359375 234.7365625 -198.18359375 258.4965625 -198.18359375 282.9765625 C-193.23359375 283.9665625 -188.28359375 284.9565625 -183.18359375 285.9765625 C-180.17631028 287.10206571 -177.64184193 288.11200529 -174.87109375 289.6015625 C-174.21012695 289.94421143 -173.54916016 290.28686035 -172.86816406 290.63989258 C-164.86742169 294.96923523 -158.74289659 300.82709871 -153.18359375 307.9765625 C-149.20257308 307.38872173 -146.37087233 306.15074156 -142.91796875 304.10546875 C-141.46003906 303.24405273 -141.46003906 303.24405273 -139.97265625 302.36523438 C-138.96976563 301.76259766 -137.966875 301.15996094 -136.93359375 300.5390625 C-135.91523438 299.94029297 -134.896875 299.34152344 -133.84765625 298.72460938 C-128.75686723 296.11185165 -128.75686723 296.11185165 -125.18359375 291.9765625 C-126.20995334 289.12992398 -127.29910561 286.34219246 -128.43359375 283.5390625 C-138.69585903 256.91710583 -136.40030293 230.1607034 -126.18359375 203.9765625 C-125.68859375 202.4915625 -125.68859375 202.4915625 -125.18359375 200.9765625 C-129.50629432 198.29230489 -133.83944414 195.62591454 -138.18359375 192.9765625 C-139.04742676 192.44893311 -139.04742676 192.44893311 -139.92871094 191.91064453 C-141.5506173 190.92480753 -143.17948128 189.95044514 -144.80859375 188.9765625 C-145.77023438 188.3990625 -146.731875 187.8215625 -147.72265625 187.2265625 C-150.62674431 185.75147015 -152.25230914 185.06885472 -154.7265625 187.48046875 Z M76.30859375 188.96875 C75.23996094 189.59136719 74.17132813 190.21398437 73.0703125 190.85546875 C71.95527344 191.51417969 70.84023438 192.17289063 69.69140625 192.8515625 C68.56863281 193.50253906 67.44585937 194.15351563 66.2890625 194.82421875 C60.74999599 197.58290233 60.74999599 197.58290233 56.81640625 201.9765625 C57.6671446 204.45987973 58.57977808 206.86033111 59.56640625 209.2890625 C70.7054601 237.82264694 67.59077102 264.9632141 56.81640625 292.9765625 C61.13910682 295.66082011 65.47225664 298.32721046 69.81640625 300.9765625 C70.39229492 301.32831543 70.96818359 301.68006836 71.56152344 302.04248047 C73.1834298 303.02831747 74.81229378 304.00267986 76.44140625 304.9765625 C77.40304687 305.5540625 78.3646875 306.1315625 79.35546875 306.7265625 C81.80216207 308.20299523 81.80216207 308.20299523 84.81640625 307.9765625 C86.44970935 306.44671692 86.44970935 306.44671692 88.00390625 304.4140625 C99.78274881 290.56233874 111.87040608 286.56576253 129.81640625 282.9765625 C129.81640625 259.2165625 129.81640625 235.4565625 129.81640625 210.9765625 C124.86640625 209.9865625 119.91640625 208.9965625 114.81640625 207.9765625 C111.54999299 206.74635491 108.8251316 205.61514341 105.81640625 203.9765625 C105.01976562 203.56792969 104.223125 203.15929687 103.40234375 202.73828125 C96.44800675 198.91662547 88.44554526 193.23484052 84.81640625 185.9765625 C81.09083284 185.9765625 79.51626964 187.09712394 76.30859375 188.96875 Z M-124.81640625 304.98828125 C-125.54085937 305.41689453 -126.2653125 305.84550781 -127.01171875 306.28710938 C-127.7696875 306.74150391 -128.52765625 307.19589844 -129.30859375 307.6640625 C-130.04335937 308.09912109 -130.778125 308.53417969 -131.53515625 308.98242188 C-136.46250718 311.91020522 -141.33587328 314.91895952 -146.18359375 317.9765625 C-145.89484375 318.88792969 -145.60609375 319.79929687 -145.30859375 320.73828125 C-140.25922003 337.84505628 -141.03397167 354.02032523 -146.18359375 370.9765625 C-137.41599203 376.44658286 -128.55043197 381.69417612 -119.55859375 386.7890625 C-117.11006549 388.17991525 -114.66234359 389.57218221 -112.21484375 390.96484375 C-111.61541962 391.30569 -111.01599548 391.64653625 -110.39840698 391.99771118 C-106.65701046 394.12805897 -102.93052183 396.28216995 -99.21484375 398.45703125 C-98.33393066 398.97225342 -97.45301758 399.48747559 -96.54541016 400.01831055 C-94.9258034 400.96803676 -93.30818063 401.9211571 -91.69287109 402.87817383 C-88.17502133 405.16446995 -88.17502133 405.16446995 -84.18359375 405.9765625 C-83.02003238 404.47850529 -83.02003238 404.47850529 -81.80859375 402.5390625 C-71.55328797 388.5094069 -55.45230172 383.46271421 -39.18359375 379.9765625 C-39.18359375 369.7465625 -39.18359375 359.5165625 -39.18359375 348.9765625 C-41.76637876 347.68516999 -44.31266812 347.53910302 -47.14941406 347.17919922 C-69.01639552 344.28059302 -88.45976053 335.57779273 -104.18359375 319.9765625 C-105.07046875 319.1309375 -105.95734375 318.2853125 -106.87109375 317.4140625 C-110.70322439 313.37478966 -114.55430674 309.28405026 -117.76953125 304.73046875 C-118.23617187 304.15167969 -118.7028125 303.57289063 -119.18359375 302.9765625 C-121.6711684 302.9765625 -122.68515728 303.72056012 -124.81640625 304.98828125 Z M50.81640625 302.9765625 C49.39939036 304.705443 47.98280939 306.43467996 46.56640625 308.1640625 C45.7775 309.12699219 44.98859375 310.08992188 44.17578125 311.08203125 C42.7000449 312.89249588 41.24563598 314.72080217 39.82421875 316.57421875 C24.80894984 334.53995879 -0.68375188 345.24460807 -23.55859375 347.6640625 C-25.35296875 347.81875 -25.35296875 347.81875 -27.18359375 347.9765625 C-28.17359375 348.4715625 -28.17359375 348.4715625 -29.18359375 348.9765625 C-29.18359375 359.2065625 -29.18359375 369.4365625 -29.18359375 379.9765625 C-25.65671875 380.75 -25.65671875 380.75 -22.05859375 381.5390625 C-6.71947688 385.21502803 6.97610199 392.62943647 15.81640625 405.9765625 C21.99794535 404.34820405 27.12754982 401.03436163 32.56640625 397.7890625 C34.70397254 396.52657382 36.84201096 395.26488427 38.98046875 394.00390625 C40.09325195 393.34632324 41.20603516 392.68874023 42.35253906 392.01123047 C45.8764366 389.93563506 49.41819024 387.8918791 52.96484375 385.85546875 C53.55052124 385.51902847 54.13619873 385.1825882 54.73962402 384.83595276 C57.57872305 383.20586681 60.41918925 381.57819725 63.26074219 379.95239258 C68.22205445 377.10169168 73.11762809 374.24457084 77.81640625 370.9765625 C77.52765625 370.06519531 77.23890625 369.15382813 76.94140625 368.21484375 C72.56865183 353.38406429 71.66170095 337.71955382 76.81640625 322.9765625 C77.16197796 321.31239031 77.49676961 319.64591007 77.81640625 317.9765625 C74.25737508 315.84571183 70.69359995 313.72292448 67.12890625 311.6015625 C66.12150391 310.99828125 65.11410156 310.395 64.07617188 309.7734375 C63.09970703 309.19335938 62.12324219 308.61328125 61.1171875 308.015625 C60.22169189 307.48146973 59.32619629 306.94731445 58.40356445 306.39697266 C55.92505297 305.03621208 53.46251683 303.96494423 50.81640625 302.9765625 Z " fill="#010202" transform="translate(290.18359375,9.0234375)"/>
<path d="M0 0 C11.40135241 8.36751614 19.77194983 20.88207463 22 35 C22.83028003 46.54225359 21.48041629 56.65633142 16 67 C15.34 67 14.68 67 14 67 C13.731875 66.43152344 13.46375 65.86304688 13.1875 65.27734375 C8.92109989 56.87085143 3.92089931 51.84190515 -5 48.5625 C-6.6607822 48.02319709 -8.32563805 47.49553727 -10 47 C-9.01470735 45.00722342 -8.01994464 43.03544906 -6.9296875 41.09765625 C-3.28099236 34.057026 -2.3578694 26.21962941 -4.765625 18.56640625 C-5.71188028 16.58002115 -6.76086358 14.81537817 -8 13 C-8.53625 12.113125 -9.0725 11.22625 -9.625 10.3125 C-14.99643494 5.08241861 -22.532669 2.02920819 -30 1.5625 C-37.1177744 1.66838425 -43.99864751 5.03334523 -49.02734375 10.00390625 C-54.05476922 16.48178699 -55.54335465 22.25808555 -55.46875 30.41796875 C-54.669724 36.52385906 -51.94014556 41.6534853 -49 47 C-50.03447266 47.29390625 -50.03447266 47.29390625 -51.08984375 47.59375 C-59.21734295 50.18027924 -65.80155217 53.91706128 -70.4453125 61.296875 C-71.38740904 63.15471574 -72.20860813 65.07313285 -73 67 C-73.66 67 -74.32 67 -75 67 C-75.63121136 65.64871743 -76.25459835 64.29377953 -76.875 62.9375 C-77.22304687 62.18339844 -77.57109375 61.42929688 -77.9296875 60.65234375 C-82.7012516 48.82792031 -82.33941178 35.93338239 -78 24 C-72.22354908 10.55864305 -62.48329701 0.47141927 -48.99609375 -5.28125 C-46.34664797 -6.26905935 -43.7068755 -7.18398891 -41 -8 C-40.35933594 -8.19335938 -39.71867187 -8.38671875 -39.05859375 -8.5859375 C-25.43124097 -11.32692307 -11.55789468 -7.14743961 0 0 Z " fill="#6DD1F4" transform="translate(117,116)"/>
<path d="M0 0 C9.85276435 9.42575851 15.98482402 21.6524965 16.92578125 35.2578125 C17.13223507 45.49357541 15.40862333 53.73178081 10.6875 62.8125 C10.0275 62.8125 9.3675 62.8125 8.6875 62.8125 C8.213125 61.6575 7.73875 60.5025 7.25 59.3125 C3.44186764 51.80275646 -2.54961342 47.17643014 -10.375 44.3125 C-12.01410457 43.79086453 -13.6578777 43.2825983 -15.3125 42.8125 C-14.879375 42.02488281 -14.44625 41.23726562 -14 40.42578125 C-9.44914155 31.52421785 -7.19797322 23.80299038 -10.16796875 13.984375 C-13.49551817 6.39801659 -18.62155984 2.90171141 -25.625 -1.0625 C-33.24015895 -3.38576883 -39.35311346 -2.99864437 -46.625 0.3125 C-53.66730375 4.17617638 -57.78156955 9.20846007 -60.3125 16.8125 C-61.43977893 25.86632973 -59.87365128 32.06602011 -55.3125 39.8125 C-54.9825 40.8025 -54.6525 41.7925 -54.3125 42.8125 C-55.34697266 43.10640625 -55.34697266 43.10640625 -56.40234375 43.40625 C-64.52984295 45.99277924 -71.11405217 49.72956128 -75.7578125 57.109375 C-76.69990904 58.96721574 -77.52110813 60.88563285 -78.3125 62.8125 C-78.9725 62.8125 -79.6325 62.8125 -80.3125 62.8125 C-86.92743297 50.68512288 -88.52386987 37.61698971 -84.75 24.125 C-79.53959338 9.20929372 -71.11623329 -0.72051407 -57.3125 -8.1875 C-37.61267998 -16.84704904 -16.60076894 -14.03907691 0 0 Z " fill="#6DD1F4" transform="translate(459.3125,120.1875)"/>
<path d="M0 0 C9.23289714 7.50070759 15.62488449 18.38092747 18.375 29.875 C18.64381127 32.83948641 18.66137617 35.77499387 18.625 38.75 C18.61823242 39.54720459 18.61146484 40.34440918 18.60449219 41.16577148 C18.44165877 50.41414177 16.42241758 57.56404061 12.375 65.875 C10.32202121 63.82202121 9.50801059 62.21139939 8.25 59.625 C3.36734233 50.78227986 -4.3136983 47.78478178 -13.625 44.875 C-13.191875 44.17117188 -12.75875 43.46734375 -12.3125 42.7421875 C-7.44147783 34.10514356 -6.05148912 26.50790802 -8.0703125 16.71484375 C-10.14688629 10.94512289 -14.722342 5.64033034 -19.91796875 2.48046875 C-26.87646996 -0.65030365 -33.94939959 -1.60834107 -41.296875 0.72265625 C-48.274596 3.84148609 -53.84894796 8.53951943 -56.78515625 15.70703125 C-58.83470328 23.43811328 -58.81160722 31.41868275 -55.1875 38.625 C-54.35632791 40.05527903 -53.50694347 41.47545691 -52.625 42.875 C-52.295 43.535 -51.965 44.195 -51.625 44.875 C-52.676875 45.20371094 -52.676875 45.20371094 -53.75 45.5390625 C-64.16156185 49.01901388 -70.32147384 53.23409391 -75.625 62.875 C-76.285 63.865 -76.945 64.855 -77.625 65.875 C-78.44918495 64.19317609 -79.25877351 62.50419626 -80.0625 60.8125 C-80.51496094 59.87277344 -80.96742188 58.93304688 -81.43359375 57.96484375 C-85.52796093 47.34633738 -85.42415544 31.76755687 -80.8984375 21.3359375 C-73.18103807 6.42194473 -63.63317921 -3.47543156 -47.6328125 -9.25 C-30.7479308 -14.16196559 -14.08021368 -10.06073388 0 0 Z " fill="#6DD1F4" transform="translate(288.625,410.125)"/>
<path d="M0 0 C1.18335938 0.38478516 1.18335938 0.38478516 2.390625 0.77734375 C8.90063086 3.10377222 13.83186513 6.44895586 19 11 C19.6290625 11.5465625 20.258125 12.093125 20.90625 12.65625 C29.91262693 21.03060048 35.25721072 32.38364432 36.3125 44.625 C36.50016328 55.50947019 34.26799637 64.07587252 30 74 C29.34 74 28.68 74 28 74 C27.63648438 73.22076172 27.63648438 73.22076172 27.265625 72.42578125 C22.96592513 63.47909805 18.21831751 58.99039498 9 55 C5.77771743 54.31074841 5.77771743 54.31074841 3 54 C3.33773437 53.48050781 3.67546875 52.96101563 4.0234375 52.42578125 C4.46945312 51.72839844 4.91546875 51.03101563 5.375 50.3125 C6.03628906 49.28576172 6.03628906 49.28576172 6.7109375 48.23828125 C10.52195558 41.62096804 10.83982592 35.52344055 10 28 C7.62881721 20.25131339 3.17601657 14.94652026 -3.8046875 10.97265625 C-10.36431147 8.01946455 -17.95092239 7.72044598 -24.78125 9.87890625 C-31.91948676 13.13626429 -35.95579321 17.52484845 -39.875 24.1875 C-42.56151223 33.29179143 -41.50337559 41.68607584 -37 50 C-36.02842031 51.35418267 -35.03572067 52.69422036 -34 54 C-34.61746094 54.14695312 -35.23492187 54.29390625 -35.87109375 54.4453125 C-44.14347862 56.63617242 -51.24846068 59.78108914 -56 67.1875 C-57.30221472 69.47994049 -58.15942287 71.47826862 -59 74 C-59.66 74 -60.32 74 -61 74 C-67.6957882 58.43066724 -69.13865288 44.54186171 -63.00390625 28.375 C-57.55320498 16.30424286 -46.68499129 5.74282521 -34.3671875 0.77734375 C-23.5190743 -2.78499045 -10.89712258 -3.8139929 0 0 Z " fill="#6ED2F4" transform="translate(440,304)"/>
<path d="M0 0 C1.18335937 0.38478516 1.18335937 0.38478516 2.390625 0.77734375 C14.50337377 5.10597943 24.80127996 14.5458755 30.875 25.875 C37.6866739 40.95967576 37.06313837 54.62579883 32 70 C31.37173516 71.35185262 30.72340033 72.69657598 30 74 C29.34 74 28.68 74 28 74 C27.63648438 73.22076172 27.63648438 73.22076172 27.265625 72.42578125 C23.34446029 64.26674237 19.34974377 59.73218563 11 56 C8.33070781 55.14406168 5.75558722 54.55111744 3 54 C3.33773437 53.49210937 3.67546875 52.98421875 4.0234375 52.4609375 C9.22385305 44.43486264 11.16560205 37.64050026 10 28 C7.57157814 20.25940532 3.19189507 14.95555931 -3.8046875 10.97265625 C-10.36431147 8.01946455 -17.95092239 7.72044598 -24.78125 9.87890625 C-31.90539746 13.12983499 -35.90941962 17.51569937 -39.875 24.125 C-42.19724012 30.35028226 -42.16012871 37.74734283 -39.9453125 43.95703125 C-38.19400016 47.49592571 -36.18907924 50.71638114 -34 54 C-35.27875 54.185625 -36.5575 54.37125 -37.875 54.5625 C-46.57158464 56.55888578 -52.38217731 61.5172774 -57.125 68.9375 C-58.1038105 70.61320553 -59.06986039 72.29679733 -60 74 C-67.47166866 64.58736714 -67.85871935 52.59271119 -67 41 C-64.24261494 26.49881229 -56.10147861 14.64511364 -44.25 5.9921875 C-31.50311367 -2.11022163 -14.49491076 -5.07321876 0 0 Z " fill="#6ED2F4" transform="translate(103,304)"/>
<path d="M0 0 C9.87610309 8.49471889 17.55106999 19.51765811 19.07421875 32.703125 C19.92246454 44.23926781 19.50179374 57.1178116 11.8125 66.4375 C11.544375 65.79683594 11.27625 65.15617187 11 64.49609375 C7.48216406 56.73139667 3.00957508 51.15264421 -4.875 47.5625 C-7.66980348 46.61332146 -10.29757906 45.97905248 -13.1875 45.4375 C-12.76597656 44.61765625 -12.34445312 43.7978125 -11.91015625 42.953125 C-11.36230469 41.87546875 -10.81445312 40.7978125 -10.25 39.6875 C-9.43208984 38.08648437 -9.43208984 38.08648437 -8.59765625 36.453125 C-5.89673651 30.67719691 -5.17146245 25.06541667 -6.90625 18.87109375 C-10.05134565 10.36158092 -15.20601496 5.56311851 -23.1875 1.4375 C-30.01995859 -0.75221289 -37.10542591 -0.45854287 -43.5625 2.625 C-50.66257232 6.63564212 -55.56601304 12.03254348 -57.9375 19.9375 C-58.02 20.7625 -58.1025 21.5875 -58.1875 22.4375 C-58.290625 23.46875 -58.39375 24.5 -58.5 25.5625 C-57.91380634 32.8313014 -55.04872268 39.30822388 -51.1875 45.4375 C-51.8165625 45.58445313 -52.445625 45.73140625 -53.09375 45.8828125 C-63.96240391 48.73092362 -69.49606574 53.92156692 -75.1875 63.4375 C-75.8475 64.4275 -76.5075 65.4175 -77.1875 66.4375 C-78.01168495 64.75567609 -78.82127351 63.06669626 -79.625 61.375 C-80.07746094 60.43527344 -80.52992188 59.49554688 -80.99609375 58.52734375 C-85.19594501 47.63527047 -84.74661392 32.12783609 -80.1875 21.4375 C-79.9090625 20.756875 -79.630625 20.07625 -79.34375 19.375 C-73.69571381 6.91036842 -63.52243528 -2.35534349 -50.97265625 -7.59765625 C-33.7038085 -13.57999201 -14.71675022 -10.99185848 0 0 Z " fill="#6ED2F5" transform="translate(288.1875,20.5625)"/>
<path d="M0 0 C0.83476868 -0.0159874 1.66953735 -0.03197479 2.52960205 -0.04844666 C3.42443298 -0.05380936 4.31926392 -0.05917206 5.24121094 -0.06469727 C6.17100769 -0.07372574 7.10080444 -0.08275421 8.05877686 -0.09205627 C10.02564275 -0.10655277 11.99255681 -0.11544402 13.95947266 -0.11914062 C16.95136082 -0.13100743 19.94116594 -0.18017329 22.93261719 -0.23071289 C24.84797176 -0.24018125 26.76333894 -0.24741431 28.67871094 -0.25219727 C29.56544495 -0.27172958 30.45217896 -0.2912619 31.36578369 -0.31138611 C37.68968503 -0.26602856 41.8083914 1.30810095 46.72558594 5.30639648 C51.14066261 10.07003184 53.45450063 14.44981699 53.38964844 20.97827148 C52.06913892 25.60782249 47.70090139 27.96930176 43.72558594 30.30639648 C43.39558594 30.30639648 43.06558594 30.30639648 42.72558594 30.30639648 C42.67660156 29.60772461 42.62761719 28.90905273 42.57714844 28.18920898 C42.50238281 27.27913086 42.42761719 26.36905273 42.35058594 25.43139648 C42.24617188 24.07401367 42.24617188 24.07401367 42.13964844 22.68920898 C41.92990461 20.12697745 41.92990461 20.12697745 39.72558594 18.30639648 C37.18368592 18.05631918 37.18368592 18.05631918 34.72558594 18.30639648 C32.66636192 20.3656205 33.31131014 24.52347773 33.16308594 27.36889648 C33.09831055 28.50681641 33.09831055 28.50681641 33.03222656 29.66772461 C32.9258496 31.54705086 32.8251866 33.42669892 32.72558594 35.30639648 C22.10621089 37.93774605 12.31231479 38.12952418 1.72558594 35.30639648 C1.39558594 30.02639648 1.06558594 24.74639648 0.72558594 19.30639648 C-1.25441406 18.97639648 -3.23441406 18.64639648 -5.27441406 18.30639648 C-7.76947368 20.8014561 -7.63389782 21.97968537 -7.89941406 25.43139648 C-7.97417969 26.34147461 -8.04894531 27.25155273 -8.12597656 28.18920898 C-8.17496094 28.88788086 -8.22394531 29.58655273 -8.27441406 30.30639648 C-16.09759218 26.02578959 -16.09759218 26.02578959 -18.27441406 23.30639648 C-19.42239108 18.45619357 -18.60540053 14.2363942 -16.08691406 9.99389648 C-12.12895923 4.3700228 -7.07043228 0.10292821 0 0 Z " fill="#E9F0F8" transform="translate(407.2744140625,172.693603515625)"/>
<path d="M0 0 C0.83484421 -0.01606293 1.66968842 -0.03212585 2.52983093 -0.04867554 C6.35239668 -0.0933744 10.17479213 -0.13420722 13.99755859 -0.15722656 C16.00809326 -0.1737555 18.01856991 -0.20100492 20.02880859 -0.23925781 C22.93854025 -0.29429838 25.84689645 -0.31594371 28.75708008 -0.33056641 C30.09188667 -0.36457047 30.09188667 -0.36457047 31.45365906 -0.39926147 C37.79573374 -0.37801172 41.91048064 1.1784901 46.83911133 5.19287109 C51.254188 9.95650645 53.56802603 14.3362916 53.50317383 20.86474609 C52.18266431 25.4942971 47.81442678 27.85577637 43.83911133 30.19287109 C43.50911133 30.19287109 43.17911133 30.19287109 42.83911133 30.19287109 C42.79012695 29.49419922 42.74114258 28.79552734 42.69067383 28.07568359 C42.6159082 27.16560547 42.54114258 26.25552734 42.46411133 25.31787109 C42.35969727 23.96048828 42.35969727 23.96048828 42.25317383 22.57568359 C42.04343001 20.01345206 42.04343001 20.01345206 39.83911133 18.19287109 C37.29721131 17.94279379 37.29721131 17.94279379 34.83911133 18.19287109 C32.77988731 20.25209511 33.42483553 24.40995233 33.27661133 27.25537109 C33.21183594 28.39329102 33.21183594 28.39329102 33.14575195 29.55419922 C33.039375 31.43352547 32.93871199 33.31317353 32.83911133 35.19287109 C22.21973628 37.82422066 12.42584018 38.01599879 1.83911133 35.19287109 C1.50911133 29.91287109 1.17911133 24.63287109 0.83911133 19.19287109 C-1.14088867 18.86287109 -3.12088867 18.53287109 -5.16088867 18.19287109 C-7.65594829 20.68793071 -7.52037243 21.86615998 -7.78588867 25.31787109 C-7.8606543 26.22794922 -7.93541992 27.13802734 -8.01245117 28.07568359 C-8.06143555 28.77435547 -8.11041992 29.47302734 -8.16088867 30.19287109 C-15.98406679 25.9122642 -15.98406679 25.9122642 -18.16088867 23.19287109 C-19.29686135 18.39338654 -18.51345743 14.15473799 -16.03588867 9.94287109 C-11.93716336 4.10917398 -7.38160221 0.12949201 0 0 Z " fill="#508DD7" transform="translate(70.160888671875,172.80712890625)"/>
<path d="M0 0 C0.94396133 -0.0071553 1.88792267 -0.01431061 2.86048889 -0.02168274 C4.84635481 -0.02942757 6.83230653 -0.02451625 8.81811523 -0.00756836 C11.8367771 0.01164949 14.85082397 -0.02776654 17.86914062 -0.07226562 C19.80859646 -0.07255606 21.74805647 -0.06941422 23.6875 -0.0625 C24.57839828 -0.07778244 25.46929657 -0.09306488 26.38719177 -0.10881042 C33.24791759 0.01713863 37.72542552 2.22963209 42.91015625 6.69921875 C46.70097148 11.08357604 47.71501779 15.5538367 47.50390625 21.32421875 C46.60581505 24.91658354 44.63985227 26.49045 41.734375 28.640625 C39.91015625 29.69921875 39.91015625 29.69921875 36.91015625 30.69921875 C36.41515625 25.25421875 36.41515625 25.25421875 35.91015625 19.69921875 C33.00942444 19.02120841 33.00942444 19.02120841 29.91015625 18.69921875 C27.06401601 21.54535899 27.45436549 24.50291017 27.28515625 28.32421875 C27.24648438 29.030625 27.2078125 29.73703125 27.16796875 30.46484375 C27.07367901 32.20920399 26.99082734 33.95417566 26.91015625 35.69921875 C16.49190752 38.23033341 7.29536344 38.42320752 -3.08984375 35.69921875 C-3.13882813 34.63960938 -3.1878125 33.58 -3.23828125 32.48828125 C-3.31331084 31.10023378 -3.3888586 29.71221424 -3.46484375 28.32421875 C-3.49578125 27.62554687 -3.52671875 26.926875 -3.55859375 26.20703125 C-3.68483873 21.99736048 -3.68483873 21.99736048 -6.08984375 18.69921875 C-8.63174377 18.44914145 -8.63174377 18.44914145 -11.08984375 18.69921875 C-12.82941033 20.43878533 -12.46174761 22.89288095 -12.65234375 25.26171875 C-12.73613281 26.27363281 -12.81992188 27.28554688 -12.90625 28.328125 C-12.96683594 29.11058594 -13.02742187 29.89304687 -13.08984375 30.69921875 C-20.98504469 26.37920314 -20.98504469 26.37920314 -23.08984375 23.69921875 C-24.37324796 17.67791399 -23.16891401 12.71467496 -19.96484375 7.5859375 C-13.98149233 1.56519014 -8.32820761 -0.06514007 0 0 Z " fill="#85CE46" transform="translate(244.08984375,464.30078125)"/>
<path d="M0 0 C0.94491806 -0.00099701 1.88983612 -0.00199402 2.86338806 -0.00302124 C4.84756954 0.00163038 6.83176616 0.02091055 8.81567383 0.05419922 C11.83588143 0.10150044 14.85256115 0.09528869 17.87304688 0.08203125 C19.81121875 0.09318427 21.74937591 0.10740372 23.6875 0.125 C24.58042252 0.12317719 25.47334503 0.12135437 26.39332581 0.11947632 C33.07119659 0.26902776 38.75233294 1.74008686 43.6171875 6.54296875 C44.16052734 7.40728516 44.16052734 7.40728516 44.71484375 8.2890625 C45.09511719 8.86785156 45.47539063 9.44664062 45.8671875 10.04296875 C48.18525046 14.33088778 48.92895231 18.99127695 47.77734375 23.7265625 C45.45516006 26.32910094 42.87641279 28.1396898 39.77734375 29.7265625 C39.11734375 29.7265625 38.45734375 29.7265625 37.77734375 29.7265625 C37.28234375 24.2815625 37.28234375 24.2815625 36.77734375 18.7265625 C34.444396 18.68414527 32.11031808 18.68563313 29.77734375 18.7265625 C27.78117821 20.72272804 28.36750948 24.54358213 28.21484375 27.2890625 C28.15006836 28.35543945 28.15006836 28.35543945 28.08398438 29.44335938 C27.97762598 31.20418162 27.87695529 32.9653457 27.77734375 34.7265625 C22.36102857 36.97518099 17.47555577 37.02713203 11.71484375 36.9765625 C10.82990234 36.98429687 9.94496094 36.99203125 9.03320312 37 C4.51664368 36.98644693 0.87317221 36.87240194 -3.22265625 34.7265625 C-3.28324219 33.65535156 -3.34382813 32.58414062 -3.40625 31.48046875 C-3.49064162 30.08331859 -3.57529031 28.68618393 -3.66015625 27.2890625 C-3.69947266 26.58201172 -3.73878906 25.87496094 -3.77929688 25.14648438 C-3.69890063 21.63965831 -3.69890063 21.63965831 -5.22265625 18.7265625 C-7.22223989 18.68575467 -9.22310879 18.68401894 -11.22265625 18.7265625 C-12.37080622 21.02286244 -12.53035434 22.80354336 -12.78515625 25.3515625 C-12.86894531 26.16882813 -12.95273437 26.98609375 -13.0390625 27.828125 C-13.09964844 28.45460938 -13.16023438 29.08109375 -13.22265625 29.7265625 C-17.24579752 28.34719978 -20.35764183 26.91900714 -23.22265625 23.7265625 C-24.42653135 18.46479807 -23.4278233 13.32154643 -20.70249939 8.70516968 C-15.40562778 1.62304867 -8.42294655 -0.17414605 0 0 Z " fill="#F1C54A" transform="translate(75.22265625,367.2734375)"/>
<path d="M0 0 C0.94491806 -0.00099701 1.88983612 -0.00199402 2.86338806 -0.00302124 C4.84756954 0.00163038 6.83176616 0.02091055 8.81567383 0.05419922 C11.83588143 0.10150044 14.85256115 0.09528869 17.87304688 0.08203125 C19.81121875 0.09318427 21.74937591 0.10740372 23.6875 0.125 C24.58042252 0.12317719 25.47334503 0.12135437 26.39332581 0.11947632 C33.07119659 0.26902776 38.75233294 1.74008686 43.6171875 6.54296875 C44.16052734 7.40728516 44.16052734 7.40728516 44.71484375 8.2890625 C45.09511719 8.86785156 45.47539062 9.44664062 45.8671875 10.04296875 C48.18525046 14.33088778 48.92895231 18.99127695 47.77734375 23.7265625 C45.45516006 26.32910094 42.87641279 28.1396898 39.77734375 29.7265625 C39.11734375 29.7265625 38.45734375 29.7265625 37.77734375 29.7265625 C37.71675781 29.10007812 37.65617187 28.47359375 37.59375 27.828125 C37.50996094 27.01085937 37.42617188 26.19359375 37.33984375 25.3515625 C37.25863281 24.53945313 37.17742187 23.72734375 37.09375 22.890625 C36.88644261 20.68383445 36.88644261 20.68383445 35.77734375 18.7265625 C33.77779629 18.68401894 31.77692739 18.68575467 29.77734375 18.7265625 C27.78117821 20.72272804 28.36750948 24.54358213 28.21484375 27.2890625 C28.15006836 28.35543945 28.15006836 28.35543945 28.08398438 29.44335938 C27.97762598 31.20418162 27.87695529 32.9653457 27.77734375 34.7265625 C22.36102857 36.97518099 17.47555577 37.02713203 11.71484375 36.9765625 C10.82990234 36.98429687 9.94496094 36.99203125 9.03320312 37 C4.51664368 36.98644693 0.87317221 36.87240194 -3.22265625 34.7265625 C-3.28324219 33.65535156 -3.34382813 32.58414062 -3.40625 31.48046875 C-3.49064162 30.08331859 -3.57529031 28.68618393 -3.66015625 27.2890625 C-3.69947266 26.58201172 -3.73878906 25.87496094 -3.77929688 25.14648438 C-3.69890063 21.63965831 -3.69890063 21.63965831 -5.22265625 18.7265625 C-7.22223989 18.68575467 -9.22310879 18.68401894 -11.22265625 18.7265625 C-12.37080622 21.02286244 -12.53035434 22.80354336 -12.78515625 25.3515625 C-12.86894531 26.16882813 -12.95273437 26.98609375 -13.0390625 27.828125 C-13.09964844 28.45460938 -13.16023438 29.08109375 -13.22265625 29.7265625 C-17.24579752 28.34719978 -20.35764183 26.91900714 -23.22265625 23.7265625 C-24.42653135 18.46479807 -23.4278233 13.32154643 -20.70249939 8.70516968 C-15.40562778 1.62304867 -8.42294655 -0.17414605 0 0 Z " fill="#B295F5" transform="translate(412.22265625,367.2734375)"/>
<path d="M0 0 C0.83484421 -0.01283524 1.66968842 -0.02567047 2.52983093 -0.03889465 C3.87981926 -0.04997505 3.87981926 -0.04997505 5.25708008 -0.0612793 C6.18829178 -0.06935104 7.11950348 -0.07742279 8.07893372 -0.08573914 C10.05178979 -0.09957169 12.02466971 -0.11029755 13.99755859 -0.11816406 C16.99794647 -0.13533401 19.99721992 -0.17922246 22.99731445 -0.22338867 C24.91722825 -0.23351991 26.8371514 -0.24203466 28.75708008 -0.2487793 C29.64695114 -0.26628738 30.5368222 -0.28379547 31.45365906 -0.30183411 C38.01538889 -0.27926572 43.52527833 1.0307334 48.40104675 5.65995789 C52.44912023 10.30831141 53.45919215 14.57212168 53.46801758 20.59106445 C52.42304767 24.887773 49.4315069 26.60251107 45.90551758 28.99731445 C43.83911133 30.17700195 43.83911133 30.17700195 42.83911133 30.17700195 C42.77852539 29.39454102 42.71793945 28.61208008 42.65551758 27.8059082 C42.57172852 26.79399414 42.48793945 25.78208008 42.40161133 24.73950195 C42.32040039 23.73016602 42.23918945 22.72083008 42.15551758 21.6809082 C42.10699664 19.24059417 42.10699664 19.24059417 40.83911133 18.17700195 C38.52911133 18.17700195 36.21911133 18.17700195 33.83911133 18.17700195 C33.50911133 23.45700195 33.17911133 28.73700195 32.83911133 34.17700195 C28.6642347 35.8469526 27.06606436 36.42815232 22.89770508 36.4074707 C21.52775391 36.40457031 21.52775391 36.40457031 20.13012695 36.40161133 C18.71763672 36.38324219 18.71763672 36.38324219 17.27661133 36.36450195 C15.85832031 36.36353516 15.85832031 36.36353516 14.41137695 36.36254883 C10.27529566 36.3362416 6.88653595 36.18885811 2.83911133 35.17700195 C2.50911133 29.56700195 2.17911133 23.95700195 1.83911133 18.17700195 C-0.47088867 18.17700195 -2.78088867 18.17700195 -5.16088867 18.17700195 C-6.90045526 19.91656854 -6.53279253 22.37066416 -6.72338867 24.73950195 C-6.80717773 25.75141602 -6.8909668 26.76333008 -6.97729492 27.8059082 C-7.03788086 28.58836914 -7.0984668 29.37083008 -7.16088867 30.17700195 C-15.07575259 25.84622735 -15.07575259 25.84622735 -17.16088867 23.17700195 C-18.0788547 18.44658241 -17.79274388 13.66102546 -15.53588867 9.36450195 C-11.36489409 3.76658817 -7.2519881 0.09738124 0 0 Z " fill="#F9647C" transform="translate(238.160888671875,75.822998046875)"/>
<path d="M0 0 C13.2 0 26.4 0 40 0 C44.58667613 13.76002839 47 25.43326939 47 40 C31.49 40 15.98 40 0 40 C0 26.8 0 13.6 0 0 Z " fill="#6FD4F6" transform="translate(261,211)"/>
<path d="M0 0 C1.68742689 0.00025114 3.37485891 0.00581427 5.06225586 0.01586914 C6.24023743 0.01737976 6.24023743 0.01737976 7.4420166 0.0189209 C10.38705904 0.02416901 13.33208073 0.03813016 16.27709961 0.05102539 C22.85647461 0.07165039 29.43584961 0.09227539 36.21459961 0.11352539 C36.21459961 13.31352539 36.21459961 26.51352539 36.21459961 40.11352539 C20.70459961 40.11352539 5.19459961 40.11352539 -10.78540039 40.11352539 C-10.78540039 33.28793554 -10.58570554 27.24256713 -9.47290039 20.61352539 C-9.27204834 19.38013428 -9.27204834 19.38013428 -9.06713867 18.12182617 C-6.02669798 0.18074264 -6.02669798 0.18074264 0 0 Z " fill="#6FD4F7" transform="translate(214.785400390625,210.886474609375)"/>
<path d="M0 0 C15.51 0 31.02 0 47 0 C47 10.14058957 47 10.14058957 46.44921875 13.6484375 C46.3291748 14.4213916 46.20913086 15.1943457 46.08544922 15.99072266 C45.95412598 16.77753418 45.82280273 17.5643457 45.6875 18.375 C45.55359863 19.19919434 45.41969727 20.02338867 45.28173828 20.87255859 C42.48056558 37.51943442 42.48056558 37.51943442 40 40 C37.04316769 40.08867636 34.10914786 40.11527527 31.15234375 40.09765625 C29.97436218 40.09614563 29.97436218 40.09614563 28.77258301 40.09460449 C25.82754057 40.08935638 22.88251888 40.07539523 19.9375 40.0625 C13.358125 40.041875 6.77875 40.02125 0 40 C0 26.8 0 13.6 0 0 Z " fill="#6FD4F7" transform="translate(261,261)"/>
<path d="M0 0 C15.51 0 31.02 0 47 0 C47 13.2 47 26.4 47 40 C33.8 40 20.6 40 7 40 C5.0756033 34.22680991 3.49771339 29.23531714 2.375 23.375 C2.13523438 22.14523437 1.89546875 20.91546875 1.6484375 19.6484375 C0.43898693 12.84345655 0 7.03338742 0 0 Z " fill="#6FD4F7" transform="translate(204,261)"/>
<path d="M0 0 C9.57 0 19.14 0 29 0 C29.268125 2.31 29.53625 4.62 29.8125 7 C30.67738628 14.16280388 31.90600053 21.20729801 33.31640625 28.28125 C34.02988503 32.16257454 34.51051468 36.08411743 35 40 C27.08 40 19.16 40 11 40 C4.68017726 26.0486932 1.20903391 15.71744082 0 0 Z " fill="#6ED2F5" transform="translate(165,261)"/>
<path d="M0 0 C7.92 0 15.84 0 24 0 C22.125 11.51785714 22.125 11.51785714 21 16.625 C19.4058059 24.31761915 18.8150863 32.19845971 18 40 C8.43 40 -1.14 40 -11 40 C-9.86851211 24.15916955 -9.86851211 24.15916955 -7.75 17.75 C-7.35296875 16.50734375 -6.9559375 15.2646875 -6.546875 13.984375 C-4.68408907 9.18629004 -2.30180758 4.60361516 0 0 Z " fill="#6ED3F5" transform="translate(176,211)"/>
<path d="M0 0 C9.57 0 19.14 0 29 0 C27.8192402 15.34987741 24.64899971 26.39977332 18 40 C10.08 40 2.16 40 -6 40 C-5.33943029 34.71544233 -4.59823343 29.69476664 -3.5625 24.5 C-1.97921982 16.36685785 -0.95531091 8.23037094 0 0 Z " fill="#6ED3F5" transform="translate(318,261)"/>
<path d="M0 0 C7.92 0 15.84 0 24 0 C30.62345855 13.69851655 33.88000018 24.32000256 35 40 C25.43 40 15.86 40 6 40 C4.6875 28.25 4.6875 28.25 4.2956543 24.62597656 C3.53459279 18.0676537 2.34421947 11.82092607 0.59692383 5.45214844 C0 3 0 3 0 0 Z " fill="#6ED3F6" transform="translate(312,211)"/>
<path d="M0 0 C4.84916362 2.64585432 8.0999607 6.04988209 9.875 11.375 C10.46217652 17.36420055 9.18067074 21.46981116 5.875 26.375 C0.76134368 31.23920967 -3.57162891 31.73340084 -10.3984375 31.65234375 C-14.27453489 31.25807023 -16.28640409 30.00589377 -19.125 27.375 C-23.17499401 22.01149442 -24.68717075 18.121049 -24.125 11.375 C-21.68011774 5.92103187 -18.94658982 2.86295859 -14.125 -0.625 C-9.07076102 -2.30974633 -4.84044468 -2.20519314 0 0 Z " fill="#F3CBB0" transform="translate(263.125,420.625)"/>
<path d="M0 0 C3.75388338 3.2300857 7.41580504 6.58664236 7.92578125 11.703125 C8.08386908 17.79366678 7.95240941 21.5865193 3.6875 26.3125 C-1.56001332 30.93530935 -4.6600439 31.66581 -11.55078125 31.59375 C-16.70052556 31.06930645 -19.32622397 28.43205658 -22.625 24.6875 C-25.79634758 20.22412192 -25.78828316 16.67827671 -25.3125 11.3125 C-23.55021748 5.43822495 -21.21536067 2.71448496 -16.3125 -0.6875 C-10.73946194 -2.46951013 -5.23446115 -2.66661228 0 0 Z " fill="#F4CCB0" transform="translate(433.3125,323.6875)"/>
<path d="M0 0 C4.87679522 2.39239011 7.80955604 5.71568955 11 10 C12.69179466 15.07538397 12.56371867 19.31964436 10.375 24.1875 C7.75792293 28.99323582 4.14792809 31.28402397 -1 33 C-6.85813495 33.39054233 -10.74042244 32.93322595 -16 30 C-19.97006152 25.92263952 -21.79859842 22.21541743 -22.3125 16.5625 C-21.80197291 10.74249115 -19.75652575 7.46664753 -15.4375 3.6875 C-10.45572346 -0.39434272 -6.36878027 -0.69673867 0 0 Z " fill="#F4CCB0" transform="translate(261,30)"/>
<path d="M0 0 C4.26246789 2.45911609 7.11131463 5.15967334 9.0625 9.8125 C9.62557622 16.0063384 9.3246966 20.34054612 6.25 25.875 C2.16944608 30.09701313 -1.15395656 32.03575844 -7 32.1875 C-12.08937369 32.13427779 -14.87381874 31.37301724 -18.75 27.875 C-23.37280935 22.62748668 -24.10331 19.5274561 -24.03125 12.63671875 C-23.50680645 7.48697444 -20.86955658 4.86127603 -17.125 1.5625 C-11.68432757 -2.30324094 -6.2634666 -1.87903998 0 0 Z " fill="#F5CCB1" transform="translate(94.75,323.125)"/>
<path d="M0 0 C4.64973045 2.86834021 7.94173494 5.45502378 9.53125 10.859375 C10.24506959 16.60096734 9.78306324 20.92558939 6.53125 25.859375 C3.13670169 29.67824185 1.02608781 31.53412207 -4.10546875 32.203125 C-9.84863406 32.49726919 -13.60867379 32.46077989 -18.09375 28.609375 C-21.92592714 24.82570643 -23.75942697 21.53319032 -23.90625 16.109375 C-23.77613161 10.59560842 -22.17006383 6.926135 -18.46875 2.859375 C-13.12827575 -1.83176119 -6.50081038 -3.00353897 0 0 Z " fill="#F4CCB0" transform="translate(431.46875,128.140625)"/>
<path d="M0 0 C4.70710045 1.96938724 7.58786496 4.62194755 10.046875 9.08984375 C11.58161061 13.22019212 11.6762241 17.05730729 10.89453125 21.37109375 C8.40118622 26.35778382 4.90102176 29.86784849 -0.10546875 32.37109375 C-5.58867653 32.87180584 -10.50006737 33.05912291 -15.60546875 30.87109375 C-19.98028315 26.49627935 -22.2861881 22.0452091 -22.60546875 15.80859375 C-22.35236833 11.21323933 -21.16540713 7.83501276 -18.10546875 4.37109375 C-12.47434415 -0.54991116 -7.19433512 -2.14895724 0 0 Z " fill="#F5CCB1" transform="translate(93.10546875,127.62890625)"/>
<path d="M0 0 C0 11.88 0 23.76 0 36 C-11.88 36 -23.76 36 -36 36 C-31.18807874 21.56423623 -22.9397911 10.92450655 -10 3 C-3.15 0 -3.15 0 0 0 Z " fill="#6FD4F6" transform="translate(251,165)"/>
<path d="M0 0 C11.88 0 23.76 0 36 0 C36 11.88 36 23.76 36 36 C23.39941584 32.84985396 13.63880687 25.51723091 6.625 14.3828125 C3.84391038 9.70626885 1.33059124 5.32236496 0 0 Z " fill="#6FD4F7" transform="translate(215,311)"/>
<path d="M0 0 C7.95670898 2.38701269 12.16824834 3.81875684 18 9 C18.73089844 9.62648437 19.46179688 10.25296875 20.21484375 10.8984375 C27.45187047 17.55402789 33.59331308 26.37325231 36 36 C24.12 36 12.24 36 0 36 C0 24.12 0 12.24 0 0 Z " fill="#6FD4F7" transform="translate(261,165)"/>
<path d="M0 0 C11.88 0 23.76 0 36 0 C31.49973214 13.50080358 22.49659919 26.42104209 9.625 33.125 C6.29114644 34.65255163 3.71043876 35.25791225 0 36 C0 24.12 0 12.24 0 0 Z " fill="#6FD4F7" transform="translate(261,311)"/>
<path d="M0 0 C1.9375 1.5625 1.9375 1.5625 3 4 C3.1875 7.75 3.1875 7.75 3 11 C4.8871875 10.87625 4.8871875 10.87625 6.8125 10.75 C10.69727609 10.7706637 10.69727609 10.7706637 13.0625 12.5625 C14.39274773 16.0211441 13.85607025 18.4440159 13 22 C11 24 11 24 9.0546875 24.1953125 C7.03645833 24.13020833 5.01822917 24.06510417 3 24 C3.0928125 25.60875 3.0928125 25.60875 3.1875 27.25 C3 31 3 31 2 33.4375 C-0.71070476 35.5552381 -2.74871362 35.57130492 -6.125 35.37890625 C-8 35 -8 35 -10 33.4375 C-11.32761013 30.2014503 -11.19966912 27.46093134 -11 24 C-12.8871875 24.12375 -12.8871875 24.12375 -14.8125 24.25 C-18.69727609 24.2293363 -18.69727609 24.2293363 -21.0625 22.4375 C-22.40411569 18.9492992 -21.92678615 16.57474656 -21 13 C-17.3558226 10.5705484 -15.28758728 10.83820425 -11 11 C-11.0825 9.9275 -11.165 8.855 -11.25 7.75 C-11 4 -11 4 -9.4375 1.5625 C-6.07240983 -0.59460908 -3.91795996 -0.56988508 0 0 Z " fill="#6FD6F9" transform="translate(427,443)"/>
<path d="M0 0 C0.66 0 1.32 0 2 0 C2.20753906 0.58007812 2.41507813 1.16015625 2.62890625 1.7578125 C5.57870569 9.23722028 9.53467116 13.63813557 16.9375 16.875 C17.948125 17.24625 18.95875 17.6175 20 18 C20 18.66 20 19.32 20 20 C19.33613281 20.21914063 18.67226562 20.43828125 17.98828125 20.6640625 C11.1489658 23.12022542 7.34823175 25.25580821 4.0390625 31.94140625 C3.30630784 33.6052299 2.64579708 35.30053401 2 37 C1.34 37 0.68 37 0 37 C-0.81567174 35.56429734 -1.62742093 34.12636566 -2.4375 32.6875 C-2.88996094 31.88699219 -3.34242187 31.08648437 -3.80859375 30.26171875 C-5 28 -5 28 -6 25 C-9.60132709 22.69515066 -14.00536651 21.46469895 -18 20 C-18 19.34 -18 18.68 -18 18 C-17.33613281 17.70867188 -16.67226562 17.41734375 -15.98828125 17.1171875 C-7.31086639 13.08884016 -3.40367489 8.95703918 0 0 Z " fill="#F5C84C" transform="translate(101,28)"/>
<path d="M0 0 C6.6 0 13.2 0 20 0 C13.42143386 13.15713227 -1.89080431 23.22818147 -15 29 C-15.66 28.67 -16.32 28.34 -17 28 C-16.52691406 27.40316406 -16.05382812 26.80632812 -15.56640625 26.19140625 C-9.26926716 17.93024717 -4.73305934 9.24425653 0 0 Z " fill="#6DD1F3" transform="translate(308,311)"/>
<path d="M0 0 C6.6 0 13.2 0 20 0 C20.64066406 1.26714844 21.28132813 2.53429687 21.94140625 3.83984375 C28.40398349 16.60954248 28.40398349 16.60954248 37 28 C36.01 28.495 36.01 28.495 35 29 C32.44336005 27.84066446 30.06268068 26.62683036 27.625 25.25 C26.90836182 24.84604004 26.19172363 24.44208008 25.45336914 24.02587891 C18.36710195 19.87531715 12.77701162 14.81207694 7 9 C6.24332031 8.27941406 5.48664063 7.55882812 4.70703125 6.81640625 C1.20032492 3.4496882 1.20032492 3.4496882 0 2 C0 1.34 0 0.68 0 0 Z " fill="#6DD1F3" transform="translate(184,311)"/>
<path d="M0 0 C11.41425006 3.40035294 20.60272082 10.80231659 29 19 C29.79019531 19.75152344 30.58039063 20.50304687 31.39453125 21.27734375 C35.50305547 25.25635232 35.50305547 25.25635232 37 27 C37 27.66 37 28.32 37 29 C30.4 29 23.8 29 17 29 C16.35933594 27.73285156 15.71867187 26.46570313 15.05859375 25.16015625 C9.01726295 13.21031217 9.01726295 13.21031217 1.1796875 2.3984375 C0 1 0 1 0 0 Z " fill="#6DD1F3" transform="translate(291,172)"/>
<path d="M0 0 C0.66 0.33 1.32 0.66 2 1 C1.52691406 1.59683594 1.05382812 2.19367188 0.56640625 2.80859375 C-5.73073284 11.06975283 -10.26694066 19.75574347 -15 29 C-21.6 29 -28.2 29 -35 29 C-28.42143386 15.84286773 -13.10919569 5.77181853 0 0 Z " fill="#6DD1F3" transform="translate(219,172)"/>
<path d="M0 0 C3 1 3 1 4.6875 4.3125 C7.02343781 8.76452265 10.45500204 10.2239207 15 12 C14 14 14 14 11.1875 15.3125 C7.71385004 17.15149116 6.24659417 18.82378065 4 22 C3.00270658 23.33535898 2.00316209 24.6690441 1 26 C0.64808594 25.38511719 0.29617188 24.77023437 -0.06640625 24.13671875 C-3.45164707 18.59482321 -5.73353153 15.87994054 -12 14 C-12 13.34 -12 12.68 -12 12 C-10.35546875 10.8515625 -10.35546875 10.8515625 -8.1875 9.625 C-3.8257467 7.00486551 -1.63097275 4.89291826 0 0 Z " fill="#FC657D" transform="translate(480,248)"/>
<path d="M0 0 C2.375 1.625 2.375 1.625 4 4 C4.48288863 7.31123632 4.29618989 9.296549 3 12.375 C0.2897489 14.57707902 -1.70878117 14.51582761 -5.125 14.30859375 C-7 14 -7 14 -9 13 C-10.63041883 9.73916234 -10.65964122 6.55761554 -10 3 C-7.21052771 -0.43319666 -4.246332 -0.61925675 0 0 Z " fill="#F5C74B" transform="translate(360,498)"/>
<path d="M0 0 C2.6923481 2.18753283 2.93936827 3.58423955 3.4375 7 C3 10 3 10 1.375 12.375 C-1.69477548 14.4753727 -3.34556561 14.53293835 -7 14 C-9.375 13 -9.375 13 -11 11 C-11.65964122 7.44238446 -11.63041883 4.26083766 -10 1 C-6.73916234 -0.63041883 -3.55761554 -0.65964122 0 0 Z " fill="#86D147" transform="translate(175,0)"/>
</svg>
