<?xml version="1.0" standalone="no"?>
<!DOCTYPE svg PUBLIC "-//W3C//DTD SVG 20010904//EN"
 "http://www.w3.org/TR/2001/REC-SVG-20010904/DTD/svg10.dtd">
<svg version="1.0" xmlns="http://www.w3.org/2000/svg"
 width="1080.000000pt" height="730.000000pt" viewBox="0 0 1080.000000 730.000000"
 preserveAspectRatio="xMidYMid meet">

<g transform="translate(0.000000,730.000000) scale(0.100000,-0.100000)"
fill="#000000" stroke="none">
<path d="M0 3650 l0 -3650 5400 0 5400 0 0 3650 0 3650 -5400 0 -5400 0 0
-3650z m5806 945 c638 -482 1159 -880 1159 -885 0 -5 -524 -431 -1165 -945
l-1165 -936 -2 53 c-2 29 -4 174 -5 321 l-3 268 767 607 c422 334 767 609 767
612 0 3 -342 274 -759 603 l-760 599 0 289 c0 159 2 289 4 289 2 0 525 -394
1162 -875z"/>
</g>
</svg>
