<?xml version="1.0" encoding="UTF-8"?>
<svg version="1.1" xmlns="http://www.w3.org/2000/svg" width="512" height="512">
<path d="M0 0 C3.75850727 0.01607865 7.51593943 0.00008787 11.27441406 -0.01904297 C41.98839065 -0.04943308 41.98839065 -0.04943308 55.07910156 7.07861328 C55.74369385 7.42819092 56.40828613 7.77776855 57.09301758 8.13793945 C72.25731026 16.35661393 83.23312025 29.03554861 88.76660156 45.39111328 C91.64524771 55.79594501 93.67137314 66.39211542 88.76660156 76.39111328 C85.7279752 81.10622316 82.27940431 83.2945421 76.94272995 84.96046066 C74.24130216 85.49506926 71.70351576 85.52362248 68.94854736 85.53155518 C67.75980011 85.53726532 66.57105286 85.54297546 65.34628296 85.54885864 C64.04542755 85.5499765 62.74457214 85.55109436 61.40429688 85.55224609 C60.01768868 85.5568765 58.63108176 85.56190146 57.24447632 85.56729126 C53.47983376 85.58039682 49.71520902 85.58685674 45.95054722 85.59130192 C43.59661432 85.59423593 41.24268626 85.59834138 38.8887558 85.60280609 C31.51830101 85.61647684 24.14785731 85.62614528 16.77739072 85.63000798 C8.27972461 85.63448632 -0.21778045 85.65202548 -8.7153976 85.68100858 C-15.29049912 85.70265312 -21.86555543 85.71271376 -28.44069219 85.7140491 C-32.36452382 85.71509525 -36.28820398 85.72096219 -40.21199799 85.73886871 C-43.90564739 85.75539725 -47.59903224 85.7574819 -51.29270554 85.74872971 C-53.28547851 85.74759726 -55.2782429 85.76127805 -57.27096558 85.77548218 C-66.15271253 85.73426325 -73.63708368 84.98742803 -80.23339844 78.39111328 C-86.03901567 68.43862659 -84.70131683 58.26382764 -81.87158203 47.44824219 C-76.81332822 31.14340415 -65.70539729 16.64753786 -50.72167969 8.37939453 C-34.31894654 0.02119163 -18.08087191 -0.09203263 0 0 Z " fill="#020202" transform="translate(252.2333984375,382.60888671875)"/>
<path d="M0 0 C1.25901123 -0.01283524 2.51802246 -0.02567047 3.81518555 -0.03889465 C5.18407797 -0.04706756 6.55297492 -0.05451023 7.921875 -0.0612793 C8.61818024 -0.06535482 9.31448547 -0.06943035 10.03189087 -0.07362938 C13.72324317 -0.09444915 17.41455884 -0.10876402 21.10595703 -0.11816406 C24.88370234 -0.1291726 28.66084955 -0.16351863 32.43838501 -0.20333576 C35.37271066 -0.22972713 38.30689918 -0.23787597 41.24133301 -0.24144554 C42.63175459 -0.2462599 44.02217224 -0.25772299 45.41247559 -0.27648354 C63.01573281 -0.49910709 77.58256793 4.79617623 90.45751953 16.86669922 C101.35408887 27.52124209 108.80724468 41.55876515 109.04296875 56.9855957 C109.04425781 57.75000977 109.04554688 58.51442383 109.046875 59.30200195 C109.07136719 60.07415039 109.09585938 60.84629883 109.12109375 61.6418457 C109.15256021 67.79878317 107.43415542 71.33367663 103.07421875 75.8215332 C98.59695226 79.39140702 95.72895545 80.30034929 90.08796692 80.32417297 C88.34477173 80.33490593 88.34477173 80.33490593 86.56636047 80.34585571 C84.65176277 80.34988907 84.65176277 80.34988907 82.69848633 80.35400391 C81.34158149 80.36027002 79.98467836 80.36691696 78.6277771 80.37391663 C74.16983228 80.3949452 69.71188716 80.40531919 65.25390625 80.4152832 C63.71775482 80.41933148 62.18160357 80.42344842 60.6454525 80.42763329 C53.42663523 80.44668383 46.20782817 80.46091406 38.9889906 80.46924525 C30.66445599 80.47901177 22.3401877 80.50531636 14.01574689 80.54574615 C7.57654658 80.57594303 1.13742244 80.59071758 -5.30184728 80.59402627 C-9.14526744 80.59637307 -12.98840305 80.60528465 -16.83174706 80.63048744 C-20.45075059 80.65383547 -24.0692836 80.65797477 -27.68834305 80.64772606 C-29.64059235 80.64699772 -31.59281811 80.66604246 -33.54496765 80.68579102 C-40.62113041 80.6440172 -45.33585408 80.0423901 -51.328125 76.17700195 C-57.16783145 70.02994254 -57.7289572 65.18659343 -57.56640625 56.88793945 C-56.60912857 41.97951664 -49.58993959 27.28381054 -39.16015625 16.64575195 C-28.03570348 6.94829796 -14.98483168 0.13356865 0 0 Z " fill="#030101" transform="translate(403.328125,347.822998046875)"/>
<path d="M0 0 C1.41234465 -0.00644343 2.82468802 -0.01317288 4.23703003 -0.02017212 C7.19060349 -0.03210033 10.14406043 -0.03585783 13.09765625 -0.03466797 C16.84275394 -0.03446562 20.5870856 -0.06169914 24.33200264 -0.09621239 C27.24922973 -0.11869393 30.16627908 -0.12249902 33.08358383 -0.12144852 C34.46200052 -0.12377533 35.84042439 -0.1324295 37.21875381 -0.14811325 C55.65023151 -0.33813068 70.80438775 5.22988437 84.2421875 17.95703125 C95.85319351 30.23325115 102.28921221 46.44034056 101.84375 63.34765625 C101.17269932 69.05158707 99.12822607 72.74184864 95.0546875 76.7109375 C90.56123509 79.56044391 86.97311694 80.5858513 81.65431213 80.59663391 C79.90265747 80.60726112 79.90265747 80.60726112 78.11561584 80.61810303 C76.84326584 80.61562561 75.57091583 80.61314819 74.26000977 80.6105957 C72.89956381 80.61494536 71.5391203 80.62012936 70.17868042 80.62608337 C66.49064705 80.63945714 62.80271625 80.64005388 59.11466336 80.63752007 C56.03316263 80.6364493 52.95168257 80.64133644 49.87018627 80.6461255 C42.59923276 80.65721498 35.32833092 80.65766118 28.05737305 80.65161133 C20.5620636 80.64557061 13.06694182 80.65788623 5.57166439 80.6791814 C-0.86925337 80.69680657 -7.31011145 80.70279733 -13.75105244 80.69954365 C-17.59542862 80.69773217 -21.4396709 80.70035346 -25.28402519 80.71425819 C-28.89972658 80.72684698 -32.5151357 80.72488273 -36.13083267 80.71184731 C-38.08580031 80.70835977 -40.04077692 80.71965166 -41.99571228 80.73141479 C-48.91255977 80.68996822 -54.10085313 80.54290764 -59.37109375 75.58203125 C-60.08845703 74.68677734 -60.08845703 74.68677734 -60.8203125 73.7734375 C-61.55701172 72.87431641 -61.55701172 72.87431641 -62.30859375 71.95703125 C-66.43545052 66.37838122 -65.02777125 57.01464468 -64.5078125 50.3359375 C-61.48187918 33.97860653 -51.80714252 20.16116225 -38.5078125 10.3984375 C-26.02582935 2.27524211 -14.67068619 0.01584446 0 0 Z " fill="#020202" transform="translate(64.5078125,347.6640625)"/>
<path d="M0 0 C1.11724457 -0.00570007 2.23448914 -0.01140015 3.3855896 -0.01727295 C5.7474473 -0.02670185 8.10931804 -0.03324853 10.47119141 -0.03710938 C14.05264777 -0.04678506 17.63352261 -0.07781717 21.21484375 -0.109375 C23.51822579 -0.11590896 25.8216119 -0.12115789 28.125 -0.125 C29.71001816 -0.1435202 29.71001816 -0.1435202 31.32705688 -0.16241455 C47.89994767 -0.11369143 62.03794777 5.63748478 73.76171875 17.28125 C83.80181229 28.14954229 88.92045002 41.87608589 88.7421875 56.671875 C88.13904957 62.10011637 85.80398109 65.92559573 81.8984375 69.640625 C78.31145441 71.93997313 75.606546 72.33056696 71.4397583 72.35029602 C69.88371384 72.36102898 69.88371384 72.36102898 68.29623413 72.37197876 C66.58967148 72.37601212 66.58967148 72.37601212 64.84863281 72.38012695 C63.64999603 72.38669815 62.45135925 72.39326935 61.21640015 72.40003967 C57.2406184 72.41978762 53.264877 72.43144059 49.2890625 72.44140625 C47.91881032 72.44545477 46.54855835 72.44957172 45.17830658 72.45375633 C38.73957225 72.47280387 32.30084934 72.48703528 25.86209226 72.4953683 C18.43745122 72.50513667 11.01310864 72.53144719 3.58857274 72.57186919 C-2.15507657 72.60206321 -7.89864049 72.61684031 -13.6423676 72.62014931 C-17.07049767 72.62249627 -20.49830875 72.6314096 -23.92635345 72.65661049 C-27.75420455 72.68092583 -31.5812752 72.68005018 -35.40917969 72.6730957 C-36.5387912 72.68590576 -37.66840271 72.69871582 -38.83224487 72.71191406 C-45.29318228 72.66913153 -49.313467 72.11200395 -54.5390625 68.203125 C-59.42877382 61.89797093 -60.09421508 56.93413872 -59.5390625 49.203125 C-57.14135158 32.94745777 -49.64007249 20.11012153 -36.76953125 10.03515625 C-25.1127573 2.21394455 -13.78202502 0.05480034 0 0 Z " fill="#040301" transform="translate(241.5390625,130.796875)"/>
<path d="M0 0 C1.2684375 0.61875 1.2684375 0.61875 2.5625 1.25 C14.08433578 7.43244847 20.43988402 16.98083718 25 29 C28.59805785 41.49718021 26.40184562 55.65320919 20.45703125 66.92578125 C13.62033316 78.48715399 4.30661061 84.79948719 -8.328125 89.14453125 C-22.22432715 92.38205069 -35.62699765 89.96553459 -47.8125 82.75 C-57.67971538 76.02557058 -64.36657853 66.17891993 -67.67578125 54.64453125 C-69.03757733 43.53686922 -69.24091389 32.10513709 -64 22 C-63.5875 21.15308594 -63.175 20.30617188 -62.75 19.43359375 C-56.56020555 7.91565237 -47.02096613 1.56080016 -35 -3 C-24.09726676 -6.1651295 -9.98024337 -5.25275967 0 0 Z " fill="#020203" transform="translate(277,283)"/>
<path d="M0 0 C9.81826494 7.0205873 16.78167073 16.5007162 19.375 28.375 C20.63593325 42.79138024 18.82656904 54.39964973 10.375 66.375 C9.818125 67.220625 9.26125 68.06625 8.6875 68.9375 C-0.49618978 78.61760545 -12.18388049 83.22052392 -25.3125 83.625 C-38.35079618 83.49574799 -48.83233947 78.7563509 -58.2265625 69.92578125 C-67.74815989 59.79939185 -71.31865241 48.67927412 -70.97265625 34.9296875 C-69.69880535 21.90491987 -64.11005495 10.50837913 -54.0546875 2.12890625 C-37.8906713 -9.53933052 -16.93059998 -10.20474519 0 0 Z " fill="#020101" transform="translate(454.625,255.625)"/>
<path d="M0 0 C10.67099785 7.0994207 17.68540693 17.3023384 20.69140625 29.75 C22.80376508 42.83872808 20.48411814 54.95696328 12.99609375 65.8671875 C4.99491242 76.35320776 -4.89908383 82.13521858 -17.890625 84.33984375 C-30.73628883 85.30932781 -41.31094933 82.67326035 -51.890625 75.33984375 C-52.798125 74.72109375 -53.705625 74.10234375 -54.640625 73.46484375 C-63.45940895 65.13599225 -68.87418238 54.00492048 -69.23413086 41.89208984 C-69.42371388 26.90474408 -65.45987192 16.32754646 -55.05078125 5.41015625 C-40.52839461 -8.42917335 -17.04668387 -9.7903252 0 0 Z " fill="#020201" transform="translate(106.890625,254.66015625)"/>
<path d="M0 0 C1.21686493 -0.0066568 2.43372986 -0.0133136 3.68746948 -0.02017212 C6.25419615 -0.03025995 8.82094884 -0.03499034 11.38769531 -0.03466797 C15.27193546 -0.03902576 19.15502405 -0.07534734 23.0390625 -0.11328125 C40.04588495 -0.19116716 54.88875507 0.07023934 69.1796875 10.3359375 C70.2109375 11.0578125 71.2421875 11.7796875 72.3046875 12.5234375 C81.67046871 20.79831805 88.24430983 33.27652497 89.40234375 45.73046875 C89.62591357 51.7474131 89.62591357 51.7474131 87.96240234 53.94140625 C85.61539406 55.77735685 84.24814519 55.68263673 81.29296875 55.62890625 C80.35517578 55.61923828 79.41738281 55.60957031 78.45117188 55.59960938 C77.47470703 55.57447266 76.49824219 55.54933594 75.4921875 55.5234375 C74.50412109 55.50990234 73.51605469 55.49636719 72.49804688 55.48242188 C70.05804519 55.44705953 67.61914031 55.39770783 65.1796875 55.3359375 C65.16510498 54.78131836 65.15052246 54.22669922 65.13549805 53.65527344 C65.06081853 51.13147508 64.96422725 48.60897096 64.8671875 46.0859375 C64.84462891 45.21324219 64.82207031 44.34054687 64.79882812 43.44140625 C64.59437977 38.41392404 64.59437977 38.41392404 62.85546875 33.7578125 C61.09297991 32.00650313 61.09297991 32.00650313 57.6796875 31.8359375 C53.70828298 31.98238411 53.70828298 31.98238411 51.1796875 36.3359375 C50.8496875 42.6059375 50.5196875 48.8759375 50.1796875 55.3359375 C27.7396875 55.3359375 5.2996875 55.3359375 -17.8203125 55.3359375 C-18.1503125 49.0659375 -18.4803125 42.7959375 -18.8203125 36.3359375 C-21.34890798 31.98238411 -21.34890798 31.98238411 -25.3203125 31.8359375 C-28.73360491 32.00650313 -28.73360491 32.00650313 -30.49609375 33.7578125 C-32.53669167 37.73065802 -32.39387936 41.67835274 -32.5078125 46.0859375 C-32.54197266 46.97410156 -32.57613281 47.86226563 -32.61132812 48.77734375 C-32.69359964 50.96341553 -32.76281422 53.14909701 -32.8203125 55.3359375 C-36.25765313 55.42297573 -39.69471087 55.47634022 -43.1328125 55.5234375 C-44.10927734 55.54857422 -45.08574219 55.57371094 -46.09179688 55.59960938 C-47.49848633 55.61411133 -47.49848633 55.61411133 -48.93359375 55.62890625 C-49.79766846 55.6446167 -50.66174316 55.66032715 -51.55200195 55.67651367 C-53.8203125 55.3359375 -53.8203125 55.3359375 -55.59838867 54.05981445 C-57.89768849 50.81598708 -57.29956042 47.08914873 -56.8203125 43.3359375 C-53.17954233 26.85990979 -44.86105502 15.38699466 -30.8203125 6.3359375 C-20.97950925 0.88663277 -11.05836938 0.02134056 0 0 Z " fill="#BFD3DC" transform="translate(239.8203125,397.6640625)"/>
<path d="M0 0 C1.76444962 -0.00218285 1.76444962 -0.00218285 3.56454468 -0.00440979 C6.03003438 -0.00276284 8.49553567 0.0086615 10.9609375 0.02954102 C14.70878219 0.05857705 18.45521515 0.05010592 22.203125 0.03710938 C24.61459012 0.04334611 27.02605084 0.05173654 29.4375 0.0625 C30.54300201 0.05956436 31.64850403 0.05662872 32.7875061 0.05360413 C46.4250348 0.21704788 59.30118262 4.34429916 69.46875 13.7578125 C78.50132157 23.46673604 83.81382026 34.87676947 83.359375 48.23046875 C83.0859375 50.49609375 83.0859375 50.49609375 82.0859375 51.49609375 C80.52421005 51.58294978 78.95864406 51.60311594 77.39453125 51.59375 C76.45029297 51.59052734 75.50605469 51.58730469 74.53320312 51.58398438 C73.53998047 51.57560547 72.54675781 51.56722656 71.5234375 51.55859375 C70.52634766 51.55408203 69.52925781 51.54957031 68.50195312 51.54492188 C66.02988901 51.53309382 63.55794232 51.51661224 61.0859375 51.49609375 C61.0562085 50.64845459 61.0562085 50.64845459 61.02587891 49.78369141 C60.93075514 47.22901378 60.82102692 44.67516834 60.7109375 42.12109375 C60.68 41.23164063 60.6490625 40.3421875 60.6171875 39.42578125 C60.57851562 38.575 60.53984375 37.72421875 60.5 36.84765625 C60.4685791 36.06213379 60.4371582 35.27661133 60.40478516 34.46728516 C60.245991 32.26606436 60.245991 32.26606436 58.0859375 30.49609375 C56.17587444 30.17846915 56.17587444 30.17846915 54.0859375 30.24609375 C53.3846875 30.2409375 52.6834375 30.23578125 51.9609375 30.23046875 C49.8423706 30.3390386 49.8423706 30.3390386 48.0859375 32.49609375 C47.7559375 38.76609375 47.4259375 45.03609375 47.0859375 51.49609375 C25.9659375 51.49609375 4.8459375 51.49609375 -16.9140625 51.49609375 C-17.4090625 42.58609375 -17.4090625 42.58609375 -17.9140625 33.49609375 C-18.2440625 32.50609375 -18.5740625 31.51609375 -18.9140625 30.49609375 C-20.35062104 30.41477912 -21.7885108 30.35675816 -23.2265625 30.30859375 C-24.02707031 30.27378906 -24.82757813 30.23898437 -25.65234375 30.203125 C-28.49026149 30.57073093 -29.15301555 31.28489154 -30.9140625 33.49609375 C-31.4135086 35.51402201 -31.4135086 35.51402201 -31.42578125 37.7265625 C-31.47895508 38.93022461 -31.47895508 38.93022461 -31.53320312 40.15820312 C-31.55576172 40.99158203 -31.57832031 41.82496094 -31.6015625 42.68359375 C-31.63572266 43.52857422 -31.66988281 44.37355469 -31.70507812 45.24414062 C-31.78747721 47.32766024 -31.85244895 49.41185591 -31.9140625 51.49609375 C-35.22654437 51.52497521 -38.53899417 51.54285174 -41.8515625 51.55859375 C-42.79708984 51.56697266 -43.74261719 51.57535156 -44.71679688 51.58398438 C-46.06547852 51.58881836 -46.06547852 51.58881836 -47.44140625 51.59375 C-48.69038696 51.60160522 -48.69038696 51.60160522 -49.96459961 51.60961914 C-51.9140625 51.49609375 -51.9140625 51.49609375 -52.9140625 50.49609375 C-54.10890191 36.54864136 -50.01931448 26.223015 -41.25390625 15.45703125 C-30.37424712 3.78004486 -15.5121076 -0.15821156 0 0 Z " fill="#B3B480" transform="translate(67.9140625,361.50390625)"/>
<path d="M0 0 C1.17625946 -0.0066568 2.35251892 -0.0133136 3.56442261 -0.02017212 C6.04716436 -0.03026599 8.52993306 -0.03499015 11.01269531 -0.03466797 C14.77195085 -0.03902456 18.53001554 -0.07533597 22.2890625 -0.11328125 C41.30705718 -0.20382694 56.72982463 1.1599258 71.4296875 14.5234375 C80.71431562 24.45687096 83.9301992 34.70416834 83.84765625 47.89453125 C83.6796875 50.3359375 83.6796875 50.3359375 82.6796875 51.3359375 C81.1909689 51.42263182 79.6982425 51.44297244 78.20703125 51.43359375 C77.30791016 51.43037109 76.40878906 51.42714844 75.48242188 51.42382812 C74.06413086 51.41125977 74.06413086 51.41125977 72.6171875 51.3984375 C71.1930957 51.39166992 71.1930957 51.39166992 69.74023438 51.38476562 C67.38665685 51.3729386 65.03320273 51.35645775 62.6796875 51.3359375 C62.62361328 49.56476563 62.62361328 49.56476563 62.56640625 47.7578125 C62.50073601 46.20048962 62.43428903 44.64319936 62.3671875 43.0859375 C62.34462891 42.30863281 62.32207031 41.53132813 62.29882812 40.73046875 C62.13969024 37.34517186 61.94367114 34.87050438 60.4296875 31.8046875 C58.15422042 29.89492049 56.92440264 29.91595401 53.9921875 30.0859375 C52.77982422 30.14007813 52.77982422 30.14007813 51.54296875 30.1953125 C50.92808594 30.24171875 50.31320312 30.288125 49.6796875 30.3359375 C47.45607682 37.00676953 48.06973462 44.31508942 47.6796875 51.3359375 C26.5596875 51.3359375 5.4396875 51.3359375 -16.3203125 51.3359375 C-16.6503125 45.0659375 -16.9803125 38.7959375 -17.3203125 32.3359375 C-19.0767456 30.17888235 -19.0767456 30.17888235 -21.1953125 30.0703125 C-22.2471875 30.07804687 -22.2471875 30.07804687 -23.3203125 30.0859375 C-24.0215625 30.08078125 -24.7228125 30.075625 -25.4453125 30.0703125 C-27.5638794 30.17888235 -27.5638794 30.17888235 -29.3203125 32.3359375 C-29.68925832 34.36654409 -29.68925832 34.36654409 -29.734375 36.6875 C-29.77304687 37.53828125 -29.81171875 38.3890625 -29.8515625 39.265625 C-29.89796875 40.59980469 -29.89796875 40.59980469 -29.9453125 41.9609375 C-29.98398437 42.858125 -30.02265625 43.7553125 -30.0625 44.6796875 C-30.15690607 46.8982302 -30.24247998 49.11676153 -30.3203125 51.3359375 C-33.79946191 51.36481564 -37.27858081 51.38269437 -40.7578125 51.3984375 C-42.24764648 51.41100586 -42.24764648 51.41100586 -43.76757812 51.42382812 C-44.71181641 51.42705078 -45.65605469 51.43027344 -46.62890625 51.43359375 C-47.50345459 51.43883057 -48.37800293 51.44406738 -49.27905273 51.44946289 C-51.3203125 51.3359375 -51.3203125 51.3359375 -52.3203125 50.3359375 C-53.60447105 37.74697333 -49.69318692 28.30147105 -42.3203125 18.3359375 C-41.4540625 17.0365625 -41.4540625 17.0365625 -40.5703125 15.7109375 C-29.34987482 3.86714217 -15.77671003 0.03141157 0 0 Z " fill="#EA2123" transform="translate(413.3203125,361.6640625)"/>
<path d="M0 0 C8.14500139 7.87000938 12.77627166 16.85899262 13.00561523 28.26977539 C12.97453111 40.96155824 10.63409975 50.37524501 1.625 59.8125 C-7.55318235 68.57428088 -17.20759594 71.45776697 -29.66723633 71.35571289 C-40.9563196 70.8985448 -50.5368723 65.93833831 -58.27734375 57.81640625 C-66.89410885 47.59652206 -68.49948673 36.85676875 -67.60253906 23.88769531 C-66.40566958 12.9720402 -59.92783609 4.30679342 -51.71484375 -2.58203125 C-35.65707436 -13.59996651 -14.81181179 -12.5092282 0 0 Z " fill="#020201" transform="translate(283.375,54.1875)"/>
<path d="M0 0 C1.99301736 1.58066894 2.86543351 2.73086702 4 5 C4.07194869 7.88370333 4.09291708 10.74239664 4.0625 13.625 C4.05798828 14.42679688 4.05347656 15.22859375 4.04882812 16.0546875 C4.03703168 18.03649006 4.01909605 20.01825433 4 22 C5.27912262 21.95114655 6.55824524 21.90229309 7.87612915 21.85195923 C20.02323124 21.40294626 32.16862025 21.07480289 44.32218361 20.86013222 C50.56909593 20.74603355 56.8092342 20.59179068 63.05224609 20.34033203 C108.487121 18.55720665 108.487121 18.55720665 119.96195793 28.16338921 C125.70853064 33.52687245 131.57426609 40.10478291 133.10791016 48.02587891 C133 51 133 51 130.9375 53.9375 C128 56 128 56 125.1875 56.75 C119.38300538 55.38423656 115.42740288 50.9492036 111.97172546 46.23027039 C107.99554462 41.24218089 104.67929656 37.95903991 98.19058228 36.99429321 C92.21961885 36.49099507 86.25492436 36.60473142 80.26953125 36.70703125 C78.06563906 36.70510713 75.86174626 36.69833213 73.65788269 36.68693542 C67.88835024 36.67001283 62.12119517 36.71851985 56.35205078 36.78112793 C50.45281473 36.83341458 44.55371377 36.82317727 38.65429688 36.81835938 C27.10215236 36.81806077 15.5515529 36.88695351 4 37 C4.03480469 38.31355469 4.06960938 39.62710938 4.10546875 40.98046875 C4.13361466 42.71613301 4.16091396 44.45181115 4.1875 46.1875 C4.21263672 47.05181641 4.23777344 47.91613281 4.26367188 48.80664062 C4.3197835 53.68835222 4.25490183 57.067322 1 61 C-1.80915474 62.40457737 -3.88810534 62.24895157 -7 62 C-10.1359157 60.22015595 -10.84102736 59.47691793 -12 56 C-12.0806622 54.51876453 -12.10761193 53.03417796 -12.09765625 51.55078125 C-12.09443359 50.70322266 -12.09121094 49.85566406 -12.08789062 48.98242188 C-12.07951172 48.10134766 -12.07113281 47.22027344 -12.0625 46.3125 C-12.05798828 45.41982422 -12.05347656 44.52714844 -12.04882812 43.60742188 C-12.03704983 41.40488013 -12.02060164 39.20247401 -12 37 C-24.61428453 36.73542302 -37.22614389 36.56486643 -49.84318447 36.51034451 C-55.7039289 36.48214856 -61.56078384 36.42305394 -67.42016602 36.2902832 C-73.08830636 36.16303351 -78.75158011 36.12094928 -84.42106819 36.13490486 C-86.57044738 36.12580599 -88.71993289 36.08734726 -90.86819267 36.01739311 C-100.37986865 35.7242478 -108.57735014 35.50003016 -116.1567688 41.87600708 C-119.92616554 45.46179332 -123.34307175 49.28696417 -126.58241367 53.35574436 C-128.58501445 55.67855713 -129.75649714 55.96753295 -132.8125 56.375 C-136 56 -136 56 -138.9375 53.9375 C-141 51 -141 51 -141.10791016 48.02587891 C-139.32407971 38.81259892 -131.75873305 30.87360577 -124.45916939 25.38578987 C-109.15981652 15.52440084 -84.62405 19.79368122 -67.35180664 20.48937988 C-61.10468018 20.71671554 -54.85556151 20.81538469 -48.60546875 20.92578125 C-36.39844141 21.15992569 -24.20022824 21.5340374 -12 22 C-12.03480469 20.83082031 -12.06960937 19.66164062 -12.10546875 18.45703125 C-12.13361716 16.90886859 -12.16091619 15.36069032 -12.1875 13.8125 C-12.21263672 13.04357422 -12.23777344 12.27464844 -12.26367188 11.48242188 C-12.32340012 6.84352802 -12.10041764 3.72194658 -9 0 C-5.45026831 -1.1832439 -3.60040463 -0.90010116 0 0 Z " fill="#000000" transform="translate(260,208)"/>
<path d="M0 0 C1.57281235 -0.01925285 1.57281235 -0.01925285 3.17739868 -0.03889465 C4.30656708 -0.04628159 5.43573547 -0.05366852 6.59912109 -0.0612793 C8.35293594 -0.07338692 8.35293594 -0.07338692 10.1421814 -0.08573914 C12.61853559 -0.09956873 15.09490875 -0.11029591 17.57128906 -0.11816406 C21.33745027 -0.13533795 25.10272466 -0.17923165 28.86865234 -0.22338867 C31.27880216 -0.23351956 33.68895942 -0.24203442 36.09912109 -0.2487793 C37.2161441 -0.26628738 38.33316711 -0.28379547 39.48403931 -0.30183411 C51.26657289 -0.26954177 61.00513049 4.00435651 69.68896484 11.9543457 C77.99755902 20.7295132 80.74755859 30.34222959 80.74755859 42.17700195 C75.13755859 42.17700195 69.52755859 42.17700195 63.74755859 42.17700195 C63.58479818 38.66137695 63.42203776 35.14575195 63.25927734 31.63012695 C62.7393825 28.12182892 62.3100345 26.58417629 59.74755859 24.17700195 C56.24755859 23.59366862 56.24755859 23.59366862 52.74755859 24.17700195 C48.02290367 28.24315227 48.02290367 28.24315227 48.74755859 42.17700195 C30.92755859 42.17700195 13.10755859 42.17700195 -5.25244141 42.17700195 C-5.58244141 37.22700195 -5.91244141 32.27700195 -6.25244141 27.17700195 C-6.58244141 26.18700195 -6.91244141 25.19700195 -7.25244141 24.17700195 C-8.68827142 24.06863742 -10.12646161 23.99124029 -11.56494141 23.92700195 C-12.76570313 23.85739258 -12.76570313 23.85739258 -13.99072266 23.78637695 C-16.35239728 23.98877449 -16.35239728 23.98877449 -18.00244141 25.73950195 C-19.67936842 29.00950964 -19.7705844 31.76889071 -19.93994141 35.42700195 C-20.04306641 37.65450195 -20.14619141 39.88200195 -20.25244141 42.17700195 C-25.86244141 42.17700195 -31.47244141 42.17700195 -37.25244141 42.17700195 C-37.25244141 30.36019592 -34.32122141 20.81545671 -26.21337891 11.9465332 C-18.77844811 4.94508777 -10.3335974 0.11054062 0 0 Z " fill="#FAAF3B" transform="translate(234.25244140625,145.822998046875)"/>
<path d="M0 0 C2.14453125 1.265625 2.14453125 1.265625 4.1875 2.75 C5.43853516 3.65298828 5.43853516 3.65298828 6.71484375 4.57421875 C9.40793033 6.94396476 11.06227938 9.26319214 12.9375 12.3125 C13.53046875 13.26253906 14.1234375 14.21257812 14.734375 15.19140625 C18.89679297 22.52039489 18.50592771 33.81513741 16.3515625 41.87890625 C12.28441577 50.60006987 5.21445967 57.39333642 -3.8125 60.75 C-11.31733887 63.15477633 -21.31692303 62.87151152 -28.65234375 59.9921875 C-36.92242825 55.23651504 -43.84539863 47.8747678 -46.8125 38.75 C-48.06009015 28.71591952 -47.78860858 19.21036303 -41.8125 10.75 C-41.235 9.8425 -40.6575 8.935 -40.0625 8 C-29.76127904 -2.30122096 -13.58731271 -6.6705085 0 0 Z " fill="#BFD4DD" transform="translate(270.8125,296.25)"/>
<path d="M0 0 C6.20989458 6.29715305 9.79750069 13.48106914 9.98046875 22.25390625 C9.88177164 31.83739554 7.31360236 38.90283915 0.73828125 45.93359375 C-7.53345469 52.95676578 -16.79781234 54.54984085 -27.33203125 53.69140625 C-35.45820714 51.64444844 -41.66729564 46.1275127 -46.70703125 39.62890625 C-51.34228101 31.24980091 -52.01528095 20.93413816 -49.52734375 11.70703125 C-46.17196614 4.2557789 -40.04344452 -1.85750432 -32.58203125 -5.24609375 C-20.81959755 -9.09150477 -10.019914 -7.59228638 0 0 Z " fill="#B3B480" transform="translate(103.33203125,270.30859375)"/>
<path d="M0 0 C6.23747104 4.25063181 11.43839822 10.62378842 13.8359375 17.81640625 C14.55148083 28.15072876 14.65655545 37.40782003 8.17578125 46.0234375 C2.4913229 52.3148606 -4.15861442 56.06184503 -12.55859375 57.328125 C-22.26370486 57.80963547 -29.88641942 55.28283837 -37.32421875 48.98828125 C-43.70950936 42.31829615 -46.3494534 34.966264 -46.7265625 25.81640625 C-46.47844053 17.67268881 -43.96513366 12.03763808 -38.6640625 5.94140625 C-37.8390625 5.24015625 -37.0140625 4.53890625 -36.1640625 3.81640625 C-35.4421875 3.13578125 -34.7203125 2.45515625 -33.9765625 1.75390625 C-23.19877395 -5.67079253 -11.52067772 -6.30102049 0 0 Z " fill="#EA2123" transform="translate(445.1640625,267.18359375)"/>
<path d="M0 0 C4.43625308 3.46198002 7.57489504 7.18157205 9.01953125 12.6796875 C10.10317321 21.82930594 9.8472056 30.20293504 4.01953125 37.6796875 C1.53472639 40.03656181 -1.03165754 41.94440297 -3.98046875 43.6796875 C-4.56441406 44.0509375 -5.14835937 44.4221875 -5.75 44.8046875 C-12.00659243 47.25911255 -20.73400123 46.76874484 -27.04296875 44.65234375 C-33.92663533 40.86422845 -38.50045488 35.1197291 -40.98046875 27.6796875 C-42.1814831 11.08206291 -42.1814831 11.08206291 -36.98046875 4.6796875 C-26.61501216 -6.85568518 -12.8175346 -8.54502307 0 0 Z " fill="#F9AF3B" transform="translate(271.98046875,64.3203125)"/>
</svg>
