<?xml version="1.0" encoding="UTF-8"?>
<svg version="1.1" xmlns="http://www.w3.org/2000/svg" width="24" height="24">
<path d="M0 0 C4.34586828 -0.39507893 6.32003497 -0.45331002 10 2 C10.39507893 6.34586828 10.45331002 8.32003497 8 12 C3.65413172 12.39507893 1.67996503 12.45331002 -2 10 C-2.39507893 5.65413172 -2.45331002 3.67996503 0 0 Z M4 2 C2.68 3.32 1.36 4.64 0 6 C1.32 7.32 2.64 8.64 4 10 C5.32 8.68 6.64 7.36 8 6 C6.68 4.68 5.36 3.36 4 2 Z " fill="#FFFFFF" transform="translate(8,2)"/>
<path d="M0 0 C0.85464844 -0.01675781 1.70929687 -0.03351562 2.58984375 -0.05078125 C5.5873065 0.38960427 6.95470314 1.14601738 9.0625 3.3125 C9.0625 4.6325 9.0625 5.9525 9.0625 7.3125 C8.0725 6.9825 7.0825 6.6525 6.0625 6.3125 C6.0625 5.6525 6.0625 4.9925 6.0625 4.3125 C1.7460078 3.55076608 -1.68183453 3.15186396 -5.9375 4.3125 C-6.2675 5.3025 -6.5975 6.2925 -6.9375 7.3125 C-7.5975 7.3125 -8.2575 7.3125 -8.9375 7.3125 C-8.625 4.9375 -8.625 4.9375 -7.9375 2.3125 C-4.73125113 0.17500075 -3.71291897 0.01675001 0 0 Z " fill="#FFFFFF" transform="translate(11.9375,14.6875)"/>
</svg>
