<?xml version="1.0" standalone="no"?>
<!DOCTYPE svg PUBLIC "-//W3C//DTD SVG 20010904//EN"
 "http://www.w3.org/TR/2001/REC-SVG-20010904/DTD/svg10.dtd">
<svg version="1.0" xmlns="http://www.w3.org/2000/svg"
 width="1372.000000pt" height="592.000000pt" viewBox="0 0 1372.000000 592.000000"
 preserveAspectRatio="xMidYMid meet">

<g transform="translate(0.000000,592.000000) scale(0.100000,-0.100000)"
fill="#000000" stroke="none">
<path d="M0 2960 l0 -2960 6860 0 c6377 0 6860 1 6860 17 0 15 -19 16 -222 10
-460 -14 -7898 -19 -10403 -8 l-2520 11 -30 36 c-129 157 -240 350 -272 474
-21 82 -21 216 1 300 24 96 106 256 189 367 41 54 81 104 90 112 14 11 196 11
1134 2 3996 -41 5165 -40 10048 4 897 8 1710 15 1808 15 l177 0 0 2290 0 2290
-6860 0 -6860 0 0 -2960z"/>
</g>
</svg>
