<?xml version="1.0" standalone="no"?>
<!DOCTYPE svg PUBLIC "-//W3C//DTD SVG 20010904//EN"
 "http://www.w3.org/TR/2001/REC-SVG-20010904/DTD/svg10.dtd">
<svg version="1.0" xmlns="http://www.w3.org/2000/svg"
 width="1372.000000pt" height="592.000000pt" viewBox="0 0 1372.000000 592.000000"
 preserveAspectRatio="xMidYMid meet">

<g transform="translate(0.000000,592.000000) scale(0.100000,-0.100000)"
fill="#000000" stroke="none">
<path d="M0 3630 l0 -2290 178 0 c97 0 911 -7 1807 -15 4883 -44 6052 -45
10048 -4 938 9 1120 9 1134 -2 9 -8 49 -58 90 -112 83 -111 165 -271 189 -367
22 -84 22 -218 1 -300 -32 -124 -143 -317 -272 -474 l-30 -36 -2520 -11
c-2505 -11 -9943 -6 -10402 8 -204 6 -223 5 -223 -10 0 -16 483 -17 6860 -17
l6860 0 0 2960 0 2960 -6860 0 -6860 0 0 -2290z"/>
</g>
</svg>
