<?xml version="1.0" standalone="no"?>
<!DOCTYPE svg PUBLIC "-//W3C//DTD SVG 20010904//EN"
 "http://www.w3.org/TR/2001/REC-SVG-20010904/DTD/svg10.dtd">
<svg version="1.0" xmlns="http://www.w3.org/2000/svg"
 width="1372.000000pt" height="592.000000pt" viewBox="0 0 1372.000000 592.000000"
 preserveAspectRatio="xMidYMid meet">

<g transform="translate(0.000000,592.000000) scale(0.100000,-0.100000)"
fill="#000000" stroke="none">
<path d="M0 5910 c0 -7 1368 -10 4085 -10 l4086 0 47 -43 c334 -308 1325
-1205 2347 -2127 1778 -1603 2551 -2315 2598 -2397 7 -11 47 -66 89 -122 87
-114 170 -272 194 -371 22 -84 22 -218 1 -300 -32 -124 -143 -317 -272 -474
l-30 -36 -2520 -11 c-2505 -11 -9943 -6 -10402 8 -204 6 -223 5 -223 -10 0
-16 483 -17 6860 -17 l6860 0 0 2960 0 2960 -6860 0 c-4567 0 -6860 -3 -6860
-10z"/>
</g>
</svg>
