<?xml version="1.0" encoding="UTF-8"?>
<svg version="1.1" xmlns="http://www.w3.org/2000/svg" width="203" height="257">
<path d="M0 0 C14.13851383 10.96156254 22.78963025 26.6096882 25.12060547 44.3125 C26.49112924 63.3100679 21.23407969 80.70229331 8.81982422 95.2265625 C-3.33638332 108.17894338 -19.0960749 114.89440629 -36.69580078 115.95703125 C-55.36612912 116.49238117 -71.83508989 108.98195224 -85.43798828 96.58203125 C-97.6653611 83.44216792 -103.22621534 66.12930774 -102.86376953 48.46484375 C-101.66960703 30.25875972 -93.96421285 15.0498546 -80.62548828 2.83203125 C-57.74493878 -16.24682695 -24.24580468 -17.4214373 0 0 Z " fill="#505050" transform="translate(106.62548828125,13.16796875)"/>
<path d="M0 0 C8.20538492 7.54702722 13.42577459 17.08220158 14.1640625 28.4140625 C14.2581447 41.28450735 11.32316937 51.6102523 2.30859375 61.1484375 C-7.17762673 70.12722271 -17.69777499 73.38715339 -30.55859375 73.1484375 C-43.93978254 71.93472423 -52.74221109 66.09621928 -61.24609375 56.125 C-67.81363748 47.5725986 -69.97220439 37.48721704 -69.00390625 26.8359375 C-67.3137098 15.37333251 -62.27144781 5.64952581 -53.1640625 -1.66796875 C-36.69570659 -13.07371977 -15.59652942 -13.1778163 0 0 Z " fill="#505050" transform="translate(186.00390625,135.1640625)"/>
<path d="M0 0 C5.68995288 4.99767528 9.49972121 9.84390082 10.2421875 17.49609375 C10.60186063 25.12327981 9.3576534 31.18178352 4.234375 37.0078125 C-1.31013164 42.22488764 -6.85934928 45.04735632 -14.5 45.375 C-21.64003883 45.08056541 -27.2359719 42.57781835 -32.4609375 37.72265625 C-37.49041553 32.09321511 -39.27122099 25.46987818 -39 18 C-37.92557381 11.08854691 -35.40078341 5.54294086 -30 1 C-20.3017812 -5.12912479 -10.03912298 -5.9567581 0 0 Z " fill="#505050" transform="translate(88,210)"/>
</svg>
