<?xml version="1.0" encoding="UTF-8"?>
<svg version="1.1" xmlns="http://www.w3.org/2000/svg" width="512" height="512">
<path d="M0 0 C12.6143568 12.90954456 21.83715482 28.43442425 27.50390625 45.5625 C27.71563477 46.19478516 27.92736328 46.82707031 28.14550781 47.47851562 C37.08997849 75.68690968 32.00933943 107.42575283 18.69140625 133.25 C4.37019531 158.38670878 -18.13465154 176.48977047 -45.49609375 185.5625 C-46.12306152 185.77422852 -46.7500293 185.98595703 -47.39599609 186.20410156 C-67.3104274 192.58116635 -93.72460576 192.28420036 -113.49609375 185.5625 C-114.48947754 185.22508789 -114.48947754 185.22508789 -115.50292969 184.88085938 C-144.19966509 174.79183763 -166.93167017 154.66153524 -180.49609375 127.5625 C-192.92377819 101.12123171 -195.10340568 70.3036132 -185.49609375 42.5625 C-174.97671165 13.98958377 -154.50962194 -9.25779705 -126.87109375 -22.3125 C-83.38410598 -42.03518111 -34.55508727 -31.94820268 0 0 Z M-148.11621094 20.93701172 C-165.30399234 41.18404791 -170.27358296 65.61115748 -168.49609375 91.5625 C-165.98452672 114.39694096 -152.76150401 134.90583152 -135.49609375 149.5625 C-114.96230292 165.61652346 -90.7415061 171.16830245 -65.02636719 168.28564453 C-42.67180106 164.8758719 -22.04458541 151.61256394 -8.20996094 133.91748047 C7.33444442 112.65109376 12.82325184 87.82114511 8.8828125 61.76953125 C4.57935528 39.10568487 -9.56413628 17.95514323 -28.51489258 4.88012695 C-68.04036029 -20.92207161 -116.64720025 -13.95625403 -148.11621094 20.93701172 Z " fill="#FFFFFF" transform="translate(232.49609375,52.4375)"/>
<path d="M0 0 C16.5166312 14.46957844 28.84153358 34.90245858 30.54003906 57.14941406 C31.87500086 83.39371893 27.16383451 106.50939882 9.4609375 126.671875 C8.74808594 127.4453125 8.03523437 128.21875 7.30078125 129.015625 C6.70136719 129.7065625 6.10195313 130.3975 5.484375 131.109375 C-8.9398632 146.81092155 -30.74530872 155.85869802 -51.76708984 157.1418457 C-77.50092161 158.0894909 -100.66463535 151.04622662 -120.01171875 133.703125 C-135.13340294 119.51170148 -146.76979086 98.6005451 -147.82397461 77.52099609 C-148.3188376 59.53018275 -146.15108556 44.79557899 -139.69921875 28.015625 C-140.39402344 27.78101563 -141.08882813 27.54640625 -141.8046875 27.3046875 C-145.2461059 25.77207202 -148.05823423 23.68738088 -151.01171875 21.390625 C-151.83639648 20.76027344 -151.83639648 20.76027344 -152.67773438 20.1171875 C-154.02214043 19.08842461 -155.36123288 18.0527241 -156.69921875 17.015625 C-156.24999673 11.94037201 -153.72908572 9.01860392 -150.63671875 5.203125 C-149.92805664 4.3069043 -149.92805664 4.3069043 -149.20507812 3.39257812 C-148.04449369 1.92719374 -146.87293043 0.47051624 -145.69921875 -0.984375 C-140.62396576 -0.53515298 -137.70219767 1.98575803 -133.88671875 5.078125 C-133.28923828 5.55056641 -132.69175781 6.02300781 -132.07617188 6.50976562 C-130.61078749 7.67035006 -129.15410999 8.84191332 -127.69921875 10.015625 C-127.12816406 9.39816406 -126.55710937 8.78070313 -125.96875 8.14453125 C-92.42764106 -26.88966362 -37.72105657 -31.52445557 0 0 Z M-105.69921875 14.015625 C-106.45847656 14.69367188 -107.21773438 15.37171875 -108 16.0703125 C-120.78906899 28.15007178 -129.20464112 44.98438403 -129.9140625 62.62109375 C-130.44015882 82.76251852 -125.49142909 100.83533353 -111.69921875 116.015625 C-111.04566406 116.76070313 -110.39210938 117.50578125 -109.71875 118.2734375 C-97.58495597 131.3133983 -80.18565631 139.03586594 -62.46484375 140.234375 C-42.74567504 140.7602195 -24.135329 134.05360013 -9.70678711 120.54541016 C1.10066454 109.99479698 7.20418984 98.48555948 11.30078125 84.015625 C11.47891357 83.39405518 11.6570459 82.77248535 11.84057617 82.13208008 C14.86130838 68.23991696 12.77947574 52.95017369 7.30078125 40.015625 C6.90503906 39.06558594 6.50929688 38.11554688 6.1015625 37.13671875 C-1.82283023 19.89260833 -17.07082086 6.91155024 -34.5390625 0.08203125 C-59.48140552 -8.33485335 -85.96293844 -3.68407854 -105.69921875 14.015625 Z " fill="#FFFFFF" transform="translate(441.69921875,207.984375)"/>
<path d="M0 0 C4.06346835 3.36354078 7.41689357 6.93120766 10.6875 11.0625 C15.40409641 10.3324126 19.09076986 7.41134037 22.99804688 4.85742188 C27.37995875 2.0625 27.37995875 2.0625 30.6875 2.0625 C32.546875 4.328125 32.546875 4.328125 34.4375 7.3125 C35.07171875 8.28703125 35.7059375 9.2615625 36.359375 10.265625 C37.6875 13.0625 37.6875 13.0625 37.48168945 15.08496094 C36.49629093 17.53861235 35.55917096 18.1546 33.30859375 19.5 C32.63505859 19.92023438 31.96152344 20.34046875 31.26757812 20.7734375 C29.83632358 21.63453868 28.4040257 22.49390801 26.97070312 23.3515625 C25.96233398 23.98191406 25.96233398 23.98191406 24.93359375 24.625 C24.31154053 24.99753906 23.6894873 25.37007813 23.04858398 25.75390625 C22.59942627 26.18574219 22.15026855 26.61757813 21.6875 27.0625 C21.6875 31.01865524 22.31576012 34.15385136 23.1875 38 C27.08916316 56.66997937 23.62462508 73.95152409 13.6875 90.0625 C3.51020094 104.9257497 -10.61503309 114.10916962 -28.05859375 118.3671875 C-46.01395493 121.71748396 -64.79581752 118.84963218 -80.3125 109.0625 C-95.1138558 98.76128735 -105.18478016 84.40941041 -109.125 66.6875 C-112.66786569 46.64500268 -108.60273786 28.7912074 -97.29296875 12.078125 C-87.3109134 -0.91626658 -72.95779811 -10.90554704 -56.58251953 -13.65625 C-35.67382991 -16.24678672 -16.92179791 -13.01870464 0 0 Z M-84.3125 18.0625 C-93.41304121 29.65133451 -97.30473758 43.44103679 -96.3125 58.0625 C-94.28952311 73.00283392 -87.15909225 86.24808375 -75.18359375 95.47265625 C-63.05926021 104.04533013 -50.2166928 107.5747455 -35.3125 106.0625 C-25.73533431 104.34064787 -18.09687917 100.84046496 -10.3125 95.0625 C-9.65636719 94.58941406 -9.00023437 94.11632812 -8.32421875 93.62890625 C1.66048891 85.81382464 8.37551381 72.98123778 10.40625 60.58203125 C12.09762266 45.43015114 8.44373126 31.6250174 -0.625 19.375 C-9.56585204 8.50460511 -22.06550522 0.38028968 -36.32958984 -1.15454102 C-55.44789781 -2.27657235 -71.12760297 4.01338283 -84.3125 18.0625 Z " fill="#FFFFFF" transform="translate(181.3125,369.9375)"/>
</svg>
