<?xml version="1.0" encoding="UTF-8"?>
<svg version="1.1" xmlns="http://www.w3.org/2000/svg" width="24" height="24">
<path d="M0 0 C3.55280259 1.63975504 6.74626074 3.22559858 9.4375 6.125 C10.375 9.625 10.375 9.625 9.4375 13.125 C6.39178335 16.09785261 3.16314266 18.04082231 -1.125 18.25 C-4.55425629 16.66726633 -7.96165502 14.90573051 -10.5625 12.125 C-10.5625 9.79166667 -10.5625 7.45833333 -10.5625 5.125 C-7.52770919 2.38389862 -4.12065488 0.20100755 0 0 Z M-4.1875 5.625 C-4.97125 6.45 -5.755 7.275 -6.5625 8.125 C-4.36417287 9.86166727 -4.36417287 9.86166727 -1.5625 11.125 C2.29054802 10.22894232 3.20519266 9.47346101 5.4375 6.125 C0.47178602 2.56167359 0.47178602 2.56167359 -4.1875 5.625 Z " fill="#FFFFFF" transform="translate(12.5625,2.875)"/>
</svg>
