<?xml version="1.0" encoding="UTF-8"?>
<svg version="1.1" xmlns="http://www.w3.org/2000/svg" width="500" height="500">
<path d="M0 0 C18.9059763 -0.51548438 37.8105152 -0.90260612 56.72207737 -1.13986778 C65.50486103 -1.25300045 74.28326342 -1.40699289 83.06323242 -1.65966797 C90.72246157 -1.87998335 98.37851853 -2.02110658 106.04082817 -2.06994689 C110.09463461 -2.09848082 114.13937399 -2.16469403 118.19024849 -2.32606125 C142.71732856 -3.26563708 142.71732856 -3.26563708 149.79255295 2.1293869 C154.53217517 7.26480938 157.72782264 12.99660967 160.67132378 19.29600143 C162.63088082 23.2839101 165.1440337 26.79078507 167.75 30.375 C168.63344925 31.65140875 169.51408899 32.92977143 170.390625 34.2109375 C170.81923828 34.83323242 171.24785156 35.45552734 171.68945312 36.09667969 C173.96155061 39.39646956 176.23057913 42.69836901 178.5 46 C179.41665286 47.33334282 180.33331951 48.66667617 181.25 50 C201.41666667 79.33333333 221.58333333 108.66666667 241.75 138 C242.20383057 138.66008057 242.65766113 139.32016113 243.12524414 140.00024414 C244.04123518 141.33266869 244.95708821 142.66518813 245.87280273 143.99780273 C248.17368007 147.34583491 250.47698476 150.6921478 252.78515625 154.03515625 C258.94609709 162.96511991 265.00906184 171.95511288 271 181 C274.74888398 179.75037201 275.64619319 178.22103014 278.0625 175.125 C281.25774361 171.11670413 284.51929973 167.26849608 288 163.5 C292.11378909 159.0301488 295.97087297 154.40955107 299.78515625 149.68359375 C302.66480887 146.19449084 305.70693876 142.87003079 308.75390625 139.52734375 C311.06187598 136.93037607 313.25555863 134.26595987 315.4375 131.5625 C319.29708603 126.79003797 323.37199991 122.26890891 327.52734375 117.75390625 C330.74709519 114.16792716 333.75905176 110.43298508 336.78515625 106.68359375 C339.66480887 103.19449084 342.70693876 99.87003079 345.75390625 96.52734375 C348.06187598 93.93037607 350.25555863 91.26595987 352.4375 88.5625 C356.29708603 83.79003797 360.37199991 79.26890891 364.52734375 74.75390625 C367.74709519 71.16792716 370.75905176 67.43298508 373.78515625 63.68359375 C376.66480887 60.19449084 379.70693876 56.87003079 382.75390625 53.52734375 C385.06187598 50.93037607 387.25555863 48.26595987 389.4375 45.5625 C393.29708603 40.79003797 397.37199991 36.26890891 401.52734375 31.75390625 C404.74394094 28.17144018 407.75284978 24.43992408 410.77734375 20.6953125 C413.63690943 17.22764937 416.63187628 13.89884798 419.6640625 10.58203125 C421.93605245 8.1762132 421.93605245 8.1762132 423.38926697 6.02531433 C427.57799125 0.42418438 427.57799125 0.42418438 431.36340332 -0.70500183 C434.11755283 -0.92343178 436.76719559 -0.90144444 439.52734375 -0.78125 C440.51626114 -0.76993042 441.50517853 -0.75861084 442.52406311 -0.74694824 C445.66389726 -0.70237879 448.79906109 -0.60205523 451.9375 -0.5 C454.07350147 -0.45984777 456.20957496 -0.42335006 458.34570312 -0.390625 C463.56537917 -0.30271031 468.78235597 -0.16907634 474 0 C473.59284256 0.47354416 473.18568512 0.94708832 472.76618958 1.4349823 C472.22951157 2.05996109 471.69283356 2.68493988 471.13989258 3.32885742 C470.34353142 4.25573616 470.34353142 4.25573616 469.53108215 5.20133972 C467.54150682 7.53862131 465.61328221 9.9224991 463.6875 12.3125 C460.00681236 16.83166924 456.17151938 21.16625343 452.24609375 25.47265625 C449.93812402 28.06962393 447.74444137 30.73404013 445.5625 33.4375 C441.70291397 38.20996203 437.62800009 42.73109109 433.47265625 47.24609375 C430.25290481 50.83207284 427.24094824 54.56701492 424.21484375 58.31640625 C421.33519113 61.80550916 418.29306124 65.12996921 415.24609375 68.47265625 C412.93812402 71.06962393 410.74444137 73.73404013 408.5625 76.4375 C404.70291397 81.20996203 400.62800009 85.73109109 396.47265625 90.24609375 C393.25290481 93.83207284 390.24094824 97.56701492 387.21484375 101.31640625 C385.04367173 103.94708557 382.79758643 106.47942424 380.5 109 C377.38541332 112.41739372 374.4081338 115.9052235 371.5 119.5 C367.88850866 123.96420457 364.11339306 128.23002114 360.24609375 132.47265625 C357.93812402 135.06962393 355.74444137 137.73404013 353.5625 140.4375 C349.70291397 145.20996203 345.62800009 149.73109109 341.47265625 154.24609375 C338.25290481 157.83207284 335.24094824 161.56701492 332.21484375 165.31640625 C329.33519113 168.80550916 326.29306124 172.12996921 323.24609375 175.47265625 C320.93812402 178.06962393 318.74444137 180.73404013 316.5625 183.4375 C312.71394946 188.19631641 308.65199839 192.70558796 304.5078125 197.20703125 C300.5027676 201.66747845 296.74681784 206.32100284 293 211 C294.30399814 214.61938995 295.85678084 217.38647029 298.1875 220.4375 C302.38485841 226.08485495 306.3599745 231.8665079 310.3125 237.6875 C310.96468506 238.6472876 311.61687012 239.6070752 312.28881836 240.59594727 C313.58744674 242.50734625 314.88587166 244.41888349 316.18408203 246.33056641 C318.6940811 250.02031228 321.21935407 253.69939504 323.75 257.375 C324.18803955 258.01139404 324.6260791 258.64778809 325.07739258 259.3034668 C325.9479539 260.56795752 326.81863933 261.83236282 327.68945312 263.09667969 C329.96155061 266.39646956 332.23057913 269.69836901 334.5 273 C335.41665286 274.33334282 336.33331951 275.66667617 337.25 277 C342.75 285 348.25 293 353.75 301 C354.20358887 301.6597583 354.65717773 302.3195166 355.12451172 302.99926758 C356.04283361 304.33502333 356.9611278 305.67079812 357.87939453 307.0065918 C360.14551157 310.30301745 362.41208059 313.59913027 364.6796875 316.89453125 C370.18518464 324.89670733 375.67634388 332.90854995 381.15917969 340.92626953 C385.98034499 347.97489904 390.81630573 355.013269 395.65722656 362.04833984 C397.93908519 365.36491764 400.21945755 368.6825171 402.5 372 C403.41665976 373.33333808 404.33332642 374.66667142 405.25 376 C435.5 420 435.5 420 465.75 464 C466.20431396 464.66080566 466.65862793 465.32161133 467.12670898 466.00244141 C468.03773437 467.32759868 468.94870497 468.65279362 469.85961914 469.97802734 C472.23713549 473.43677493 474.61577408 476.89474345 476.99609375 480.3515625 C477.48851562 481.06699219 477.9809375 481.78242188 478.48828125 482.51953125 C479.4241235 483.87915113 480.36029769 485.23854262 481.296875 486.59765625 C482.13846368 487.82062952 482.97824159 489.0448515 483.81591797 490.27050781 C484.60617927 491.42477814 485.40210927 492.57518754 486.20361328 493.72167969 C489 497.77821961 489 497.77821961 489 500 C470.00692478 500.3509113 451.01450995 500.61515599 432.01886177 500.77718258 C423.19799361 500.85442683 414.379143 500.95966077 405.55957031 501.1315918 C397.86927607 501.28143649 390.18044289 501.37794778 382.48872936 501.41132742 C378.41767905 501.43083393 374.35080692 501.47640802 370.28110123 501.58595085 C345.51203457 502.22751794 345.51203457 502.22751794 339.67769432 498.527071 C335.68881512 494.59793941 333.86818849 490.19816616 332 485 C330.48508554 482.51088425 330.48508554 482.51088425 329.00390625 480.59765625 C328.5965625 480.00662109 328.18921875 479.41558594 327.76953125 478.80664062 C327.37121094 478.23107422 326.97289062 477.65550781 326.5625 477.0625 C325.63668832 475.72007307 324.710908 474.37762451 323.78515625 473.03515625 C323.32512207 472.36887207 322.86508789 471.70258789 322.39111328 471.01611328 C320.08955816 467.68051444 317.795121 464.34002759 315.5 461 C314.58336788 459.66664292 313.6667012 458.33330959 312.75 457 C292.58333333 427.66666667 272.41666667 398.33333333 252.25 369 C251.79641113 368.3402417 251.34282227 367.6804834 250.87548828 367.00073242 C249.95716639 365.66497667 249.0388722 364.32920188 248.12060547 362.9934082 C245.85448843 359.69698255 243.58791941 356.40086973 241.3203125 353.10546875 C235.77434019 345.04436879 230.23950554 336.97579254 224.72436523 328.89355469 C222.22866834 325.23977314 219.72369042 321.59417687 217.17578125 317.9765625 C216.53987061 317.07103638 216.53987061 317.07103638 215.89111328 316.1472168 C214.76845204 314.55249131 213.64029601 312.961638 212.51171875 311.37109375 C211 309 211 309 211 307 C210.34 307 209.68 307 209 307 C208.76410156 307.55558594 208.52820313 308.11117188 208.28515625 308.68359375 C206.6872248 311.56375591 204.694995 313.66369076 202.4375 316.0625 C198.96608181 319.79595956 195.6408372 323.59216657 192.4375 327.5625 C188.84917586 332.00849037 185.0940452 336.25124677 181.24609375 340.47265625 C178.93812402 343.06962393 176.74444137 345.73404013 174.5625 348.4375 C170.70291397 353.20996203 166.62800009 357.73109109 162.47265625 362.24609375 C159.25290481 365.83207284 156.24094824 369.56701492 153.21484375 373.31640625 C151.04367173 375.94708557 148.79758643 378.47942424 146.5 381 C143.38541332 384.41739372 140.4081338 387.9052235 137.5 391.5 C133.88850866 395.96420457 130.11339306 400.23002114 126.24609375 404.47265625 C123.93812402 407.06962393 121.74444137 409.73404013 119.5625 412.4375 C115.70291397 417.20996203 111.62800009 421.73109109 107.47265625 426.24609375 C104.25290481 429.83207284 101.24094824 433.56701492 98.21484375 437.31640625 C95.33519113 440.80550916 92.29306124 444.12996921 89.24609375 447.47265625 C86.93812402 450.06962393 84.74444137 452.73404013 82.5625 455.4375 C78.70291397 460.20996203 74.62800009 464.73109109 70.47265625 469.24609375 C67.257269 472.82721225 64.24929901 476.55707402 61.2265625 480.30078125 C58.33605752 483.80488465 55.3051322 487.16576897 52.23828125 490.515625 C50.07520857 492.79774469 50.07520857 492.79774469 48.82789612 494.74983215 C46.79341199 497.60005249 45.22277547 499.66307345 41.76441956 500.61599731 C39.08010141 500.80903782 36.47831277 500.78790094 33.7890625 500.68359375 C32.82092621 500.67368912 31.85278992 500.66378448 30.85531616 500.65357971 C27.77697307 500.61453605 24.70225656 500.52673419 21.625 500.4375 C19.53260375 500.40237313 17.44015135 500.37043653 15.34765625 500.34179688 C10.23038326 500.26480668 5.11580544 500.14409381 0 500 C1.86238691 496.02929081 4.4387887 492.96441059 7.3125 489.6875 C8.10720703 488.77097656 8.10720703 488.77097656 8.91796875 487.8359375 C10.04069376 486.54190469 11.16524954 485.24945832 12.29150391 483.95849609 C14.49358942 481.43418486 16.68668793 478.90215208 18.87988281 476.37011719 C19.96597426 475.11643116 21.05256844 473.8631805 22.13964844 472.61035156 C27.78901829 466.09858535 33.39606911 459.55086574 39 453 C45.68901674 445.18069397 52.39748756 437.37934454 59.14208984 429.60791016 C64.79007108 423.09645732 70.39681312 416.54999602 76 410 C82.68901674 402.18069397 89.39748756 394.37934454 96.14208984 386.60791016 C101.79007108 380.09645732 107.39681312 373.54999602 113 367 C119.68901674 359.18069397 126.39748756 351.37934454 133.14208984 343.60791016 C138.79007108 337.09645732 144.39681312 330.54999602 150 324 C156.14610796 316.81534179 162.3035068 309.64128311 168.5 302.5 C169.5794768 301.25394932 170.65890394 300.00785562 171.73828125 298.76171875 C173.95975407 296.1973475 176.18755617 293.63862813 178.41796875 291.08203125 C179.50799861 289.82568228 180.59784911 288.56917767 181.6875 287.3125 C182.1928125 286.73628906 182.698125 286.16007812 183.21875 285.56640625 C185.5868762 282.82642552 187.46565999 280.27129552 189 277 C181.46202577 265.97392891 173.91417565 254.95480457 166.34277344 243.95166016 C164.06091481 240.63508236 161.78054245 237.3174829 159.5 234 C158.58334024 232.66666192 157.66667358 231.33332858 156.75 230 C148.5 218 148.5 218 140.25 206 C139.79641113 205.3402417 139.34282227 204.6804834 138.87548828 204.00073242 C137.95716639 202.66497667 137.0388722 201.32920188 136.12060547 199.9934082 C133.85448843 196.69698255 131.58791941 193.40086973 129.3203125 190.10546875 C123.81481536 182.10329267 118.32365612 174.09145005 112.84082031 166.07373047 C108.01965501 159.02510096 103.18369427 151.986731 98.34277344 144.95166016 C96.06091481 141.63508236 93.78054245 138.3174829 91.5 135 C90.58334024 133.66666192 89.66667358 132.33332858 88.75 131 C28.25 43 28.25 43 26.87451172 40.99926758 C25.9595003 39.66835665 25.04446131 38.33746466 24.12939453 37.0065918 C21.81217419 33.63635196 19.49546068 30.26576567 17.1796875 26.89453125 C16.71473877 26.21793457 16.24979004 25.54133789 15.77075195 24.84423828 C14.84945867 23.50314982 13.92871157 22.16168596 13.00854492 20.81982422 C10.79305667 17.59226339 8.56525809 14.3747164 6.30859375 11.17578125 C5.88723145 10.57596436 5.46586914 9.97614746 5.03173828 9.3581543 C3.88531363 7.72850499 2.7338413 6.10240996 1.58203125 4.4765625 C0 2 0 2 0 0 Z M60 33 C61.0978099 34.73513196 62.19694853 36.46942327 63.29663086 38.20336914 C63.90856796 39.16924454 64.52050507 40.13511993 65.15098572 41.13026428 C67.84508207 45.31159733 70.69012749 49.37747986 73.5625 53.4375 C74.79303326 55.18615252 76.02350012 56.93485177 77.25390625 58.68359375 C77.87539551 59.56515137 78.49688477 60.44670898 79.13720703 61.35498047 C82.10099426 65.56332527 85.05000357 69.78198258 88 74 C89.16659013 75.66672024 90.33325694 77.33338681 91.5 79 C102 94 102 94 112.5 109 C113.07733887 109.8247583 113.65467773 110.6495166 114.24951172 111.49926758 C115.41784967 113.16834507 116.58614384 114.83745322 117.75439453 116.5065918 C120.64513489 120.63662338 123.53659854 124.76614446 126.4296875 128.89453125 C133.31728062 138.72500507 140.18294378 148.57042296 147.03417969 158.42626953 C153.09800618 167.14686679 159.18658311 175.84996444 165.28222656 184.54833984 C168.1896209 188.69786428 171.09468001 192.84902306 174 197 C175.16665575 198.66667431 176.33332241 200.33334098 177.5 202 C184.5 212 191.5 222 198.5 232 C199.07733887 232.8247583 199.65467773 233.6495166 200.24951172 234.49926758 C201.41784967 236.16834507 202.58614384 237.83745322 203.75439453 239.5065918 C206.64513489 243.63662338 209.53659854 247.76614446 212.4296875 251.89453125 C219.31728062 261.72500507 226.18294378 271.57042296 233.03417969 281.42626953 C239.09800618 290.14686679 245.18658311 298.84996444 251.28222656 307.54833984 C254.1896209 311.69786428 257.09468001 315.84902306 260 320 C261.16665575 321.66667431 262.33332241 323.33334098 263.5 325 C265.83333333 328.33333333 268.16666667 331.66666667 270.5 335 C271.07733887 335.8247583 271.65467773 336.6495166 272.24951172 337.49926758 C273.41784967 339.16834507 274.58614384 340.83745322 275.75439453 342.5065918 C278.64513489 346.63662338 281.53659854 350.76614446 284.4296875 354.89453125 C291.31728062 364.72500507 298.18294378 374.57042296 305.03417969 384.42626953 C311.09800618 393.14686679 317.18658311 401.84996444 323.28222656 410.54833984 C325.60474196 413.8631067 327.92572368 417.17894587 330.24658203 420.49487305 C331.41149028 422.15918988 332.57652843 423.82341579 333.74169922 425.48754883 C336.71009523 429.72722344 339.67679742 433.96806775 342.640625 438.2109375 C348.00530749 445.88826918 353.37483527 453.56160408 358.8125 461.1875 C359.22725586 461.76999512 359.64201172 462.35249023 360.06933594 462.95263672 C361.89823747 465.58830543 361.89823747 465.58830543 364 468 C365.9943173 468.09405142 367.99199543 468.11743249 369.98852539 468.11352539 C371.91040428 468.11341209 371.91040428 468.11341209 373.87110901 468.11329651 C375.27995848 468.10818909 376.68880756 468.10297309 378.09765625 468.09765625 C379.53112234 468.09579202 380.96458907 468.09436814 382.39805603 468.09336853 C386.17759957 468.08954372 389.9571049 468.07971377 393.7366333 468.06866455 C397.59069298 468.05844963 401.44475882 468.05387074 405.29882812 468.04882812 C412.86590287 468.03809146 420.43294609 468.02101549 428 468 C426.52708104 464.99295856 424.90719011 462.26645719 423.015625 459.5 C422.11831665 458.18491455 422.11831665 458.18491455 421.20288086 456.84326172 C420.55843018 455.90498535 419.91397949 454.96670898 419.25 454 C418.5804126 453.0217627 417.9108252 452.04352539 417.22094727 451.03564453 C411.11874499 442.13740672 404.93957123 433.29402487 398.73388672 424.46777344 C395.81675559 420.31593432 392.90887754 416.15762377 390 412 C388.83337702 410.33330275 387.66671037 408.66663607 386.5 407 C379.5 397 372.5 387 365.5 377 C364.92266113 376.1752417 364.34532227 375.3504834 363.75048828 374.50073242 C362.58215033 372.83165493 361.41385616 371.16254678 360.24560547 369.4934082 C357.35486511 365.36337662 354.46340146 361.23385554 351.5703125 357.10546875 C344.68271938 347.27499493 337.81705622 337.42957704 330.96582031 327.57373047 C324.90199382 318.85313321 318.81341689 310.15003556 312.71777344 301.45166016 C309.8103791 297.30213572 306.90531999 293.15097694 304 289 C302.83334425 287.33332569 301.66667759 285.66665902 300.5 284 C293.5 274 286.5 264 279.5 254 C278.92266113 253.1752417 278.34532227 252.3504834 277.75048828 251.50073242 C276.58215033 249.83165493 275.41385616 248.16254678 274.24560547 246.4934082 C271.35486511 242.36337662 268.46340146 238.23385554 265.5703125 234.10546875 C258.68271938 224.27499493 251.81705622 214.42957704 244.96582031 204.57373047 C238.90199382 195.85313321 232.81341689 187.15003556 226.71777344 178.45166016 C223.8103791 174.30213572 220.90531999 170.15097694 218 166 C216.83334425 164.33332569 215.66667759 162.66665902 214.5 161 C212.16666667 157.66666667 209.83333333 154.33333333 207.5 151 C206.6339917 149.76286255 206.6339917 149.76286255 205.75048828 148.50073242 C204.58215033 146.83165493 203.41385616 145.16254678 202.24560547 143.4934082 C199.35486511 139.36337662 196.46340146 135.23385554 193.5703125 131.10546875 C186.68271938 121.27499493 179.81705622 111.42957704 172.96582031 101.57373047 C166.90199382 92.85313321 160.81341689 84.15003556 154.71777344 75.45166016 C151.81037909 71.3021357 148.90534706 67.150958 146 63 C145.47538177 62.28419769 144.95076355 61.56839539 144.4102478 60.8309021 C141.33704469 56.57646544 138.64749277 52.45480342 136.42724609 47.69238281 C133.49428494 41.86524929 130.45193595 36.76462542 125 33 C115.04256436 29.9346879 104.17546342 31.01261935 93.90716553 31.62670898 C90.08096663 31.83341439 86.25207689 31.92307295 82.421875 32.0234375 C74.94062274 32.23633117 67.47259847 32.57627764 60 33 Z " fill="#000000" transform="translate(6,0)"/>
</svg>
