<?xml version="1.0" standalone="no"?>
<!DOCTYPE svg PUBLIC "-//W3C//DTD SVG 20010904//EN"
 "http://www.w3.org/TR/2001/REC-SVG-20010904/DTD/svg10.dtd">
<svg version="1.0" xmlns="http://www.w3.org/2000/svg"
 width="32.000000pt" height="32.000000pt" viewBox="0 0 32.000000 32.000000"
 preserveAspectRatio="xMidYMid meet">

<g transform="translate(0.000000,32.000000) scale(0.100000,-0.100000)"
fill="#000000" stroke="none">
<path d="M250 191 c0 -48 -2 -51 -25 -51 -21 0 -25 -5 -25 -31 0 -31 0 -32 42
-26 56 7 70 28 66 97 -3 52 -5 55 -30 58 -27 3 -28 2 -28 -47z m45 -23 c-9
-67 -10 -68 -51 -68 -24 0 -34 5 -34 15 0 9 9 15 25 15 23 0 25 4 25 45 0 39
3 45 21 45 19 0 20 -4 14 -52z"/>
<path d="M46 161 l-35 -69 32 -5 c18 -2 38 0 45 6 9 7 16 7 24 -1 7 -7 25 -12
41 -12 29 0 29 1 23 38 -3 20 -11 54 -16 75 -10 34 -14 37 -45 37 -33 0 -37
-4 -69 -69z m104 17 c6 -24 13 -51 16 -60 4 -14 -1 -18 -21 -18 -18 0 -29 6
-32 20 -3 11 -9 20 -13 20 -5 0 -12 -9 -15 -20 -4 -13 -15 -20 -31 -20 l-24 0
30 60 c25 49 35 60 55 60 20 0 26 -7 35 -42z"/>
</g>
</svg>
