<?xml version="1.0" standalone="no"?>
<!DOCTYPE svg PUBLIC "-//W3C//DTD SVG 20010904//EN"
 "http://www.w3.org/TR/2001/REC-SVG-20010904/DTD/svg10.dtd">
<svg version="1.0" xmlns="http://www.w3.org/2000/svg"
 width="16.000000pt" height="16.000000pt" viewBox="0 0 16.000000 16.000000"
 preserveAspectRatio="xMidYMid meet">

<g transform="translate(0.000000,16.000000) scale(0.100000,-0.100000)"
fill="#000000" stroke="none">
<path d="M113 73 c-20 -8 -15 -33 6 -33 11 0 22 4 25 9 4 5 -4 7 -16 3 -21 -5
-22 -4 -9 11 14 18 14 19 -6 10z"/>
<path d="M80 61 c0 -5 -16 -8 -35 -7 -19 2 -35 0 -35 -4 0 -4 18 -7 40 -7 27
0 40 4 40 13 0 8 -2 14 -5 14 -3 0 -5 -4 -5 -9z"/>
</g>
</svg>
