<?xml version="1.0" standalone="no"?>
<!DOCTYPE svg PUBLIC "-//W3C//DTD SVG 20010904//EN"
 "http://www.w3.org/TR/2001/REC-SVG-20010904/DTD/svg10.dtd">
<svg version="1.0" xmlns="http://www.w3.org/2000/svg"
 width="250.000000pt" height="150.000000pt" viewBox="0 0 250.000000 150.000000"
 preserveAspectRatio="xMidYMid meet">

<g transform="translate(0.000000,150.000000) scale(0.100000,-0.100000)"
fill="#000000" stroke="none">
<path d="M1948 1036 l3 -445 -27 -18 c-25 -16 -51 -18 -209 -18 l-180 0 3
-190 c1 -104 5 -223 9 -262 l5 -73 232 0 c128 0 259 5 291 11 122 22 215 94
266 202 68 147 79 262 79 820 l0 417 -237 0 -238 0 3 -444z m366 -83 c-3 -219
-9 -434 -15 -477 -20 -148 -72 -240 -163 -289 -38 -20 -58 -22 -262 -25 l-221
-3 -7 23 c-3 13 -6 73 -6 135 l0 112 143 3 c171 4 207 17 245 90 23 45 23 46
22 437 l0 391 134 0 134 0 -4 -397z"/>
<path d="M303 738 l-280 -683 66 -6 c36 -4 178 -8 316 -10 l250 -4 45 147 c25
81 47 148 50 148 3 0 25 -66 50 -147 l45 -148 298 -3 c271 -2 297 -1 297 14 0
16 -275 1321 -286 1357 -5 16 -28 17 -288 17 l-283 0 -280 -682z m889 -8 c65
-305 118 -558 118 -563 0 -4 -89 -6 -197 -5 l-197 3 -80 258 c-44 141 -82 257
-86 257 -3 0 -42 -116 -85 -257 l-80 -258 -195 4 c-107 2 -196 4 -198 6 -2 1
100 253 225 559 l228 556 214 -2 214 -3 119 -555z"/>
</g>
</svg>
