<?xml version="1.0" standalone="no"?>
<!DOCTYPE svg PUBLIC "-//W3C//DTD SVG 20010904//EN"
 "http://www.w3.org/TR/2001/REC-SVG-20010904/DTD/svg10.dtd">
<svg version="1.0" xmlns="http://www.w3.org/2000/svg"
 width="160.000000pt" height="160.000000pt" viewBox="0 0 160.000000 160.000000"
 preserveAspectRatio="xMidYMid meet">

<g transform="translate(0.000000,160.000000) scale(0.100000,-0.100000)"
fill="#000000" stroke="none">
<path d="M1245 962 c6 -206 5 -230 -10 -245 -13 -14 -37 -17 -131 -17 l-114 0
0 -124 c0 -68 3 -131 6 -139 5 -13 30 -14 167 -11 201 6 239 15 294 70 68 69
75 104 81 422 l4 272 -152 0 -153 0 8 -228z m223 -85 c-3 -236 -4 -244 -28
-291 -39 -76 -75 -90 -241 -94 -156 -4 -149 -9 -149 96 l0 54 40 -7 c23 -4 68
-4 102 0 49 6 68 13 90 35 l28 28 0 211 0 211 81 0 80 0 -3 -243z"/>
<path d="M273 913 c-161 -331 -223 -463 -223 -474 0 -5 83 -9 194 -9 l195 0
19 52 c11 29 23 63 26 76 10 32 18 23 46 -57 l24 -71 189 0 c175 0 188 1 183
18 -3 9 -39 154 -81 322 -42 168 -80 322 -86 343 l-10 37 -180 0 -180 0 -116
-237z m496 -108 c39 -157 71 -292 71 -300 0 -13 -19 -15 -119 -15 l-118 0 -48
133 c-27 72 -51 135 -55 139 -3 4 -29 -54 -56 -130 l-51 -137 -119 4 c-65 2
-120 4 -122 6 -1 1 61 133 139 294 l142 291 132 0 133 0 71 -285z"/>
</g>
</svg>
